<svg  viewBox="0 0 27 32" fill="none" xmlns="http://www.w3.org/2000/svg">
<g id="Group 427322110">
<g id="Group">
<path id="Vector" fill-rule="evenodd" clip-rule="evenodd" d="M11.7978 0.0334738C17.8484 -0.317114 22.5187 2.08621 25.8085 7.24322C26.4698 8.48438 26.8545 9.81151 26.9629 11.2247C27.1148 14.9634 26.8 18.658 26.0184 22.3084C25.836 22.7109 25.5736 23.0517 25.2313 23.3306C24.3567 23.7969 23.4821 24.2633 22.6076 24.7296C22.1088 25.0253 21.6715 25.4019 21.2957 25.8594C21.1196 27.3738 20.8747 28.8803 20.5611 30.379C19.9143 31.8559 18.8472 32.3043 17.3601 31.7241C17.0833 30.9328 16.751 30.1616 16.3631 29.4105C16.067 28.9625 15.6647 28.8011 15.1562 28.9263C14.6264 29.326 14.2591 29.8461 14.0542 30.4866C13.6694 30.917 13.2846 30.917 12.8998 30.4866C12.6912 29.8433 12.3239 29.3231 11.7978 28.9263C11.1838 28.8018 10.7464 29.0348 10.4859 29.6257C10.2068 30.0899 10.0318 30.5922 9.9612 31.1322C9.69505 31.7623 9.22278 32.0493 8.54439 31.9931C7.44935 31.9297 6.73224 31.3557 6.39294 30.2714C6.03328 28.8602 5.82338 27.4255 5.76324 25.967C5.39939 25.5548 4.99712 25.1782 4.55633 24.8372C3.64348 24.3692 2.734 23.9029 1.82766 23.4383C1.24047 22.9442 0.873145 22.3165 0.725692 21.5551C-0.0127292 17.7045 -0.187574 13.8306 0.200947 9.93343C0.376527 9.07041 0.656426 8.24538 1.04054 7.45844C3.50999 3.29605 7.09578 0.821058 11.7978 0.0334738Z" fill="#611515"/>
</g>
<g id="Group_2">
<path id="Vector_2" fill-rule="evenodd" clip-rule="evenodd" d="M8.44025 9.6106C10.2115 9.45845 11.156 10.2835 11.2739 12.0856C11.1514 13.734 10.6442 15.2406 9.75211 16.6051C8.42294 17.9396 7.00612 18.0292 5.50168 16.8742C5.02941 16.3899 4.55714 15.9057 4.08487 15.4214C2.94596 13.6568 3.20834 12.1682 4.87199 10.9557C5.994 10.2895 7.18349 9.84121 8.44025 9.6106Z" fill="#FB2626"/>
</g>
<g id="Group_3">
<path id="Vector_3" fill-rule="evenodd" clip-rule="evenodd" d="M17.2553 9.61053C19.1131 9.64723 20.8272 10.1673 22.3978 11.1709C23.7842 12.2741 24.0116 13.5832 23.0799 15.0986C22.2003 16.5944 20.9235 17.4553 19.2493 17.6811C18.4739 17.6334 17.8267 17.3105 17.3077 16.7127C16.1335 15.0374 15.6437 13.1721 15.8384 11.117C16.1204 10.4156 16.5927 9.91334 17.2553 9.61053Z" fill="#FB2626"/>
</g>
<g id="Group_4">
<path id="Vector_4" fill-rule="evenodd" clip-rule="evenodd" d="M13.267 18.2192C13.8707 18.2691 14.343 18.5559 14.6839 19.0801C15.4363 20.0852 15.9961 21.1971 16.363 22.416C16.5366 23.0824 16.3092 23.5308 15.6809 23.7611C14.4693 24.0228 13.2449 24.0944 12.0077 23.9763C10.8688 23.8502 10.4314 23.2224 10.6958 22.0931C11.1194 20.9733 11.6791 19.9331 12.375 18.9725C12.6508 18.6809 12.9481 18.4297 13.267 18.2192Z" fill="#FB2626"/>
</g>
</g>
</svg>
