<svg viewBox="0 0 24 24" fill="none" xmlns="http://www.w3.org/2000/svg">
<g clip-path="url(#clip0_146_5089)">
<path opacity="0.98" fill-rule="evenodd" clip-rule="evenodd" d="M11.6953 -0.0234375C11.7891 -0.0234375 11.8828 -0.0234375 11.9766 -0.0234375C11.9766 1.39844 11.9766 2.82031 11.9766 4.24219C11.66 4.2458 11.4334 4.10517 11.2969 3.82031C11.2656 2.67969 11.2656 1.53906 11.2969 0.398437C11.376 0.202257 11.5088 0.0616317 11.6953 -0.0234375Z" fill="#FDA831"/>
<path fill-rule="evenodd" clip-rule="evenodd" d="M11.9766 -0.0234375C12.0703 -0.0234375 12.1641 -0.0234375 12.2578 -0.0234375C12.4443 0.0616317 12.5771 0.202257 12.6562 0.398437C12.6875 1.53906 12.6875 2.67969 12.6562 3.82031C12.5197 4.10517 12.2932 4.2458 11.9766 4.24219C11.9766 2.82031 11.9766 1.39844 11.9766 -0.0234375Z" fill="#FE9923"/>
<path opacity="0.939" fill-rule="evenodd" clip-rule="evenodd" d="M3.82073 3.30468C4.10391 3.26216 4.35391 3.33247 4.57073 3.51562C5.21916 4.16406 5.86763 4.81251 6.51605 5.46093C6.81314 5.8649 6.7897 6.24768 6.44573 6.60937C6.09647 6.78754 5.76834 6.75632 5.46136 6.51562C4.81294 5.8672 4.16448 5.21873 3.51605 4.57031C3.27535 4.26331 3.24411 3.93519 3.4223 3.58593C3.53113 3.45022 3.66395 3.35647 3.82073 3.30468Z" fill="#FDA831"/>
<path opacity="0.939" fill-rule="evenodd" clip-rule="evenodd" d="M19.7105 3.30469C20.5198 3.29333 20.7933 3.66833 20.5308 4.42969C19.8681 5.13929 19.1884 5.83458 18.4917 6.51563C18.0878 6.81273 17.705 6.78929 17.3433 6.44532C17.1903 6.16276 17.1903 5.88151 17.3433 5.60157C18.0822 4.77662 18.8712 4.011 19.7105 3.30469Z" fill="#FD9922"/>
<path opacity="0.993" fill-rule="evenodd" clip-rule="evenodd" d="M11.9764 5.64841C11.9764 10.8203 11.9764 15.9922 11.9764 21.164C11.398 21.1719 10.8199 21.164 10.242 21.1406C9.82954 21.0594 9.47015 20.8797 9.16386 20.6015C8.8078 20.3125 8.58125 19.9375 8.48418 19.4765C8.51746 18.5958 8.32996 17.7676 7.92168 16.9922C7.49779 16.5215 7.09152 16.0371 6.70293 15.539C5.54586 13.6786 5.3271 11.7098 6.04668 9.63279C6.95924 7.4862 8.56077 6.18148 10.8514 5.71873C11.2242 5.6614 11.5992 5.63796 11.9764 5.64841Z" fill="#FEDA40"/>
<path fill-rule="evenodd" clip-rule="evenodd" d="M11.9766 5.64844C14.6896 5.74275 16.635 7.00838 17.8125 9.44531C18.8205 12.2249 18.2893 14.6624 16.2188 16.7578C15.663 17.5738 15.4131 18.48 15.4688 19.4766C15.3612 19.9425 15.1346 20.3331 14.7891 20.6484C14.5296 20.8329 14.2484 20.9813 13.9453 21.0938C13.2912 21.1588 12.6349 21.1823 11.9766 21.1641C11.9766 15.9922 11.9766 10.8203 11.9766 5.64844Z" fill="#FFCC33"/>
<path opacity="0.979" fill-rule="evenodd" clip-rule="evenodd" d="M-0.0234375 12.2578C-0.0234375 12.0703 -0.0234375 11.8828 -0.0234375 11.6953C0.0616317 11.5088 0.202257 11.376 0.398437 11.2969C1.53906 11.2656 2.67969 11.2656 3.82031 11.2969C4.241 11.5384 4.35819 11.8899 4.17187 12.3516C4.08915 12.4909 3.97196 12.5925 3.82031 12.6563C2.67969 12.6875 1.53906 12.6875 0.398437 12.6563C0.202257 12.5771 0.0616317 12.4443 -0.0234375 12.2578Z" fill="#FDA831"/>
<path opacity="0.979" fill-rule="evenodd" clip-rule="evenodd" d="M23.9764 11.6953C23.9764 11.8828 23.9764 12.0703 23.9764 12.2578C23.8913 12.4443 23.7507 12.5771 23.5545 12.6563C22.4139 12.6875 21.2733 12.6875 20.1327 12.6563C19.712 12.4148 19.5948 12.0632 19.7811 11.6016C19.8638 11.4622 19.981 11.3606 20.1327 11.2969C21.2733 11.2656 22.4139 11.2656 23.5545 11.2969C23.7507 11.376 23.8913 11.5088 23.9764 11.6953Z" fill="#FD9922"/>
<path opacity="0.988" fill-rule="evenodd" clip-rule="evenodd" d="M9.16407 20.6016C9.47035 20.8797 9.82974 21.0594 10.2422 21.1406C10.8201 21.1641 11.3982 21.1719 11.9766 21.1641C11.9766 22.1016 11.9766 23.0391 11.9766 23.9766C11.586 23.9766 11.1953 23.9766 10.8047 23.9766C9.96169 23.7351 9.42263 23.1882 9.18751 22.3359C9.16407 21.758 9.15624 21.1799 9.16407 20.6016Z" fill="#FEA832"/>
<path fill-rule="evenodd" clip-rule="evenodd" d="M14.7891 20.6484C14.7969 21.2112 14.7891 21.7737 14.7656 22.3359C14.5305 23.1882 13.9914 23.7351 13.1484 23.9766C12.7578 23.9766 12.3672 23.9766 11.9766 23.9766C11.9766 23.0391 11.9766 22.1016 11.9766 21.1641C12.6349 21.1823 13.2912 21.1588 13.9453 21.0938C14.2484 20.9813 14.5296 20.8329 14.7891 20.6484Z" fill="#FE9923"/>
</g>
<defs>
<clipPath id="clip0_146_5089">
<rect width="24" height="24" fill="white"/>
</clipPath>
</defs>
</svg>
