<svg viewBox="0 0 28 28" fill="none" xmlns="http://www.w3.org/2000/svg">
<path opacity="0.993" fill-rule="evenodd" clip-rule="evenodd" d="M19.3863 1.01171C20.3371 2.32814 20.3279 3.64064 19.3589 4.94921C18.718 5.63406 17.925 5.96219 16.98 5.93359C16.0859 4.7334 16.0403 3.49382 16.8433 2.21484C17.4976 1.40921 18.3453 1.00817 19.3863 1.01171Z" fill="#FCD340"/>
<path fill-rule="evenodd" clip-rule="evenodd" d="M19.3867 1.01172C19.6248 1.04228 19.8617 1.07874 20.0977 1.12109C20.0916 1.15486 20.0734 1.1822 20.043 1.20313C20.9138 1.91918 21.2693 2.83976 21.1094 3.96484C20.8637 5.24972 20.1071 6.06091 18.8398 6.39844C18.4004 6.43869 17.9629 6.42955 17.5273 6.37109C17.4419 6.35835 17.369 6.32188 17.3086 6.26172C17.181 6.17056 17.0716 6.06118 16.9805 5.93359C17.9255 5.9622 18.7184 5.63407 19.3594 4.94922C20.3284 3.64065 20.3375 2.32815 19.3867 1.01172Z" fill="#FDC126"/>
<path opacity="0.99" fill-rule="evenodd" clip-rule="evenodd" d="M8.83197 4.40234C9.6764 5.61914 9.70375 6.85874 8.914 8.12109C8.28258 8.92434 7.45314 9.30716 6.42572 9.26953C6.05483 8.89235 5.827 8.43664 5.74213 7.90234C5.57036 6.10241 6.34511 4.94484 8.06635 4.42969C8.26749 4.40682 8.46803 4.37948 8.66791 4.34766C8.73496 4.34872 8.78965 4.36696 8.83197 4.40234Z" fill="#3C9BFE"/>
<path fill-rule="evenodd" clip-rule="evenodd" d="M8.83203 4.40234C9.0848 4.38353 9.32176 4.41999 9.54297 4.51171C9.51902 4.50814 9.50075 4.51725 9.48828 4.53906C10.7413 5.75476 10.9145 7.11287 10.0078 8.61328C9.21304 9.52437 8.21953 9.92539 7.02734 9.8164C6.91797 9.7435 6.80859 9.67055 6.69922 9.59765C6.56852 9.52158 6.47735 9.4122 6.42578 9.26953C7.4532 9.30715 8.28264 8.92434 8.91406 8.12109C9.7038 6.85874 9.67646 5.61913 8.83203 4.40234Z" fill="#2A86DB"/>
<path fill-rule="evenodd" clip-rule="evenodd" d="M9.54297 4.51171C10.8877 4.97487 11.5987 5.92276 11.6758 7.35546C11.6665 8.26694 11.3201 9.0143 10.6367 9.59765C10.215 9.89056 9.75926 10.1093 9.26953 10.2539C8.71314 10.3503 8.16627 10.3138 7.62891 10.1445C7.42328 10.0507 7.22274 9.94131 7.02734 9.8164C8.21953 9.92539 9.21304 9.52437 10.0078 8.61327C10.9145 7.11287 10.7413 5.75476 9.48828 4.53906C9.50075 4.51725 9.51902 4.50814 9.54297 4.51171Z" fill="#067AC1"/>
<path fill-rule="evenodd" clip-rule="evenodd" d="M20.0977 1.12109C21.767 1.78112 22.4506 3.00248 22.1484 4.78516C22.0509 5.08963 21.9233 5.38129 21.7656 5.66016C21.5803 5.87245 21.4071 6.0912 21.2461 6.31641C22.1324 8.86605 23.0074 11.4181 23.8711 13.9727C23.2134 14.9861 22.2837 15.6059 21.082 15.832C21.5366 15.4893 21.8739 15.0518 22.0938 14.5195C22.2392 13.8998 22.1571 13.3165 21.8477 12.7695C21.7839 12.4141 21.6564 12.0859 21.4648 11.7852C21.4945 11.7819 21.5127 11.7637 21.5195 11.7305C20.9585 10.1478 20.4025 8.56187 19.8516 6.97266C19.2851 7.01624 18.7291 6.94334 18.1836 6.75391C17.9285 6.68128 17.7097 6.5537 17.5273 6.37109C17.9629 6.42955 18.4004 6.43869 18.8398 6.39844C20.1071 6.06091 20.8637 5.24972 21.1094 3.96484C21.2693 2.83976 20.9138 1.91918 20.043 1.20312C20.0734 1.1822 20.0916 1.15486 20.0977 1.12109Z" fill="#F1B021"/>
<path opacity="0.993" fill-rule="evenodd" clip-rule="evenodd" d="M17.3086 6.26172C17.369 6.32188 17.4419 6.35835 17.5273 6.37109C17.7097 6.5537 17.9285 6.68128 18.1836 6.75391C18.6029 7.9573 19.0222 9.16043 19.4414 10.3633C19.3138 10.3633 19.1862 10.3633 19.0586 10.3633C17.3519 10.4015 16.322 11.2582 15.9688 12.9336C15.9116 13.5047 16.0028 14.0516 16.2422 14.5742C16.358 14.8255 16.513 15.0442 16.707 15.2305C16.7602 15.3746 16.8514 15.4839 16.9805 15.5586C16.9899 15.6128 16.9716 15.6493 16.9258 15.668C15.9201 15.3905 15.1545 14.8072 14.6289 13.918C15.5221 11.3659 16.4154 8.81382 17.3086 6.26172Z" fill="#FBD340"/>
<path fill-rule="evenodd" clip-rule="evenodd" d="M18.1836 6.75391C18.7291 6.94334 19.2851 7.01624 19.8516 6.97266C20.4025 8.56187 20.9585 10.1478 21.5195 11.7305C21.5127 11.7637 21.4945 11.7819 21.4648 11.7852C21.061 11.1092 20.4777 10.6717 19.7148 10.4727C19.6366 10.4159 19.5455 10.3795 19.4414 10.3633C19.0222 9.16043 18.6029 7.9573 18.1836 6.75391Z" fill="#FDC127"/>
<path fill-rule="evenodd" clip-rule="evenodd" d="M19.1682 7.51953C19.3188 7.60446 19.3643 7.73205 19.3049 7.90234C19.2008 7.7962 19.1552 7.66861 19.1682 7.51953Z" fill="#FAF6EE"/>
<path fill-rule="evenodd" clip-rule="evenodd" d="M19.4414 8.28516C19.6477 8.49685 19.7844 8.75208 19.8516 9.05078C19.886 9.20451 19.9133 9.35944 19.9336 9.51562C19.9393 9.63293 19.9028 9.73323 19.8242 9.81641C19.6964 9.30557 19.5688 8.79512 19.4414 8.28516Z" fill="#F9F5EE"/>
<path opacity="0.995" fill-rule="evenodd" clip-rule="evenodd" d="M6.69922 9.59766C6.80859 9.67055 6.91797 9.74351 7.02734 9.81641C7.22274 9.94131 7.42328 10.0507 7.62891 10.1445C8.37244 12.2292 9.08337 14.3256 9.76172 16.4336C9.69391 17.2163 9.34757 17.8452 8.72266 18.3203C8.1515 18.7061 7.53173 18.9886 6.86328 19.168C5.6583 18.9406 4.72861 18.3209 4.07422 17.3086C4.94922 14.7383 5.82422 12.168 6.69922 9.59766Z" fill="#3C9AFE"/>
<path fill-rule="evenodd" clip-rule="evenodd" d="M10.6367 9.59766C11.5406 12.1636 12.4339 14.7339 13.3164 17.3086C12.658 18.3098 11.7283 18.9296 10.5273 19.168C10.9992 18.7953 11.3365 18.3214 11.5391 17.7461C11.6071 17.5121 11.6253 17.2751 11.5938 17.0352C10.8342 14.7689 10.0595 12.5085 9.26953 10.2539C9.75926 10.1093 10.215 9.89056 10.6367 9.59766Z" fill="#2586CE"/>
<path fill-rule="evenodd" clip-rule="evenodd" d="M7.62891 10.1445C8.16627 10.3138 8.71314 10.3503 9.26953 10.2539C10.0595 12.5085 10.8342 14.7689 11.5938 17.0352C11.6253 17.2751 11.6071 17.5121 11.5391 17.7461C11.3365 18.3214 10.9992 18.7953 10.5273 19.168C9.29824 19.4565 8.07685 19.4565 6.86328 19.168C7.53173 18.9886 8.1515 18.7061 8.72266 18.3203C9.34757 17.8452 9.69391 17.2163 9.76172 16.4336C9.08337 14.3256 8.37244 12.2292 7.62891 10.1445Z" fill="#2B87DB"/>
<path fill-rule="evenodd" clip-rule="evenodd" d="M19.0585 10.3633C19.9706 11.5814 19.998 12.821 19.1405 14.082C18.5175 14.8581 17.7063 15.2409 16.7069 15.2305C16.5129 15.0442 16.3579 14.8255 16.2421 14.5742C16.0027 14.0516 15.9115 13.5047 15.9687 12.9336C16.3219 11.2582 17.3518 10.4015 19.0585 10.3633Z" fill="#FA3F3D"/>
<path fill-rule="evenodd" clip-rule="evenodd" d="M19.0586 10.3633C19.1862 10.3633 19.3138 10.3633 19.4414 10.3633C19.5455 10.3795 19.6366 10.4159 19.7148 10.4727C20.8407 11.4983 21.105 12.7197 20.5078 14.1367C19.7538 15.3933 18.651 15.9219 17.1992 15.7227C17.1263 15.668 17.0534 15.6133 16.9805 15.5586C16.8514 15.4839 16.7602 15.3746 16.707 15.2305C17.7064 15.2409 18.5176 14.8581 19.1406 14.082C19.9981 12.821 19.9707 11.5814 19.0586 10.3633Z" fill="#EC3534"/>
<path fill-rule="evenodd" clip-rule="evenodd" d="M17.8555 12.0039C17.9762 12.1944 18.1402 12.3493 18.3477 12.4688C18.135 12.5903 17.9801 12.7634 17.8828 12.9883C17.7943 12.763 17.6394 12.599 17.418 12.4961C17.6428 12.399 17.7886 12.235 17.8555 12.0039Z" fill="#FFF4F3"/>
<path fill-rule="evenodd" clip-rule="evenodd" d="M9.05078 12.0039C9.23945 12.0716 9.29414 12.1991 9.21484 12.3867C9.11493 12.2781 9.06024 12.1504 9.05078 12.0039Z" fill="#DDE9F8"/>
<path fill-rule="evenodd" clip-rule="evenodd" d="M9.32422 12.7695C9.37869 12.7648 9.42424 12.7831 9.46094 12.8242C9.75439 13.2855 9.8455 13.7776 9.73438 14.3008C9.5976 13.7902 9.46088 13.2798 9.32422 12.7695Z" fill="#ECF2FB"/>
<path fill-rule="evenodd" clip-rule="evenodd" d="M21.8477 12.7695C22.1571 13.3165 22.2392 13.8998 22.0938 14.5195C21.8739 15.0517 21.5366 15.4892 21.082 15.832C21.0456 15.832 21.0091 15.832 20.9727 15.832C20.9366 15.7425 20.9001 15.6513 20.8633 15.5586C21.6715 14.7989 21.9996 13.8692 21.8477 12.7695Z" fill="#FDBF26"/>
<path fill-rule="evenodd" clip-rule="evenodd" d="M23.8711 13.9727C24.1509 14.4522 24.1601 14.9443 23.8984 15.4492C23.6218 16.054 23.1934 16.5188 22.6133 16.8438C22.2662 17.0447 21.9017 17.1997 21.5195 17.3086C21.2954 16.8374 21.1131 16.3452 20.9727 15.832C21.0091 15.832 21.0456 15.832 21.082 15.832C22.2837 15.6059 23.2134 14.9861 23.8711 13.9727Z" fill="#DD9C17"/>
<path fill-rule="evenodd" clip-rule="evenodd" d="M14.6294 13.918C15.155 14.8072 15.9206 15.3905 16.9263 15.668C16.7825 16.1542 16.6184 16.6282 16.4341 17.0898C15.5291 16.7774 14.9002 16.1758 14.5474 15.2852C14.4227 14.8186 14.4501 14.3629 14.6294 13.918Z" fill="#DE9C18"/>
<path fill-rule="evenodd" clip-rule="evenodd" d="M19.7148 10.4727C20.4777 10.6717 21.061 11.1092 21.4648 11.7852C21.6564 12.0859 21.7839 12.4141 21.8477 12.7695C21.9996 13.8692 21.6715 14.7989 20.8633 15.5586C20.9001 15.6513 20.9366 15.7425 20.9727 15.832C21.1131 16.3452 21.2954 16.8374 21.5195 17.3086C22.2048 19.2915 22.8793 21.2785 23.543 23.2695C22.8818 24.2746 21.9521 24.8944 20.7539 25.1289C21.33 24.7064 21.6855 24.1413 21.8203 23.4336C21.8568 23.2513 21.8568 23.069 21.8203 22.8867C21.0725 20.6707 20.2978 18.465 19.4961 16.2695C19.1731 16.2673 18.845 16.2582 18.5117 16.2422C18.2933 16.1905 18.0745 16.145 17.8555 16.1055C17.6386 15.9787 17.4199 15.8511 17.1992 15.7227C18.651 15.9219 19.7538 15.3933 20.5078 14.1367C21.105 12.7197 20.8407 11.4983 19.7148 10.4727Z" fill="#DC2E2E"/>
<path opacity="0.997" fill-rule="evenodd" clip-rule="evenodd" d="M16.9805 15.5586C17.0534 15.6133 17.1263 15.668 17.1992 15.7227C17.4199 15.8511 17.6386 15.9787 17.8555 16.1055C18.5381 18.0546 19.2217 20.0051 19.9063 21.957C20.0518 22.5241 19.9606 23.0528 19.6328 23.543C18.9459 24.4289 18.0436 24.9392 16.9258 25.0742C15.7749 24.8283 14.8999 24.2085 14.3008 23.2148C15.0118 21.1729 15.7228 19.1312 16.4336 17.0898C16.6179 16.6282 16.782 16.1542 16.9258 15.668C16.9716 15.6493 16.9899 15.6128 16.9805 15.5586Z" fill="#F93E3C"/>
<path fill-rule="evenodd" clip-rule="evenodd" d="M17.8555 16.1055C18.0745 16.145 18.2933 16.1905 18.5117 16.2422C18.845 16.2582 19.1731 16.2673 19.4961 16.2695C20.2978 18.465 21.0725 20.6707 21.8203 22.8867C21.8568 23.069 21.8568 23.2513 21.8203 23.4336C21.6855 24.1413 21.33 24.7064 20.7539 25.1289C19.4652 25.4382 18.1891 25.42 16.9258 25.0742C18.0436 24.9393 18.9459 24.4289 19.6328 23.543C19.9606 23.0528 20.0518 22.5241 19.9062 21.957C19.2217 20.0051 18.5381 18.0546 17.8555 16.1055Z" fill="#EC3535"/>
<path fill-rule="evenodd" clip-rule="evenodd" d="M4.07422 17.3086C4.72861 18.3209 5.6583 18.9406 6.86328 19.168C8.07685 19.4565 9.29824 19.4565 10.5273 19.168C11.7283 18.9296 12.658 18.3098 13.3164 17.3086C13.6339 18.4066 13.3241 19.2907 12.3867 19.9609C11.2619 20.6683 10.0314 21.0056 8.69531 20.9727C7.31555 21.0038 6.0486 20.6484 4.89453 19.9062C4.29038 19.4299 3.94402 18.8101 3.85547 18.0469C3.87058 17.777 3.9435 17.5309 4.07422 17.3086Z" fill="#0573AB"/>
<path fill-rule="evenodd" clip-rule="evenodd" d="M19.4414 18.5664C19.6355 18.6461 19.6993 18.7919 19.6328 19.0039C19.5238 18.8771 19.4601 18.7313 19.4414 18.5664Z" fill="#F8DCDF"/>
<path fill-rule="evenodd" clip-rule="evenodd" d="M19.7695 19.3867C20.1523 19.8071 20.28 20.2993 20.1523 20.8633C19.9993 20.3789 19.8717 19.8867 19.7695 19.3867Z" fill="#F8F1F4"/>
<path fill-rule="evenodd" clip-rule="evenodd" d="M14.3006 23.2148C14.8997 24.2085 15.7747 24.8283 16.9256 25.0742C18.1889 25.42 19.465 25.4382 20.7537 25.1289C21.9519 24.8944 22.8816 24.2746 23.5428 23.2695C23.8441 24.0716 23.7073 24.8008 23.1326 25.457C22.2463 26.2696 21.1981 26.7345 19.9881 26.8516C18.482 27.0557 17.0419 26.837 15.6678 26.1953C14.7564 25.7311 14.246 24.9928 14.1365 23.9805C14.1239 23.7091 14.1786 23.4539 14.3006 23.2148Z" fill="#C92020"/>
</svg>
