<svg viewBox="0 0 28 28" fill="none" xmlns="http://www.w3.org/2000/svg">
<g clip-path="url(#clip0_146_830)">
<path opacity="0.994" fill-rule="evenodd" clip-rule="evenodd" d="M17.8551 -0.0273438C18.3655 -0.0273438 18.876 -0.0273438 19.3864 -0.0273438C19.3864 0.0091146 19.4046 0.0273438 19.4411 0.0273438C19.7106 0.808495 19.9749 1.59235 20.234 2.37891C20.4979 2.7924 20.7896 2.81063 21.109 2.43359C21.1062 1.97755 21.006 1.54005 20.8083 1.12109C20.815 1.08791 20.8332 1.06969 20.8629 1.06641C21.5326 1.32775 22.207 1.59207 22.8864 1.85938C23.3133 2.29234 23.3771 2.77541 23.0778 3.30859C22.6585 3.96484 22.2393 4.62109 21.82 5.27734C21.7084 5.37962 21.6082 5.48898 21.5192 5.60547C19.8456 5.68209 18.2596 6.09224 16.7614 6.83594C16.2377 7.15094 15.7091 7.45172 15.1754 7.73828C14.9275 7.75102 14.6905 7.70547 14.4645 7.60156C13.7109 7.30674 12.9634 6.99688 12.2223 6.67188C11.8154 6.29316 11.7152 5.84653 11.9215 5.33203C12.2912 4.79293 12.6466 4.24605 12.9879 3.69141C13.1682 4.09474 13.3231 4.51402 13.4528 4.94922C13.6144 5.15575 13.824 5.21955 14.0817 5.14063C14.3151 5.01591 14.3971 4.8245 14.3278 4.56641C14.0394 3.71037 13.7568 2.8536 13.4801 1.99609C14.3446 1.1622 15.3655 0.587984 16.5426 0.273438C16.9833 0.154521 17.4208 0.0542608 17.8551 -0.0273438Z" fill="#464F5D"/>
<path fill-rule="evenodd" clip-rule="evenodd" d="M19.4414 0.0273438C20.1301 0.0777984 20.6041 0.424153 20.8633 1.06641C20.8336 1.06969 20.8154 1.08791 20.8086 1.12109C21.0063 1.54005 21.1066 1.97755 21.1094 2.43359C20.7899 2.81063 20.4982 2.7924 20.2344 2.37891C19.9752 1.59235 19.7109 0.808495 19.4414 0.0273438Z" fill="#393F4A"/>
<path fill-rule="evenodd" clip-rule="evenodd" d="M17.3632 1.88672C17.7401 1.80815 17.977 1.95399 18.0742 2.32422C17.9907 2.53677 17.8995 2.74641 17.8007 2.95312C18.0233 3.08754 18.2329 3.24249 18.4296 3.41797C18.5463 3.82333 18.4005 4.06031 17.9921 4.12891C17.7736 4.06071 17.5639 3.96956 17.3632 3.85547C17.2425 4.06966 17.1149 4.2793 16.9804 4.48437C16.5547 4.6698 16.2995 4.53308 16.2148 4.07422C16.2682 3.84892 16.3593 3.63929 16.4882 3.44531C16.2646 3.32901 16.0549 3.19229 15.8593 3.03516C15.7141 2.63265 15.8508 2.39567 16.2695 2.32422C16.4856 2.3501 16.6861 2.42301 16.871 2.54297C17.0096 2.30092 17.1737 2.08217 17.3632 1.88672Z" fill="#FBFBFC"/>
<path fill-rule="evenodd" clip-rule="evenodd" d="M13.4804 1.99609C13.7571 2.8536 14.0397 3.71037 14.3281 4.56641C14.3974 4.8245 14.3154 5.01591 14.082 5.14062C13.8243 5.21955 13.6147 5.15575 13.4531 4.94922C13.3234 4.51402 13.1685 4.09474 12.9882 3.69141C12.8089 3.02644 12.9729 2.46134 13.4804 1.99609Z" fill="#393F4A"/>
<path opacity="0.995" fill-rule="evenodd" clip-rule="evenodd" d="M21.5196 5.60547C22.2218 5.97959 22.8052 6.48998 23.2696 7.13672C21.5995 6.97342 20.4966 7.68436 19.961 9.26953C19.9245 9.56118 19.9245 9.85288 19.961 10.1445C20.0065 10.263 20.0886 10.3451 20.2071 10.3906C20.425 10.4179 20.6438 10.427 20.8633 10.418C20.7254 11.3739 21.1083 12.0028 22.0117 12.3047C22.5218 12.332 23.0323 12.3411 23.543 12.332C23.33 12.7092 23.0748 13.0555 22.7774 13.3711C21.9435 14.0886 20.9774 14.5261 19.8789 14.6836C19.1445 14.7388 18.4335 14.6386 17.7461 14.3828C17.3753 14.2141 17.0107 14.0409 16.6524 13.8633C14.6675 12.1943 14.1753 10.1527 15.1758 7.73828C15.7094 7.45172 16.2381 7.15094 16.7617 6.83594C18.26 6.09224 19.846 5.68209 21.5196 5.60547Z" fill="#E44C3C"/>
<path opacity="0.994" fill-rule="evenodd" clip-rule="evenodd" d="M23.2695 7.13672C24.5695 7.42498 25.3442 8.22708 25.5938 9.54297C25.6954 10.8247 25.2852 11.9094 24.3633 12.7969C24.2429 12.842 24.1427 12.8147 24.0625 12.7148C24.0218 12.5836 23.9763 12.456 23.9258 12.332C23.8149 11.5895 23.4503 11.0153 22.832 10.6094C22.6755 10.5329 22.5114 10.4782 22.3399 10.4453C21.848 10.418 21.3558 10.4089 20.8633 10.418C20.6438 10.4271 20.425 10.4179 20.207 10.3906C20.0885 10.3451 20.0065 10.263 19.961 10.1445C19.9245 9.85289 19.9245 9.56118 19.961 9.26953C20.4966 7.68436 21.5995 6.97343 23.2695 7.13672Z" fill="#EFC219"/>
<path fill-rule="evenodd" clip-rule="evenodd" d="M19.8788 9.98047C19.3963 9.17022 18.7856 9.06084 18.0468 9.65234C17.6523 10.3922 17.8255 10.9572 18.5663 11.3477C17.4192 11.2485 16.9361 10.6287 17.1171 9.48828C17.5927 8.53519 18.3128 8.28909 19.2772 8.75C19.7061 9.05171 19.9066 9.46186 19.8788 9.98047Z" fill="#4A505D"/>
<path fill-rule="evenodd" clip-rule="evenodd" d="M19.8789 9.98047C19.814 10.7929 19.3765 11.2486 18.5664 11.3477C17.8256 10.9572 17.6524 10.3922 18.0469 9.65235C18.7858 9.06085 19.3965 9.17022 19.8789 9.98047Z" fill="#FBFBFB"/>
<path fill-rule="evenodd" clip-rule="evenodd" d="M20.8633 10.418C21.3558 10.4089 21.848 10.418 22.3399 10.4453C22.5114 10.4782 22.6755 10.5329 22.8321 10.6094C23.4504 11.0153 23.815 11.5895 23.9258 12.332C23.7982 12.332 23.6706 12.332 23.543 12.332C23.0323 12.3411 22.5218 12.332 22.0118 12.3047C21.1083 12.0028 20.7254 11.3739 20.8633 10.418Z" fill="#F09A1F"/>
<path opacity="0.994" fill-rule="evenodd" clip-rule="evenodd" d="M22.7773 13.3711C24.2876 15.4636 24.5884 17.7241 23.6797 20.1523C23.0106 21.6508 21.9442 22.7627 20.4805 23.4883C20.1554 23.6142 19.8454 23.7601 19.5508 23.9258C19.1364 24.0248 18.7171 24.0977 18.293 24.1445C17.9363 24.1269 17.59 24.1451 17.2539 24.1992C16.5776 24.1655 15.9213 24.0379 15.2852 23.8164C17.8756 22.5824 19.3978 20.5407 19.8516 17.6914C19.8789 16.689 19.888 15.6863 19.8789 14.6836C20.9774 14.5261 21.9435 14.0886 22.7773 13.3711Z" fill="#F7E8AE"/>
<path opacity="0.994" fill-rule="evenodd" clip-rule="evenodd" d="M16.652 13.8633C17.0103 14.0409 17.375 14.2141 17.7458 14.3828C18.4332 14.6386 19.1441 14.7388 19.8786 14.6836C19.8877 15.6863 19.8786 16.689 19.8513 17.6914C19.3975 20.5407 17.8753 22.5824 15.2848 23.8164C11.5329 25.0519 7.77773 26.2823 4.01922 27.5078C3.58559 27.5759 3.23012 27.4392 2.95282 27.0977C2.89766 27.0143 2.87032 26.9231 2.87079 26.8242C4.54064 26.2175 6.21772 25.625 7.90204 25.0469C8.25581 24.6231 8.17378 24.3223 7.65594 24.1445C6.20661 24.6428 4.75741 25.135 3.30829 25.6211C2.56917 25.5284 2.25015 25.1092 2.35126 24.3633C2.43388 24.0425 2.62529 23.8147 2.92547 23.6797C5.49907 22.9395 7.90532 21.8457 10.1442 20.3984C10.7703 19.9364 11.3445 19.4169 11.8669 18.8398C12.4595 17.8732 13.0792 16.9253 13.7263 15.9961C14.5647 15.09 15.5399 14.3791 16.652 13.8633Z" fill="#BF3A2B"/>
<path fill-rule="evenodd" clip-rule="evenodd" d="M21.9023 15.6133C22.292 15.5939 22.5199 15.7761 22.5859 16.1602C22.9357 17.609 22.7351 18.9762 21.9844 20.2617C21.8674 20.4498 21.7307 20.623 21.5742 20.7812C21.1776 20.9292 20.9407 20.7925 20.8633 20.3711C20.8675 20.2727 20.8948 20.1815 20.9453 20.0977C21.7969 18.8619 22.0065 17.522 21.5742 16.0781C21.6238 15.8778 21.7332 15.7228 21.9023 15.6133Z" fill="#E3BF5D"/>
<path fill-rule="evenodd" clip-rule="evenodd" d="M15.7228 16.1055C16.2081 16.0711 16.4178 16.2898 16.3517 16.7617C16.0248 17.0704 15.715 17.3986 15.422 17.7461C14.8842 18.6397 14.3191 19.5147 13.7267 20.3711C12.7198 21.5257 11.544 22.4644 10.1994 23.1875C9.89552 23.2847 9.68585 23.1845 9.57046 22.8867C9.53185 22.7516 9.55006 22.6239 9.62514 22.5039C10.8287 21.7734 11.9225 20.8984 12.9064 19.8789C13.4988 19.0225 14.0639 18.1475 14.6017 17.2539C14.9498 16.8421 15.3235 16.4592 15.7228 16.1055Z" fill="#E44B3B"/>
<path fill-rule="evenodd" clip-rule="evenodd" d="M17.8008 16.3242C18.2792 16.2649 18.4979 16.4745 18.457 16.9531C18.3133 19.4474 17.1284 21.2521 14.9023 22.3672C14.497 22.4839 14.26 22.338 14.1914 21.9297C14.211 21.8186 14.2566 21.7183 14.3281 21.6289C16.3976 20.5969 17.4731 18.9198 17.5547 16.5977C17.6107 16.4781 17.6928 16.3869 17.8008 16.3242Z" fill="#E44B3B"/>
<path opacity="0.974" fill-rule="evenodd" clip-rule="evenodd" d="M20.4805 23.4883C20.7525 24.5037 21.0078 25.5245 21.2461 26.5508C20.8984 26.5495 20.5521 26.5677 20.207 26.6055C19.9969 25.7103 19.7782 24.8171 19.5508 23.9258C19.8454 23.7601 20.1554 23.6142 20.4805 23.4883Z" fill="#EFC319"/>
<path opacity="0.966" fill-rule="evenodd" clip-rule="evenodd" d="M18.293 24.1445C18.0924 24.9466 17.8919 25.7487 17.6914 26.5508C17.3426 26.5396 16.9963 26.5578 16.6523 26.6055C16.836 25.7979 17.0365 24.9958 17.2539 24.1992C17.59 24.1451 17.9363 24.1269 18.293 24.1445Z" fill="#EFC31A"/>
<path fill-rule="evenodd" clip-rule="evenodd" d="M2.8711 26.8242C2.72353 26.3192 2.86936 25.9181 3.3086 25.6211C4.75772 25.135 6.20692 24.6428 7.65625 24.1445C8.17409 24.3223 8.25612 24.6231 7.90234 25.0469C6.21802 25.625 4.54094 26.2175 2.8711 26.8242Z" fill="#812F33"/>
<path opacity="0.974" fill-rule="evenodd" clip-rule="evenodd" d="M17.6914 26.5508C18.2616 26.6136 18.8176 26.7412 19.3594 26.9336C19.6495 26.828 19.9321 26.7187 20.207 26.6055C20.5521 26.5677 20.8985 26.5495 21.2461 26.5508C22.0473 26.587 22.8129 26.7693 23.543 27.0977C23.7693 27.4023 23.7511 27.6939 23.4883 27.9727C23.3242 27.9727 23.1602 27.9727 22.9961 27.9727C22.195 27.6121 21.3564 27.4936 20.4805 27.6172C20.1812 27.6892 19.9077 27.8076 19.6602 27.9727C19.4961 27.9727 19.332 27.9727 19.168 27.9727C18.3697 27.6021 17.5312 27.4836 16.6524 27.6172C16.3752 27.6999 16.1201 27.8184 15.8867 27.9727C15.7227 27.9727 15.5586 27.9727 15.3945 27.9727C15.1267 27.774 15.0629 27.5188 15.2031 27.207C15.6342 26.884 16.1172 26.6835 16.6524 26.6055C16.9963 26.5578 17.3426 26.5396 17.6914 26.5508Z" fill="#F19B1E"/>
</g>
<defs>
<clipPath id="clip0_146_830">
<rect width="28" height="28" fill="white"/>
</clipPath>
</defs>
</svg>
