<svg viewBox="0 0 24 24" fill="none" xmlns="http://www.w3.org/2000/svg">
<g clip-path="url(#clip0_146_945)">
<path opacity="0.989" fill-rule="evenodd" clip-rule="evenodd" d="M4.61719 0.539066C4.08168 0.707516 3.74574 1.06689 3.60938 1.61719C3.58594 4.22652 3.57812 6.83588 3.58594 9.44532C3.03906 9.44532 2.49219 9.44532 1.94531 9.44532C1.9375 6.80466 1.94531 4.16402 1.96875 1.52344C2.10281 1.01438 2.42312 0.694072 2.92969 0.562504C3.49197 0.539071 4.05447 0.531261 4.61719 0.539066Z" fill="#C86D35"/>
<path opacity="0.998" fill-rule="evenodd" clip-rule="evenodd" d="M4.61719 0.539063C10.086 0.531249 15.5547 0.539063 21.0234 0.562501C21.5509 0.699329 21.8712 1.03527 21.9844 1.57031C22.0078 4.19527 22.0156 6.82027 22.0078 9.44531C21.3755 9.492 20.7349 9.50761 20.0859 9.49219C20.4065 8.13155 19.8596 7.42064 18.4453 7.35938C18.375 7.30069 18.2968 7.25381 18.2109 7.21875C17.9911 6.95217 17.7568 6.70214 17.5078 6.46875C17.3145 6.3653 17.1114 6.29498 16.8984 6.25781C16.7895 6.03998 16.6566 5.83688 16.5 5.64844C16.0608 5.19366 15.6389 4.72491 15.2344 4.24219C14.81 3.81515 14.3022 3.54172 13.7109 3.42188C12.5547 3.39062 11.3985 3.39062 10.2422 3.42188C9.75506 3.51844 9.31758 3.72157 8.92969 4.03125C8.37502 4.64844 7.8203 5.26561 7.26562 5.88281C7.18289 6.0015 7.11258 6.12652 7.05469 6.25781C6.8347 6.27647 6.63159 6.34678 6.44531 6.46875C6.19636 6.70214 5.96198 6.95217 5.74219 7.21875C5.64844 7.26562 5.55469 7.3125 5.46094 7.35938C4.0776 7.44923 3.54635 8.16019 3.86719 9.49219C3.22656 9.49219 2.58594 9.49219 1.94531 9.49219C1.94531 9.47658 1.94531 9.46092 1.94531 9.44531C2.49219 9.44531 3.03906 9.44531 3.58594 9.44531C3.57812 6.83588 3.58594 4.22652 3.60937 1.61719C3.74574 1.06688 4.08168 0.707513 4.61719 0.539063Z" fill="#DB8757"/>
<path fill-rule="evenodd" clip-rule="evenodd" d="M19.3829 2.36719C19.3276 2.57917 19.2182 2.75886 19.0547 2.90625C18.8331 2.98978 18.6221 3.09134 18.4219 3.21094C18.2375 3.53112 18.2766 3.82018 18.5391 4.07813C18.7304 4.1471 18.9179 4.22523 19.1016 4.3125C19.2348 4.45426 19.3285 4.61832 19.3829 4.80469C19.2464 5.20088 18.9808 5.31807 18.586 5.15625C18.5157 5.08594 18.4454 5.01563 18.3751 4.94532C18.3228 4.74708 18.2447 4.55957 18.1407 4.38282C17.9405 4.26322 17.7295 4.16166 17.5079 4.07813C17.1563 3.78167 17.1407 3.46917 17.461 3.14063C17.6447 3.05336 17.8322 2.97523 18.0235 2.90625C18.198 2.6904 18.3308 2.44821 18.4219 2.17969C18.6137 2.00134 18.8402 1.94665 19.1016 2.01563C19.2571 2.08501 19.3508 2.2022 19.3829 2.36719Z" fill="#FEC244"/>
<path fill-rule="evenodd" clip-rule="evenodd" d="M19.3827 2.36719C19.459 2.4777 19.5137 2.6027 19.5468 2.74219C19.7574 2.92744 19.9996 3.06025 20.2733 3.14062C20.5936 3.46916 20.578 3.78166 20.2264 4.07812C19.7949 4.15904 19.5137 4.40123 19.3827 4.80469C19.3284 4.61832 19.2346 4.45425 19.1014 4.3125C18.9177 4.22523 18.7302 4.1471 18.5389 4.07812C18.2764 3.82018 18.2373 3.53112 18.4218 3.21094C18.622 3.09134 18.8329 2.98978 19.0546 2.90625C19.2181 2.75886 19.3274 2.57917 19.3827 2.36719Z" fill="#FEE076"/>
<path fill-rule="evenodd" clip-rule="evenodd" d="M7.28954 2.50781C7.66454 2.47656 7.83643 2.64843 7.80517 3.02343C8.11806 2.98535 8.30556 3.11816 8.36767 3.42187C8.29782 3.7151 8.11032 3.83229 7.80517 3.77343C7.86512 4.09236 7.74011 4.27986 7.43017 4.33593C7.14372 4.26447 7.0187 4.07697 7.05517 3.77343C6.56875 3.79275 6.42812 3.58181 6.63329 3.14062C6.76014 3.0512 6.90076 3.01214 7.05517 3.02343C7.02118 2.79482 7.09932 2.62295 7.28954 2.50781Z" fill="#1EEEA3"/>
<path fill-rule="evenodd" clip-rule="evenodd" d="M16.8984 6.25781C16.5465 6.20292 16.234 6.28102 15.9609 6.49219C15.4937 5.98566 15.0328 5.47003 14.5781 4.94531C14.3494 4.66988 14.0603 4.49019 13.7109 4.40625C13.305 4.38282 12.8987 4.37501 12.4922 4.38281C11.742 4.375 10.992 4.38282 10.2422 4.40625C9.89283 4.49019 9.60375 4.66988 9.375 4.94531C8.92036 5.47003 8.45944 5.98566 7.99219 6.49219C7.71717 6.28603 7.40466 6.20789 7.05469 6.25781C7.11258 6.12652 7.18289 6.0015 7.26562 5.88281C7.8203 5.26561 8.37502 4.64844 8.92969 4.03125C9.31758 3.72157 9.75506 3.51844 10.2422 3.42188C11.3985 3.39062 12.5547 3.39062 13.7109 3.42188C14.3022 3.54172 14.81 3.81515 15.2344 4.24219C15.6389 4.72491 16.0608 5.19366 16.5 5.64844C16.6566 5.83688 16.7895 6.03999 16.8984 6.25781Z" fill="#C76D36"/>
<path fill-rule="evenodd" clip-rule="evenodd" d="M12.4918 4.38281C12.9173 5.31183 13.3548 6.23367 13.8043 7.14844C12.5856 7.14844 11.3668 7.14844 10.1481 7.14844C10.5783 6.24886 11.0158 5.35045 11.4606 4.45312C11.1928 4.45387 10.9584 4.54762 10.7574 4.73437C10.2598 5.26898 9.76758 5.80804 9.28088 6.35156C9.08701 6.58289 9.00108 6.84848 9.02307 7.14844C8.63246 7.14844 8.2418 7.14844 7.85119 7.14844C7.84013 6.91631 7.88701 6.69754 7.99182 6.49219C8.45907 5.98565 8.91999 5.47003 9.37463 4.94531C9.60338 4.66988 9.89246 4.49019 10.2418 4.40625C10.9917 4.38282 11.7417 4.375 12.4918 4.38281Z" fill="#10D18F"/>
<path fill-rule="evenodd" clip-rule="evenodd" d="M12.4922 4.38281C12.8987 4.37501 13.305 4.38282 13.7109 4.40625C14.0603 4.49019 14.3494 4.66988 14.5781 4.94531C15.0328 5.47003 15.4937 5.98566 15.9609 6.49219C16.0658 6.69755 16.1126 6.91631 16.1016 7.14844C15.336 7.14844 14.5703 7.14844 13.8047 7.14844C13.3552 6.23367 12.9177 5.31183 12.4922 4.38281Z" fill="#07F1A5"/>
<path fill-rule="evenodd" clip-rule="evenodd" d="M10.1489 7.14844C9.77387 7.14844 9.39887 7.14844 9.02387 7.14844C9.00188 6.84848 9.0878 6.58289 9.28168 6.35156C9.76838 5.80805 10.2606 5.26898 10.7582 4.73438C10.9592 4.54762 11.1936 4.45387 11.4614 4.45312C11.0166 5.35045 10.5791 6.24886 10.1489 7.14844Z" fill="#00F1A5"/>
<path fill-rule="evenodd" clip-rule="evenodd" d="M7.05486 6.25781C7.40483 6.20789 7.71734 6.28603 7.99236 6.49219C7.88755 6.69755 7.84067 6.91631 7.85173 7.14844C7.85872 7.41159 7.94464 7.64597 8.10955 7.85156C8.64247 8.37666 9.16587 8.90789 9.67986 9.44531C9.22648 9.45309 8.77334 9.44531 8.32048 9.42188C7.9032 9.036 7.52037 8.62191 7.17205 8.17969C6.87702 7.55363 6.83792 6.91299 7.05486 6.25781Z" fill="#FEC344"/>
<path fill-rule="evenodd" clip-rule="evenodd" d="M16.8984 6.25781C17.1945 7.10049 17.0617 7.86614 16.5 8.55469C16.2109 8.84377 15.9219 9.1328 15.6328 9.42188C15.18 9.44531 14.7268 9.45309 14.2734 9.44531C14.7874 8.90789 15.3108 8.37666 15.8438 7.85156C16.0087 7.64597 16.0946 7.41159 16.1016 7.14844C16.1126 6.91631 16.0658 6.69755 15.9609 6.49219C16.234 6.28102 16.5465 6.20292 16.8984 6.25781Z" fill="#FEC344"/>
<path fill-rule="evenodd" clip-rule="evenodd" d="M7.05447 6.25781C6.83753 6.91298 6.87663 7.55362 7.17166 8.17969C7.51999 8.62191 7.90281 9.036 8.3201 9.42188C8.77295 9.44531 9.2261 9.45309 9.67947 9.44531C9.71074 9.44531 9.72635 9.46092 9.72635 9.49219C7.7732 9.49219 5.82011 9.49219 3.86697 9.49219C3.54613 8.16019 4.07738 7.44923 5.46072 7.35938C5.55447 7.3125 5.64822 7.26562 5.74197 7.21875C5.96177 6.95217 6.19614 6.70214 6.4451 6.46875C6.63138 6.34678 6.83449 6.27647 7.05447 6.25781Z" fill="#FDDF76"/>
<path fill-rule="evenodd" clip-rule="evenodd" d="M16.8984 6.25781C17.1114 6.29498 17.3145 6.3653 17.5078 6.46875C17.7568 6.70214 17.9911 6.95217 18.2109 7.21875C18.2968 7.25381 18.375 7.30069 18.4453 7.35938C19.8596 7.42064 20.4065 8.13155 20.0859 9.49219C18.1328 9.49219 16.1797 9.49219 14.2266 9.49219C14.2266 9.46092 14.2422 9.44531 14.2734 9.44531C14.7268 9.45309 15.18 9.44531 15.6328 9.42188C15.9219 9.1328 16.2109 8.84377 16.5 8.55469C17.0617 7.86614 17.1945 7.10048 16.8984 6.25781Z" fill="#FDDF76"/>
<path fill-rule="evenodd" clip-rule="evenodd" d="M7.85156 7.14844C8.24217 7.14844 8.63283 7.14844 9.02344 7.14844C9.02948 7.4108 9.11541 7.64517 9.28125 7.85156C9.81413 8.39227 10.3532 8.92355 10.8984 9.44531C10.8984 9.46092 10.8984 9.47658 10.8984 9.49219C10.5078 9.49219 10.1172 9.49219 9.72656 9.49219C9.72656 9.46092 9.71095 9.44531 9.67969 9.44531C9.1657 8.90789 8.6423 8.37666 8.10938 7.85156C7.94447 7.64597 7.85855 7.41159 7.85156 7.14844Z" fill="#15B27A"/>
<path fill-rule="evenodd" clip-rule="evenodd" d="M9.02344 7.14844C9.39844 7.14844 9.77344 7.14844 10.1484 7.14844C10.4171 7.90753 10.6671 8.67314 10.8984 9.44531C10.3532 8.92355 9.81413 8.39227 9.28125 7.85156C9.11541 7.64517 9.02948 7.4108 9.02344 7.14844Z" fill="#0DD290"/>
<path fill-rule="evenodd" clip-rule="evenodd" d="M10.1484 7.14844C11.3672 7.14844 12.5859 7.14844 13.8047 7.14844C13.536 7.90753 13.286 8.67314 13.0547 9.44531C12.336 9.44531 11.6172 9.44531 10.8984 9.44531C10.6671 8.67314 10.4171 7.90753 10.1484 7.14844Z" fill="#00F1A5"/>
<path fill-rule="evenodd" clip-rule="evenodd" d="M13.8047 7.14844C14.5703 7.14844 15.336 7.14844 16.1016 7.14844C16.0946 7.41159 16.0087 7.64597 15.8438 7.85156C15.3108 8.37666 14.7874 8.90789 14.2734 9.44531C14.2422 9.44531 14.2266 9.46092 14.2266 9.49219C13.1172 9.49219 12.0078 9.49219 10.8984 9.49219C10.8984 9.47658 10.8984 9.46092 10.8984 9.44531C11.6172 9.44531 12.336 9.44531 13.0547 9.44531C13.286 8.67314 13.536 7.90753 13.8047 7.14844Z" fill="#16D18F"/>
<path opacity="0.965" fill-rule="evenodd" clip-rule="evenodd" d="M1.94531 9.44531C1.94531 9.46092 1.94531 9.47658 1.94531 9.49219C1.67695 9.51825 1.49726 9.65887 1.40625 9.91406C1.375 10.2109 1.375 10.5078 1.40625 10.8047C1.4832 10.9828 1.60039 11.1234 1.75781 11.2266C1.56086 11.2117 1.37336 11.2274 1.19531 11.2734C1.17969 11.2734 1.16406 11.2734 1.14844 11.2734C0.825403 11.3015 0.512906 11.2624 0.210938 11.1562C0.121785 11.0752 0.0436603 10.9892 -0.0234375 10.8984C-0.0234375 10.539 -0.0234375 10.1797 -0.0234375 9.82031C0.0842423 9.6428 0.240493 9.52561 0.445312 9.46875C0.94507 9.44531 1.44507 9.43748 1.94531 9.44531Z" fill="#796C78"/>
<path opacity="0.998" fill-rule="evenodd" clip-rule="evenodd" d="M22.0078 9.44531C22.5081 9.43748 23.0081 9.44531 23.5078 9.46875C23.7307 9.52786 23.8869 9.6607 23.9766 9.86719C23.9766 10.2109 23.9766 10.5547 23.9766 10.8984C23.8689 11.076 23.7126 11.1931 23.5078 11.25C23.274 11.2734 23.0396 11.2812 22.8047 11.2734C22.7891 11.2734 22.7734 11.2734 22.7578 11.2734C15.7657 11.2266 8.76567 11.211 1.75781 11.2266C1.60039 11.1234 1.4832 10.9828 1.40625 10.8047C1.375 10.5078 1.375 10.2109 1.40625 9.91406C1.49726 9.65887 1.67695 9.51825 1.94531 9.49219C2.58594 9.49219 3.22656 9.49219 3.86719 9.49219C5.82033 9.49219 7.77342 9.49219 9.72656 9.49219C10.1172 9.49219 10.5078 9.49219 10.8984 9.49219C12.0078 9.49219 13.1172 9.49219 14.2266 9.49219C16.1797 9.49219 18.1328 9.49219 20.0859 9.49219C20.7349 9.50761 21.3755 9.492 22.0078 9.44531Z" fill="#918290"/>
<path opacity="0.976" fill-rule="evenodd" clip-rule="evenodd" d="M1.14797 11.2734C1.1636 11.2734 1.17923 11.2734 1.19485 11.2734C1.74173 11.2734 2.2886 11.2734 2.83547 11.2734C2.82766 14.9141 2.83547 18.5547 2.85891 22.1953C3.0569 22.8281 3.47096 23.2344 4.1011 23.4141C3.53838 23.4219 2.97588 23.4141 2.4136 23.3906C1.796 23.2105 1.39756 22.8121 1.21829 22.1953C1.1488 18.5561 1.12537 14.9155 1.14797 11.2734Z" fill="#ECA026"/>
<path opacity="0.999" fill-rule="evenodd" clip-rule="evenodd" d="M2.83594 11.2734C5.03906 11.2734 7.24219 11.2734 9.44531 11.2734C9.44531 12.8359 9.44531 14.3985 9.44531 15.9609C9.39952 15.8303 9.38391 15.6897 9.39844 15.5391C9.39844 14.7578 9.39844 13.9766 9.39844 13.1953C8.02345 13.1953 6.64842 13.1953 5.27344 13.1953C4.75758 13.1875 4.24195 13.1953 3.72656 13.2188C3.4375 13.3203 3.24219 13.5156 3.14063 13.8047C3.11719 14.3826 3.10938 14.9607 3.11719 15.5391C3.11719 15.7734 3.11719 16.0078 3.11719 16.2422C3.11719 16.9609 3.11719 17.6797 3.11719 18.3984C3.11719 18.6484 3.11719 18.8985 3.11719 19.1484C3.10938 19.6955 3.11719 20.2424 3.14063 20.7891C3.23867 21.145 3.46523 21.3638 3.82031 21.4453C9.24998 21.5 14.6875 21.5078 20.1328 21.4688C20.4844 21.3672 20.7109 21.1406 20.8125 20.7891C20.8359 20.2424 20.8438 19.6955 20.8359 19.1484C20.8359 18.8985 20.8359 18.6484 20.8359 18.3984C20.8359 17.6797 20.8359 16.9609 20.8359 16.2422C20.8359 16.0078 20.8359 15.7734 20.8359 15.5391C20.8438 14.9763 20.8359 14.4138 20.8125 13.8516C20.7417 13.5766 20.5776 13.3813 20.3203 13.2656C18.3856 13.1961 16.4482 13.1727 14.5078 13.1953C14.5078 12.5547 14.5078 11.9141 14.5078 11.2734C17.2578 11.2734 20.0078 11.2734 22.7578 11.2734C22.7734 11.2734 22.7891 11.2734 22.8047 11.2734C22.8125 14.8203 22.8047 18.3672 22.7812 21.9141C22.6898 22.6774 22.2757 23.1696 21.5391 23.3906C15.7266 23.4141 9.91406 23.4219 4.10156 23.4141C3.47142 23.2344 3.05736 22.8281 2.85938 22.1953C2.83594 18.5547 2.82812 14.9141 2.83594 11.2734Z" fill="#FDB137"/>
<path fill-rule="evenodd" clip-rule="evenodd" d="M9.44531 11.2734C9.82031 11.2734 10.1953 11.2734 10.5703 11.2734C10.5625 12.8673 10.5703 14.461 10.5938 16.0547C10.7016 16.3263 10.8812 16.5294 11.1328 16.6641C10.7419 16.6718 10.3513 16.6641 9.96094 16.6406C9.76697 16.5479 9.61073 16.4151 9.49219 16.2422C9.47658 16.1484 9.46092 16.0547 9.44531 15.9609C9.44531 14.3985 9.44531 12.8359 9.44531 11.2734Z" fill="#FEC244"/>
<path fill-rule="evenodd" clip-rule="evenodd" d="M1.19531 11.2734C1.37336 11.2274 1.56086 11.2117 1.75781 11.2266C8.76567 11.211 15.7657 11.2266 22.7578 11.2734C20.0078 11.2734 17.2578 11.2734 14.5078 11.2734C14.5078 11.9141 14.5078 12.5547 14.5078 13.1953C14.5078 14.1172 14.5078 15.039 14.5078 15.9609C14.4922 16.0547 14.4765 16.1484 14.4609 16.2422C14.3381 16.435 14.1662 16.5678 13.9453 16.6406C13.008 16.6641 12.0705 16.6719 11.1328 16.6641C10.8812 16.5294 10.7016 16.3263 10.5938 16.0547C10.5703 14.461 10.5625 12.8673 10.5703 11.2734C10.1953 11.2734 9.82031 11.2734 9.44531 11.2734C7.24219 11.2734 5.03906 11.2734 2.83594 11.2734C2.28906 11.2734 1.74219 11.2734 1.19531 11.2734Z" fill="#FCDD75"/>
<path fill-rule="evenodd" clip-rule="evenodd" d="M11.6954 12.6797C12.5089 12.626 12.8917 13.001 12.8439 13.8047C12.8035 13.8791 12.7722 13.9572 12.7501 14.0391C12.6077 14.1658 12.4827 14.3064 12.3751 14.4609C12.3595 14.7578 12.3439 15.0547 12.3283 15.3516C12.0939 15.7266 11.8595 15.7266 11.6251 15.3516C11.6095 15.0547 11.5939 14.7578 11.5783 14.4609C11.4647 14.3103 11.3397 14.1697 11.2033 14.0391C10.946 13.4293 11.1101 12.9761 11.6954 12.6797Z" fill="#928390"/>
<path fill-rule="evenodd" clip-rule="evenodd" d="M5.27343 13.1953C4.98646 13.3498 4.79114 13.5842 4.6875 13.8984C4.66406 14.4451 4.65625 14.992 4.66406 15.5391C4.14843 15.5391 3.63281 15.5391 3.11718 15.5391C3.10938 14.9607 3.11719 14.3826 3.14062 13.8047C3.24219 13.5156 3.43749 13.3203 3.72656 13.2187C4.24195 13.1953 4.75757 13.1875 5.27343 13.1953Z" fill="#C86D35"/>
<path fill-rule="evenodd" clip-rule="evenodd" d="M5.27343 13.1953C6.64842 13.1953 8.02345 13.1953 9.39843 13.1953C9.39843 13.9766 9.39843 14.7578 9.39843 15.5391C7.82029 15.5391 6.2422 15.5391 4.66406 15.5391C4.65625 14.992 4.66406 14.4451 4.6875 13.8984C4.79114 13.5842 4.98646 13.3498 5.27343 13.1953Z" fill="#DB8657"/>
<path fill-rule="evenodd" clip-rule="evenodd" d="M14.5078 13.1953C16.4482 13.1727 18.3856 13.1961 20.3203 13.2656C20.5776 13.3813 20.7417 13.5766 20.8125 13.8516C20.8359 14.4138 20.8438 14.9763 20.8359 15.5391C18.7422 15.5391 16.6485 15.5391 14.5547 15.5391C14.5692 15.6897 14.5536 15.8303 14.5078 15.9609C14.5078 15.039 14.5078 14.1172 14.5078 13.1953Z" fill="#DC8757"/>
<path fill-rule="evenodd" clip-rule="evenodd" d="M3.11719 15.5391C3.63281 15.5391 4.14844 15.5391 4.66406 15.5391C4.66406 15.7734 4.66406 16.0078 4.66406 16.2422C4.14844 16.2422 3.63281 16.2422 3.11719 16.2422C3.11719 16.0078 3.11719 15.7734 3.11719 15.5391Z" fill="#AC5E2E"/>
<path fill-rule="evenodd" clip-rule="evenodd" d="M4.66406 15.5391C6.2422 15.5391 7.8203 15.5391 9.39844 15.5391C9.38391 15.6897 9.39952 15.8303 9.44531 15.9609C9.46092 16.0547 9.47658 16.1484 9.49219 16.2422C7.88283 16.2422 6.27342 16.2422 4.66406 16.2422C4.66406 16.0078 4.66406 15.7734 4.66406 15.5391Z" fill="#C76C35"/>
<path fill-rule="evenodd" clip-rule="evenodd" d="M20.8359 15.5391C20.8359 15.7734 20.8359 16.0078 20.8359 16.2422C18.711 16.2422 16.5859 16.2422 14.4609 16.2422C14.4765 16.1484 14.4922 16.0547 14.5078 15.9609C14.5536 15.8303 14.5692 15.6897 14.5547 15.5391C16.6485 15.5391 18.7422 15.5391 20.8359 15.5391Z" fill="#C86D36"/>
<path fill-rule="evenodd" clip-rule="evenodd" d="M3.11719 16.2422C3.63281 16.2422 4.14844 16.2422 4.66406 16.2422C4.66406 16.9609 4.66406 17.6797 4.66406 18.3984C4.14844 18.3984 3.63281 18.3984 3.11719 18.3984C3.11719 17.6797 3.11719 16.9609 3.11719 16.2422Z" fill="#C86D35"/>
<path fill-rule="evenodd" clip-rule="evenodd" d="M4.66406 16.2422C6.27342 16.2422 7.88283 16.2422 9.49219 16.2422C9.61073 16.4151 9.76697 16.5479 9.96094 16.6406C10.3513 16.6641 10.7419 16.6718 11.1328 16.6641C12.0705 16.6719 13.008 16.6641 13.9453 16.6406C14.1662 16.5678 14.3381 16.435 14.4609 16.2422C16.5859 16.2422 18.711 16.2422 20.8359 16.2422C20.8359 16.9609 20.8359 17.6797 20.8359 18.3984C15.4609 18.3984 10.086 18.3984 4.71094 18.3984C4.69533 18.3984 4.67969 18.3984 4.66406 18.3984C4.66406 17.6797 4.66406 16.9609 4.66406 16.2422Z" fill="#DC8757"/>
<path fill-rule="evenodd" clip-rule="evenodd" d="M3.11719 18.3984C3.63281 18.3984 4.14844 18.3984 4.66406 18.3984C4.67969 18.3984 4.69533 18.3984 4.71094 18.3984C4.71094 18.6484 4.71094 18.8985 4.71094 19.1484C4.17969 19.1484 3.64844 19.1484 3.11719 19.1484C3.11719 18.8985 3.11719 18.6484 3.11719 18.3984Z" fill="#AD5E2E"/>
<path fill-rule="evenodd" clip-rule="evenodd" d="M4.71094 18.3984C10.086 18.3984 15.4609 18.3984 20.8359 18.3984C20.8359 18.6484 20.8359 18.8985 20.8359 19.1484C15.4609 19.1484 10.086 19.1484 4.71094 19.1484C4.71094 18.8985 4.71094 18.6484 4.71094 18.3984Z" fill="#C86D37"/>
<path fill-rule="evenodd" clip-rule="evenodd" d="M3.11718 19.1484C3.64843 19.1484 4.17969 19.1484 4.71093 19.1484C4.70311 19.7268 4.71093 20.3049 4.73437 20.8828C4.81818 21.1369 4.98225 21.3165 5.22656 21.4219C4.75809 21.4453 4.28932 21.4531 3.82031 21.4453C3.46523 21.3638 3.23866 21.145 3.14062 20.7891C3.11719 20.2424 3.10938 19.6955 3.11718 19.1484Z" fill="#C86D36"/>
<path fill-rule="evenodd" clip-rule="evenodd" d="M4.71094 19.1484C10.086 19.1484 15.4609 19.1484 20.8359 19.1484C20.8438 19.6955 20.8359 20.2424 20.8125 20.7891C20.7109 21.1406 20.4844 21.3672 20.1328 21.4688C14.6875 21.5078 9.24998 21.5 3.82031 21.4453C4.28932 21.4531 4.75809 21.4453 5.22656 21.4219C4.98225 21.3165 4.81819 21.1369 4.73437 20.8828C4.71094 20.3049 4.70311 19.7268 4.71094 19.1484Z" fill="#DC8757"/>
</g>
<defs>
<clipPath id="clip0_146_945">
<rect width="24" height="24" fill="white"/>
</clipPath>
</defs>
</svg>
