<svg viewBox="0 0 24 24" fill="none" xmlns="http://www.w3.org/2000/svg">
<g clip-path="url(#clip0_146_4704)">
<path opacity="0.989" fill-rule="evenodd" clip-rule="evenodd" d="M3.91425 -0.0234375C4.17988 -0.0234375 4.4455 -0.0234375 4.71112 -0.0234375C6.51061 0.805898 8.30751 1.64965 10.1017 2.50781C9.99234 2.66411 9.90642 2.83598 9.84394 3.02344C9.82833 3.27344 9.81267 3.52344 9.79706 3.77344C8.56153 3.03452 7.2412 2.51108 5.83612 2.20312C4.9733 2.01872 4.24674 2.24528 3.65644 2.88281C3.52453 3.37591 3.70422 3.5556 4.1955 3.42188C4.39674 3.15716 4.66236 3.00091 4.99237 2.95312C5.40131 2.93779 5.80753 2.96904 6.21112 3.04688C7.4798 3.42738 8.67511 3.96644 9.79706 4.66406C9.81492 5.38533 9.83058 6.10406 9.84394 6.82031C8.94773 6.56334 8.04928 6.30553 7.14862 6.04688C7.06589 6.01687 6.98775 6.0247 6.91425 6.07031C6.72431 5.93906 6.50555 5.86092 6.258 5.83594C5.13759 5.50894 4.01258 5.19642 2.883 4.89844C2.16224 4.43125 1.87318 3.775 2.01581 2.92969C2.25091 2.1775 2.53216 1.44313 2.85956 0.726562C3.12822 0.3558 3.47978 0.1058 3.91425 -0.0234375Z" fill="#FE443F"/>
<path opacity="0.989" fill-rule="evenodd" clip-rule="evenodd" d="M19.2422 -0.0234375C19.5078 -0.0234375 19.7734 -0.0234375 20.0391 -0.0234375C20.4735 0.1058 20.8251 0.3558 21.0938 0.726562C21.5026 1.59399 21.8073 2.49243 22.0078 3.42188C21.9256 4.06343 21.6131 4.55562 21.0703 4.89844C19.6963 5.23791 18.3369 5.61291 16.9922 6.02344C16.0228 6.26255 15.0619 6.52819 14.1094 6.82031C14.115 6.08789 14.1385 5.35355 14.1797 4.61719C15.4103 3.83007 16.7384 3.27538 18.1641 2.95312C18.6074 2.88207 19.0292 2.94457 19.4297 3.14062C19.5396 3.2661 19.6646 3.37548 19.8047 3.46875C20.1059 3.53712 20.2778 3.41993 20.3203 3.11719C20.2615 2.8361 20.1052 2.62516 19.8516 2.48438C19.2881 2.21465 18.6944 2.1209 18.0703 2.20312C16.6923 2.50145 15.3954 3.00926 14.1797 3.72656C14.1408 3.49373 14.1174 3.25935 14.1094 3.02344C14.0469 2.83598 13.961 2.66411 13.8516 2.50781C15.6458 1.64965 17.4427 0.805898 19.2422 -0.0234375Z" fill="#FE443F"/>
<path opacity="0.998" fill-rule="evenodd" clip-rule="evenodd" d="M10.1014 2.50781C10.2515 2.34669 10.439 2.24512 10.6639 2.20313C11.539 2.17187 12.4139 2.17187 13.2889 2.20313C13.5139 2.24512 13.7014 2.34669 13.8514 2.50781C13.9609 2.66411 14.0468 2.83599 14.1093 3.02344C14.1173 3.25936 14.1407 3.49373 14.1796 3.72656C15.3953 3.00926 16.6922 2.50145 18.0702 2.20313C18.6942 2.1209 19.288 2.21465 19.8514 2.48438C20.1051 2.62516 20.2614 2.8361 20.3202 3.11719C20.2776 3.41994 20.1058 3.53712 19.8046 3.46875C19.6645 3.37548 19.5395 3.26611 19.4296 3.14063C19.0291 2.94457 18.6072 2.88207 18.1639 2.95313C16.7382 3.27538 15.4101 3.83007 14.1796 4.61719C14.1384 5.35355 14.1149 6.08789 14.1093 6.82031C15.0618 6.52819 16.0227 6.26255 16.9921 6.02344C17.4608 6.67922 17.8827 7.36673 18.2577 8.08594C18.1883 8.16783 18.0945 8.22253 17.9764 8.25C16.6394 8.59589 15.3113 8.96311 13.9921 9.35156C13.9608 9.35156 13.9452 9.33595 13.9452 9.30469C13.9296 9.25781 13.8983 9.22655 13.8514 9.21094C13.5143 8.63916 13.1393 8.09227 12.7264 7.57031C12.2264 7.50783 11.7265 7.50783 11.2264 7.57031C10.7981 8.10778 10.4074 8.67028 10.0546 9.25781C10.0233 9.25781 10.0077 9.27342 10.0077 9.30469C10.0077 9.33595 9.99209 9.35156 9.96082 9.35156C8.63562 8.97727 7.30751 8.61009 5.97645 8.25C5.85837 8.22253 5.76462 8.16783 5.6952 8.08594C6.06293 7.39022 6.46915 6.71836 6.91395 6.07031C6.98745 6.0247 7.06559 6.01688 7.14832 6.04688C8.04898 6.30553 8.94743 6.56334 9.84364 6.82031C9.83028 6.10406 9.81462 5.38533 9.79676 4.66406C8.67481 3.96644 7.4795 3.42738 6.21082 3.04688C5.80723 2.96904 5.40101 2.93779 4.99207 2.95313C4.66206 3.00091 4.39644 3.15716 4.1952 3.42188C3.70392 3.5556 3.52423 3.37591 3.65614 2.88281C4.24644 2.24529 4.97299 2.01872 5.83582 2.20313C7.2409 2.51109 8.56123 3.03452 9.79676 3.77344C9.81237 3.52344 9.82803 3.27344 9.84364 3.02344C9.90612 2.83599 9.99204 2.66411 10.1014 2.50781Z" fill="#EA2F2F"/>
<path opacity="0.995" fill-rule="evenodd" clip-rule="evenodd" d="M2.88281 4.89844C4.01239 5.19643 5.13741 5.50894 6.25781 5.83594C5.36367 7.15473 4.58243 8.54537 3.91406 10.0078C3.18035 10.0546 2.44598 10.0703 1.71094 10.0547C1.28877 10.0625 0.866897 10.0547 0.445312 10.0313C0.233439 9.93647 0.0771891 9.78802 -0.0234375 9.58594C-0.0234375 8.17969 -0.0234375 6.77344 -0.0234375 5.36719C0.0852886 5.12626 0.272789 4.97785 0.539062 4.92188C1.32015 4.89844 2.10141 4.89062 2.88281 4.89844Z" fill="#FFE619"/>
<path opacity="0.996" fill-rule="evenodd" clip-rule="evenodd" d="M21.0703 4.89844C21.8517 4.89062 22.633 4.89844 23.4141 4.92188C23.6804 4.97785 23.8679 5.12626 23.9766 5.36719C23.9766 6.77344 23.9766 8.17969 23.9766 9.58594C23.8759 9.78802 23.7197 9.93647 23.5078 10.0313C23.0862 10.0547 22.6643 10.0625 22.2422 10.0547C21.2422 10.0547 20.2422 10.0547 19.2422 10.0547C18.9534 9.37632 18.6253 8.72007 18.2578 8.08594C17.8828 7.36674 17.4609 6.67923 16.9922 6.02344C18.3369 5.61291 19.6963 5.23791 21.0703 4.89844Z" fill="#FFE619"/>
<path fill-rule="evenodd" clip-rule="evenodd" d="M13.8516 9.21094C13.8516 9.47658 13.8516 9.74218 13.8516 10.0078C12.6015 10.0078 11.3516 10.0078 10.1016 10.0078C10.1166 9.74878 10.101 9.49875 10.0547 9.25782C10.4076 8.67028 10.7982 8.10778 11.2266 7.57032C11.7266 7.50783 12.2265 7.50783 12.7266 7.57032C13.1394 8.09227 13.5144 8.63916 13.8516 9.21094Z" fill="#FE433F"/>
<path fill-rule="evenodd" clip-rule="evenodd" d="M5.69531 8.08594C5.76473 8.16783 5.85848 8.22253 5.97656 8.25C7.30762 8.61009 8.63573 8.97727 9.96094 9.35156C9.51867 10.1267 9.11241 10.9236 8.74219 11.7422C7.97761 13.4725 7.43855 15.2694 7.125 17.1328C6.50419 16.3135 5.94169 15.4541 5.4375 14.5547C4.52439 15.155 3.66502 15.8269 2.85938 16.5703C3.07244 14.9383 3.45525 13.3446 4.00781 11.7891C4.47986 10.5136 5.04234 9.27919 5.69531 8.08594Z" fill="#FE443F"/>
<path fill-rule="evenodd" clip-rule="evenodd" d="M18.2578 8.08594C18.6253 8.72006 18.9534 9.37631 19.2422 10.0547C19.4913 10.6305 19.7257 11.2086 19.9453 11.7891C20.4979 13.3446 20.8807 14.9383 21.0938 16.5703C20.2881 15.8269 19.4288 15.155 18.5156 14.5547C18.0114 15.4541 17.4489 16.3135 16.8281 17.1328C16.5146 15.2694 15.9755 13.4725 15.2109 11.7422C14.8407 10.9236 14.4345 10.1267 13.9922 9.35156C15.3114 8.96311 16.6395 8.59589 17.9766 8.25C18.0946 8.22253 18.1884 8.16783 18.2578 8.08594Z" fill="#FE443F"/>
<path fill-rule="evenodd" clip-rule="evenodd" d="M13.8516 9.21094C13.8984 9.22655 13.9297 9.25781 13.9453 9.30469C13.899 9.54563 13.8834 9.79566 13.8984 10.0547C12.6172 10.0547 11.3359 10.0547 10.0547 10.0547C10.0697 9.79566 10.0541 9.54563 10.0078 9.30469C10.0078 9.27342 10.0234 9.25781 10.0547 9.25781C10.101 9.49875 10.1166 9.74878 10.1016 10.0078C11.3516 10.0078 12.6015 10.0078 13.8516 10.0078C13.8516 9.74217 13.8516 9.47658 13.8516 9.21094Z" fill="#FB523B"/>
<path fill-rule="evenodd" clip-rule="evenodd" d="M6.25781 5.83594C6.50536 5.86092 6.72412 5.93906 6.91406 6.07031C6.46927 6.71836 6.06305 7.39022 5.69531 8.08594C5.04234 9.27919 4.47986 10.5136 4.00781 11.7891C3.2504 11.7424 2.48477 11.7267 1.71094 11.7422C1.71094 11.1797 1.71094 10.6172 1.71094 10.0547C2.44598 10.0703 3.18035 10.0546 3.91406 10.0078C4.58243 8.54536 5.36367 7.15472 6.25781 5.83594Z" fill="#FFB42C"/>
<path fill-rule="evenodd" clip-rule="evenodd" d="M10.0078 9.30469C10.0541 9.54563 10.0697 9.79566 10.0547 10.0547C10.0547 10.6172 10.0547 11.1797 10.0547 11.7422C9.6172 11.7422 9.17967 11.7422 8.74219 11.7422C9.11241 10.9236 9.51867 10.1267 9.96094 9.35156C9.9922 9.35156 10.0078 9.33595 10.0078 9.30469Z" fill="#FFB42C"/>
<path fill-rule="evenodd" clip-rule="evenodd" d="M10.0547 10.0547C11.3359 10.0547 12.6172 10.0547 13.8984 10.0547C13.8984 10.6172 13.8984 11.1797 13.8984 11.7422C13.8828 11.7422 13.8672 11.7422 13.8516 11.7422C12.6015 11.7422 11.3516 11.7422 10.1016 11.7422C10.086 11.7422 10.0703 11.7422 10.0547 11.7422C10.0547 11.1797 10.0547 10.6172 10.0547 10.0547Z" fill="#EA2F2F"/>
<path fill-rule="evenodd" clip-rule="evenodd" d="M13.945 9.30469C13.945 9.33595 13.9606 9.35156 13.9919 9.35156C14.4341 10.1267 14.8404 10.9236 15.2106 11.7422C14.7731 11.7422 14.3356 11.7422 13.8981 11.7422C13.8981 11.1797 13.8981 10.6172 13.8981 10.0547C13.8831 9.79566 13.8987 9.54563 13.945 9.30469Z" fill="#FFB42C"/>
<path fill-rule="evenodd" clip-rule="evenodd" d="M19.2422 10.0547C20.2422 10.0547 21.2422 10.0547 22.2422 10.0547C22.2422 10.6172 22.2422 11.1797 22.2422 11.7422C21.4683 11.7267 20.7027 11.7424 19.9453 11.7891C19.7257 11.2086 19.4913 10.6305 19.2422 10.0547Z" fill="#FFB42C"/>
<path opacity="0.997" fill-rule="evenodd" clip-rule="evenodd" d="M1.71094 11.7422C2.48477 11.7267 3.2504 11.7424 4.00781 11.7891C3.45525 13.3446 3.07244 14.9383 2.85938 16.5703C3.66502 15.8269 4.52439 15.155 5.4375 14.5547C5.94169 15.4541 6.50419 16.3135 7.125 17.1328C7.43855 15.2694 7.97761 13.4725 8.74219 11.7422C9.17967 11.7422 9.6172 11.7422 10.0547 11.7422C10.0547 15.8203 10.0547 19.8984 10.0547 23.9766C7.49217 23.9766 4.9297 23.9766 2.36719 23.9766C2.03984 23.8757 1.8289 23.657 1.73438 23.3203C1.71094 19.461 1.70312 15.6016 1.71094 11.7422Z" fill="#FFE619"/>
<path opacity="0.997" fill-rule="evenodd" clip-rule="evenodd" d="M13.8984 11.7422C14.3359 11.7422 14.7735 11.7422 15.2109 11.7422C15.9755 13.4725 16.5146 15.2694 16.8281 17.1328C17.4489 16.3135 18.0114 15.4541 18.5156 14.5547C19.4288 15.155 20.2881 15.8269 21.0938 16.5703C20.8807 14.9383 20.4979 13.3446 19.9453 11.7891C20.7027 11.7424 21.4683 11.7267 22.2422 11.7422C22.25 15.6016 22.2422 19.461 22.2188 23.3203C22.1242 23.657 21.9133 23.8757 21.5859 23.9766C19.0234 23.9766 16.461 23.9766 13.8984 23.9766C13.8984 19.8984 13.8984 15.8203 13.8984 11.7422Z" fill="#FFE619"/>
<path fill-rule="evenodd" clip-rule="evenodd" d="M10.0547 11.7422C10.0703 11.7422 10.086 11.7422 10.1016 11.7422C10.1016 15.8047 10.1016 19.8672 10.1016 23.9297C11.3516 23.9297 12.6015 23.9297 13.8516 23.9297C13.8516 19.8672 13.8516 15.8047 13.8516 11.7422C13.8672 11.7422 13.8828 11.7422 13.8984 11.7422C13.8984 15.8203 13.8984 19.8984 13.8984 23.9766C12.6172 23.9766 11.3359 23.9766 10.0547 23.9766C10.0547 19.8984 10.0547 15.8203 10.0547 11.7422Z" fill="#FF623E"/>
<path fill-rule="evenodd" clip-rule="evenodd" d="M10.1016 11.7422C11.3516 11.7422 12.6015 11.7422 13.8516 11.7422C13.8516 15.8047 13.8516 19.8672 13.8516 23.9297C12.6015 23.9297 11.3516 23.9297 10.1016 23.9297C10.1016 19.8672 10.1016 15.8047 10.1016 11.7422Z" fill="#FE443F"/>
</g>
<defs>
<clipPath id="clip0_146_4704">
<rect width="24" height="24" fill="white"/>
</clipPath>
</defs>
</svg>
