<svg viewBox="0 0 28 28" fill="none" xmlns="http://www.w3.org/2000/svg">
<g clip-path="url(#clip0_146_4928)">
<path fill-rule="evenodd" clip-rule="evenodd" d="M14.4644 1.28516C14.4011 1.37471 14.3373 1.46586 14.273 1.5586C14.2456 2.08693 14.2365 2.61557 14.2456 3.14453C13.8358 3.09573 13.453 3.16864 13.0972 3.36328C13.088 2.77966 13.0972 2.19633 13.1245 1.61328C13.194 1.37975 13.349 1.24303 13.5894 1.20313C13.8263 1.16667 14.0633 1.16667 14.3003 1.20313C14.3679 1.21582 14.4226 1.24316 14.4644 1.28516Z" fill="#B45F4A"/>
<path opacity="0.957" fill-rule="evenodd" clip-rule="evenodd" d="M14.4653 1.28516C14.6268 1.33213 14.727 1.4415 14.7661 1.61328C14.7934 2.19633 14.8026 2.77966 14.7934 3.36328C14.7752 3.36328 14.757 3.36328 14.7388 3.36328C14.5972 3.24889 14.4332 3.17597 14.2466 3.14453C14.2375 2.61557 14.2466 2.08692 14.2739 1.55859C14.3382 1.46586 14.402 1.37471 14.4653 1.28516Z" fill="#C46F5E"/>
<path fill-rule="evenodd" clip-rule="evenodd" d="M14.2461 3.14456C14.4327 3.176 14.5968 3.24891 14.7383 3.36331C13.718 4.30814 13.718 5.25605 14.7383 6.20706C14.5968 6.32146 14.4327 6.39436 14.2461 6.42581C13.8363 6.47459 13.4535 6.40169 13.0977 6.20706C12.8449 6.08188 12.6444 5.89961 12.4961 5.66018C12.3766 5.38121 12.3037 5.08954 12.2773 4.78518C12.2794 4.14716 12.5528 3.6732 13.0977 3.36331C13.4535 3.16867 13.8363 3.09576 14.2461 3.14456Z" fill="#F3B537"/>
<path opacity="0.974" fill-rule="evenodd" clip-rule="evenodd" d="M14.7379 3.36328C14.7561 3.36328 14.7744 3.36328 14.7926 3.36328C15.3186 3.68552 15.592 4.15948 15.6129 4.78516C15.5585 5.07556 15.4856 5.36723 15.3941 5.66016C15.2458 5.89958 15.0453 6.08185 14.7926 6.20703C14.7744 6.20703 14.7561 6.20703 14.7379 6.20703C13.7176 5.25603 13.7176 4.30811 14.7379 3.36328Z" fill="#FFE619"/>
<path opacity="0.931" fill-rule="evenodd" clip-rule="evenodd" d="M12.2773 4.78516C12.3037 5.08951 12.3766 5.38118 12.4961 5.66016C11.0752 6.05188 9.65333 6.44377 8.23047 6.83594C7.49104 7.03451 6.74363 7.18944 5.98828 7.30078C5.9518 7.30078 5.91538 7.30078 5.87891 7.30078C5.94929 7.00744 5.94929 6.71573 5.87891 6.42578C8.02523 5.93934 10.158 5.39244 12.2773 4.78516Z" fill="#3E4B5A"/>
<path opacity="0.931" fill-rule="evenodd" clip-rule="evenodd" d="M15.6133 4.78516C17.0547 5.16833 18.4948 5.56024 19.9336 5.96094C20.6387 6.14753 21.3497 6.30246 22.0664 6.42578C21.9206 6.71743 21.9206 7.00913 22.0664 7.30078C22.0482 7.30078 22.0299 7.30078 22.0117 7.30078C21.4397 7.2444 20.8746 7.14416 20.3164 7C18.6748 6.55315 17.0342 6.10652 15.3945 5.66016C15.486 5.36723 15.5589 5.07556 15.6133 4.78516Z" fill="#3E4B5A"/>
<path fill-rule="evenodd" clip-rule="evenodd" d="M5.65997 6.09767C5.2957 6.60627 5.2957 7.11672 5.65997 7.62892C5.5554 7.79085 5.40957 7.90023 5.22247 7.95705C4.94903 8.02995 4.67559 8.02995 4.40215 7.95705C4.10912 7.79151 3.89037 7.55455 3.7459 7.24611C3.55395 6.49066 3.82739 5.98939 4.56622 5.7422C5.00355 5.65968 5.36813 5.77819 5.65997 6.09767Z" fill="#FFB42C"/>
<path fill-rule="evenodd" clip-rule="evenodd" d="M23.9258 6.04299C23.8792 6.19191 23.8154 6.33776 23.7344 6.48049C23.6583 6.89169 23.7221 7.2745 23.9258 7.62893C23.8005 7.78233 23.6546 7.90991 23.4883 8.01174C23.2278 8.02673 22.9726 8.00852 22.7227 7.95706C22.4128 7.82947 22.194 7.61072 22.0664 7.3008C21.9206 7.00916 21.9206 6.71745 22.0664 6.42581C22.3242 5.86843 22.7617 5.64055 23.3789 5.74221C23.5873 5.80073 23.7696 5.90097 23.9258 6.04299Z" fill="#FFB42C"/>
<path opacity="0.976" fill-rule="evenodd" clip-rule="evenodd" d="M5.65992 6.09766C5.7869 6.16886 5.8598 6.27823 5.87867 6.42578C5.94905 6.71573 5.94905 7.00744 5.87867 7.30078C5.82535 7.42629 5.75245 7.53566 5.65992 7.62891C5.29565 7.1167 5.29565 6.60625 5.65992 6.09766Z" fill="#FFB42C"/>
<path opacity="0.942" fill-rule="evenodd" clip-rule="evenodd" d="M23.9256 6.04297C24.2467 6.40341 24.3379 6.82265 24.199 7.30078C24.1339 7.43034 24.0428 7.53971 23.9256 7.62891C23.7219 7.27448 23.6581 6.89166 23.7342 6.48047C23.8151 6.33773 23.879 6.19188 23.9256 6.04297Z" fill="#FFB42C"/>
<path fill-rule="evenodd" clip-rule="evenodd" d="M13.0977 6.20703C13.4535 6.40166 13.8363 6.47456 14.2461 6.42578C14.2461 12.0586 14.2461 17.6914 14.2461 23.3242C13.8633 23.3242 13.4805 23.3242 13.0977 23.3242C13.0977 17.6185 13.0977 11.9127 13.0977 6.20703Z" fill="#B45F4A"/>
<path opacity="0.966" fill-rule="evenodd" clip-rule="evenodd" d="M14.7383 6.20703C14.7565 6.20703 14.7748 6.20703 14.793 6.20703C14.793 11.9127 14.793 17.6185 14.793 23.3242C14.6107 23.3242 14.4284 23.3242 14.2461 23.3242C14.2461 17.6914 14.2461 12.0586 14.2461 6.42578C14.4327 6.39434 14.5967 6.32144 14.7383 6.20703Z" fill="#C46F5E"/>
<path opacity="0.928" fill-rule="evenodd" clip-rule="evenodd" d="M3.74609 7.24609C3.89056 7.55453 4.10931 7.79149 4.40234 7.95703C3.63091 10.1561 2.82883 12.3436 1.99609 14.5195C1.6862 14.5924 1.3763 14.5924 1.06641 14.5195C1.9284 12.079 2.82162 9.65448 3.74609 7.24609Z" fill="#CCD1DA"/>
<path opacity="0.928" fill-rule="evenodd" clip-rule="evenodd" d="M5.87891 7.30078C5.91538 7.30078 5.9518 7.30078 5.98828 7.30078C6.85234 9.71059 7.72734 12.1168 8.61328 14.5195C8.29057 14.591 7.96245 14.591 7.62891 14.5195C6.83769 12.3282 6.03564 10.1407 5.22266 7.95703C5.40976 7.90021 5.55559 7.79084 5.66016 7.62891C5.75269 7.53566 5.82559 7.42629 5.87891 7.30078Z" fill="#CCD1DA"/>
<path opacity="0.928" fill-rule="evenodd" clip-rule="evenodd" d="M22.0117 7.30078C22.0299 7.30078 22.0482 7.30078 22.0664 7.30078C22.194 7.6107 22.4127 7.82945 22.7227 7.95703C21.9209 10.1439 21.1188 12.3314 20.3164 14.5195C19.9829 14.591 19.6547 14.591 19.332 14.5195C20.2252 12.1133 21.1185 9.70703 22.0117 7.30078Z" fill="#CCD1DA"/>
<path opacity="0.928" fill-rule="evenodd" clip-rule="evenodd" d="M24.1992 7.30078C25.1141 9.69899 26.0073 12.1052 26.8789 14.5195C26.569 14.5924 26.2591 14.5924 25.9492 14.5195C25.1396 12.346 24.3193 10.1767 23.4883 8.01172C23.6546 7.90989 23.8004 7.7823 23.9258 7.62891C24.043 7.53971 24.1341 7.43034 24.1992 7.30078Z" fill="#CCD1DA"/>
<path opacity="0.94" fill-rule="evenodd" clip-rule="evenodd" d="M1.06641 14.5195C1.3763 14.5924 1.6862 14.5924 1.99609 14.5195C3.8737 14.5195 5.75132 14.5195 7.62891 14.5195C7.96245 14.591 8.29057 14.591 8.61328 14.5195C8.83777 14.505 9.05652 14.5323 9.26953 14.6016C9.39028 14.6588 9.48139 14.7409 9.54297 14.8477C9.43852 14.9604 9.31093 15.0425 9.16016 15.0938C6.26172 15.1302 3.36328 15.1302 0.464844 15.0938C0.317089 15.0384 0.189485 14.9564 0.0820312 14.8477C0.340139 14.555 0.668265 14.4456 1.06641 14.5195Z" fill="#FFB42C"/>
<path opacity="0.94" fill-rule="evenodd" clip-rule="evenodd" d="M19.332 14.5195C19.6547 14.591 19.9829 14.591 20.3164 14.5195C22.194 14.5195 24.0716 14.5195 25.9492 14.5195C26.2591 14.5924 26.569 14.5924 26.8789 14.5195C27.277 14.4456 27.6052 14.555 27.8633 14.8477C27.7558 14.9564 27.6282 15.0384 27.4805 15.0938C24.5638 15.1302 21.6471 15.1302 18.7305 15.0938C18.6076 15.0239 18.4982 14.9419 18.4023 14.8477C18.4639 14.7409 18.555 14.6588 18.6758 14.6016C18.8888 14.5323 19.1075 14.505 19.332 14.5195Z" fill="#FFB42C"/>
<path fill-rule="evenodd" clip-rule="evenodd" d="M0.0820312 14.8477C0.189485 14.9564 0.317089 15.0384 0.464844 15.0938C3.36328 15.1302 6.26172 15.1302 9.16016 15.0938C9.31093 15.0425 9.43852 14.9604 9.54297 14.8477C9.62314 14.894 9.66875 14.9669 9.67969 15.0664C9.74039 15.3905 9.70397 15.7003 9.57031 15.9961C9.47565 16.1119 9.35714 16.1939 9.21484 16.2422C8.90548 16.2695 8.59556 16.2786 8.28516 16.2695C6.44399 16.2695 4.60287 16.2695 2.76172 16.2695C2.17838 16.2695 1.59505 16.2695 1.01172 16.2695C0.549057 16.3749 0.202701 16.2291 -0.0273438 15.832C-0.0273438 15.5404 -0.0273438 15.2487 -0.0273438 14.957C0.0273438 14.9388 0.0638023 14.9023 0.0820312 14.8477Z" fill="#FFB42C"/>
<path fill-rule="evenodd" clip-rule="evenodd" d="M18.4022 14.8477C18.4981 14.9419 18.6074 15.0239 18.7303 15.0938C21.647 15.1302 24.5637 15.1302 27.4803 15.0938C27.6281 15.0384 27.7557 14.9564 27.8631 14.8477C27.8814 14.9023 27.9178 14.9388 27.9725 14.957C27.9725 15.2487 27.9725 15.5404 27.9725 15.832C27.7424 16.2291 27.3961 16.3749 26.9335 16.2695C26.9152 16.2695 26.897 16.2695 26.8788 16.2695C24.4725 16.1966 22.0663 16.1966 19.66 16.2695C19.3496 16.2786 19.0397 16.2695 18.7303 16.2422C18.3709 16.0887 18.2068 15.8152 18.2381 15.4219C18.2473 15.3034 18.2564 15.1849 18.2655 15.0664C18.2764 14.9669 18.322 14.894 18.4022 14.8477Z" fill="#FFB42C"/>
<path fill-rule="evenodd" clip-rule="evenodd" d="M1.01172 16.2695C1.59505 16.2695 2.17838 16.2695 2.76172 16.2695C3.03977 17.8599 3.95122 18.8807 5.49609 19.332C3.41504 19.6813 1.96582 18.8792 1.14844 16.9258C1.09223 16.7085 1.04666 16.4898 1.01172 16.2695Z" fill="#FFB42C"/>
<path opacity="0.989" fill-rule="evenodd" clip-rule="evenodd" d="M2.76172 16.2695C4.60287 16.2695 6.44399 16.2695 8.28516 16.2695C8.08593 17.663 7.33852 18.6383 6.04297 19.1953C5.86687 19.2692 5.6846 19.3149 5.49609 19.332C3.95122 18.8807 3.03977 17.8599 2.76172 16.2695Z" fill="#FFE619"/>
<path fill-rule="evenodd" clip-rule="evenodd" d="M26.8789 16.2695C25.0377 16.2604 23.1965 16.2695 21.3555 16.2969C21.649 17.8937 22.5787 18.9055 24.1445 19.332C22.0882 19.6755 20.639 18.8917 19.7969 16.9805C19.725 16.7478 19.6795 16.5109 19.6602 16.2695C22.0664 16.1966 24.4727 16.1966 26.8789 16.2695Z" fill="#FFB42C"/>
<path opacity="0.988" fill-rule="evenodd" clip-rule="evenodd" d="M26.8789 16.2695C26.8971 16.2695 26.9154 16.2695 26.9336 16.2695C26.6501 17.8835 25.7205 18.9044 24.1445 19.332C22.5787 18.9055 21.649 17.8938 21.3555 16.2969C23.1965 16.2695 25.0377 16.2604 26.8789 16.2695Z" fill="#FFE619"/>
<path opacity="0.976" fill-rule="evenodd" clip-rule="evenodd" d="M13.0977 23.3242C13.4805 23.3242 13.8633 23.3242 14.2461 23.3242C14.4284 23.3242 14.6107 23.3242 14.793 23.3242C15.6681 23.3151 16.5431 23.3242 17.418 23.3516C17.6632 23.4688 17.809 23.6602 17.8555 23.9258C15.2487 23.9258 12.6419 23.9258 10.0352 23.9258C10.0816 23.6602 10.2274 23.4688 10.4727 23.3516C11.3475 23.3242 12.2225 23.3151 13.0977 23.3242Z" fill="#3D4A59"/>
<path fill-rule="evenodd" clip-rule="evenodd" d="M10.0352 23.9258C12.6419 23.9258 15.2487 23.9258 17.8555 23.9258C17.8555 24.2904 17.8555 24.6549 17.8555 25.0195C15.2487 25.0195 12.6419 25.0195 10.0352 25.0195C10.0352 24.6549 10.0352 24.2904 10.0352 23.9258Z" fill="#303F49"/>
<path opacity="0.99" fill-rule="evenodd" clip-rule="evenodd" d="M10.0352 25.0195C12.6419 25.0195 15.2487 25.0195 17.8555 25.0195C18.1877 24.9578 18.4611 25.049 18.6758 25.293C18.5629 25.4683 18.3988 25.5685 18.1836 25.5937C15.3398 25.6302 12.4961 25.6302 9.65234 25.5937C9.48309 25.5426 9.35545 25.4423 9.26953 25.293C9.33111 25.1862 9.42222 25.1041 9.54297 25.0469C9.70605 25.0196 9.87011 25.0105 10.0352 25.0195Z" fill="#556372"/>
<path fill-rule="evenodd" clip-rule="evenodd" d="M9.26953 25.293C9.35545 25.4423 9.48309 25.5426 9.65234 25.5938C12.4961 25.6302 15.3398 25.6302 18.1836 25.5938C18.3988 25.5685 18.5629 25.4683 18.6758 25.293C18.7336 25.3531 18.7792 25.4261 18.8125 25.5117C18.9243 25.9491 18.8241 26.3228 18.5117 26.6328C18.4249 26.68 18.3338 26.7164 18.2383 26.7422C15.3763 26.7787 12.5143 26.7787 9.65234 26.7422C9.25788 26.6013 9.05734 26.3187 9.05078 25.8945C9.07462 25.748 9.10197 25.6022 9.13281 25.457C9.15343 25.3782 9.19898 25.3235 9.26953 25.293Z" fill="#3E4B5A"/>
</g>
<defs>
<clipPath id="clip0_146_4928">
<rect width="28" height="28" fill="white"/>
</clipPath>
</defs>
</svg>
