<svg viewBox="0 0 24 24" fill="none" xmlns="http://www.w3.org/2000/svg">
<g clip-path="url(#clip0_146_5013)">
<path opacity="0.987" fill-rule="evenodd" clip-rule="evenodd" d="M12.0703 1.38281C11.9794 1.8708 11.9481 2.37079 11.9766 2.88281C8.86777 2.9907 6.57089 4.39695 5.08594 7.10156C4.57872 7.05492 4.0631 7.03931 3.53906 7.05469C4.91006 3.95848 7.26942 2.10692 10.6172 1.5C11.1005 1.44539 11.5848 1.40633 12.0703 1.38281Z" fill="#57565B"/>
<path fill-rule="evenodd" clip-rule="evenodd" d="M12.0707 1.38281C15.4984 1.55727 18.1156 3.08852 19.9223 5.97656C20.1129 6.3263 20.2769 6.68564 20.4145 7.05469C19.8988 7.05469 19.3832 7.05469 18.8676 7.05469C17.3606 4.38604 15.0637 2.99542 11.977 2.88281C11.9485 2.37079 11.9798 1.8708 12.0707 1.38281Z" fill="#4C4B51"/>
<path opacity="0.992" fill-rule="evenodd" clip-rule="evenodd" d="M11.9762 4.24219C11.9762 6.11719 11.9762 7.99219 11.9762 9.86719C11.7418 9.86719 11.5074 9.86719 11.273 9.86719C11.273 10.3359 11.273 10.8047 11.273 11.2734C11.5074 11.2734 11.7418 11.2734 11.9762 11.2734C11.9762 13.164 11.9762 15.0547 11.9762 16.9453C9.86678 16.9453 7.7574 16.9453 5.64803 16.9453C5.64803 16.461 5.64803 15.9765 5.64803 15.4922C6.29186 15.4362 6.72934 15.1081 6.96053 14.5078C5.57425 12.593 5.26956 10.5149 6.04647 8.27344C7.1823 5.70103 9.15887 4.3573 11.9762 4.24219Z" fill="#FFE619"/>
<path fill-rule="evenodd" clip-rule="evenodd" d="M11.9766 4.24219C14.7971 4.35286 16.7737 5.69662 17.9062 8.27344C18.818 11.0719 18.2008 13.4704 16.0547 15.4688C14.8695 16.429 13.5102 16.9212 11.9766 16.9453C11.9766 15.0547 11.9766 13.164 11.9766 11.2734C12.2109 11.2734 12.4453 11.2734 12.6797 11.2734C12.6797 10.8047 12.6797 10.3359 12.6797 9.86719C12.4453 9.86719 12.2109 9.86719 11.9766 9.86719C11.9766 7.99219 11.9766 6.11719 11.9766 4.24219Z" fill="#FFB42C"/>
<path opacity="0.992" fill-rule="evenodd" clip-rule="evenodd" d="M3.53906 7.05467C4.0631 7.0393 4.57872 7.05491 5.08594 7.10155C4.29822 8.74709 4.08728 10.4659 4.45312 12.2578C4.62839 12.885 4.80806 13.51 4.99219 14.1328C3.97644 14.1406 2.96082 14.1328 1.94531 14.1094C0.921263 13.9834 0.265012 13.4286 -0.0234375 12.4453C-0.0234375 11.1953 -0.0234375 9.94531 -0.0234375 8.6953C0.222806 7.83195 0.785306 7.29289 1.66406 7.07811C2.28887 7.05467 2.91387 7.04684 3.53906 7.05467Z" fill="#57565B"/>
<path opacity="0.997" fill-rule="evenodd" clip-rule="evenodd" d="M18.8672 7.05469C19.3828 7.05469 19.8984 7.05469 20.4141 7.05469C21.0392 7.04687 21.6643 7.05469 22.2891 7.07813C23.1678 7.29291 23.7303 7.83198 23.9766 8.69532C23.9766 9.94533 23.9766 11.1953 23.9766 12.4453C23.6881 13.4287 23.0318 13.9834 22.0078 14.1094C21.4768 14.1328 20.9455 14.1406 20.4141 14.1328C19.9068 14.0862 19.3912 14.0706 18.8672 14.0859C19.088 13.5502 19.2833 13.0033 19.4531 12.4453C19.6655 11.5312 19.728 10.6093 19.6406 9.67969C19.5983 9.33221 19.5358 8.98848 19.4531 8.64844C19.2699 8.1106 19.0746 7.57937 18.8672 7.05469Z" fill="#4C4B51"/>
<path fill-rule="evenodd" clip-rule="evenodd" d="M8.46094 9.86719C8.92969 9.86719 9.39844 9.86719 9.86719 9.86719C9.86719 10.3359 9.86719 10.8047 9.86719 11.2734C9.39844 11.2734 8.92969 11.2734 8.46094 11.2734C8.46094 10.8047 8.46094 10.3359 8.46094 9.86719Z" fill="#575F63"/>
<path fill-rule="evenodd" clip-rule="evenodd" d="M11.9766 9.86719C11.9766 10.3359 11.9766 10.8047 11.9766 11.2734C11.7422 11.2734 11.5078 11.2734 11.2734 11.2734C11.2734 10.8047 11.2734 10.3359 11.2734 9.86719C11.5078 9.86719 11.7422 9.86719 11.9766 9.86719Z" fill="#575F63"/>
<path fill-rule="evenodd" clip-rule="evenodd" d="M11.9766 9.86719C12.2109 9.86719 12.4453 9.86719 12.6797 9.86719C12.6797 10.3359 12.6797 10.8047 12.6797 11.2734C12.4453 11.2734 12.2109 11.2734 11.9766 11.2734C11.9766 10.8047 11.9766 10.3359 11.9766 9.86719Z" fill="#474F54"/>
<path fill-rule="evenodd" clip-rule="evenodd" d="M14.0859 9.86719C14.5547 9.86719 15.0234 9.86719 15.4922 9.86719C15.4922 10.3359 15.4922 10.8047 15.4922 11.2734C15.0234 11.2734 14.5547 11.2734 14.0859 11.2734C14.0859 10.8047 14.0859 10.3359 14.0859 9.86719Z" fill="#474F53"/>
<path opacity="0.976" fill-rule="evenodd" clip-rule="evenodd" d="M18.8672 14.0859C19.3912 14.0705 19.9068 14.0862 20.4141 14.1328C19.1653 16.9281 17.0559 18.7094 14.0859 19.4765C14.1013 18.9837 14.0857 18.4993 14.0391 18.0234C16.182 17.3648 17.7914 16.0523 18.8672 14.0859Z" fill="#57565B"/>
<path fill-rule="evenodd" clip-rule="evenodd" d="M14.0391 18.0234C14.0857 18.4994 14.1013 18.9837 14.0859 19.4766C14.0937 19.9456 14.0859 20.4143 14.0625 20.8828C13.7913 21.8808 13.1429 22.4276 12.1172 22.5234C12.0703 22.5234 12.0234 22.5234 11.9766 22.5234C11.9766 21.1172 11.9766 19.7109 11.9766 18.3047C12.6724 18.2678 13.3599 18.174 14.0391 18.0234Z" fill="#4C4B51"/>
<path opacity="0.985" fill-rule="evenodd" clip-rule="evenodd" d="M11.9763 18.3047C11.9763 19.711 11.9763 21.1172 11.9763 22.5235C12.0232 22.5235 12.0701 22.5235 12.1169 22.5235C11.1168 22.5734 10.4058 22.1359 9.98413 21.211C9.62019 19.9258 10.0343 18.9962 11.2263 18.4219C11.468 18.3299 11.718 18.2909 11.9763 18.3047Z" fill="#57565B"/>
</g>
<defs>
<clipPath id="clip0_146_5013">
<rect width="24" height="24" fill="white"/>
</clipPath>
</defs>
</svg>
