<svg viewBox="0 0 28 28" fill="none" xmlns="http://www.w3.org/2000/svg">
<path opacity="0.993" fill-rule="evenodd" clip-rule="evenodd" d="M21.5742 4.1836C22.1576 4.80339 22.7591 5.40496 23.3789 5.98829C24.2636 6.88183 25.0566 7.84799 25.7578 8.88673C26.103 9.42376 26.0665 9.93421 25.6484 10.418C25.0882 10.9879 24.4593 11.4618 23.7617 11.8399C22.4874 7.84942 19.8624 5.20616 15.8867 3.91017C16.2411 3.16308 16.7333 2.51595 17.3633 1.96876C17.6956 1.74042 18.0602 1.66751 18.457 1.75001C19.5833 2.44767 20.6223 3.25887 21.5742 4.1836Z" fill="#7B7B7B"/>
<path opacity="0.985" fill-rule="evenodd" clip-rule="evenodd" d="M23.3789 5.98828C22.7591 5.40495 22.1576 4.80338 21.5742 4.18359C22.6655 3.0498 23.9871 2.32064 25.5391 1.99609C26.0951 2.04166 26.3959 2.34245 26.4414 2.89844C26.4237 3.13403 26.3417 3.34367 26.1953 3.52734C25.0284 4.08332 24.0896 4.90364 23.3789 5.98828Z" fill="#E73838"/>
<path opacity="0.996" fill-rule="evenodd" clip-rule="evenodd" d="M15.8871 3.91016C19.8628 5.20616 22.4878 7.84941 23.7621 11.8399C24.7183 15.6545 23.98 19.0998 21.5473 22.1758C18.6677 25.3781 15.0857 26.6633 10.8012 26.0313C6.8899 25.2199 4.09171 23.005 2.40668 19.3867C0.942849 15.6669 1.23451 12.094 3.28167 8.66798C5.84614 5.01162 9.37348 3.3072 13.8637 3.5547C14.5475 3.62612 15.222 3.74461 15.8871 3.91016Z" fill="#535353"/>
<path fill-rule="evenodd" clip-rule="evenodd" d="M11.9494 6.75392C15.1023 6.57575 17.5359 7.79714 19.2502 10.418C19.5948 11.0487 19.7953 11.7232 19.8518 12.4414C19.9309 14.3414 19.7669 16.2191 19.3596 18.0742C19.2645 18.2788 19.1278 18.452 18.9494 18.5938C18.4937 18.8307 18.038 19.0677 17.5822 19.3047C17.3224 19.455 17.0945 19.6464 16.8987 19.8789C16.8069 20.6485 16.6793 21.4142 16.5158 22.1758C16.1788 22.9264 15.6228 23.1543 14.8479 22.8594C14.7036 22.4573 14.5305 22.0653 14.3283 21.6836C14.1741 21.4559 13.9644 21.3739 13.6994 21.4375C13.4234 21.6407 13.232 21.905 13.1252 22.2305C12.9247 22.4492 12.7242 22.4492 12.5237 22.2305C12.415 21.9036 12.2236 21.6392 11.9494 21.4375C11.6295 21.3742 11.4016 21.4927 11.2658 21.793C11.1204 22.0289 11.0292 22.2841 10.9924 22.5586C10.8537 22.8788 10.6076 23.0247 10.2541 22.9961C9.68352 22.9639 9.30984 22.6722 9.13303 22.1211C8.94562 21.4039 8.83624 20.6748 8.80491 19.9336C8.6153 19.7241 8.40569 19.5327 8.176 19.3594C7.70033 19.1216 7.22641 18.8846 6.75412 18.6485C6.44815 18.3974 6.25674 18.0784 6.17991 17.6914C5.79512 15.7345 5.70402 13.7657 5.90647 11.7852C5.99796 11.3466 6.14381 10.9273 6.34397 10.5274C7.63077 8.41199 9.49927 7.15418 11.9494 6.75392Z" fill="#151515"/>
<path fill-rule="evenodd" clip-rule="evenodd" d="M10.1997 11.6211C11.1226 11.5438 11.6148 11.9631 11.6762 12.8789C11.6124 13.7167 11.3481 14.4823 10.8832 15.1758C10.1906 15.854 9.45235 15.8995 8.6684 15.3125C8.42231 15.0664 8.17621 14.8203 7.93012 14.5742C7.33665 13.6774 7.47337 12.9209 8.34028 12.3047C8.92494 11.9661 9.54477 11.7383 10.1997 11.6211Z" fill="#FFE619"/>
<path fill-rule="evenodd" clip-rule="evenodd" d="M14.7931 11.6211C15.7612 11.6397 16.6544 11.904 17.4728 12.4141C18.1953 12.9747 18.3138 13.64 17.8283 14.4102C17.37 15.1704 16.7046 15.6079 15.8322 15.7227C15.4282 15.6984 15.0909 15.5343 14.8205 15.2305C14.2086 14.3791 13.9534 13.4311 14.0549 12.3867C14.2018 12.0302 14.4479 11.775 14.7931 11.6211Z" fill="#FFE619"/>
<path fill-rule="evenodd" clip-rule="evenodd" d="M12.7147 15.9961C13.0293 16.0214 13.2754 16.1672 13.453 16.4336C13.8451 16.9444 14.1368 17.5095 14.328 18.1289C14.4184 18.4676 14.2999 18.6955 13.9725 18.8125C13.3412 18.9455 12.7032 18.9819 12.0585 18.9219C11.465 18.8578 11.2371 18.5387 11.3749 17.9648C11.5956 17.3957 11.8872 16.8671 12.2499 16.3789C12.3936 16.2307 12.5485 16.1031 12.7147 15.9961Z" fill="#FFE619"/>
</svg>
