<svg viewBox="0 0 28 28" fill="none" xmlns="http://www.w3.org/2000/svg">
<g clip-path="url(#clip0_146_5047)">
<path opacity="0.973" fill-rule="evenodd" clip-rule="evenodd" d="M3.85595 -0.0273438C4.12939 -0.0273438 4.40283 -0.0273438 4.67627 -0.0273438C4.67627 1.12109 4.67627 2.26953 4.67627 3.41797C4.3111 3.27178 3.94652 3.12595 3.58252 2.98047C3.57341 2.06883 3.58252 1.15737 3.60986 0.246094C3.66592 0.126495 3.74795 0.035349 3.85595 -0.0273438Z" fill="#B45F4A"/>
<path fill-rule="evenodd" clip-rule="evenodd" d="M4.67578 -0.0273438C4.94922 -0.0273438 5.22266 -0.0273438 5.49609 -0.0273438C5.54848 0.0525874 5.61225 0.125504 5.6875 0.191406C5.71484 1.35793 5.72398 2.5246 5.71484 3.69141C5.34873 3.65408 5.00237 3.56293 4.67578 3.41797C4.67578 2.26953 4.67578 1.12109 4.67578 -0.0273438Z" fill="#C46F5E"/>
<path opacity="0.995" fill-rule="evenodd" clip-rule="evenodd" d="M23.0508 2.4883C23.0508 7.48308 23.0508 12.4779 23.0508 17.4727C20.201 16.6597 17.339 16.6141 14.4648 17.336C13.3943 17.6199 12.337 17.948 11.293 18.3203C9.46602 18.9323 7.60665 19.069 5.71484 18.7305C5.37371 18.623 5.02736 18.5136 4.67578 18.4024C4.30204 18.2595 3.93745 18.0955 3.58203 17.9102C3.58203 12.9336 3.58203 7.95705 3.58203 2.98049C3.94603 3.12597 4.31062 3.27181 4.67578 3.41799C5.00237 3.56295 5.34873 3.6541 5.71484 3.69143C7.48858 4.04481 9.23858 3.94455 10.9648 3.39065C12.8977 2.6659 14.8847 2.15548 16.9258 1.8594C18.7306 1.72126 20.5171 1.84887 22.2852 2.24221C22.552 2.3085 22.8073 2.39053 23.0508 2.4883Z" fill="#57565B"/>
<path fill-rule="evenodd" clip-rule="evenodd" d="M23.0508 2.48828C23.4953 2.59395 23.9328 2.72156 24.3633 2.87109C24.3633 7.88413 24.3633 12.8971 24.3633 17.9102C23.9221 17.7752 23.4846 17.6294 23.0508 17.4727C23.0508 12.4779 23.0508 7.48305 23.0508 2.48828Z" fill="#4C4B51"/>
<path fill-rule="evenodd" clip-rule="evenodd" d="M19.0039 7.19143C18.6968 7.91932 18.15 8.20184 17.3633 8.03909C17.1989 7.9751 17.0349 7.91134 16.8711 7.84768C16.7925 7.85966 16.7196 7.887 16.6523 7.92971C16.1328 8.44924 15.6133 8.96878 15.0938 9.48831C15.1547 9.66905 15.2732 9.8149 15.4492 9.92581C15.9121 10.4161 16.3861 10.8991 16.8711 11.375C16.9623 11.4115 17.0534 11.4115 17.1445 11.375C17.9258 11.0156 18.5364 11.207 18.9766 11.9492C19.1898 12.6798 18.9619 13.2176 18.293 13.5625C18.0969 13.6231 17.8963 13.6505 17.6914 13.6446C17.6934 14.371 17.347 14.8267 16.6523 15.0117C15.8763 14.5162 15.6667 13.8417 16.0234 12.9883C16.0599 12.8789 16.0599 12.7696 16.0234 12.6602C14.4466 11.0834 12.8698 9.50652 11.293 7.92971C11.2258 7.887 11.1529 7.85966 11.0742 7.84768C10.6576 8.04806 10.2201 8.11188 9.76172 8.03909C9.36567 7.87098 9.09223 7.58841 8.94141 7.19143C9.13254 6.54579 9.57004 6.23593 10.2539 6.26174C10.2277 5.73992 10.4282 5.32979 10.8555 5.03128C11.6796 4.70584 12.2903 4.9337 12.6875 5.71487C12.712 6.17939 12.6755 6.63515 12.5781 7.08206C13.0347 7.54767 13.4995 8.00343 13.9727 8.44924C14.4458 8.00343 14.9107 7.54767 15.3672 7.08206C15.2698 6.63515 15.2333 6.17939 15.2578 5.71487C15.672 4.87479 16.3009 4.66516 17.1445 5.08596C17.5405 5.37666 17.7228 5.76857 17.6914 6.26174C18.3753 6.23593 18.8128 6.54579 19.0039 7.19143Z" fill="#E7E7E9"/>
<path fill-rule="evenodd" clip-rule="evenodd" d="M8.94094 7.19141C9.09177 7.58838 9.36521 7.87095 9.76125 8.03906C10.2196 8.11185 10.6571 8.04803 11.0738 7.84766C11.1524 7.85963 11.2253 7.88698 11.2925 7.92969C12.8693 9.50649 14.4462 11.0834 16.023 12.6602C16.0594 12.7695 16.0594 12.8789 16.023 12.9883C15.6662 13.8417 15.8758 14.5162 16.6519 15.0117C15.7889 15.0702 15.3149 14.66 15.23 13.7812C15.3026 13.4643 15.3481 13.1452 15.3667 12.8242C14.9102 12.3586 14.4453 11.9028 13.9722 11.457C13.499 11.9028 13.0342 12.3586 12.5777 12.8242C12.5963 13.1452 12.6418 13.4643 12.7144 13.7812C12.6297 14.6598 12.1557 15.07 11.2925 15.0117C12.0686 14.5162 12.2782 13.8417 11.9214 12.9883C11.8849 12.8789 11.8849 12.7695 11.9214 12.6602C12.4691 12.1216 13.0068 11.5748 13.5347 11.0195C13.2347 10.6922 12.9248 10.3732 12.605 10.0625C12.5532 10.0361 12.4985 10.027 12.4409 10.0352C12.447 10.0014 12.4652 9.97407 12.4956 9.95312C12.0399 9.49741 11.5842 9.04165 11.1284 8.58594C11.0612 8.54323 10.9883 8.51588 10.9097 8.50391C10.0896 8.91395 9.44248 8.73168 8.96829 7.95703C8.88144 7.69579 8.87231 7.44062 8.94094 7.19141Z" fill="#D5D5D7"/>
<path fill-rule="evenodd" clip-rule="evenodd" d="M19.0039 7.19141C19.1236 8.09408 18.7225 8.60453 17.8008 8.72266C17.5009 8.67158 17.2093 8.60776 16.9258 8.53125C16.4242 8.98729 15.9321 9.45213 15.4492 9.92578C15.2732 9.81487 15.1547 9.66902 15.0938 9.48828C15.6133 8.96875 16.1328 8.44922 16.6523 7.92969C16.7196 7.88698 16.7925 7.85963 16.8711 7.84766C17.0349 7.91131 17.1989 7.97508 17.3633 8.03906C18.15 8.20181 18.6968 7.9193 19.0039 7.19141Z" fill="#D5D5D7"/>
<path fill-rule="evenodd" clip-rule="evenodd" d="M12.441 10.0352C12.4985 10.027 12.5532 10.0361 12.605 10.0625C12.9249 10.3732 13.2348 10.6922 13.5347 11.0196C13.0069 11.5748 12.4691 12.1217 11.9215 12.6602C11.885 12.7696 11.885 12.8789 11.9215 12.9883C12.2782 13.8417 12.0686 14.5162 11.2925 15.0117C10.8438 14.9194 10.5248 14.6643 10.3355 14.2461C10.2749 14.05 10.2476 13.8495 10.2535 13.6446C9.57383 13.6663 9.12725 13.3563 8.91364 12.7149C8.85698 11.696 9.34004 11.1947 10.3629 11.211C10.5832 11.3492 10.8203 11.4038 11.0738 11.375C11.5223 10.9173 11.9781 10.4707 12.441 10.0352Z" fill="#E6E6E8"/>
<path opacity="0.974" fill-rule="evenodd" clip-rule="evenodd" d="M3.58154 17.9102C3.93696 18.0954 4.30155 18.2595 4.67529 18.4023C4.67529 21.5924 4.67529 24.7826 4.67529 27.9727C4.40186 27.9727 4.12842 27.9727 3.85498 27.9727C3.74697 27.91 3.66494 27.8188 3.60889 27.6992C3.58154 24.4362 3.57243 21.1732 3.58154 17.9102Z" fill="#B45F4A"/>
<path fill-rule="evenodd" clip-rule="evenodd" d="M4.67578 18.4023C5.02736 18.5136 5.37371 18.623 5.71484 18.7305C5.72398 21.7383 5.71484 24.7461 5.6875 27.7539C5.61225 27.8198 5.54848 27.8927 5.49609 27.9727C5.22266 27.9727 4.94922 27.9727 4.67578 27.9727C4.67578 24.7826 4.67578 21.5924 4.67578 18.4023Z" fill="#C46F5E"/>
</g>
<defs>
<clipPath id="clip0_146_5047">
<rect width="28" height="28" fill="white"/>
</clipPath>
</defs>
</svg>
