<svg viewBox="0 0 24 24" fill="none" xmlns="http://www.w3.org/2000/svg">
<g clip-path="url(#clip0_146_4876)">
<path opacity="0.992" fill-rule="evenodd" clip-rule="evenodd" d="M9.67932 -0.0234375C10.6793 -0.0234375 11.6793 -0.0234375 12.6793 -0.0234375C9.8476 0.409474 7.82415 1.9251 6.60901 4.52344C6.19899 5.51475 6.01149 6.546 6.04651 7.61719C6.24498 8.60461 6.83092 9.21398 7.80432 9.44531C6.78859 9.45314 5.77295 9.44531 4.75745 9.42188C3.88636 9.23264 3.33167 8.70919 3.09338 7.85156C3.0206 4.4727 4.49716 2.043 7.52307 0.5625C8.22409 0.278004 8.94282 0.0826917 9.67932 -0.0234375Z" fill="#FFB42C"/>
<path fill-rule="evenodd" clip-rule="evenodd" d="M12.6799 -0.0234375C13.2111 -0.0234375 13.7424 -0.0234375 14.2737 -0.0234375C12.197 0.357238 10.5173 1.38849 9.2346 3.07031C8.2409 4.47354 7.7878 6.03605 7.87523 7.75781C8.04041 8.41397 8.40759 8.91394 8.97679 9.25781C8.60338 9.41531 8.21277 9.4778 7.80491 9.44531C6.83151 9.21399 6.24557 8.60461 6.0471 7.61719C6.01209 6.546 6.19959 5.51475 6.6096 4.52344C7.82474 1.9251 9.8482 0.409474 12.6799 -0.0234375Z" fill="#FDEA4D"/>
<path opacity="0.993" fill-rule="evenodd" clip-rule="evenodd" d="M14.2733 -0.0234375C14.2889 -0.0234375 14.3046 -0.0234375 14.3202 -0.0234375C17.2975 0.461713 19.3522 2.10234 20.4842 4.89844C21.3335 7.65188 20.8492 10.1363 19.0311 12.3516C18.094 13.3437 16.9846 14.0781 15.703 14.5547C15.6355 14.6379 15.5887 14.7316 15.5624 14.8359C15.5468 15.2578 15.5311 15.6797 15.5155 16.1016C15.4137 16.8508 15.0309 17.3977 14.367 17.7422C13.7706 17.3942 13.4034 16.8786 13.2655 16.1953C12.976 14.3295 13.4994 12.7435 14.8358 11.4375C15.0932 11.2385 15.3588 11.051 15.6327 10.875C16.0858 10.6719 16.5389 10.4687 16.9921 10.2656C18.4895 9.19134 18.9348 7.77731 18.328 6.02344C17.4514 4.43295 16.1154 3.80796 14.3202 4.14844C13.6213 3.99424 12.9338 4.0333 12.2577 4.26562C12.1533 4.30973 12.0595 4.36442 11.9764 4.42969C11.18 4.85906 10.6253 5.4997 10.3124 6.35156C10.2074 6.97828 10.098 7.60327 9.98424 8.22656C9.76575 8.6872 9.42985 9.03094 8.97642 9.25781C8.40722 8.91394 8.04005 8.41397 7.87486 7.75781C7.78744 6.03605 8.24053 4.47354 9.23424 3.07031C10.517 1.38849 12.1966 0.357238 14.2733 -0.0234375Z" fill="#FFE619"/>
<path opacity="0.993" fill-rule="evenodd" clip-rule="evenodd" d="M14.3208 4.14843C16.0161 4.74407 16.8365 5.94721 16.7817 7.7578C16.6363 8.85477 16.0972 9.69069 15.1645 10.2656C12.3032 11.307 11.0766 13.3461 11.4848 16.3828C11.7284 17.2124 12.2675 17.728 13.102 17.9297C12.1019 17.9375 11.1019 17.9297 10.102 17.9062C9.1199 17.6741 8.56523 17.0569 8.43796 16.0547C8.22908 14.448 8.63535 13.0261 9.65671 11.7891C10.329 11.0892 11.1337 10.597 12.0708 10.3125C13.5963 9.33037 14.1041 7.96316 13.5942 6.21093C13.2585 5.43004 12.7195 4.83632 11.977 4.42968C12.0601 4.36441 12.1539 4.30972 12.2583 4.26561C12.9344 4.03329 13.6219 3.99423 14.3208 4.14843Z" fill="#FFB42C"/>
<path fill-rule="evenodd" clip-rule="evenodd" d="M14.3675 17.7422C13.9634 17.9073 13.5415 17.9698 13.1018 17.9297C12.2673 17.728 11.7282 17.2124 11.4847 16.3828C11.0764 13.3461 12.303 11.307 15.1643 10.2656C16.097 9.6907 16.6361 8.85478 16.7815 7.75781C16.8363 5.94722 16.016 4.74408 14.3206 4.14843C16.1159 3.80795 17.4518 4.43295 18.3284 6.02343C18.9353 7.77731 18.4899 9.19134 16.9925 10.2656C16.5393 10.4687 16.0862 10.6719 15.6331 10.875C15.3593 11.051 15.0936 11.2385 14.8362 11.4375C13.4999 12.7435 12.9764 14.3295 13.2659 16.1953C13.4039 16.8786 13.771 17.3942 14.3675 17.7422Z" fill="#FDEA4D"/>
<path opacity="0.985" fill-rule="evenodd" clip-rule="evenodd" d="M13.2894 19.8516C11.8278 20.2116 11.2418 21.1335 11.5316 22.6172C11.8188 23.3502 12.3423 23.8033 13.1019 23.9766C12.0863 23.9766 11.0707 23.9766 10.055 23.9766C8.68078 23.49 8.1886 22.5369 8.57846 21.1172C8.8711 20.4962 9.34767 20.0978 10.0081 19.9219C11.1001 19.8545 12.1938 19.8311 13.2894 19.8516Z" fill="#FFB42C"/>
<path fill-rule="evenodd" clip-rule="evenodd" d="M13.2887 19.8516C13.6726 19.8449 14.0319 19.923 14.3668 20.0859C13.2114 20.8162 12.938 21.8006 13.5465 23.0391C13.7705 23.3493 14.044 23.5993 14.3668 23.7891C14.2104 23.8618 14.0542 23.9243 13.8981 23.9766C13.6324 23.9766 13.3668 23.9766 13.1012 23.9766C12.3416 23.8033 11.8181 23.3502 11.5309 22.6172C11.2411 21.1335 11.8271 20.2116 13.2887 19.8516Z" fill="#FDEA4D"/>
<path opacity="0.985" fill-rule="evenodd" clip-rule="evenodd" d="M14.3676 20.0859C15.3708 20.6483 15.7223 21.492 15.4223 22.6172C15.2264 23.149 14.8748 23.5396 14.3676 23.7891C14.0448 23.5993 13.7713 23.3493 13.5473 23.0391C12.9388 21.8006 13.2122 20.8162 14.3676 20.0859Z" fill="#FFE619"/>
</g>
<defs>
<clipPath id="clip0_146_4876">
<rect width="24" height="24" fill="white"/>
</clipPath>
</defs>
</svg>
