<svg viewBox="0 0 28 28" fill="none" xmlns="http://www.w3.org/2000/svg">
<g clip-path="url(#clip0_146_4776)">
<path opacity="0.983" fill-rule="evenodd" clip-rule="evenodd" d="M13.3164 5.38672C13.276 5.37955 13.2395 5.38867 13.207 5.41406C11.9382 6.692 10.6621 7.95895 9.37891 9.21484C8.21226 8.02993 7.04555 6.84507 5.87891 5.66016C5.8602 5.61433 5.82378 5.59606 5.76953 5.60547C5.81016 4.95002 5.82838 4.29377 5.82422 3.63672C6.99136 3.64175 8.15801 3.62352 9.32422 3.58203C9.30601 2.4148 9.32422 1.24813 9.37891 0.0820312C10.9094 1.58518 12.4316 3.09821 13.9453 4.62109C13.9818 4.65755 13.9818 4.69401 13.9453 4.73047C13.7245 4.94205 13.5149 5.1608 13.3164 5.38672Z" fill="#F0D515"/>
<path fill-rule="evenodd" clip-rule="evenodd" d="M13.3168 5.38673C13.5855 5.37918 13.8408 5.41564 14.0824 5.49611C13.4812 6.10648 12.8887 6.7263 12.3051 7.35548C11.6693 8.13445 11.1589 8.99119 10.7738 9.9258C10.376 11.0897 10.4854 12.2017 11.102 13.2617C11.583 13.854 12.1937 14.2642 12.934 14.4922C13.7799 14.7376 14.6002 15.0476 15.3949 15.4219C15.5694 15.5512 15.7335 15.6879 15.8871 15.832C15.6873 15.8079 15.4868 15.7896 15.2856 15.7774C13.6989 15.6266 12.1311 15.736 10.5824 16.1055C10.0011 15.4967 9.40857 14.8951 8.8051 14.3008C8.04598 13.3819 7.63582 12.3246 7.57463 11.1289C7.56746 11.0885 7.5766 11.052 7.60197 11.0195C8.20545 10.4252 8.79793 9.82364 9.37932 9.21486C10.6626 7.95896 11.9386 6.69201 13.2074 5.41408C13.2399 5.38869 13.2764 5.37957 13.3168 5.38673Z" fill="#C1C0BE"/>
<path opacity="0.993" fill-rule="evenodd" clip-rule="evenodd" d="M14.0817 5.49609C15.1259 5.69904 16.0191 6.17302 16.7614 6.91797C16.0383 6.55594 15.5187 6.73821 15.2028 7.46484C15.1493 7.75108 15.1858 8.02452 15.3121 8.28516C15.8864 8.85938 16.4606 9.43359 17.0348 10.0078C17.6198 10.3222 18.1028 10.2037 18.484 9.65234C18.6132 9.27079 18.5858 8.90619 18.402 8.55859C19.585 9.71425 20.7608 10.8809 21.9293 12.0586C22.2011 12.5007 22.1555 12.9017 21.7926 13.2617C21.492 12.9703 21.1821 12.6877 20.8629 12.4141C20.4163 12.3502 20.2249 12.5416 20.2887 12.9883C20.5849 13.2937 20.8857 13.5854 21.191 13.8633C20.9541 14.1367 20.6989 14.3919 20.4254 14.6289C20.1847 14.3058 19.9112 14.005 19.6051 13.7266C19.3458 13.6047 19.1362 13.6685 18.9762 13.918C18.9397 14.0273 18.9397 14.1367 18.9762 14.2461C19.2499 14.5835 19.5506 14.8934 19.8785 15.1758C19.6598 15.431 19.4228 15.668 19.1676 15.8867C18.8852 15.5588 18.5753 15.258 18.2379 14.9844C17.7919 14.957 17.6187 15.1666 17.7184 15.6133C17.9968 15.9194 18.2976 16.1929 18.6207 16.4336C18.6207 16.4518 18.6207 16.4701 18.6207 16.4883C18.3899 16.6907 18.1347 16.8639 17.8551 17.0078C17.5178 17.0819 17.2079 17.0272 16.9254 16.8438C16.5862 16.4954 16.2399 16.1582 15.8864 15.832C15.7327 15.6879 15.5686 15.5512 15.3942 15.4219C14.5994 15.0475 13.7791 14.7376 12.9332 14.4922C12.1929 14.2641 11.5822 13.854 11.1012 13.2617C10.4846 12.2017 10.3753 11.0896 10.7731 9.92578C11.1581 8.99117 11.6685 8.13444 12.3043 7.35547C12.8879 6.72629 13.4804 6.10646 14.0817 5.49609Z" fill="#E7E7E7"/>
<path opacity="0.345" fill-rule="evenodd" clip-rule="evenodd" d="M5.76953 5.60546C5.82378 5.59605 5.8602 5.61432 5.87891 5.66014C5.82455 6.16064 5.80634 6.67104 5.82422 7.19139C4.78516 7.19139 3.74609 7.19139 2.70703 7.19139C3.71834 7.13687 4.73918 7.11866 5.76953 7.13671C5.76953 6.62631 5.76953 6.11585 5.76953 5.60546Z" fill="#EDBE17"/>
<path fill-rule="evenodd" clip-rule="evenodd" d="M5.87891 5.66016C7.04555 6.84507 8.21226 8.02993 9.37891 9.21484C8.79752 9.82363 8.20504 10.4252 7.60156 11.0195C7.57619 11.052 7.56705 11.0885 7.57422 11.1289C7.3483 11.3274 7.12955 11.537 6.91797 11.7578C6.88149 11.7943 6.84507 11.7943 6.80859 11.7578C5.29557 10.2448 3.78255 8.73179 2.26953 7.21875C2.41423 7.19157 2.56007 7.18244 2.70703 7.19141C3.74609 7.19141 4.78516 7.19141 5.82422 7.19141C5.80634 6.67105 5.82455 6.16066 5.87891 5.66016Z" fill="#EBAC19"/>
<path fill-rule="evenodd" clip-rule="evenodd" d="M16.7621 6.91796C17.3272 7.44663 17.8741 7.9935 18.4027 8.55859C18.5866 8.90618 18.6139 9.27078 18.4848 9.65234C18.1036 10.2037 17.6205 10.3221 17.0355 10.0078C16.4613 9.43359 15.8871 8.85937 15.3129 8.28515C15.1866 8.02451 15.1501 7.75107 15.2035 7.46484C15.5195 6.7382 16.039 6.55593 16.7621 6.91796Z" fill="#433E3E"/>
<path fill-rule="evenodd" clip-rule="evenodd" d="M12.988 9.65233C13.3104 9.62187 13.602 9.70391 13.863 9.89843C14.4773 10.4761 15.0515 11.0868 15.5857 11.7305C15.7795 12.5461 15.4605 13.0018 14.6287 13.0976C14.4485 13.1089 14.2844 13.0633 14.1365 12.9609C13.5639 12.443 13.0079 11.9053 12.4685 11.3476C12.0126 10.5837 12.1858 10.0186 12.988 9.65233Z" fill="#433E3E"/>
<path fill-rule="evenodd" clip-rule="evenodd" d="M17.3088 11.2383C17.541 11.2207 17.7598 11.2662 17.965 11.375C18.4124 11.8133 18.8499 12.2599 19.2775 12.7148C18.9502 13.0695 18.6129 13.4159 18.2658 13.7539C17.7902 13.2965 17.3344 12.8226 16.8986 12.332C16.716 11.8413 16.8528 11.4767 17.3088 11.2383Z" fill="#433E3E"/>
<path fill-rule="evenodd" clip-rule="evenodd" d="M21.7932 13.2617C21.6109 13.4805 21.4104 13.681 21.1917 13.8633C20.8863 13.5854 20.5855 13.2937 20.2893 12.9883C20.2255 12.5417 20.4169 12.3502 20.8635 12.4141C21.1827 12.6877 21.4926 12.9703 21.7932 13.2617Z" fill="#C2C1C0"/>
<path fill-rule="evenodd" clip-rule="evenodd" d="M20.4258 14.6289C20.2617 14.8295 20.0795 15.0117 19.8789 15.1758C19.551 14.8934 19.2502 14.5835 18.9766 14.2461C18.9401 14.1367 18.9401 14.0274 18.9766 13.918C19.1365 13.6685 19.3462 13.6047 19.6055 13.7266C19.9116 14.005 20.1851 14.3058 20.4258 14.6289Z" fill="#C2C1C0"/>
<path fill-rule="evenodd" clip-rule="evenodd" d="M19.1679 15.8867C19.0039 16.0872 18.8216 16.2695 18.621 16.4336C18.2979 16.1928 17.9971 15.9194 17.7187 15.6133C17.6191 15.1666 17.7922 14.957 18.2382 14.9844C18.5757 15.258 18.8856 15.5588 19.1679 15.8867Z" fill="#C2C1C0"/>
<path opacity="0.993" fill-rule="evenodd" clip-rule="evenodd" d="M15.2852 15.7774C15.8575 16.377 16.4408 16.9694 17.0352 17.5547C17.3794 17.8094 17.7257 17.8094 18.0742 17.5547C18.377 17.2611 18.6687 16.9603 18.9492 16.6524C20.9077 17.4671 22.7306 18.5062 24.418 19.7695C25.1081 20.3318 25.8555 20.8058 26.6602 21.1914C27.0602 21.4342 27.4977 21.58 27.9727 21.6289C27.9727 23.707 27.9727 25.7852 27.9727 27.8633C18.6393 27.8633 9.30601 27.8633 -0.0273438 27.8633C-0.0273438 25.7852 -0.0273438 23.707 -0.0273438 21.6289C0.873556 21.4699 1.67564 21.1053 2.37891 20.5352C3.07782 20.1034 3.77052 19.6567 4.45703 19.1953C4.52321 19.1385 4.5779 19.0747 4.62109 19.0039C6.4569 17.7306 8.44391 16.7644 10.582 16.1055C12.1307 15.736 13.6985 15.6266 15.2852 15.7774Z" fill="#F0D515"/>
<path fill-rule="evenodd" clip-rule="evenodd" d="M15.2852 15.7773C15.4864 15.7896 15.6869 15.8079 15.8867 15.832C16.2403 16.1582 16.5866 16.4954 16.9258 16.8438C17.2083 17.0272 17.5182 17.0819 17.8555 17.0078C18.1351 16.8639 18.3903 16.6907 18.6211 16.4883C18.7168 16.5632 18.8262 16.6179 18.9492 16.6523C18.6687 16.9603 18.377 17.2611 18.0742 17.5547C17.7257 17.8094 17.3794 17.8094 17.0352 17.5547C16.4408 16.9694 15.8575 16.377 15.2852 15.7773Z" fill="#EBAD1D"/>
<path opacity="0.975" fill-rule="evenodd" clip-rule="evenodd" d="M4.62065 19.0039C4.57745 19.0747 4.52277 19.1385 4.45659 19.1953C3.77008 19.6567 3.07738 20.1033 2.37846 20.5352C1.70253 19.7657 1.73899 19.0274 2.48784 18.3203C3.43029 17.8492 4.14122 18.0771 4.62065 19.0039Z" fill="#EBAC19"/>
<path opacity="0.961" fill-rule="evenodd" clip-rule="evenodd" d="M26.6602 21.1914C25.8555 20.8057 25.1081 20.3318 24.418 19.7695C24.5169 19.3326 24.7721 19.0136 25.1836 18.8125C26.2971 18.5508 26.9534 18.9792 27.1523 20.0976C27.1351 20.5328 26.9711 20.8974 26.6602 21.1914Z" fill="#EBAC19"/>
<path fill-rule="evenodd" clip-rule="evenodd" d="M13.1523 19.332C14.2149 19.2649 14.78 19.7571 14.8477 20.8086C15.8025 20.7795 16.3312 21.2353 16.4336 22.1758C15.5221 22.1758 14.6107 22.1758 13.6992 22.1758C13.683 21.9995 13.7195 21.8354 13.8086 21.6836C13.3529 21.6471 12.8971 21.6107 12.4414 21.5742C11.8774 20.5684 12.1144 19.821 13.1523 19.332Z" fill="#EBAC19"/>
<path fill-rule="evenodd" clip-rule="evenodd" d="M6.69913 20.4258C7.80458 20.3101 8.42435 20.8023 8.5585 21.9023C9.09335 22.0089 9.44882 22.3188 9.62491 22.832C9.75064 24.0367 9.21289 24.6292 8.01163 24.6094C7.27969 24.3763 6.9333 23.875 6.97257 23.1055C6.3348 23.0421 5.94285 22.6958 5.79678 22.0664C5.68599 21.2849 5.98677 20.738 6.69913 20.4258Z" fill="#EBAC19"/>
<path fill-rule="evenodd" clip-rule="evenodd" d="M17.9649 22.9961C18.5412 22.936 19.0243 23.1183 19.4141 23.543C19.5209 23.6936 19.5847 23.8577 19.6055 24.0352C20.2416 23.8107 20.7976 23.9384 21.2735 24.418C21.6633 24.9854 21.6724 25.5596 21.3008 26.1406C20.6274 26.2276 19.9529 26.2823 19.2774 26.3047C19.0874 26.097 18.9325 25.8692 18.8125 25.6211C17.892 25.8682 17.2722 25.5401 16.9532 24.6367C16.8883 23.8362 17.2255 23.2893 17.9649 22.9961Z" fill="#EBAC19"/>
</g>
<defs>
<clipPath id="clip0_146_4776">
<rect width="28" height="28" fill="white"/>
</clipPath>
</defs>
</svg>
