<svg viewBox="0 0 28 28" fill="none" xmlns="http://www.w3.org/2000/svg">
<path opacity="0.97" fill-rule="evenodd" clip-rule="evenodd" d="M8.23076 2.21484C8.09847 2.5273 7.86146 2.69136 7.51982 2.70703C7.18038 2.64555 6.85225 2.54529 6.53545 2.40625C6.3966 2.36273 6.26901 2.37185 6.15264 2.43359C6.07099 2.38918 6.03451 2.31626 6.04326 2.21484C6.17057 1.50418 6.58986 1.08491 7.30107 0.957031C7.38896 0.964523 7.46191 1.00098 7.51982 1.06641C7.69329 1.49367 7.93025 1.87649 8.23076 2.21484Z" fill="#FDD720"/>
<path opacity="0.964" fill-rule="evenodd" clip-rule="evenodd" d="M10.0354 2.37891C8.71028 2.82909 7.79886 3.70409 7.30098 5.00391C7.11936 4.67229 7.09202 4.32593 7.21895 3.96485C7.303 3.76094 7.38504 3.56042 7.46504 3.36329C7.50546 3.37045 7.54193 3.36134 7.57442 3.33595C7.84315 3.00358 8.1348 2.7028 8.44942 2.4336C8.76163 2.25512 9.09889 2.14574 9.46114 2.10548C9.71046 2.0877 9.90186 2.17885 10.0354 2.37891Z" fill="#FEB90C"/>
<path opacity="0.992" fill-rule="evenodd" clip-rule="evenodd" d="M15.8323 8.50391C15.8136 8.54974 15.7771 8.568 15.7229 8.55859C15.1169 8.7698 14.5153 8.99763 13.9182 9.24219C13.3508 9.38634 12.804 9.33166 12.2776 9.07813C11.062 8.35401 9.78597 7.76158 8.44946 7.30078C8.33915 7.24451 8.22978 7.18982 8.12133 7.13672C7.77538 6.9323 7.45639 6.69528 7.1643 6.42578C7.13209 5.94453 7.17765 5.47056 7.30102 5.00391C7.7989 3.70408 8.71032 2.82908 10.0354 2.37891C10.3694 2.25038 10.7157 2.2048 11.0745 2.24219C12.4413 4.49354 14.0273 6.58077 15.8323 8.50391Z" fill="#D1DBDD"/>
<path fill-rule="evenodd" clip-rule="evenodd" d="M8.23047 2.21484C8.32163 2.26953 8.39453 2.34245 8.44922 2.43359C8.1346 2.70279 7.84295 3.00357 7.57422 3.33594C7.54173 3.36133 7.50526 3.37045 7.46484 3.36328C7.08291 2.97206 6.64541 2.66217 6.15234 2.43359C6.26872 2.37185 6.3963 2.36273 6.53516 2.40625C6.85196 2.54529 7.18009 2.64555 7.51953 2.70703C7.86116 2.69136 8.09818 2.5273 8.23047 2.21484Z" fill="#EB9820"/>
<path opacity="0.97" fill-rule="evenodd" clip-rule="evenodd" d="M3.25391 5.93359C3.10358 6.27451 2.83925 6.45678 2.46094 6.48046C2.13915 6.39143 1.82014 6.29119 1.50391 6.17968C1.37759 6.1525 1.24998 6.14342 1.12109 6.15234C1.14046 5.3572 1.55061 4.88325 2.35156 4.73046C2.44511 4.72714 2.51803 4.7636 2.57031 4.83984C2.74554 5.24175 2.9734 5.60634 3.25391 5.93359Z" fill="#FDD721"/>
<path opacity="0.965" fill-rule="evenodd" clip-rule="evenodd" d="M5.27778 6.31641C3.78886 6.52985 2.82271 7.35016 2.37934 8.77734C2.32441 8.71265 2.27884 8.63975 2.24262 8.55859C2.15671 8.04245 2.25698 7.56853 2.5434 7.13672C2.87041 6.82801 3.19854 6.51809 3.52778 6.20703C3.8296 6.02137 4.15773 5.91199 4.51215 5.87891C4.84949 5.88345 5.10469 6.0293 5.27778 6.31641Z" fill="#FEB90C"/>
<path fill-rule="evenodd" clip-rule="evenodd" d="M3.25391 5.93359C3.36328 6.00649 3.45443 6.09766 3.52734 6.20703C3.1981 6.51809 2.86998 6.82801 2.54297 7.13672C2.11294 6.7428 1.63898 6.41468 1.12109 6.15234C1.24998 6.14343 1.37759 6.15251 1.50391 6.17969C1.82014 6.2912 2.13915 6.39144 2.46094 6.48047C2.83925 6.45679 3.10358 6.27452 3.25391 5.93359Z" fill="#EB9920"/>
<path opacity="0.996" fill-rule="evenodd" clip-rule="evenodd" d="M7.51943 7.6836C7.56603 7.83252 7.62985 7.97837 7.71084 8.1211C8.66317 9.59296 9.74778 10.9601 10.9647 12.2227C10.9647 12.2956 10.9647 12.3685 10.9647 12.4414C10.9256 12.5539 10.8891 12.6724 10.8554 12.7969C10.3318 13.0039 9.82139 13.2409 9.32412 13.5078C8.9331 13.6394 8.53208 13.6759 8.121 13.6172C7.21127 13.144 6.29979 12.6701 5.38662 12.1953C5.09496 12.0677 4.80329 11.9401 4.51162 11.8125C4.44329 11.772 4.38861 11.7812 4.34756 11.8399C3.72518 11.3598 3.09627 10.8858 2.46084 10.418C2.31493 9.8787 2.28759 9.33183 2.37881 8.77735C2.82218 7.35017 3.78833 6.52986 5.27725 6.31642C5.75259 6.23602 6.22651 6.24516 6.69912 6.34376C6.99454 6.78017 7.26798 7.2268 7.51943 7.6836Z" fill="#D1DBDD"/>
<path opacity="0.998" fill-rule="evenodd" clip-rule="evenodd" d="M8.12109 7.13672C8.22954 7.18982 8.33891 7.24451 8.44922 7.30078C9.69035 8.23227 10.8935 9.21665 12.0586 10.2539C11.7852 10.5091 11.5117 10.7643 11.2383 11.0195C11.1492 11.0811 11.0672 11.154 10.9922 11.2383C10.9649 11.5659 10.9558 11.894 10.9648 12.2227C9.74788 10.9601 8.66327 9.59295 7.71094 8.12109C7.62995 7.97836 7.56612 7.83251 7.51953 7.68359C7.7542 7.54015 7.95468 7.35788 8.12109 7.13672Z" fill="#8090A0"/>
<path fill-rule="evenodd" clip-rule="evenodd" d="M8.44922 7.30078C9.78573 7.76158 11.0618 8.35401 12.2773 9.07812C12.8037 9.33166 13.3506 9.38634 13.918 9.24219C14.5151 8.99762 15.1167 8.7698 15.7227 8.55859C15.3455 8.7716 14.9992 9.02677 14.6836 9.32422C14.4705 9.49424 14.2699 9.67657 14.082 9.87109C13.5576 9.91528 13.029 9.94263 12.4961 9.95312C12.3558 10.0669 12.21 10.1671 12.0586 10.2539C10.8935 9.21665 9.69035 8.23227 8.44922 7.30078Z" fill="#B4C0C6"/>
<path opacity="0.999" fill-rule="evenodd" clip-rule="evenodd" d="M18.293 10.0898C18.0219 10.2448 17.7303 10.2904 17.418 10.2266C16.7982 9.91665 16.1784 9.60679 15.5586 9.29687C15.2607 9.17935 14.969 9.18848 14.6836 9.32422C14.9992 9.02677 15.3455 8.7716 15.7227 8.55859C15.7769 8.568 15.8133 8.54973 15.832 8.5039C16.2327 8.40208 16.6155 8.44763 16.9805 8.64062C17.4293 9.11662 17.8668 9.59968 18.293 10.0898Z" fill="#FB6970"/>
<path opacity="0.996" fill-rule="evenodd" clip-rule="evenodd" d="M18.293 10.0898C18.5852 10.3821 18.8586 10.692 19.1133 11.0195C18.7796 10.9776 18.4697 11.0414 18.1836 11.2109C17.5833 11.2842 17.0183 11.1748 16.4883 10.8828C16.066 10.5517 15.6285 10.2418 15.1758 9.95313C14.8214 9.80509 14.4568 9.77775 14.082 9.8711C14.2699 9.67658 14.4705 9.49425 14.6836 9.32422C14.969 9.18849 15.2607 9.17936 15.5586 9.29688C16.1784 9.60679 16.7982 9.91665 17.418 10.2266C17.7303 10.2904 18.0219 10.2448 18.293 10.0898Z" fill="#FB5058"/>
<path fill-rule="evenodd" clip-rule="evenodd" d="M19.1133 11.0195C19.143 11.0228 19.1612 11.041 19.168 11.0742C19.1712 11.3065 19.0618 11.4341 18.8398 11.457C18.6109 11.3979 18.4103 11.4526 18.2383 11.6211C18.059 11.6927 17.895 11.7929 17.7461 11.9219C17.3357 12.2868 16.9346 12.6604 16.543 13.043C16.552 12.5869 16.543 12.1312 16.5156 11.6758C16.4642 11.554 16.4003 11.4446 16.3242 11.3477C16.3314 11.3073 16.3222 11.2708 16.2969 11.2383C15.9868 10.9738 15.686 10.7003 15.3945 10.418C15.2213 10.254 15.0391 10.0991 14.8477 9.95314C14.5824 9.94362 14.3271 9.91628 14.082 9.87111C14.4568 9.77776 14.8214 9.8051 15.1758 9.95314C15.6285 10.2418 16.066 10.5517 16.4883 10.8828C17.0183 11.1748 17.5833 11.2842 18.1836 11.211C18.4697 11.0414 18.7796 10.9776 19.1133 11.0195Z" fill="#EB323B"/>
<path fill-rule="evenodd" clip-rule="evenodd" d="M14.082 9.87109C14.3271 9.91627 14.5824 9.94361 14.8477 9.95312C15.0391 10.0991 15.2213 10.254 15.3945 10.418C15.38 10.7132 15.3071 10.9867 15.1758 11.2383C14.9878 11.0778 14.8055 10.9046 14.6289 10.7188C13.9909 10.6823 13.3529 10.6823 12.7148 10.7188C12.3924 11.0144 12.0642 11.2969 11.7305 11.5664C11.6862 11.6644 11.6589 11.7738 11.6484 11.8945C11.4378 11.6374 11.3011 11.3457 11.2383 11.0195C11.5117 10.7643 11.7852 10.5091 12.0586 10.2539C12.21 10.1671 12.3558 10.0669 12.4961 9.95312C13.029 9.94263 13.5576 9.91528 14.082 9.87109Z" fill="#B76D5E"/>
<path fill-rule="evenodd" clip-rule="evenodd" d="M15.3945 10.418C15.686 10.7003 15.9868 10.9738 16.2969 11.2383C16.3222 11.2708 16.3314 11.3072 16.3242 11.3477C16.3334 12.1317 16.3242 12.9156 16.2969 13.6992C15.832 14.1641 15.3672 14.6289 14.9023 15.0938C14.0632 15.1178 13.2247 15.0995 12.3867 15.0391C11.8999 14.5252 11.426 14.0057 10.9648 13.4805C10.9332 13.3284 10.8968 13.1826 10.8555 13.043C10.9552 12.86 10.9916 12.6594 10.9648 12.4414C10.9648 12.3685 10.9648 12.2956 10.9648 12.2227C10.9558 11.894 10.9649 11.5659 10.9922 11.2383C11.0672 11.154 11.1492 11.0811 11.2383 11.0195C11.3011 11.3457 11.4378 11.6374 11.6484 11.8945C11.6589 11.7738 11.6862 11.6644 11.7305 11.5664C11.7137 11.7242 11.7319 11.87 11.7852 12.0039C11.7852 12.1315 11.7852 12.2591 11.7852 12.3867C11.7474 12.6456 11.711 12.9099 11.6758 13.1797C11.6883 13.2015 11.7065 13.2106 11.7305 13.207C12.0472 13.5878 12.3753 13.9614 12.7148 14.3281C13.3335 14.3966 13.9532 14.4149 14.5742 14.3828C14.9115 14.0456 15.2487 13.7084 15.5859 13.3711C15.631 12.8511 15.6219 12.3406 15.5586 11.8398C15.4142 11.7138 15.2683 11.5862 15.1211 11.457C15.1211 11.4388 15.1211 11.4206 15.1211 11.4023C15.1545 11.3536 15.1727 11.2989 15.1758 11.2383C15.3071 10.9867 15.38 10.7132 15.3945 10.418Z" fill="#A95442"/>
<path fill-rule="evenodd" clip-rule="evenodd" d="M15.1759 11.2383C15.1728 11.2989 15.1546 11.3536 15.1212 11.4024C14.9343 11.2978 14.7702 11.1611 14.6291 10.9922C13.991 10.9557 13.353 10.9557 12.715 10.9922C12.3835 11.2441 12.0828 11.5266 11.8127 11.8399C11.7862 11.8917 11.7772 11.9464 11.7853 12.0039C11.7321 11.87 11.7139 11.7242 11.7306 11.5664C12.0644 11.2969 12.3925 11.0144 12.715 10.7188C13.353 10.6823 13.991 10.6823 14.6291 10.7188C14.8056 10.9046 14.9879 11.0778 15.1759 11.2383Z" fill="#9E5343"/>
<path fill-rule="evenodd" clip-rule="evenodd" d="M15.1211 11.4024C15.1211 11.4206 15.1211 11.4388 15.1211 11.457C14.9667 11.6197 14.8391 11.802 14.7382 12.0039C14.5425 11.7265 14.2873 11.5169 13.9726 11.375C13.7832 11.3303 13.6009 11.3486 13.4257 11.4297C13.2852 11.5653 13.1577 11.7111 13.0429 11.8672C12.8383 11.9622 12.6651 12.099 12.5234 12.2774C12.4806 12.4281 12.508 12.5648 12.6054 12.6875C12.5151 12.7679 12.4604 12.8681 12.4414 12.9883C12.5007 13.1614 12.5736 13.3254 12.6601 13.4805C12.2758 13.2785 11.9841 12.9868 11.7851 12.6055C11.7851 12.5326 11.7851 12.4596 11.7851 12.3867C11.7851 12.2591 11.7851 12.1315 11.7851 12.0039C11.777 11.9464 11.786 11.8917 11.8125 11.8399C12.0826 11.5266 12.3833 11.2441 12.7148 10.9922C13.3528 10.9557 13.9908 10.9557 14.6289 10.9922C14.77 11.1611 14.9341 11.2978 15.1211 11.4024Z" fill="#FDDC3F"/>
<path fill-rule="evenodd" clip-rule="evenodd" d="M15.1211 11.457C15.2683 11.5862 15.4142 11.7138 15.5586 11.8398C15.3981 12.7845 14.8513 13.386 13.918 13.6445C14.1699 13.2741 14.4524 12.9277 14.7656 12.6055C14.8027 12.402 14.7936 12.2014 14.7383 12.0039C14.8391 11.802 14.9667 11.6197 15.1211 11.457Z" fill="#FDD725"/>
<path opacity="0.994" fill-rule="evenodd" clip-rule="evenodd" d="M18.8401 11.457C20.8748 13.5106 23.0076 15.4429 25.2385 17.2539C24.7933 17.3354 24.374 17.4813 23.9807 17.6914C22.9961 18.1291 22.2852 18.8401 21.8479 19.8242C21.6825 20.11 21.564 20.4199 21.4924 20.7539C21.4277 20.8212 21.364 20.8212 21.301 20.7539C20.4438 19.6585 19.587 18.5648 18.7307 17.4726C18.3713 16.7204 17.9976 15.973 17.6096 15.2305C16.8773 13.8471 17.087 12.644 18.2385 11.6211C18.4106 11.4525 18.6111 11.3979 18.8401 11.457Z" fill="#D1DBDD"/>
<path fill-rule="evenodd" clip-rule="evenodd" d="M16.3242 11.3477C16.4003 11.4446 16.4642 11.554 16.5156 11.6758C16.543 12.1312 16.552 12.5869 16.543 13.043C16.552 13.4262 16.543 13.809 16.5156 14.1914C16.4245 14.3279 16.3242 14.4555 16.2148 14.5742C15.8248 14.9369 15.442 15.3105 15.0664 15.6953C14.8301 15.7226 14.5931 15.7317 14.3555 15.7227C14.0587 15.7072 13.767 15.7254 13.4805 15.7773C13.3466 15.7241 13.2007 15.7059 13.043 15.7227C12.6813 15.8051 12.3987 15.6957 12.1953 15.3945C11.8125 14.9388 11.4297 14.4831 11.0469 14.0273C11.0283 13.8425 11.001 13.6602 10.9648 13.4805C11.426 14.0057 11.8999 14.5252 12.3867 15.0391C13.2247 15.0995 14.0632 15.1178 14.9023 15.0938C15.3672 14.6289 15.832 14.1641 16.2969 13.6992C16.3242 12.9156 16.3334 12.1317 16.3242 11.3477Z" fill="#9B4235"/>
<path fill-rule="evenodd" clip-rule="evenodd" d="M4.34766 11.8398C4.3887 11.7812 4.44339 11.772 4.51172 11.8125C4.80338 11.9401 5.09505 12.0677 5.38672 12.1953C6.29989 12.6701 7.21137 13.144 8.12109 13.6172C8.53218 13.6759 8.9332 13.6394 9.32422 13.5078C9.82149 13.2409 10.3319 13.0039 10.8555 12.7969C10.8892 12.6723 10.9257 12.5538 10.9648 12.4414C10.9916 12.6594 10.9552 12.86 10.8555 13.043C10.7096 13.1523 10.582 13.2799 10.4727 13.4258C9.81701 14.0257 9.27927 14.7184 8.85938 15.5039C8.84948 15.6786 8.82213 15.8427 8.77734 15.9961C7.40403 14.495 5.92747 13.1096 4.34766 11.8398Z" fill="#B5C1C7"/>
<path fill-rule="evenodd" clip-rule="evenodd" d="M18.2383 11.6211C17.0867 12.644 16.8771 13.8471 17.6094 15.2305C17.9973 15.973 18.3711 16.7204 18.7305 17.4727C17.8919 16.5065 17.0534 15.5404 16.2148 14.5742C16.3242 14.4555 16.4245 14.3279 16.5156 14.1914C16.543 13.809 16.552 13.4262 16.543 13.043C16.9346 12.6604 17.3357 12.2868 17.7461 11.9219C17.895 11.7929 18.059 11.6927 18.2383 11.6211Z" fill="#B4BFC5"/>
<path fill-rule="evenodd" clip-rule="evenodd" d="M14.7383 12.0039C14.7936 12.2014 14.8027 12.402 14.7656 12.6055C14.4524 12.9277 14.1699 13.2741 13.918 13.6445C13.7856 13.6559 13.658 13.6376 13.5352 13.5898C13.3684 13.6973 13.1861 13.7247 12.9883 13.6719C12.8841 13.5942 12.7747 13.5303 12.6602 13.4805C12.5736 13.3254 12.5007 13.1614 12.4414 12.9883C12.4604 12.8681 12.5151 12.7679 12.6055 12.6875C12.508 12.5648 12.4807 12.4281 12.5234 12.2773C12.6652 12.0989 12.8384 11.9622 13.043 11.8672C13.1577 11.7111 13.2853 11.5652 13.4258 11.4297C13.6009 11.3486 13.7832 11.3303 13.9727 11.375C14.2873 11.5169 14.5426 11.7265 14.7383 12.0039Z" fill="#F4F1F7"/>
<path fill-rule="evenodd" clip-rule="evenodd" d="M13.043 12.0039C13.351 12.0291 13.4878 12.1932 13.4531 12.4961C13.2443 12.6448 13.0621 12.6084 12.9063 12.3867C12.8698 12.3138 12.8698 12.2409 12.9063 12.168C12.9634 12.1202 13.009 12.0655 13.043 12.0039Z" fill="#FDDE4C"/>
<path fill-rule="evenodd" clip-rule="evenodd" d="M15.5586 11.8398C15.6219 12.3406 15.631 12.8511 15.5859 13.3711C15.2487 13.7084 14.9115 14.0456 14.5742 14.3828C13.9532 14.4149 13.3335 14.3966 12.7148 14.3281C12.3753 13.9614 12.0472 13.5878 11.7305 13.207C11.7842 13.0177 11.8024 12.8172 11.7852 12.6055C11.9842 12.9868 12.2758 13.2785 12.6602 13.4805C12.7747 13.5303 12.8841 13.5942 12.9883 13.6719C13.1861 13.7247 13.3684 13.6974 13.5352 13.5898C13.658 13.6376 13.7856 13.6559 13.918 13.6445C14.8513 13.386 15.3981 12.7845 15.5586 11.8398Z" fill="#FEB809"/>
<path fill-rule="evenodd" clip-rule="evenodd" d="M13.6445 12.6602C14.071 12.6381 14.1987 12.8113 14.0273 13.1797C13.7652 13.2286 13.6011 13.1193 13.5352 12.8516C13.5613 12.7803 13.5978 12.7166 13.6445 12.6602Z" fill="#FDD82C"/>
<path fill-rule="evenodd" clip-rule="evenodd" d="M13.0975 12.7695C13.3423 12.7859 13.4153 12.9044 13.3163 13.125C13.0588 13.1295 12.9859 13.011 13.0975 12.7695Z" fill="#FDDA3C"/>
<path fill-rule="evenodd" clip-rule="evenodd" d="M11.7852 12.3867C11.7852 12.4596 11.7852 12.5326 11.7852 12.6055C11.8024 12.8172 11.7842 13.0177 11.7305 13.207C11.7065 13.2106 11.6882 13.2015 11.6758 13.1797C11.711 12.9099 11.7474 12.6456 11.7852 12.3867Z" fill="#D68A13"/>
<path opacity="0.994" fill-rule="evenodd" clip-rule="evenodd" d="M10.4727 13.4258C11.2176 14.2026 11.5366 15.1323 11.4297 16.2148C11.329 16.6724 11.2196 17.1282 11.1016 17.582C11.0743 17.8914 11.0651 18.2013 11.0742 18.5117C11.0742 18.6029 11.0742 18.694 11.0742 18.7852C10.3636 18.1201 9.68002 17.4274 9.02344 16.707C8.88256 16.4896 8.80053 16.2527 8.77734 15.9961C8.82213 15.8427 8.84948 15.6786 8.85938 15.5039C9.27927 14.7184 9.81701 14.0257 10.4727 13.4258Z" fill="#FB5058"/>
<path fill-rule="evenodd" clip-rule="evenodd" d="M10.8555 13.043C10.8968 13.1826 10.9332 13.3284 10.9648 13.4805C11.001 13.6602 11.0283 13.8425 11.0469 14.0273C11.4297 14.4831 11.8125 14.9388 12.1953 15.3945C12.3987 15.6957 12.6813 15.8051 13.043 15.7227C12.5855 16.171 12.1571 16.645 11.7578 17.1445C11.4698 17.5748 11.2419 18.0305 11.0742 18.5117C11.0651 18.2013 11.0743 17.8914 11.1016 17.582C11.2196 17.1282 11.329 16.6724 11.4297 16.2148C11.5366 15.1323 11.2176 14.2026 10.4727 13.4258C10.582 13.2799 10.7096 13.1523 10.8555 13.043Z" fill="#F0363E"/>
<path opacity="0.996" fill-rule="evenodd" clip-rule="evenodd" d="M16.2148 14.5742C17.0534 15.5404 17.8919 16.5065 18.7305 17.4727C19.5868 18.5648 20.4436 19.6585 21.3008 20.7539C21.3637 20.8212 21.4275 20.8212 21.4922 20.7539C21.5638 20.4199 21.6822 20.11 21.8477 19.8242C21.8304 20.0144 21.8577 20.1968 21.9297 20.3711C22.1486 20.6538 22.3947 20.909 22.668 21.1367C22.8923 21.4151 23.184 21.5154 23.543 21.4375C23.6656 21.3754 23.7932 21.3298 23.9258 21.3008C23.5541 21.6999 23.1713 22.0918 22.7773 22.4766C22.5061 22.4225 22.2327 22.3587 21.957 22.2852C22.0323 22.5191 22.0779 22.7561 22.0938 22.9961C21.6291 23.3972 21.1278 23.7435 20.5898 24.0352C20.6435 23.782 20.6526 23.5268 20.6172 23.2695C20.5444 23.133 20.4442 23.0237 20.3164 22.9414C20.0905 22.6881 19.8536 22.4421 19.6055 22.2031C19.4394 22.0934 19.2572 22.0478 19.0586 22.0664C19.3869 21.9363 19.7333 21.8543 20.0977 21.8203C20.1497 21.781 20.1587 21.7355 20.125 21.6836C18.0975 19.8475 16.1925 17.897 14.4102 15.832C14.3919 15.7956 14.3737 15.7591 14.3555 15.7227C14.5931 15.7317 14.8301 15.7226 15.0664 15.6953C15.442 15.3105 15.8248 14.9369 16.2148 14.5742Z" fill="#8090A0"/>
<path opacity="0.997" fill-rule="evenodd" clip-rule="evenodd" d="M13.043 15.7227C13.2007 15.7059 13.3466 15.7241 13.4805 15.7773C13.0281 16.2391 12.5815 16.713 12.1406 17.1992C11.9584 17.4909 11.776 17.7826 11.5938 18.0742C11.4506 18.3303 11.3686 18.6038 11.3477 18.8945C11.2275 18.9153 11.1363 18.8788 11.0742 18.7852C11.0742 18.694 11.0742 18.6029 11.0742 18.5117C11.2419 18.0305 11.4698 17.5748 11.7578 17.1445C12.1571 16.645 12.5855 16.171 13.043 15.7227Z" fill="#E12934"/>
<path fill-rule="evenodd" clip-rule="evenodd" d="M14.3555 15.7226C14.3737 15.7591 14.3919 15.7955 14.4102 15.832C14.0034 15.9557 13.7027 16.2109 13.5078 16.5976C13.0807 17.4352 12.9896 18.3102 13.2344 19.2226C13.584 20.5001 14.0672 21.7215 14.6836 22.8867C13.7556 21.7668 12.835 20.6366 11.9219 19.4961C11.7296 19.2915 11.5382 19.091 11.3477 18.8945C11.3686 18.6038 11.4506 18.3303 11.5938 18.0742C11.776 17.7826 11.9584 17.4909 12.1406 17.1992C12.5815 16.713 13.0281 16.2391 13.4805 15.7773C13.767 15.7254 14.0587 15.7072 14.3555 15.7226Z" fill="#B4C1C7"/>
<path opacity="0.998" fill-rule="evenodd" clip-rule="evenodd" d="M14.4102 15.832C16.1925 17.897 18.0975 19.8475 20.125 21.6836C20.1587 21.7355 20.1497 21.781 20.0977 21.8203C19.7333 21.8543 19.3869 21.9363 19.0586 22.0664C18.6958 22.1475 18.3677 22.3025 18.0742 22.5312C17.8281 22.7773 17.582 23.0234 17.3359 23.2695C17.1185 23.5411 16.9454 23.8328 16.8164 24.1445C16.6301 24.4451 16.5025 24.7733 16.4336 25.1289C15.8112 24.4134 15.2279 23.666 14.6836 22.8867C14.0672 21.7215 13.584 20.5002 13.2344 19.2227C12.9896 18.3103 13.0807 17.4353 13.5078 16.5977C13.7027 16.2109 14.0034 15.9557 14.4102 15.832Z" fill="#D1DBDD"/>
<path opacity="0.972" fill-rule="evenodd" clip-rule="evenodd" d="M25.2383 17.2539C25.3797 17.6775 25.4344 18.115 25.4023 18.5664C25.3659 18.5482 25.3294 18.5299 25.293 18.5117C25.0447 18.1996 24.753 17.9353 24.418 17.7188C24.2733 17.6916 24.1274 17.6824 23.9805 17.6914C24.3737 17.4813 24.793 17.3354 25.2383 17.2539Z" fill="#82919F"/>
<path fill-rule="evenodd" clip-rule="evenodd" d="M23.9806 17.6914C24.1276 17.6824 24.2734 17.6916 24.4181 17.7188C24.7532 17.9353 25.0448 18.1996 25.2931 18.5117C25.0408 18.4543 24.7856 18.4452 24.5275 18.4844C23.7451 18.8109 23.1527 19.3487 22.7501 20.0977C22.6028 20.4337 22.5754 20.78 22.6681 21.1367C22.3948 20.909 22.1487 20.6538 21.9298 20.3711C21.8579 20.1968 21.8305 20.0144 21.8478 19.8242C22.2851 18.8401 22.996 18.1291 23.9806 17.6914Z" fill="#FDB80C"/>
<path opacity="0.989" fill-rule="evenodd" clip-rule="evenodd" d="M25.2929 18.5117C25.3294 18.5299 25.3658 18.5482 25.4023 18.5664C25.5721 18.7155 25.645 18.9069 25.6211 19.1406C25.6131 19.5117 25.5037 19.849 25.2929 20.1523C25.0034 19.9029 24.7938 19.5929 24.664 19.2226C23.9849 19.2636 23.6021 19.6281 23.5156 20.3164C23.9055 20.4614 24.2428 20.6801 24.5273 20.9726C24.3516 21.1244 24.1511 21.2337 23.9258 21.3008C23.7932 21.3298 23.6656 21.3754 23.5429 21.4375C23.184 21.5154 22.8923 21.4151 22.6679 21.1367C22.5752 20.78 22.6026 20.4336 22.75 20.0976C23.1525 19.3486 23.745 18.8109 24.5273 18.4844C24.7854 18.4452 25.0406 18.4543 25.2929 18.5117Z" fill="#FDD721"/>
<path opacity="0.98" fill-rule="evenodd" clip-rule="evenodd" d="M25.293 20.1523C25.6506 20.5274 26.0699 20.8191 26.5508 21.0273C25.8763 21.1549 25.4752 21.556 25.3477 22.2305C25.143 21.7663 24.8695 21.347 24.5273 20.9727C24.2428 20.6801 23.9055 20.4614 23.5156 20.3164C23.6021 19.6281 23.9849 19.2636 24.6641 19.2227C24.7938 19.5929 25.0034 19.9029 25.293 20.1523Z" fill="#FFB905"/>
<path opacity="0.967" fill-rule="evenodd" clip-rule="evenodd" d="M26.5508 21.0273C26.7363 21.0855 26.8457 21.2131 26.8789 21.4102C26.7127 22.1518 26.2569 22.5073 25.5117 22.4766C25.4361 22.4071 25.3814 22.325 25.3477 22.2305C25.4752 21.556 25.8763 21.1549 26.5508 21.0273Z" fill="#FED820"/>
<path opacity="0.998" fill-rule="evenodd" clip-rule="evenodd" d="M19.0584 22.0664C19.2569 22.0478 19.4392 22.0934 19.6052 22.2031C19.8534 22.4421 20.0903 22.6882 20.3162 22.9414C19.9354 22.8465 19.5708 22.892 19.2224 23.0781C18.3839 23.534 17.8552 24.2267 17.6365 25.1563C17.6564 25.316 17.6929 25.4709 17.7459 25.6211C17.6365 25.5482 17.5453 25.457 17.4724 25.3477C17.3104 25.1582 17.1373 24.976 16.9529 24.8008C16.8441 24.5955 16.7986 24.3768 16.8162 24.1445C16.9451 23.8328 17.1183 23.5411 17.3357 23.2695C17.5818 23.0234 17.8279 22.7774 18.074 22.5313C18.3674 22.3025 18.6956 22.1475 19.0584 22.0664Z" fill="#FEB908"/>
<path opacity="0.989" fill-rule="evenodd" clip-rule="evenodd" d="M20.3164 22.9414C20.4442 23.0237 20.5444 23.133 20.6172 23.2695C20.6526 23.5268 20.6435 23.782 20.5898 24.0352C20.5474 24.2294 20.4745 24.4118 20.3711 24.582C20.2688 24.5624 20.1867 24.5077 20.125 24.418C19.9528 24.1922 19.8161 23.9461 19.7148 23.6797C19.0726 23.7107 18.6898 24.0479 18.5664 24.6914C18.5846 24.7279 18.6029 24.7643 18.6211 24.8008C19.0058 24.928 19.3157 25.1468 19.5508 25.457C19.1043 25.8214 18.5939 25.9582 18.0195 25.8672C17.9014 25.8127 17.8102 25.7307 17.7461 25.6211C17.6931 25.4709 17.6566 25.316 17.6367 25.1563C17.8554 24.2267 18.3841 23.534 19.2227 23.0781C19.571 22.892 19.9356 22.8465 20.3164 22.9414Z" fill="#FDD720"/>
<path opacity="0.981" fill-rule="evenodd" clip-rule="evenodd" d="M20.3711 24.582C20.7185 24.9841 21.1378 25.2941 21.6289 25.5117C20.9442 25.5948 20.5431 25.9777 20.4258 26.6602C20.2144 26.201 19.9227 25.8 19.5508 25.457C19.3157 25.1467 19.0058 24.928 18.6211 24.8008C18.6029 24.7643 18.5846 24.7279 18.5664 24.6914C18.6898 24.0479 19.0726 23.7106 19.7148 23.6797C19.8161 23.9461 19.9528 24.1922 20.125 24.418C20.1867 24.5077 20.2688 24.5624 20.3711 24.582Z" fill="#FFB905"/>
<path opacity="0.962" fill-rule="evenodd" clip-rule="evenodd" d="M16.8164 24.1445C16.7988 24.3768 16.8444 24.5955 16.9531 24.8008C17.1375 24.9759 17.3107 25.1582 17.4727 25.3477C17.2713 25.3567 17.0708 25.3476 16.8711 25.3203C16.7016 25.2991 16.5558 25.2353 16.4336 25.1289C16.5025 24.7733 16.6301 24.4451 16.8164 24.1445Z" fill="#85929E"/>
<path opacity="0.964" fill-rule="evenodd" clip-rule="evenodd" d="M21.6289 25.5117C21.7608 25.4919 21.8428 25.5466 21.875 25.6758C21.8759 26.3955 21.5205 26.833 20.8086 26.9883C20.5769 26.992 20.4494 26.8826 20.4258 26.6602C20.5431 25.9777 20.9442 25.5948 21.6289 25.5117Z" fill="#FED720"/>
</svg>
