<svg viewBox="0 0 28 28" fill="none" xmlns="http://www.w3.org/2000/svg">
<path opacity="0.983" fill-rule="evenodd" clip-rule="evenodd" d="M10.9102 1.06641C10.9102 1.72266 10.9102 2.37891 10.9102 3.03516C9.93967 3.06624 8.97351 3.02067 8.01172 2.89844C7.44559 2.79814 7.04457 2.48825 6.80859 1.96875C6.47784 1.73589 6.13151 1.71767 5.76953 1.91406C5.60547 1.9961 5.44141 2.07813 5.27734 2.16016C5.44236 1.2742 5.971 0.69998 6.86328 0.437502C7.39479 0.390533 7.9234 0.408762 8.44922 0.49219C8.59152 0.540502 8.71002 0.622532 8.80469 0.738283C8.93479 1.12881 9.20823 1.31111 9.625 1.28516C10.0586 1.25268 10.4869 1.17976 10.9102 1.06641Z" fill="#C92C47"/>
<path opacity="0.996" fill-rule="evenodd" clip-rule="evenodd" d="M11.7848 4.34765C11.4932 4.34765 11.2015 4.34765 10.9098 4.34765C10.9098 3.91015 10.9098 3.47265 10.9098 3.03515C10.9098 2.3789 10.9098 1.72265 10.9098 1.0664C10.8185 0.528824 11.0372 0.319189 11.5661 0.437498C11.6663 0.464842 11.7302 0.528644 11.7575 0.628904C11.7848 1.86835 11.794 3.10794 11.7848 4.34765Z" fill="#564A47"/>
<path fill-rule="evenodd" clip-rule="evenodd" d="M10.9098 4.34766C11.2014 4.34766 11.4931 4.34766 11.7848 4.34766C12.3866 4.33855 12.9882 4.34767 13.5895 4.375C13.9307 4.55649 14.0584 4.83905 13.9723 5.22266C13.8552 5.06014 13.7094 4.92342 13.5348 4.8125C12.0764 4.77604 10.6181 4.77604 9.15979 4.8125C8.98523 4.92342 8.83938 5.06014 8.72229 5.22266C8.63621 4.83905 8.76385 4.55649 9.1051 4.375C9.70639 4.34767 10.308 4.33855 10.9098 4.34766Z" fill="#FEAE3E"/>
<path opacity="0.994" fill-rule="evenodd" clip-rule="evenodd" d="M13.9727 5.22266C13.8025 5.5994 13.5108 5.74525 13.0977 5.66016C11.931 5.66016 10.7643 5.66016 9.59766 5.66016C9.18449 5.74525 8.89284 5.5994 8.72266 5.22266C8.83974 5.06014 8.98559 4.92342 9.16016 4.8125C10.6185 4.77604 12.0768 4.77604 13.5352 4.8125C13.7097 4.92342 13.8556 5.06014 13.9727 5.22266Z" fill="#D19034"/>
<path fill-rule="evenodd" clip-rule="evenodd" d="M9.59766 5.66016C10.7643 5.66016 11.931 5.66016 13.0977 5.66016C13.0707 5.9587 13.0161 6.25034 12.9336 6.53516C12.3864 6.52608 11.8395 6.53516 11.293 6.5625C10.7357 6.81155 10.5352 7.23991 10.6914 7.84766C10.4544 7.84766 10.2174 7.84766 9.98047 7.84766C9.85288 7.11851 9.72524 6.3893 9.59766 5.66016Z" fill="#83553D"/>
<path opacity="0.991" fill-rule="evenodd" clip-rule="evenodd" d="M12.9331 6.53516C12.8532 6.97151 12.7802 7.40901 12.7144 7.84766C12.4045 7.84766 12.0946 7.84766 11.7847 7.84766C11.493 7.84766 11.2013 7.84766 10.9097 7.84766C10.8368 7.84766 10.7638 7.84766 10.6909 7.84766C10.5348 7.23991 10.7352 6.81155 11.2925 6.5625C11.8391 6.53516 12.3859 6.52608 12.9331 6.53516Z" fill="#B17745"/>
<path opacity="0.982" fill-rule="evenodd" clip-rule="evenodd" d="M23.707 14.4102C23.0326 14.8142 22.3217 14.8962 21.5742 14.6562C21.356 14.4928 21.201 14.2832 21.1094 14.0273C20.9629 13.1694 20.5983 12.422 20.0156 11.7852C19.0264 10.8041 17.9236 9.9838 16.707 9.32422C15.9525 8.54224 15.1868 7.76754 14.4102 7C16.9529 8.33798 19.3227 9.94219 21.5195 11.8125C22.3857 12.5737 23.1148 13.4396 23.707 14.4102Z" fill="#464549"/>
<path fill-rule="evenodd" clip-rule="evenodd" d="M10.9102 7.84766C11.2018 7.84766 11.4935 7.84766 11.7852 7.84766C11.7852 11.3477 11.7852 14.8477 11.7852 18.3477C11.4935 18.3477 11.2018 18.3477 10.9102 18.3477C10.9102 14.8477 10.9102 11.3477 10.9102 7.84766Z" fill="#564A46"/>
<path opacity="0.992" fill-rule="evenodd" clip-rule="evenodd" d="M13.0977 8.77734C13.1009 8.74765 13.1191 8.72944 13.1523 8.72266C14.7232 9.75532 16.1178 10.9949 17.3359 12.4414C17.8005 13.0059 18.1194 13.6439 18.293 14.3555C17.996 15.355 17.4126 16.148 16.543 16.7344C15.7679 17.1992 15.0023 17.1992 14.2461 16.7344C14.1564 16.6726 14.1017 16.5906 14.082 16.4883C14.7358 15.6552 15.0001 14.7073 14.875 13.6445C14.5574 11.9167 13.9649 10.2943 13.0977 8.77734Z" fill="#454449"/>
<path opacity="0.983" fill-rule="evenodd" clip-rule="evenodd" d="M13.0977 8.77734C13.9649 10.2943 14.5574 11.9167 14.875 13.6445C15.0001 14.7073 14.7358 15.6552 14.082 16.4883C13.9171 16.7079 13.7166 16.8901 13.4805 17.0352C13.2075 16.4527 12.9341 15.8694 12.6602 15.2852C13.4642 13.7947 13.7285 12.2088 13.4531 10.5273C13.366 9.93661 13.2475 9.35326 13.0977 8.77734Z" fill="#262629"/>
<path opacity="0.999" fill-rule="evenodd" clip-rule="evenodd" d="M16.707 9.32422C17.9236 9.9838 19.0264 10.8041 20.0156 11.7852C20.5983 12.422 20.9629 13.1694 21.1094 14.0273C21.201 14.2832 21.356 14.4928 21.5742 14.6562C22.3217 14.8962 23.0326 14.8142 23.707 14.4102C23.9636 14.8344 24.0547 15.2901 23.9805 15.7773C22.1088 16.5134 20.2313 17.2152 18.3477 17.8828C20.1004 16.1232 20.2918 14.2 18.9219 12.1133C18.2551 11.1274 17.5168 10.1977 16.707 9.32422Z" fill="#323236"/>
<path opacity="0.984" fill-rule="evenodd" clip-rule="evenodd" d="M9.16062 13.043C8.64612 13.1138 8.2633 12.9224 8.01218 12.4687C7.89351 12.382 7.76587 12.3091 7.62937 12.25C6.29865 12.2135 4.96791 12.2135 3.63718 12.25C3.04053 12.5413 2.88559 12.988 3.17233 13.5898C3.28514 13.712 3.40363 13.8214 3.5278 13.918C2.75995 13.6408 2.45917 13.0939 2.62546 12.2773C2.78041 11.8307 3.08119 11.5299 3.5278 11.375C4.9706 11.3223 6.41071 11.3405 7.84812 11.4297C8.12773 11.5558 8.37383 11.7289 8.5864 11.9492C8.79246 12.3067 8.98387 12.6712 9.16062 13.043Z" fill="#FFCA51"/>
<path fill-rule="evenodd" clip-rule="evenodd" d="M15.3945 11.7852C16.3885 12.0228 17.1633 12.5697 17.7187 13.4258C18.1191 14.5676 17.709 15.1874 16.4883 15.2852C16.0411 15.3301 15.8223 15.1296 15.832 14.6836C15.9257 14.3244 15.9531 13.9598 15.914 13.5898C15.7276 13.126 15.5271 12.6703 15.3125 12.2227C15.2637 12.0587 15.2911 11.9129 15.3945 11.7852Z" fill="#535258"/>
<path fill-rule="evenodd" clip-rule="evenodd" d="M9.16013 13.043C9.32922 13.4199 9.23811 13.7207 8.88669 13.9453C8.68134 13.9866 8.4808 13.9775 8.28513 13.918C8.00064 13.5228 7.70894 13.1308 7.41013 12.7422C7.12531 12.6658 6.83366 12.6384 6.53513 12.6602C6.09763 12.6602 5.66013 12.6602 5.22263 12.6602C4.80296 12.6511 4.38369 12.6602 3.96481 12.6875C3.55158 12.8666 3.41486 13.1674 3.55466 13.5898C3.64994 13.7674 3.78666 13.8949 3.96481 13.9727C3.80702 13.9894 3.66118 13.9712 3.52731 13.918C3.40314 13.8214 3.28465 13.712 3.17184 13.5898C2.8851 12.988 3.04004 12.5413 3.63669 12.25C4.96742 12.2135 6.29816 12.2135 7.62888 12.25C7.76538 12.3091 7.89302 12.382 8.01169 12.4687C8.26281 12.9224 8.64563 13.1138 9.16013 13.043Z" fill="#FEAF3F"/>
<path fill-rule="evenodd" clip-rule="evenodd" d="M5.22293 12.6602C5.22293 13.0977 5.22293 13.5352 5.22293 13.9727C5.07709 13.9727 4.93126 13.9727 4.78543 13.9727C4.51199 13.9727 4.23855 13.9727 3.96511 13.9727C3.78696 13.8949 3.65025 13.7674 3.55496 13.5898C3.41517 13.1674 3.55188 12.8666 3.96511 12.6875C4.38399 12.6602 4.80326 12.6511 5.22293 12.6602Z" fill="#C9882D"/>
<path fill-rule="evenodd" clip-rule="evenodd" d="M5.22266 12.6602C5.66016 12.6602 6.09766 12.6602 6.53516 12.6602C6.53516 13.0612 6.53516 13.4623 6.53516 13.8633C6.53516 13.8815 6.53516 13.8998 6.53516 13.918C6.27315 13.9794 6.1273 14.1435 6.09766 14.4102C5.66016 14.4102 5.22266 14.4102 4.78516 14.4102C4.78516 14.2643 4.78516 14.1185 4.78516 13.9727C4.93099 13.9727 5.07682 13.9727 5.22266 13.9727C5.22266 13.5352 5.22266 13.0977 5.22266 12.6602Z" fill="#5C3C2B"/>
<path fill-rule="evenodd" clip-rule="evenodd" d="M6.53516 12.6602C6.8337 12.6384 7.12534 12.6658 7.41016 12.7422C7.70897 13.1308 8.00067 13.5228 8.28516 13.918C8.28516 14.082 8.28516 14.2461 8.28516 14.4102C8.12011 14.4192 7.95605 14.41 7.79297 14.3828C7.39506 14.1471 6.97583 13.9739 6.53516 13.8633C6.53516 13.4623 6.53516 13.0612 6.53516 12.6602Z" fill="#805138"/>
<path fill-rule="evenodd" clip-rule="evenodd" d="M6.53516 13.918C6.53516 14.5195 6.53516 15.1211 6.53516 15.7227C6.09766 15.7227 5.66016 15.7227 5.22266 15.7227C5.07682 15.7227 4.93099 15.7227 4.78516 15.7227C4.78516 15.2852 4.78516 14.8477 4.78516 14.4102C5.22266 14.4102 5.66016 14.4102 6.09766 14.4102C6.1273 14.1435 6.27315 13.9794 6.53516 13.918Z" fill="#9A6143"/>
<path fill-rule="evenodd" clip-rule="evenodd" d="M6.53516 13.8633C6.97583 13.9739 7.39506 14.1471 7.79297 14.3828C7.95605 14.41 8.12011 14.4192 8.28516 14.4102C8.28516 14.8477 8.28516 15.2852 8.28516 15.7227C7.7018 15.7227 7.11851 15.7227 6.53516 15.7227C6.53516 15.1211 6.53516 14.5195 6.53516 13.918C6.53516 13.8998 6.53516 13.8815 6.53516 13.8633Z" fill="#B17745"/>
<path fill-rule="evenodd" clip-rule="evenodd" d="M18.293 14.3555C18.3665 15.1863 18.3574 16.0248 18.2656 16.8711C18.2341 17.4183 18.0609 17.9105 17.7461 18.3477C17.7279 18.3477 17.7096 18.3477 17.6914 18.3477C17.6549 18.3477 17.6367 18.3659 17.6367 18.4023C17.1067 18.5229 16.578 18.6506 16.0508 18.7852C15.3578 18.7943 14.6651 18.7852 13.9727 18.7578C13.8304 18.5876 13.6664 18.4509 13.4805 18.3477C13.2082 18.0571 12.9348 17.7655 12.6602 17.4727C12.942 17.3409 13.2155 17.195 13.4805 17.0352C13.7166 16.8901 13.9171 16.7079 14.082 16.4883C14.1017 16.5906 14.1564 16.6726 14.2461 16.7344C15.0023 17.1992 15.7679 17.1992 16.543 16.7344C17.4126 16.148 17.996 15.355 18.293 14.3555Z" fill="#323236"/>
<path opacity="0.999" fill-rule="evenodd" clip-rule="evenodd" d="M4.78516 15.7227C4.93099 15.7227 5.07682 15.7227 5.22266 15.7227C5.16868 16.7431 5.14134 17.764 5.14062 18.7852C5.35604 19.4563 5.80267 19.8847 6.48047 20.0703C7.40999 20.0977 8.33968 20.1068 9.26953 20.0977C9.36808 20.3933 9.47745 20.6849 9.59766 20.9727C7.55601 20.9727 5.5143 20.9727 3.47266 20.9727C3.80171 19.527 4.06603 18.0687 4.26562 16.5977C4.29294 16.3066 4.30205 16.0149 4.29297 15.7227C4.45703 15.7227 4.62109 15.7227 4.78516 15.7227Z" fill="#323236"/>
<path opacity="0.997" fill-rule="evenodd" clip-rule="evenodd" d="M5.22266 15.7227C5.66016 15.7227 6.09766 15.7227 6.53516 15.7227C7.11851 15.7227 7.7018 15.7227 8.28516 15.7227C8.44922 15.7227 8.61328 15.7227 8.77734 15.7227C8.76559 16.6023 8.82027 17.4773 8.94141 18.3477C8.94234 18.6446 8.97876 18.9363 9.05078 19.2227C9.12368 19.5143 9.19663 19.806 9.26953 20.0977C8.33968 20.1068 7.40999 20.0977 6.48047 20.0703C5.80267 19.8847 5.35604 19.4563 5.14062 18.7852C5.14134 17.764 5.16868 16.7431 5.22266 15.7227Z" fill="#46454A"/>
<path opacity="0.993" fill-rule="evenodd" clip-rule="evenodd" d="M25.5664 15.7227C25.5648 16.2273 25.3642 16.6375 24.9648 16.9531C23.124 17.8645 21.1916 18.5025 19.168 18.8672C18.5673 18.9643 17.9658 19.0554 17.3633 19.1406C16.8482 19.2909 16.4199 19.5735 16.0781 19.9883C15.7334 20.5244 15.3779 21.053 15.0117 21.5742C14.9027 21.6835 14.7751 21.7656 14.6289 21.8203C10.9466 21.8568 7.2643 21.8568 3.58203 21.8203C3.236 21.7018 2.96256 21.4921 2.76172 21.1914C2.80782 21.0999 2.88074 21.0361 2.98047 21C3.14353 20.9728 3.30759 20.9636 3.47266 20.9727C5.5143 20.9727 7.55601 20.9727 9.59766 20.9727C9.8893 20.9727 10.181 20.9727 10.4727 20.9727C10.6185 20.9727 10.7643 20.9727 10.9102 20.9727C11.056 20.9727 11.2018 20.9727 11.3477 20.9727C11.4935 20.9727 11.6393 20.9727 11.7852 20.9727C11.931 20.9727 12.0768 20.9727 12.2227 20.9727C12.3685 20.9727 12.5143 20.9727 12.6602 20.9727C12.806 20.9727 12.9518 20.9727 13.0977 20.9727C13.2435 20.9727 13.3893 20.9727 13.5352 20.9727C13.681 20.9727 13.8268 20.9727 13.9727 20.9727C14.2118 20.9488 14.4214 20.8576 14.6016 20.6992C14.9029 20.2055 15.2037 19.7133 15.5039 19.2227C15.6717 19.0544 15.8541 18.9085 16.0508 18.7852C16.578 18.6506 17.1067 18.5229 17.6367 18.4023C17.6732 18.4023 17.6914 18.3841 17.6914 18.3477C17.7096 18.3477 17.7279 18.3477 17.7461 18.3477C19.9222 17.9222 22.0367 17.2933 24.0898 16.4609C24.5357 16.2655 24.955 16.0285 25.3477 15.75C25.4184 15.7232 25.4913 15.7141 25.5664 15.7227Z" fill="#FEAE3F"/>
<path fill-rule="evenodd" clip-rule="evenodd" d="M25.5667 15.7227C26.1341 15.7432 26.3438 16.0349 26.1956 16.5977C26.1527 16.6953 26.0889 16.7774 26.0042 16.8438C25.6453 17.0505 25.2807 17.2419 24.9105 17.418C24.3152 17.7065 23.7136 17.9799 23.1058 18.2383C21.3129 18.9599 19.4535 19.4248 17.5276 19.6328C17.2389 19.7212 16.9929 19.8761 16.7894 20.0977C16.4065 20.681 16.0237 21.2643 15.6409 21.8477C15.5047 22.0299 15.3315 22.1666 15.1214 22.2578C11.6761 22.2852 8.23082 22.2943 4.78545 22.2852C4.14188 22.3101 3.50386 22.2828 2.87139 22.2031C2.61374 21.9767 2.53171 21.6942 2.6253 21.3555C2.6459 21.2766 2.69148 21.2219 2.76202 21.1914C2.96286 21.4921 3.23629 21.7017 3.58233 21.8203C7.2646 21.8568 10.9469 21.8568 14.6292 21.8203C14.7754 21.7656 14.903 21.6835 15.012 21.5742C15.3782 21.053 15.7337 20.5244 16.0784 19.9883C16.4202 19.5735 16.8485 19.2909 17.3636 19.1406C17.9661 19.0554 18.5676 18.9643 19.1683 18.8672C21.1919 18.5025 23.1243 17.8645 24.9651 16.9531C25.3645 16.6375 25.5651 16.2273 25.5667 15.7227Z" fill="#DE9937"/>
<path fill-rule="evenodd" clip-rule="evenodd" d="M6.20741 17.0352C7.00738 16.9382 7.54512 17.2663 7.82069 18.0195C7.91699 18.802 7.598 19.3398 6.86366 19.6328C6.05182 19.7328 5.51408 19.3955 5.25038 18.6211C5.17759 17.8551 5.49658 17.3264 6.20741 17.0352Z" fill="#AF7746"/>
<path fill-rule="evenodd" clip-rule="evenodd" d="M7.35547 18.6758C7.31505 18.6829 7.27858 18.6738 7.24609 18.6484C6.86722 18.2972 6.52083 17.9235 6.20703 17.5273C6.78295 17.3732 7.17489 17.5738 7.38281 18.1289C7.41885 18.3142 7.40972 18.4965 7.35547 18.6758Z" fill="#21D7E0"/>
<path fill-rule="evenodd" clip-rule="evenodd" d="M24.9102 17.418C24.9102 17.6549 24.9102 17.8919 24.9102 18.1289C24.4788 18.3034 24.0869 18.5404 23.7344 18.8398C23.6979 18.9127 23.6615 18.9857 23.625 19.0586C23.5977 19.3862 23.5886 19.7144 23.5977 20.043C23.4638 20.0962 23.3179 20.1144 23.1602 20.0977C23.1602 19.9154 23.1602 19.7331 23.1602 19.5508C23.1766 19.1086 23.1584 18.6711 23.1055 18.2383C23.7133 17.9799 24.3149 17.7065 24.9102 17.418Z" fill="#5D3C2B"/>
<path fill-rule="evenodd" clip-rule="evenodd" d="M6.20703 17.5273C6.52083 17.9235 6.86722 18.2972 7.24609 18.6484C7.27858 18.6738 7.31505 18.6829 7.35547 18.6758C7.24609 18.8945 7.08203 19.0586 6.86328 19.168C6.87045 19.1276 6.86131 19.0911 6.83594 19.0586C6.48468 18.6797 6.111 18.3333 5.71484 18.0195C5.82422 17.8008 5.98828 17.6367 6.20703 17.5273Z" fill="#AEF9FC"/>
<path fill-rule="evenodd" clip-rule="evenodd" d="M5.71493 18.0195C6.11108 18.3333 6.48476 18.6797 6.83602 19.0586C6.8614 19.0911 6.87053 19.1276 6.86336 19.168C6.28745 19.3221 5.89551 19.1215 5.68758 18.5664C5.65154 18.3811 5.66068 18.1989 5.71493 18.0195Z" fill="#21EFF9"/>
<path opacity="0.983" fill-rule="evenodd" clip-rule="evenodd" d="M24.9106 18.1289C24.984 19.1292 24.5465 19.7672 23.5981 20.043C23.589 19.7144 23.5982 19.3862 23.6255 19.0586C23.6619 18.9857 23.6984 18.9127 23.7348 18.8398C24.0874 18.5404 24.4793 18.3034 24.9106 18.1289Z" fill="#9B6143"/>
<path fill-rule="evenodd" clip-rule="evenodd" d="M23.1055 18.2383C23.1584 18.6711 23.1766 19.1086 23.1602 19.5508C21.3244 20.2558 19.4286 20.7207 17.4727 20.9453C17.2022 21.0394 16.9743 21.1944 16.7891 21.4102C16.3272 22.1089 15.8442 22.7925 15.3398 23.4609C15.2531 23.5081 15.1619 23.5446 15.0664 23.5703C14.4469 23.5977 13.8271 23.6068 13.207 23.5977C12.5508 23.0143 11.8945 23.0143 11.2383 23.5977C10.4362 23.5977 9.63413 23.5977 8.83203 23.5977C8.17578 23.0143 7.51953 23.0143 6.86328 23.5977C6.17055 23.5977 5.47788 23.5977 4.78516 23.5977C4.78516 23.1602 4.78516 22.7227 4.78516 22.2852C8.23052 22.2943 11.6758 22.2852 15.1211 22.2578C15.3312 22.1666 15.5044 22.0299 15.6406 21.8477C16.0234 21.2643 16.4063 20.681 16.7891 20.0977C16.9926 19.8761 17.2386 19.7212 17.5273 19.6328C19.4532 19.4248 21.3126 18.9599 23.1055 18.2383Z" fill="#9B6243"/>
<path fill-rule="evenodd" clip-rule="evenodd" d="M8.94141 18.3477C9.59766 18.3477 10.2539 18.3477 10.9102 18.3477C11.2018 18.3477 11.4935 18.3477 11.7852 18.3477C12.3502 18.3477 12.9154 18.3477 13.4805 18.3477C13.6664 18.4509 13.8304 18.5876 13.9727 18.7578C14.6651 18.7852 15.3578 18.7943 16.0508 18.7852C15.8541 18.9085 15.6717 19.0544 15.5039 19.2227C14.9935 19.2227 14.4831 19.2227 13.9727 19.2227C13.681 19.2227 13.3893 19.2227 13.0977 19.2227C12.9518 19.2227 12.806 19.2227 12.6602 19.2227C12.3685 19.2227 12.0768 19.2227 11.7852 19.2227C11.6393 19.2227 11.4935 19.2227 11.3477 19.2227C11.056 19.2227 10.7643 19.2227 10.4727 19.2227C9.99868 19.2227 9.52476 19.2227 9.05078 19.2227C8.97876 18.9363 8.94234 18.6446 8.94141 18.3477Z" fill="#D59150"/>
<path fill-rule="evenodd" clip-rule="evenodd" d="M9.05078 19.2227C9.52476 19.2227 9.99868 19.2227 10.4727 19.2227C10.4727 19.806 10.4727 20.3893 10.4727 20.9727C10.181 20.9727 9.8893 20.9727 9.59766 20.9727C9.47745 20.6849 9.36808 20.3933 9.26953 20.0977C9.19663 19.806 9.12368 19.5143 9.05078 19.2227Z" fill="#FEFEFC"/>
<path fill-rule="evenodd" clip-rule="evenodd" d="M10.4727 19.2227C10.7643 19.2227 11.056 19.2227 11.3477 19.2227C11.3477 19.3685 11.3477 19.5143 11.3477 19.6602C11.2018 19.6602 11.056 19.6602 10.9102 19.6602C10.9102 20.0977 10.9102 20.5352 10.9102 20.9727C10.7643 20.9727 10.6185 20.9727 10.4727 20.9727C10.4727 20.3893 10.4727 19.806 10.4727 19.2227Z" fill="#9A6243"/>
<path fill-rule="evenodd" clip-rule="evenodd" d="M11.3477 19.2227C11.4935 19.2227 11.6393 19.2227 11.7852 19.2227C11.7852 19.806 11.7852 20.3893 11.7852 20.9727C11.6393 20.9727 11.4935 20.9727 11.3477 20.9727C11.3477 20.5352 11.3477 20.0977 11.3477 19.6602C11.3477 19.5143 11.3477 19.3685 11.3477 19.2227Z" fill="#FEFFFC"/>
<path fill-rule="evenodd" clip-rule="evenodd" d="M11.7852 19.2227C12.0768 19.2227 12.3685 19.2227 12.6602 19.2227C12.6602 19.3685 12.6602 19.5143 12.6602 19.6602C12.5143 19.6602 12.3685 19.6602 12.2227 19.6602C12.2227 20.0977 12.2227 20.5352 12.2227 20.9727C12.0768 20.9727 11.931 20.9727 11.7852 20.9727C11.7852 20.3893 11.7852 19.806 11.7852 19.2227Z" fill="#9A6243"/>
<path fill-rule="evenodd" clip-rule="evenodd" d="M12.6602 19.2227C12.806 19.2227 12.9518 19.2227 13.0977 19.2227C13.0977 19.806 13.0977 20.3893 13.0977 20.9727C12.9518 20.9727 12.806 20.9727 12.6602 20.9727C12.6602 20.5352 12.6602 20.0977 12.6602 19.6602C12.6602 19.5143 12.6602 19.3685 12.6602 19.2227Z" fill="#FEFFFC"/>
<path fill-rule="evenodd" clip-rule="evenodd" d="M13.0977 19.2227C13.3893 19.2227 13.681 19.2227 13.9727 19.2227C13.9727 19.3685 13.9727 19.5143 13.9727 19.6602C13.8268 19.6602 13.681 19.6602 13.5352 19.6602C13.5352 20.0977 13.5352 20.5352 13.5352 20.9727C13.3893 20.9727 13.2435 20.9727 13.0977 20.9727C13.0977 20.3893 13.0977 19.806 13.0977 19.2227Z" fill="#9A6243"/>
<path fill-rule="evenodd" clip-rule="evenodd" d="M13.9727 19.2227C14.4831 19.2227 14.9935 19.2227 15.5039 19.2227C15.2037 19.7133 14.9029 20.2055 14.6016 20.6992C14.4214 20.8576 14.2118 20.9488 13.9727 20.9727C13.9727 20.5352 13.9727 20.0977 13.9727 19.6602C13.9727 19.5143 13.9727 19.3685 13.9727 19.2227Z" fill="#FFFEFB"/>
<path opacity="0.994" fill-rule="evenodd" clip-rule="evenodd" d="M23.1604 19.5508C23.1604 19.7331 23.1604 19.9154 23.1604 20.0977C23.3053 21.0196 22.9772 21.7032 22.176 22.1484C21.9274 22.2388 21.6723 22.3025 21.4104 22.3398C21.0715 22.9248 20.6795 23.4717 20.2346 23.9805C19.4797 24.7901 18.7049 25.5831 17.9104 26.3594C17.2318 26.8991 16.4661 27.2637 15.6135 27.4531C13.1908 27.5425 10.7663 27.5608 8.34006 27.5078C6.56911 27.1951 5.41156 26.1833 4.8674 24.4727C4.80227 24.1846 4.77492 23.8929 4.78537 23.5977C5.4781 23.5977 6.17077 23.5977 6.86349 23.5977C6.36874 24.3041 6.44169 24.9512 7.08224 25.5391C7.86991 25.9872 8.51708 25.8323 9.02365 25.0742C9.25274 24.5384 9.18892 24.0463 8.83224 23.5977C9.63435 23.5977 10.4364 23.5977 11.2385 23.5977C10.7437 24.3041 10.8167 24.9512 11.4572 25.5391C12.2449 25.9872 12.8921 25.8323 13.3987 25.0742C13.6277 24.5384 13.5639 24.0463 13.2072 23.5977C13.8273 23.6068 14.4471 23.5977 15.0666 23.5703C15.1621 23.5446 15.2533 23.5081 15.3401 23.4609C15.8444 22.7925 16.3274 22.1089 16.7893 21.4102C16.9745 21.1944 17.2024 21.0394 17.4729 20.9453C19.4288 20.7207 21.3246 20.2558 23.1604 19.5508Z" fill="#B27845"/>
<path fill-rule="evenodd" clip-rule="evenodd" d="M11.3477 19.6602C11.3477 20.0977 11.3477 20.5352 11.3477 20.9727C11.2018 20.9727 11.056 20.9727 10.9102 20.9727C10.9102 20.5352 10.9102 20.0977 10.9102 19.6602C11.056 19.6602 11.2018 19.6602 11.3477 19.6602Z" fill="#D5924F"/>
<path fill-rule="evenodd" clip-rule="evenodd" d="M12.6602 19.6602C12.6602 20.0977 12.6602 20.5352 12.6602 20.9727C12.5143 20.9727 12.3685 20.9727 12.2227 20.9727C12.2227 20.5352 12.2227 20.0977 12.2227 19.6602C12.3685 19.6602 12.5143 19.6602 12.6602 19.6602Z" fill="#D5924F"/>
<path fill-rule="evenodd" clip-rule="evenodd" d="M13.9727 19.6602C13.9727 20.0977 13.9727 20.5352 13.9727 20.9727C13.8268 20.9727 13.681 20.9727 13.5352 20.9727C13.5352 20.5352 13.5352 20.0977 13.5352 19.6602C13.681 19.6602 13.8268 19.6602 13.9727 19.6602Z" fill="#D5924F"/>
<path fill-rule="evenodd" clip-rule="evenodd" d="M8.83218 23.5977C9.18885 24.0463 9.25267 24.5384 9.02359 25.0742C8.51702 25.8323 7.86985 25.9872 7.08218 25.5391C6.44163 24.9512 6.36867 24.3041 6.86343 23.5977C7.51968 23.0143 8.17593 23.0143 8.83218 23.5977Z" fill="#FCAD3F"/>
<path fill-rule="evenodd" clip-rule="evenodd" d="M13.2072 23.5977C13.5639 24.0463 13.6277 24.5384 13.3986 25.0742C12.892 25.8323 12.2448 25.9872 11.4572 25.5391C10.8166 24.9512 10.7437 24.3041 11.2384 23.5977C11.8947 23.0143 12.5509 23.0143 13.2072 23.5977Z" fill="#FCAD3F"/>
<path fill-rule="evenodd" clip-rule="evenodd" d="M16.2694 23.1602C17.0708 23.0638 17.6086 23.3919 17.8827 24.1445C17.9793 24.9263 17.6603 25.4641 16.9257 25.7578C16.1452 25.855 15.6074 25.5359 15.3124 24.8008C15.1941 24.2261 15.3672 23.7612 15.8319 23.4063C15.9741 23.3081 16.1199 23.2261 16.2694 23.1602Z" fill="#FCAD3F"/>
<path fill-rule="evenodd" clip-rule="evenodd" d="M8.66797 24.8008C8.62755 24.8079 8.59108 24.7988 8.55859 24.7734C8.17972 24.4222 7.83333 24.0485 7.51953 23.6523C8.09545 23.4982 8.48739 23.6988 8.69531 24.2539C8.73135 24.4392 8.72222 24.6215 8.66797 24.8008Z" fill="#27D9E0"/>
<path fill-rule="evenodd" clip-rule="evenodd" d="M13.043 24.8008C13.0026 24.8079 12.9661 24.7988 12.9336 24.7734C12.5547 24.4222 12.2083 24.0485 11.8945 23.6523C12.4704 23.4982 12.8624 23.6988 13.0703 24.2539C13.1064 24.4392 13.0972 24.6215 13.043 24.8008Z" fill="#27D9E0"/>
<path fill-rule="evenodd" clip-rule="evenodd" d="M17.418 24.8008C17.3776 24.8079 17.3411 24.7988 17.3086 24.7734C16.9297 24.4222 16.5833 24.0485 16.2695 23.6523C16.8454 23.4982 17.2374 23.6988 17.4453 24.2539C17.4814 24.4392 17.4722 24.6215 17.418 24.8008Z" fill="#27D9E0"/>
<path fill-rule="evenodd" clip-rule="evenodd" d="M7.51953 23.6523C7.83333 24.0485 8.17972 24.4222 8.55859 24.7734C8.59108 24.7988 8.62755 24.8079 8.66797 24.8008C8.55859 25.0195 8.39453 25.1836 8.17578 25.293C8.18295 25.2526 8.17381 25.2161 8.14844 25.1836C7.79718 24.8047 7.4235 24.4583 7.02734 24.1445C7.13672 23.9258 7.30078 23.7617 7.51953 23.6523Z" fill="#AFF9FC"/>
<path fill-rule="evenodd" clip-rule="evenodd" d="M11.8945 23.6523C12.2083 24.0485 12.5547 24.4222 12.9336 24.7734C12.9661 24.7988 13.0026 24.8079 13.043 24.8008C12.9336 25.0195 12.7695 25.1836 12.5508 25.293C12.5579 25.2526 12.5488 25.2161 12.5234 25.1836C12.1722 24.8047 11.7985 24.4583 11.4023 24.1445C11.5117 23.9258 11.6758 23.7617 11.8945 23.6523Z" fill="#AFF9FC"/>
<path fill-rule="evenodd" clip-rule="evenodd" d="M16.2695 23.6523C16.5833 24.0485 16.9297 24.4222 17.3086 24.7734C17.3411 24.7988 17.3776 24.8079 17.418 24.8008C17.3086 25.0195 17.1445 25.1836 16.9258 25.293C16.9329 25.2526 16.9238 25.2161 16.8984 25.1836C16.5472 24.8047 16.1735 24.4583 15.7773 24.1445C15.8867 23.9258 16.0508 23.7617 16.2695 23.6523Z" fill="#AFF9FC"/>
<path fill-rule="evenodd" clip-rule="evenodd" d="M7.02743 24.1445C7.42358 24.4583 7.79726 24.8047 8.14852 25.1836C8.1739 25.2161 8.18303 25.2526 8.17586 25.293C7.59995 25.4471 7.20801 25.2465 7.00008 24.6914C6.96404 24.5061 6.97318 24.3239 7.02743 24.1445Z" fill="#28F2F9"/>
<path fill-rule="evenodd" clip-rule="evenodd" d="M11.4024 24.1445C11.7986 24.4583 12.1723 24.8047 12.5235 25.1836C12.5489 25.2161 12.558 25.2526 12.5509 25.293C11.975 25.4471 11.583 25.2465 11.3751 24.6914C11.339 24.5061 11.3482 24.3239 11.4024 24.1445Z" fill="#28F2F9"/>
<path fill-rule="evenodd" clip-rule="evenodd" d="M15.7774 24.1445C16.1736 24.4583 16.5473 24.8047 16.8985 25.1836C16.9239 25.2161 16.933 25.2526 16.9259 25.293C16.35 25.4471 15.958 25.2465 15.7501 24.6914C15.714 24.5061 15.7232 24.3239 15.7774 24.1445Z" fill="#28F2F9"/>
</svg>
