<svg viewBox="0 0 28 28" fill="none" xmlns="http://www.w3.org/2000/svg">
<g clip-path="url(#clip0_146_868)">
<path opacity="0.981" fill-rule="evenodd" clip-rule="evenodd" d="M16.9258 2.70703C16.9252 2.79001 16.8888 2.85382 16.8164 2.89844C14.6654 2.92578 12.5144 2.9349 10.3633 2.92578C11.3191 2.12539 12.2852 1.33242 13.2617 0.546875C13.6081 0.21875 13.9544 0.21875 14.3008 0.546875C15.1897 1.25489 16.0647 1.97494 16.9258 2.70703Z" fill="#57585A"/>
<path opacity="0.984" fill-rule="evenodd" clip-rule="evenodd" d="M10.7466 4.40234C10.7466 4.42057 10.7466 4.4388 10.7466 4.45703C10.7466 4.63932 10.7466 4.82162 10.7466 5.00391C7.39079 4.80329 4.03663 4.58454 0.68408 4.34766C0.674969 3.65471 0.684085 2.962 0.711423 2.26953C0.787997 2.23585 0.870028 2.21762 0.957517 2.21484C4.22293 2.9355 7.48595 3.66467 10.7466 4.40234Z" fill="#FEC81C"/>
<path opacity="0.984" fill-rule="evenodd" clip-rule="evenodd" d="M27.2618 4.34766C23.7965 4.56196 20.333 4.78071 16.8712 5.00391C16.8172 4.82517 16.799 4.64288 16.8165 4.45703C16.8165 4.4388 16.8165 4.42057 16.8165 4.40234C20.2066 3.67333 23.5972 2.94416 26.9884 2.21484C27.0759 2.21762 27.1579 2.23585 27.2345 2.26953C27.2618 2.962 27.2709 3.65471 27.2618 4.34766Z" fill="#FEC81C"/>
<path fill-rule="evenodd" clip-rule="evenodd" d="M16.926 2.70703C17.1815 2.82618 17.3821 3.00847 17.5276 3.25391C17.4981 3.32216 17.4616 3.38597 17.4182 3.44531C17.2185 3.47258 17.018 3.4817 16.8167 3.47266C16.6161 3.47266 16.4156 3.47266 16.2151 3.47266C14.3922 3.47266 12.5693 3.47266 10.7464 3.47266C10.5311 3.48871 10.3214 3.47047 10.1175 3.41797C10.0206 3.17404 10.1026 3.00997 10.3635 2.92578C12.5147 2.9349 14.6657 2.92578 16.8167 2.89844C16.889 2.85382 16.9254 2.79001 16.926 2.70703Z" fill="#414042"/>
<path opacity="0.996" fill-rule="evenodd" clip-rule="evenodd" d="M10.7461 3.47266C12.569 3.47266 14.3919 3.47266 16.2148 3.47266C16.2148 4.47526 16.2148 5.47788 16.2148 6.48047C15.8685 6.48047 15.5221 6.48047 15.1758 6.48047C15.1849 6.04259 15.1758 5.60509 15.1484 5.16797C14.8986 4.31063 14.3426 3.94605 13.4805 4.07422C13.0415 4.17553 12.7226 4.43074 12.5234 4.83984C12.4456 5.38236 12.4183 5.92922 12.4414 6.48047C11.8763 6.48047 11.3112 6.48047 10.7461 6.48047C10.7461 6.31641 10.7461 6.15234 10.7461 5.98828C10.7461 5.97007 10.7461 5.9518 10.7461 5.93359C10.819 5.44141 10.819 4.94922 10.7461 4.45703C10.7461 4.4388 10.7461 4.42057 10.7461 4.40234C10.7461 4.09245 10.7461 3.78255 10.7461 3.47266Z" fill="#D10327"/>
<path fill-rule="evenodd" clip-rule="evenodd" d="M16.2148 3.47266C16.4154 3.47266 16.6159 3.47266 16.8164 3.47266C16.8164 3.78255 16.8164 4.09245 16.8164 4.40234C16.8164 4.42057 16.8164 4.4388 16.8164 4.45703C16.7435 4.94922 16.7435 5.44141 16.8164 5.93359C16.8164 5.9518 16.8164 5.97007 16.8164 5.98828C16.8164 6.15234 16.8164 6.31641 16.8164 6.48047C16.6159 6.48047 16.4154 6.48047 16.2148 6.48047C16.2148 5.47788 16.2148 4.47526 16.2148 3.47266Z" fill="#B8012C"/>
<path fill-rule="evenodd" clip-rule="evenodd" d="M13.4805 4.07421C14.3426 3.94604 14.8986 4.31063 15.1484 5.16796C15.1758 5.60508 15.1849 6.04258 15.1758 6.48046C14.9752 6.48046 14.7748 6.48046 14.5742 6.48046C14.5833 5.96974 14.5742 5.45931 14.5469 4.94921C14.3455 4.46484 13.99 4.17318 13.4805 4.07421Z" fill="#FEA71A"/>
<path fill-rule="evenodd" clip-rule="evenodd" d="M13.4806 4.07422C13.9901 4.17318 14.3456 4.46485 14.547 4.94922C14.5744 5.45931 14.5834 5.96974 14.5744 6.48047C13.8634 6.48047 13.1525 6.48047 12.4415 6.48047C12.4184 5.92922 12.4458 5.38236 12.5236 4.83984C12.7227 4.43074 13.0417 4.17553 13.4806 4.07422Z" fill="#FEC81D"/>
<path fill-rule="evenodd" clip-rule="evenodd" d="M0.683594 4.34766C4.03614 4.58454 7.3903 4.80329 10.7461 5.00391C10.7461 4.82162 10.7461 4.63932 10.7461 4.45703C10.819 4.94922 10.819 5.44141 10.7461 5.93359C10.7461 5.75132 10.7461 5.56899 10.7461 5.38672C7.39009 5.58857 4.0359 5.80732 0.683594 6.04297C0.683594 5.47788 0.683594 4.91276 0.683594 4.34766Z" fill="#F69219"/>
<path fill-rule="evenodd" clip-rule="evenodd" d="M27.2617 4.34766C27.2617 4.91276 27.2617 5.47788 27.2617 6.04297C23.7796 5.82646 20.2978 5.60771 16.8164 5.38672C16.8164 5.56899 16.8164 5.75132 16.8164 5.93359C16.7435 5.44141 16.7435 4.94922 16.8164 4.45703C16.7989 4.64288 16.8171 4.82517 16.8711 5.00391C20.3329 4.78071 23.7964 4.56196 27.2617 4.34766Z" fill="#F79219"/>
<path opacity="0.984" fill-rule="evenodd" clip-rule="evenodd" d="M10.7466 5.93359C10.7466 5.9518 10.7466 5.97007 10.7466 5.98828C7.48595 6.72596 4.22293 7.45511 0.957517 8.17578C0.870028 8.17299 0.787997 8.15478 0.711423 8.12109C0.684085 7.42864 0.674969 6.73591 0.68408 6.04297C4.03638 5.80732 7.39057 5.58857 10.7466 5.38672C10.7466 5.56899 10.7466 5.75132 10.7466 5.93359Z" fill="#FEC81C"/>
<path opacity="0.984" fill-rule="evenodd" clip-rule="evenodd" d="M27.2617 6.04297C27.2709 6.73591 27.2617 7.42864 27.2344 8.12109C27.1578 8.15478 27.0758 8.17299 26.9883 8.17578C23.5956 7.45352 20.205 6.72432 16.8164 5.98828C16.8164 5.97007 16.8164 5.9518 16.8164 5.93359C16.8164 5.75132 16.8164 5.56899 16.8164 5.38672C20.2978 5.60771 23.7796 5.82646 27.2617 6.04297Z" fill="#FEC81C"/>
<path opacity="0.997" fill-rule="evenodd" clip-rule="evenodd" d="M10.7459 6.48047C11.3109 6.48047 11.8761 6.48047 12.4412 6.48047C13.1521 6.48047 13.863 6.48047 14.574 6.48047C14.7745 6.48047 14.975 6.48047 15.1755 6.48047C15.5219 6.48047 15.8683 6.48047 16.2146 6.48047C16.4151 6.48047 16.6156 6.48047 16.8162 6.48047C16.9073 6.48047 16.9984 6.48047 17.0896 6.48047C17.0985 6.60937 17.0894 6.73695 17.0623 6.86328C17.0129 6.92896 16.9491 6.97457 16.8709 7C14.6652 7.02735 12.4595 7.03648 10.2537 7.02735C10.136 6.6156 10.3 6.43333 10.7459 6.48047Z" fill="#929497"/>
<path fill-rule="evenodd" clip-rule="evenodd" d="M17.0898 6.48047C17.3328 6.58383 17.4148 6.7661 17.3359 7.02734C17.2184 7.21673 17.0452 7.28962 16.8164 7.24609C16.6341 7.24609 16.4518 7.24609 16.2695 7.24609C14.4284 7.24609 12.5873 7.24609 10.7461 7.24609C10.6352 7.25495 10.5259 7.24582 10.418 7.21875C10.3126 7.19567 10.258 7.13185 10.2539 7.02734C12.4597 7.03648 14.6654 7.02734 16.8711 7C16.9494 6.97457 17.0131 6.92896 17.0625 6.86328C17.0897 6.73695 17.0988 6.60937 17.0898 6.48047Z" fill="#808285"/>
<path opacity="0.998" fill-rule="evenodd" clip-rule="evenodd" d="M10.7461 7.24609C12.5873 7.24609 14.4284 7.24609 16.2695 7.24609C16.2726 7.81408 16.309 8.37922 16.3789 8.94141C14.4648 8.94141 12.5508 8.94141 10.6367 8.94141C10.6565 8.37506 10.6929 7.80998 10.7461 7.24609Z" fill="#E5E6E7"/>
<path fill-rule="evenodd" clip-rule="evenodd" d="M16.2695 7.24609C16.4518 7.24609 16.6341 7.24609 16.8164 7.24609C16.8696 7.80998 16.906 8.37506 16.9258 8.94141C16.7435 8.94141 16.5612 8.94141 16.3789 8.94141C16.309 8.37922 16.2726 7.81408 16.2695 7.24609Z" fill="#D1D3D4"/>
<path fill-rule="evenodd" clip-rule="evenodd" d="M10.6367 8.94141C12.5508 8.94141 14.4648 8.94141 16.3789 8.94141C16.4197 9.65377 16.4744 10.3647 16.543 11.0742C15.832 11.0742 15.1211 11.0742 14.4102 11.0742C14.4192 10.5817 14.4102 10.0895 14.3828 9.59766C14.1376 9.15425 13.8004 9.06314 13.3711 9.32422C13.2967 9.40778 13.2328 9.49895 13.1797 9.59766C13.1523 10.0895 13.1433 10.5817 13.1523 11.0742C12.2591 11.0742 11.3659 11.0742 10.4727 11.0742C10.4944 10.358 10.5491 9.64704 10.6367 8.94141Z" fill="#D00128"/>
<path fill-rule="evenodd" clip-rule="evenodd" d="M16.3789 8.94141C16.5612 8.94141 16.7435 8.94141 16.9258 8.94141C17.0165 9.64677 17.0712 10.3577 17.0898 11.0742C16.9076 11.0742 16.7252 11.0742 16.543 11.0742C16.4744 10.3647 16.4197 9.65377 16.3789 8.94141Z" fill="#B8092F"/>
<path fill-rule="evenodd" clip-rule="evenodd" d="M14.4101 11.0742C13.9909 11.0742 13.5716 11.0742 13.1523 11.0742C13.1433 10.5817 13.1523 10.0895 13.1797 9.59766C13.2328 9.49895 13.2966 9.40779 13.3711 9.32423C13.8004 9.06315 14.1376 9.15426 14.3828 9.59766C14.4101 10.0895 14.4192 10.5817 14.4101 11.0742Z" fill="#423F41"/>
<path opacity="0.998" fill-rule="evenodd" clip-rule="evenodd" d="M10.4727 11.0742C11.3659 11.0742 12.2591 11.0742 13.1523 11.0742C13.5716 11.0742 13.9909 11.0742 14.4102 11.0742C15.1211 11.0742 15.832 11.0742 16.543 11.0742C16.6128 11.7473 16.6674 12.4217 16.707 13.0977C14.5742 13.0977 12.4414 13.0977 10.3086 13.0977C10.3332 12.4126 10.3879 11.7382 10.4727 11.0742Z" fill="#E5E6E7"/>
<path fill-rule="evenodd" clip-rule="evenodd" d="M16.543 11.0742C16.7252 11.0742 16.9076 11.0742 17.0898 11.0742C17.1746 11.7382 17.2293 12.4126 17.2539 13.0977C17.0716 13.0977 16.8893 13.0977 16.707 13.0977C16.6674 12.4217 16.6128 11.7473 16.543 11.0742Z" fill="#D1D3D4"/>
<path fill-rule="evenodd" clip-rule="evenodd" d="M10.3086 13.0977C12.4414 13.0977 14.5742 13.0977 16.707 13.0977C16.7422 13.8107 16.7969 14.5217 16.8711 15.2305C16.0508 15.2305 15.2305 15.2305 14.4102 15.2305C14.4192 14.738 14.4102 14.2458 14.3828 13.7539C14.1376 13.3105 13.8004 13.2194 13.3711 13.4805C13.2967 13.564 13.2328 13.6552 13.1797 13.7539C13.1523 14.2458 13.1433 14.738 13.1523 15.2305C12.1498 15.2305 11.1471 15.2305 10.1445 15.2305C10.1686 14.5159 10.2233 13.805 10.3086 13.0977Z" fill="#D00128"/>
<path fill-rule="evenodd" clip-rule="evenodd" d="M16.707 13.0977C16.8893 13.0977 17.0716 13.0977 17.2539 13.0977C17.3391 13.8035 17.3937 14.5144 17.418 15.2305C17.2357 15.2305 17.0534 15.2305 16.8711 15.2305C16.7969 14.5217 16.7422 13.8107 16.707 13.0977Z" fill="#B8092F"/>
<path fill-rule="evenodd" clip-rule="evenodd" d="M14.4101 15.2305C13.9909 15.2305 13.5716 15.2305 13.1523 15.2305C13.1433 14.738 13.1523 14.2458 13.1797 13.7539C13.2328 13.6552 13.2966 13.564 13.3711 13.4805C13.8004 13.2194 14.1376 13.3105 14.3828 13.7539C14.4101 14.2458 14.4192 14.738 14.4101 15.2305Z" fill="#423F41"/>
<path opacity="0.999" fill-rule="evenodd" clip-rule="evenodd" d="M10.1445 15.2305C11.1471 15.2305 12.1498 15.2305 13.1523 15.2305C13.5716 15.2305 13.9909 15.2305 14.4102 15.2305C15.2305 15.2305 16.0508 15.2305 16.8711 15.2305C16.9371 15.9039 16.9918 16.5784 17.0352 17.2539C14.6836 17.2539 12.332 17.2539 9.98047 17.2539C10.0103 16.5746 10.065 15.9001 10.1445 15.2305Z" fill="#E5E6E7"/>
<path fill-rule="evenodd" clip-rule="evenodd" d="M16.8711 15.2305C17.0534 15.2305 17.2357 15.2305 17.418 15.2305C17.4996 15.9 17.5543 16.5745 17.582 17.2539C17.3998 17.2539 17.2174 17.2539 17.0352 17.2539C16.9918 16.5784 16.9371 15.9039 16.8711 15.2305Z" fill="#D1D3D4"/>
<path fill-rule="evenodd" clip-rule="evenodd" d="M9.98047 17.2539C12.332 17.2539 14.6836 17.2539 17.0352 17.2539C17.0648 17.9674 17.1195 18.6784 17.1992 19.3867C16.2695 19.3867 15.3398 19.3867 14.4102 19.3867C14.4192 18.8942 14.4102 18.402 14.3828 17.9102C14.1376 17.4668 13.8004 17.3756 13.3711 17.6367C13.2967 17.7203 13.2328 17.8114 13.1797 17.9102C13.1523 18.402 13.1433 18.8942 13.1523 19.3867C12.0404 19.3867 10.9284 19.3867 9.81641 19.3867C9.8461 18.6726 9.90079 17.9617 9.98047 17.2539Z" fill="#D00128"/>
<path fill-rule="evenodd" clip-rule="evenodd" d="M17.0352 17.2539C17.2174 17.2539 17.3998 17.2539 17.582 17.2539C17.6617 17.9617 17.7164 18.6726 17.7461 19.3867C17.5638 19.3867 17.3815 19.3867 17.1992 19.3867C17.1195 18.6784 17.0648 17.9674 17.0352 17.2539Z" fill="#B8092F"/>
<path fill-rule="evenodd" clip-rule="evenodd" d="M14.4101 19.3867C13.9909 19.3867 13.5716 19.3867 13.1523 19.3867C13.1433 18.8942 13.1523 18.402 13.1797 17.9102C13.2328 17.8115 13.2966 17.7203 13.3711 17.6367C13.8004 17.3756 14.1376 17.4668 14.3828 17.9102C14.4101 18.402 14.4192 18.8942 14.4101 19.3867Z" fill="#423F41"/>
<path opacity="0.999" fill-rule="evenodd" clip-rule="evenodd" d="M9.81641 19.3867C10.9284 19.3867 12.0404 19.3867 13.1523 19.3867C13.5716 19.3867 13.9909 19.3867 14.4102 19.3867C15.3398 19.3867 16.2695 19.3867 17.1992 19.3867C17.2583 20.0047 17.2948 20.6245 17.3086 21.2461C14.7565 21.2461 12.2044 21.2461 9.65234 21.2461C9.69505 20.6241 9.74974 20.0043 9.81641 19.3867Z" fill="#E5E6E7"/>
<path fill-rule="evenodd" clip-rule="evenodd" d="M17.1992 19.3867C17.3815 19.3867 17.5638 19.3867 17.7461 19.3867C17.8174 20.0039 17.8721 20.6237 17.9102 21.2461C17.7096 21.2461 17.5091 21.2461 17.3086 21.2461C17.2948 20.6245 17.2583 20.0047 17.1992 19.3867Z" fill="#D1D3D4"/>
<path opacity="0.998" fill-rule="evenodd" clip-rule="evenodd" d="M9.65269 21.2461C12.2048 21.2461 14.7568 21.2461 17.3089 21.2461C17.5095 21.2461 17.71 21.2461 17.9105 21.2461C18.749 21.2461 19.5876 21.2461 20.4261 21.2461C20.4261 21.8477 20.4261 22.4492 20.4261 23.0508C19.7797 23.2403 19.1782 23.1401 18.6214 22.75C17.8951 21.9896 17.0383 21.7891 16.0511 22.1484C15.6351 22.4005 15.234 22.6739 14.848 22.9688C14.2633 23.2169 13.6799 23.2169 13.098 22.9688C12.697 22.6953 12.2959 22.4219 11.8949 22.1484C11.3104 21.8934 10.7271 21.8934 10.1449 22.1484C9.76119 22.3767 9.39659 22.6319 9.05113 22.9141C8.09459 23.349 7.25607 23.194 6.53551 22.4492C6.51576 22.116 6.54311 21.7879 6.61754 21.4649C6.68393 21.3801 6.76596 21.3164 6.86363 21.2734C7.79315 21.2461 8.72284 21.237 9.65269 21.2461Z" fill="#58595B"/>
<path fill-rule="evenodd" clip-rule="evenodd" d="M20.4258 21.2461C20.6405 21.2213 20.8136 21.2942 20.9453 21.4648C21.0219 21.8977 21.0493 22.3352 21.0273 22.7773C20.8643 22.9407 20.6638 23.0319 20.4258 23.0508C20.4258 22.4492 20.4258 21.8477 20.4258 21.2461Z" fill="#434244"/>
<path opacity="0.997" fill-rule="evenodd" clip-rule="evenodd" d="M6.53564 22.4492C7.25621 23.194 8.09473 23.349 9.05127 22.9141C9.39673 22.6319 9.76133 22.3767 10.145 22.1484C10.7273 21.8934 11.3106 21.8934 11.895 22.1484C12.296 22.4219 12.6971 22.6953 13.0981 22.9687C13.6801 23.2169 14.2634 23.2169 14.8481 22.9687C15.2342 22.6739 15.6353 22.4005 16.0513 22.1484C17.0384 21.7891 17.8952 21.9896 18.6216 22.75C19.1783 23.1401 19.7799 23.2403 20.4263 23.0508C20.6643 23.0319 20.8648 22.9407 21.0278 22.7773C21.8846 21.8919 22.869 21.7187 23.981 22.2578C24.2726 22.4766 24.5643 22.6953 24.856 22.9141C25.277 23.0826 25.7145 23.1464 26.1685 23.1055C26.1776 23.9624 26.1685 24.8192 26.1411 25.6758C26.0278 26.0626 25.7817 26.3269 25.4028 26.4687C17.1633 26.4961 8.92368 26.5052 0.68408 26.4961C0.67497 25.1835 0.68408 23.871 0.711424 22.5586C1.42958 23.1433 2.22254 23.2618 3.09033 22.9141C3.382 22.6953 3.67367 22.4766 3.96533 22.2578C4.86455 21.807 5.72129 21.8708 6.53564 22.4492Z" fill="#478CF6"/>
<path fill-rule="evenodd" clip-rule="evenodd" d="M4.89493 22.3945C5.19451 22.3874 5.48616 22.4329 5.76993 22.5312C6.11331 22.747 6.44144 22.984 6.7543 23.2422C7.56144 23.6822 8.38175 23.7095 9.21524 23.3242C9.41469 23.3781 9.47851 23.5057 9.40665 23.707C8.0417 24.2945 6.82945 24.0666 5.76993 23.0234C5.33087 22.772 4.89337 22.772 4.45743 23.0234C4.16155 23.2852 3.84255 23.513 3.5004 23.707C3.25505 23.6274 3.20948 23.4907 3.36368 23.2969C3.67491 23.1048 3.96658 22.886 4.23868 22.6406C4.45373 22.5297 4.67248 22.4477 4.89493 22.3945Z" fill="#5D9BF6"/>
<path fill-rule="evenodd" clip-rule="evenodd" d="M0.848068 27.0977C0.840903 27.0572 0.85002 27.0208 0.875411 26.9883C9.19322 27.052 17.5148 27.0611 25.8403 27.0156C26.2808 26.9215 26.5634 26.6571 26.6879 26.2227C26.7153 25.1291 26.7244 24.0353 26.7153 22.9414C26.8939 22.815 27.0762 22.6874 27.2621 22.5586C27.3406 24 27.3315 25.4402 27.2348 26.8789C27.0823 27.3047 26.7815 27.5508 26.3324 27.6172C18.0928 27.6537 9.85329 27.6537 1.61369 27.6172C1.26803 27.5639 1.01282 27.3907 0.848068 27.0977Z" fill="#2469D4"/>
<path fill-rule="evenodd" clip-rule="evenodd" d="M26.7152 22.9414C26.7243 24.0353 26.7152 25.1291 26.6878 26.2227C26.5633 26.6571 26.2807 26.9215 25.8402 27.0156C17.5147 27.0611 9.19312 27.052 0.875312 26.9883C0.849921 27.0208 0.840804 27.0572 0.847968 27.0977C0.708242 26.9266 0.653554 26.7261 0.683906 26.4961C8.92351 26.5052 17.1631 26.4961 25.4027 26.4688C25.7815 26.3269 26.0276 26.0626 26.1409 25.6758C26.1683 24.8192 26.1774 23.9624 26.1683 23.1055C26.3503 23.0508 26.5326 22.9961 26.7152 22.9414Z" fill="#377DE2"/>
</g>
<defs>
<clipPath id="clip0_146_868">
<rect width="28" height="28" fill="white"/>
</clipPath>
</defs>
</svg>
