<svg viewBox="0 0 40 40" fill="none" xmlns="http://www.w3.org/2000/svg">
<path opacity="0.993" fill-rule="evenodd" clip-rule="evenodd" d="M30.8203 5.97655C31.6537 6.86196 32.513 7.72134 33.3984 8.55467C34.6623 9.83116 35.7951 11.2114 36.7969 12.6953C37.29 13.4625 37.2379 14.1917 36.6406 14.8828C35.8403 15.6969 34.9419 16.374 33.9453 16.914C32.1248 11.2134 28.3748 7.43735 22.6953 5.58592C23.2016 4.51866 23.9048 3.59418 24.8047 2.81249C25.2795 2.48629 25.8002 2.38213 26.3672 2.49999C27.9761 3.49665 29.4605 4.6555 30.8203 5.97655Z" fill="#212121"/>
<path opacity="0.985" fill-rule="evenodd" clip-rule="evenodd" d="M33.3984 8.55469C32.513 7.72135 31.6537 6.86198 30.8203 5.97656C32.3792 4.35686 34.2673 3.3152 36.4844 2.85156C37.2787 2.91666 37.7084 3.34635 37.7734 4.14062C37.7481 4.47719 37.6309 4.77667 37.4219 5.03906C35.7549 5.83332 34.4137 7.0052 33.3984 8.55469Z" fill="white"/>
<path opacity="0.996" fill-rule="evenodd" clip-rule="evenodd" d="M22.6955 5.58593C28.375 7.43735 32.125 11.2134 33.9455 16.9141C35.3114 22.3636 34.2568 27.2855 30.7814 31.6797C26.6678 36.2544 21.5506 38.0904 15.4299 37.1875C9.8423 36.0284 5.84488 32.8643 3.43769 27.6953C1.34651 22.3813 1.76317 17.2771 4.68769 12.3828C8.3512 7.15945 13.3903 4.72455 19.8049 5.07812C20.7818 5.18016 21.7453 5.34943 22.6955 5.58593Z" fill="#1B1A19"/>
<path fill-rule="evenodd" clip-rule="evenodd" d="M17.0705 9.64845C21.5746 9.39392 25.0512 11.1388 27.5002 14.8828C27.9924 15.7839 28.2788 16.7474 28.3595 17.7734C28.4726 20.4877 28.2382 23.1701 27.6564 25.8203C27.5206 26.1126 27.3253 26.36 27.0705 26.5625C26.4195 26.901 25.7684 27.2396 25.1174 27.5781C24.7461 27.7928 24.4206 28.0663 24.1408 28.3984C24.0097 29.4979 23.8274 30.5917 23.5939 31.6797C23.1124 32.752 22.3181 33.0775 21.2111 32.6563C21.005 32.0818 20.7577 31.5219 20.4689 30.9766C20.2485 30.6513 19.949 30.5342 19.5705 30.625C19.1761 30.9152 18.9027 31.2928 18.7502 31.7578C18.4637 32.0703 18.1773 32.0703 17.8908 31.7578C17.7356 31.2908 17.4621 30.9131 17.0705 30.625C16.6134 30.5346 16.2878 30.7038 16.0939 31.1328C15.8861 31.4699 15.7559 31.8345 15.7033 32.2266C15.5052 32.684 15.1536 32.8924 14.6486 32.8516C13.8335 32.8056 13.2996 32.3888 13.047 31.6016C12.7793 30.577 12.6231 29.5354 12.5783 28.4766C12.3074 28.1773 12.008 27.9038 11.6799 27.6563C11.0003 27.3165 10.3233 26.978 9.64861 26.6406C9.2115 26.282 8.93806 25.8263 8.8283 25.2734C8.27861 22.4778 8.14845 19.6653 8.43767 16.8359C8.56838 16.2094 8.77674 15.6104 9.06267 15.0391C10.901 12.0171 13.5703 10.2202 17.0705 9.64845Z" fill="#611515"/>
<path fill-rule="evenodd" clip-rule="evenodd" d="M14.5705 16.6016C15.889 16.4911 16.5922 17.0901 16.6799 18.3985C16.5887 19.5953 16.2111 20.689 15.5471 21.6797C14.5576 22.6485 13.5029 22.7136 12.383 21.875C12.0315 21.5235 11.6799 21.1719 11.3283 20.8203C10.4805 19.5392 10.6758 18.4585 11.9143 17.5781C12.7495 17.0945 13.635 16.769 14.5705 16.6016Z" fill="#FB2626"/>
<path fill-rule="evenodd" clip-rule="evenodd" d="M21.133 16.6016C22.516 16.6282 23.792 17.0058 24.9611 17.7344C25.9932 18.5353 26.1624 19.4858 25.4689 20.5859C24.8142 21.672 23.8637 22.297 22.6174 22.4609C22.0402 22.4262 21.5584 22.1919 21.1721 21.7578C20.2979 20.5416 19.9333 19.1873 20.0783 17.6953C20.2882 17.186 20.6398 16.8214 21.133 16.6016Z" fill="#FB2626"/>
<path fill-rule="evenodd" clip-rule="evenodd" d="M18.164 22.8516C18.6134 22.8877 18.9649 23.096 19.2187 23.4766C19.7789 24.2063 20.1956 25.0135 20.4687 25.8984C20.5979 26.3823 20.4286 26.7078 19.9609 26.875C19.059 27.065 18.1475 27.117 17.2265 27.0313C16.3787 26.9397 16.0531 26.4839 16.2499 25.6641C16.5653 24.851 16.9819 24.0959 17.4999 23.3984C17.7053 23.1867 17.9266 23.0044 18.164 22.8516Z" fill="#FB2626"/>
</svg>
