<svg viewBox="0 0 32 32" fill="none" xmlns="http://www.w3.org/2000/svg">
<g clip-path="url(#clip0_146_4256)">
<path d="M16 32C24.8366 32 32 24.8366 32 16C32 7.16344 24.8366 0 16 0C7.16344 0 0 7.16344 0 16C0 24.8366 7.16344 32 16 32Z" fill="#151515"/>
<path d="M16 29.5791C23.4995 29.5791 29.5791 23.4995 29.5791 16C29.5791 8.50046 23.4995 2.4209 16 2.4209C8.50046 2.4209 2.4209 8.50046 2.4209 16C2.4209 23.4995 8.50046 29.5791 16 29.5791Z" fill="#343434"/>
<path d="M23.1045 4.41046C24.4566 6.52145 25.2407 9.03156 25.2407 11.7246C25.2407 19.2242 19.1612 25.3037 11.6616 25.3037C9.05729 25.3037 6.62428 24.57 4.55713 23.2985C6.97048 27.066 11.1935 29.5635 16 29.5635C23.4996 29.5635 29.5791 23.484 29.5791 15.9844C29.5791 11.0891 26.9889 6.79963 23.1045 4.41046Z" fill="#262626"/>
<path d="M4.79968 17.2427C4.79968 10.6225 10.1661 5.25607 16.7863 5.25607C20.6561 5.25607 24.0964 7.0899 26.2881 9.93563C24.2184 6.34205 20.3391 3.92316 15.8944 3.92316C9.27414 3.92316 3.90771 9.28958 3.90771 15.9098C3.90771 18.6603 4.83496 21.1941 6.39263 23.2169C5.37971 21.4581 4.79968 19.4177 4.79968 17.2427Z" fill="#444444"/>
<path d="M17.1209 7.23553V8.96555C17.8153 9.07742 18.3832 9.30672 18.8242 9.65393C19.2656 10.0011 19.6859 10.5338 20.0865 11.2514L18.3656 12.2134C17.8475 11.2721 17.1707 10.8014 16.3357 10.8014C15.8177 10.8014 15.3883 10.9546 15.0472 11.2605C14.706 11.5664 14.5352 11.9489 14.5352 12.4079C14.5352 12.8257 14.6732 13.1729 14.9499 13.4496C15.2205 13.7202 15.7678 14.0412 16.5917 14.4116C17.3038 14.7351 17.8919 15.04 18.357 15.3252C18.8216 15.6105 19.1719 15.8856 19.4072 16.1507C20.0719 16.8688 20.4045 17.7366 20.4045 18.7545C20.4045 19.7548 20.1047 20.6377 19.5045 21.4022C18.9098 22.1611 18.1156 22.6731 17.1214 22.9382V24.765H15.5768V22.9911C14.4233 22.8027 13.5439 22.4056 12.9377 21.7998C12.3314 21.1936 11.8844 20.2583 11.5962 18.9929L13.5379 18.5867C13.8024 19.4812 14.126 20.1197 14.5089 20.5022C14.9091 20.867 15.4412 21.0495 16.1064 21.0495C16.7535 21.0495 17.2947 20.8408 17.7306 20.4226C18.16 20.0108 18.3752 19.4782 18.3752 18.8251C18.3752 18.2425 18.1958 17.7749 17.8369 17.4216C17.6545 17.2513 17.3854 17.0583 17.0291 16.8436C16.6729 16.6289 16.2183 16.3951 15.6655 16.1421C14.5241 15.6301 13.7737 15.1594 13.4149 14.7301C12.8439 14.0886 12.5587 13.3211 12.5587 12.4266C12.5587 12.0028 12.6262 11.6087 12.7618 11.2438C12.8974 10.879 13.0929 10.5479 13.3489 10.2511C13.6049 9.95427 13.9214 9.69676 14.2978 9.47906C14.6742 9.26136 15.1011 9.09053 15.5773 8.96706V7.23705H17.1209V7.23553Z" fill="white"/>
</g>
<defs>
<clipPath id="clip0_146_4256">
<rect width="32" height="32" fill="white"/>
</clipPath>
</defs>
</svg>
