<svg viewBox="0 0 59 162" fill="none" xmlns="http://www.w3.org/2000/svg">
<path d="M5.87954 16.0899C5.72189 21.423 6.91372 28.8038 9.44244 36.6494C14.0963 51.0844 21.5122 61.6185 26.0021 60.18C30.492 58.7415 30.3596 45.877 25.7057 31.4483C23.177 23.6027 19.8285 16.9191 16.5809 12.6728L5.87954 16.0899Z" fill="#5C3C20"/>
<path d="M15.5472 34.6959C13.0185 26.8502 11.8266 19.4757 11.9843 14.1364L5.88637 16.09C5.72872 21.423 6.92056 28.8038 9.44928 36.6494C14.1031 51.0844 21.519 61.6185 26.0089 60.18C27.0873 59.8346 27.8944 58.8232 28.4431 57.2968C24.2117 54.3633 19.0849 45.6571 15.5472 34.6959Z" fill="#472D18"/>
<path d="M55.8051 105.646C48.6162 79.7658 30.0071 49.2753 19.167 63.1763L35.0141 112.298L50.8611 161.419C58.6743 147.198 61.9345 127.688 55.8051 105.646Z" fill="#BCBEC0"/>
<path d="M45.1033 109.069C38.0783 87.2911 24.5582 50.3369 19.1729 63.1763L35.0199 112.298L50.867 161.419C52.8849 149.051 52.1282 130.847 45.1033 109.069Z" fill="#939598"/>
<path d="M35.2473 51.9261L13.6681 58.8295C11.0069 59.6838 9.54394 62.5168 10.4016 65.1676C11.2592 67.8184 14.1032 69.2757 16.7644 68.4214L38.3436 61.518C41.0047 60.6637 42.4677 57.8307 41.6101 55.1799C40.7588 52.5291 37.9085 51.0718 35.2473 51.9261Z" fill="#EBA000"/>
<path d="M23.083 61.1097C22.2254 58.4589 23.6947 55.6196 26.3495 54.7716L13.6681 58.8295C11.0069 59.6838 9.54394 62.5167 10.4016 65.1675C11.2592 67.8183 14.1032 69.2757 16.7644 68.4214L29.4458 64.3635C26.7909 65.2178 23.9406 63.7605 23.083 61.1097Z" fill="#C28500"/>
<path d="M5.89223 16.0837L16.5683 12.6665C17.7287 10.6816 18.0818 8.23806 17.3251 5.88249C15.9062 1.47914 11.1704 -0.945535 6.74985 0.467809C2.32931 1.88115 -0.104811 6.59858 1.31405 11.0019C2.07708 13.3638 3.79232 15.1477 5.89223 16.0837Z" fill="#EBA000"/>
<path d="M8.06097 0.172562C7.61954 0.241658 7.18443 0.329601 6.74301 0.467794C2.32248 1.88114 -0.111647 6.59857 1.30721 11.0019C2.07024 13.3575 3.78549 15.1414 5.8854 16.0774L9.56181 14.9028C7.90963 13.8223 6.47817 11.9504 5.71514 9.58858C4.44763 5.62493 5.50072 1.66757 8.06097 0.172562Z" fill="#C28500"/>
</svg>
