<svg viewBox="0 0 50 56" fill="none" xmlns="http://www.w3.org/2000/svg">
<path d="M24.8332 0.259811C11.1175 0.259811 0 11.3341 0 24.9965V55.6566H21.5729L23.6098 49.7017C24.0197 49.7206 24.4296 49.7331 24.8395 49.7331C38.5551 49.7331 49.6726 38.6588 49.6726 24.9965C49.6726 11.3341 38.5551 0.259811 24.8332 0.259811Z" fill="#F5D7BB"/>
<path d="M13.7026 2.88548C36.3035 18.627 34.254 38.709 31.2397 48.904C41.8528 46.0898 49.6723 36.454 49.6723 25.0028C49.6723 11.3404 38.5547 0.266083 24.8391 0.266083C20.8348 0.259802 17.0511 1.20831 13.7026 2.88548Z" fill="#E0C6AB"/>
<path d="M10.5252 37.2831L7.0884 32.974L3.65161 37.2831C1.7535 39.6638 1.7535 43.5144 3.65161 45.8951C5.54973 48.2758 8.62708 48.2758 10.5252 45.8951C12.4296 43.5144 12.4296 39.6638 10.5252 37.2831Z" fill="#4D381D"/>
<path d="M24.2948 35.5787C27.918 34.0837 29.6385 29.9461 28.1377 26.3371C26.6369 22.7281 22.4832 21.0142 18.86 22.5092C15.2369 24.0041 13.5164 28.1417 15.0172 31.7508C16.518 35.3598 20.6717 37.0736 24.2948 35.5787Z" fill="#4D381D"/>
<path d="M3.42418 29.0418C3.42418 26.5103 2.0873 24.2992 0.0819791 23.0492C0.0315308 23.6962 0 24.3432 0 25.0028V35.0909C2.04946 33.8409 3.42418 31.6046 3.42418 29.0418Z" fill="#4D381D"/>
<path d="M16.2765 55.6566L16.8062 52.5786L13.8613 55.6566H16.2765Z" fill="#806E41"/>
<path d="M3.61931 55.6566L4.14902 49.5007L1.2041 55.6566H3.61931Z" fill="#806E41"/>
<path d="M8.47527 55.6566L9.00498 49.5007L6.06006 55.6566H8.47527Z" fill="#806E41"/>
<path d="M49.32 29.1172C29.0461 30.2604 23.604 49.7017 23.604 49.7017C24.0139 49.7206 24.4238 49.7331 24.8337 49.7331C37.1431 49.7394 47.3525 40.8196 49.32 29.1172Z" fill="#E0C6AB"/>
<path d="M49.3196 29.1172C42.2001 29.5192 36.9157 32.1825 33.0438 35.4615C33.1951 40.7254 32.2744 45.3989 31.2402 48.8977C40.5479 46.4291 47.7053 38.7153 49.3196 29.1172Z" fill="#C2A88B"/>
</svg>
