<svg viewBox="0 0 235 204" fill="none" xmlns="http://www.w3.org/2000/svg">
<path d="M159.263 0H40.2686V78.4877H159.263V0Z" fill="#965C18"/>
<path d="M134.058 13.8319H36.7563V16.0305H134.058V13.8319Z" fill="#593511"/>
<path d="M134.058 27.6136H36.7563V29.8121H134.058V27.6136Z" fill="#593511"/>
<path d="M134.058 41.389H36.7563V43.5875H134.058V41.389Z" fill="#593511"/>
<path d="M134.058 55.1707H36.7563V57.3692H134.058V55.1707Z" fill="#593511"/>
<path d="M148.461 68.9461H36.7563V71.1446H148.461V68.9461Z" fill="#593511"/>
<path d="M151.016 0C132.37 5.79157 119.032 21.175 119.032 39.247C119.032 57.319 132.37 72.7024 151.016 78.494V0Z" fill="#593511"/>
<path d="M32.0213 0C13.3744 5.79157 0.0371094 21.175 0.0371094 39.247C0.0371094 57.319 13.3744 72.7024 32.0213 78.494V0Z" fill="#C47F2D"/>
<path d="M40.2693 0H32.021V78.4877H40.2693V0Z" fill="#5C3C20"/>
<path d="M159.263 0H151.015V78.4877H159.263V0Z" fill="#5C3C20"/>
<path d="M159.264 0H32.021V6.48882H159.264V0Z" fill="#5C3C20"/>
<path d="M21.3188 73.7829C22.0503 74.21 22.7882 74.6246 23.5449 75.0141V3.47371C22.7882 3.86316 22.044 4.27774 21.3188 4.70489V73.7829Z" fill="#A6681F"/>
<path d="M8.78906 63.1671C9.49534 64.0339 10.2394 64.8757 11.0151 65.6985V12.7955C10.2331 13.6121 9.49534 14.4538 8.78906 15.327V63.1671Z" fill="#A6681F"/>
<path d="M184.248 67.9222C182.754 72.5077 175.886 74.3859 168.918 72.1308C161.95 69.8694 157.511 64.3229 159.011 59.7436C160.506 55.1581 167.373 53.2799 174.341 55.535C181.31 57.7963 185.749 63.3429 184.248 67.9222Z" fill="#FFAE00"/>
<path d="M182.276 67.2866C183.441 63.7206 179.623 59.2856 173.748 57.3808C167.873 55.476 162.166 56.8228 161 60.3889C159.835 63.9549 163.653 68.3899 169.528 70.2947C175.403 72.1994 181.11 70.8527 182.276 67.2866Z" fill="#EBA000"/>
<path d="M173.743 57.3755C167.866 55.4722 162.159 56.8164 160.992 60.3843C160.86 60.7926 160.797 61.2135 160.791 61.6406C161.995 58.1167 167.67 56.7913 173.516 58.6883C178.719 60.3718 182.3 64.0465 182.244 67.338C182.25 67.3191 182.263 67.3003 182.269 67.2815C183.435 63.7135 179.614 59.2788 173.743 57.3755Z" fill="#C28500"/>
<path d="M168.919 72.1308C162.102 69.9197 157.726 64.5678 158.936 60.0451L158.911 60.0389L157.776 63.5188C156.282 68.1044 160.715 73.6509 167.683 75.906C174.651 78.1674 181.518 76.2829 183.013 71.6974L184.148 68.2174L184.123 68.2111C182.439 72.5768 175.736 74.3419 168.919 72.1308Z" fill="#C28500"/>
<path d="M158.633 64.7626C157.845 69.5177 151.343 72.4072 144.11 71.2137C136.877 70.0202 131.656 65.2023 132.444 60.4472C133.232 55.692 139.734 52.8025 146.967 53.996C154.2 55.1895 159.427 60.0074 158.633 64.7626Z" fill="#FFAE00"/>
<path d="M156.577 64.4234C155.965 68.1232 150.523 70.3092 144.425 69.3041C138.328 68.2991 133.882 64.4862 134.5 60.7864C135.111 57.0866 140.554 54.9006 146.651 55.9056C152.749 56.9107 157.195 60.7236 156.577 64.4234Z" fill="#EBA000"/>
<path d="M146.652 55.9056C140.554 54.9006 135.118 57.0866 134.5 60.7864C134.431 61.2135 134.431 61.6344 134.494 62.0615C135.156 58.3994 140.567 56.2386 146.633 57.2373C152.031 58.1293 156.124 61.2198 156.571 64.4799C156.578 64.4611 156.584 64.4422 156.584 64.4234C157.196 60.7236 152.75 56.9107 146.652 55.9056Z" fill="#C28500"/>
<path d="M144.11 71.2137C137.035 70.0516 131.902 65.4096 132.419 60.7613L132.394 60.755L131.795 64.3669C131.006 69.122 136.228 73.9399 143.461 75.1334C150.694 76.3269 157.195 73.4374 157.983 68.6823L158.583 65.0704L158.557 65.0641C157.548 69.6371 151.186 72.3821 144.11 71.2137Z" fill="#C28500"/>
<path d="M121.046 72.337C128.235 70.9043 133.293 65.9122 132.344 61.187C131.395 56.4618 124.798 53.7927 117.609 55.2255C110.42 56.6583 105.362 61.6503 106.311 66.3755C107.26 71.1008 113.857 73.7698 121.046 72.337Z" fill="#FFAE00"/>
<path d="M120.664 70.4398C126.723 69.2324 131.035 65.2724 130.297 61.5949C129.558 57.9175 124.048 55.9152 117.989 57.1226C111.931 58.3301 107.618 62.2901 108.357 65.9676C109.096 69.645 114.606 71.6473 120.664 70.4398Z" fill="#EBA000"/>
<path d="M117.984 57.1117C111.924 58.3177 107.611 62.2814 108.349 65.9561C108.431 66.3769 108.588 66.7727 108.79 67.1496C108.109 63.4874 112.404 59.5615 118.432 58.3617C123.799 57.2938 128.724 58.7449 130.3 61.6407C130.294 61.6218 130.3 61.603 130.294 61.5841C129.556 57.9094 124.044 55.9056 117.984 57.1117Z" fill="#C28500"/>
<path d="M121.044 72.3318C114.013 73.7326 107.561 71.2011 106.395 66.6722L106.37 66.6784L107.089 70.2652C108.041 74.9889 114.637 77.6586 121.819 76.2264C129.008 74.7942 134.066 69.8004 133.114 65.0767L132.395 61.4899L132.369 61.4962C133.05 66.1194 128.069 70.931 121.044 72.3318Z" fill="#C28500"/>
<path d="M94.546 74.6924C101.735 73.2596 106.793 68.2676 105.844 63.5423C104.895 58.8171 98.2979 56.1481 91.109 57.5808C83.9201 59.0136 78.8617 64.0057 79.8108 68.7309C80.7599 73.4561 87.3571 76.1252 94.546 74.6924Z" fill="#FFAE00"/>
<path d="M94.1648 72.7945C100.223 71.587 104.536 67.627 103.797 63.9496C103.059 60.2721 97.5484 58.2698 91.4899 59.4773C85.4314 60.6848 81.1188 64.6448 81.8575 68.3223C82.5961 71.9997 88.1063 74.002 94.1648 72.7945Z" fill="#EBA000"/>
<path d="M91.4805 59.4735C85.4204 60.6796 81.1071 64.6432 81.8449 68.3179C81.9268 68.7388 82.0845 69.1345 82.2863 69.5114C81.6052 65.8493 85.8996 61.9233 91.9282 60.7236C97.2946 59.6557 102.22 61.1067 103.796 64.0025C103.79 63.9837 103.796 63.9648 103.79 63.946C103.052 60.265 97.5406 58.2675 91.4805 59.4735Z" fill="#C28500"/>
<path d="M94.5389 74.6874C87.5077 76.0882 81.0566 73.5567 79.89 69.0277L79.8647 69.034L80.5836 72.6208C81.5358 77.3445 88.132 80.0141 95.3145 78.5819C102.503 77.1498 107.561 72.1559 106.609 67.4322L105.89 63.8455L105.865 63.8518C106.546 68.4812 101.57 73.2866 94.5389 74.6874Z" fill="#C28500"/>
<path d="M77.8238 68.3388C79.1856 63.7148 74.5866 58.2998 67.5516 56.2441C60.5167 54.1884 53.7098 56.2704 52.348 60.8945C50.9862 65.5185 55.5853 70.9335 62.6202 72.9892C69.6552 75.0449 76.4621 72.9628 77.8238 68.3388Z" fill="#FFAE00"/>
<path d="M75.8205 67.7536C76.8803 64.1549 72.9332 59.8332 67.0045 58.1007C61.0757 56.3683 55.4104 57.8811 54.3506 61.4798C53.2908 65.0785 57.2378 69.4003 63.1666 71.1327C69.0953 72.8652 74.7607 71.3523 75.8205 67.7536Z" fill="#EBA000"/>
<path d="M67.0004 58.1042C61.0727 56.3705 55.4036 57.8843 54.3442 61.4836C54.2243 61.8982 54.1739 62.3191 54.1802 62.7462C55.2838 59.1909 60.9151 57.6959 66.8112 59.4233C72.0578 60.956 75.7469 64.5176 75.791 67.8154C75.7973 67.7966 75.8099 67.7777 75.8099 67.7589C76.8756 64.1596 72.9281 59.8316 67.0004 58.1042Z" fill="#C28500"/>
<path d="M62.6184 72.9914C55.7385 70.9813 51.2045 65.7614 52.2828 61.201L52.2576 61.1947L51.2234 64.7061C49.8613 69.3293 54.4584 74.7439 61.4959 76.798C68.5272 78.8521 75.3377 76.7729 76.6998 72.1434L77.734 68.632L77.7088 68.6257C76.1449 73.0479 69.4983 75.0015 62.6184 72.9914Z" fill="#C28500"/>
<path d="M182.205 75.7931C190.392 75.7034 197.009 73.8113 196.984 71.5669C196.959 69.3226 190.302 67.5759 182.115 67.6656C173.928 67.7554 167.311 69.6475 167.336 71.8918C167.361 74.1362 174.018 75.8828 182.205 75.7931Z" fill="#FFAE00"/>
<path d="M194.798 71.5969C194.817 73.2301 189.18 74.612 182.205 74.6874C175.231 74.7628 169.561 73.5002 169.549 71.8733C169.53 70.2401 175.168 68.8581 182.142 68.7828C189.117 68.7011 194.779 69.9637 194.798 71.5969Z" fill="#EBA000"/>
<path d="M182.142 69.8067C188.379 69.7376 193.556 70.7426 194.596 72.1183C194.723 71.9487 194.805 71.7728 194.798 71.5906C194.779 69.9574 189.11 68.6948 182.142 68.7765C175.168 68.8519 169.53 70.2401 169.549 71.867C169.549 72.0429 169.631 72.2062 169.751 72.3695C170.791 70.9813 175.931 69.8758 182.142 69.8067Z" fill="#C28500"/>
<path d="M182.211 75.7992C174.019 75.8872 167.36 74.1409 167.341 71.8984L167.417 79.0279C167.442 81.2704 174.101 83.023 182.287 82.9288C190.478 82.8408 197.093 80.9438 197.068 78.7013L196.992 71.5718C197.024 73.8143 190.402 75.7113 182.211 75.7992Z" fill="#C28500"/>
<path d="M102.594 75.7942C110.781 75.7045 117.398 73.8123 117.373 71.568C117.348 69.3236 110.691 67.577 102.504 67.6667C94.3171 67.7564 87.7003 69.6485 87.7251 71.8929C87.7498 74.1372 94.4069 75.8839 102.594 75.7942Z" fill="#FFAE00"/>
<path d="M115.185 71.5969C115.204 73.2301 109.566 74.612 102.592 74.6874C95.6173 74.7628 89.9482 73.5002 89.9356 71.8733C89.9167 70.2401 95.5543 68.8581 102.529 68.7828C109.503 68.7011 115.166 69.9637 115.185 71.5969Z" fill="#EBA000"/>
<path d="M102.529 69.8067C108.765 69.7376 113.943 70.7426 114.983 72.1183C115.109 71.9487 115.191 71.7728 115.185 71.5906C115.166 69.9574 109.497 68.6948 102.529 68.7765C95.5543 68.8519 89.9167 70.2401 89.9356 71.867C89.9356 72.0429 90.0176 72.2062 90.1374 72.3695C91.1779 70.9813 96.3173 69.8758 102.529 69.8067Z" fill="#C28500"/>
<path d="M102.598 75.7992C94.4066 75.8872 87.7474 74.1409 87.7285 71.8984L87.8042 79.0279C87.8294 81.2704 94.4886 83.023 102.674 82.9288C110.865 82.8408 117.48 80.9438 117.455 78.7013L117.379 71.5718C117.411 73.8143 110.79 75.7113 102.598 75.7992Z" fill="#C28500"/>
<path d="M173.724 67.2375C174.234 69.4235 168.174 72.6899 160.197 74.5304C152.22 76.3708 145.34 76.0882 144.829 73.9022C144.319 71.7162 150.379 68.4498 158.356 66.6093C166.333 64.7689 173.213 65.0515 173.724 67.2375Z" fill="#FFAE00"/>
<path d="M159.95 73.4396C166.743 71.8727 171.949 69.3121 171.579 67.7202C171.209 66.1284 165.403 66.1082 158.61 67.675C151.817 69.2419 146.611 71.8025 146.981 73.3944C147.351 74.9862 153.158 75.0064 159.95 73.4396Z" fill="#EBA000"/>
<path d="M158.835 68.6948C164.908 67.294 170.18 67.1621 171.498 68.2865C171.586 68.0918 171.624 67.9034 171.586 67.7275C171.214 66.1382 165.406 66.1194 158.615 67.6835C151.823 69.2476 146.614 71.8105 146.98 73.3997C147.018 73.5693 147.131 73.7138 147.289 73.8457C148.008 72.269 152.788 70.0893 158.835 68.6948Z" fill="#C28500"/>
<path d="M160.197 74.5303C152.22 76.3708 145.34 76.0882 144.83 73.9022L146.444 80.8433C146.955 83.0293 153.835 83.3119 161.812 81.4714C169.789 79.6309 175.849 76.3645 175.338 74.1786L173.724 67.2375C174.235 69.4235 168.175 72.6899 160.197 74.5303Z" fill="#C28500"/>
<path d="M126.069 70.0893C125.306 72.1999 118.439 71.6785 110.733 68.921C103.027 66.1634 97.3956 62.2123 98.1586 60.1017C98.9216 57.9911 105.789 58.5125 113.495 61.2701C121.201 64.0276 126.832 67.9787 126.069 70.0893Z" fill="#FFAE00"/>
<path d="M124.001 69.3481C123.446 70.8871 117.676 70.2275 111.111 67.8782C104.547 65.5289 99.6786 62.3819 100.234 60.8429C100.788 59.3039 106.558 59.9635 113.123 62.3128C119.688 64.6621 124.556 67.8154 124.001 69.3481Z" fill="#EBA000"/>
<path d="M112.764 63.2801C118.629 65.3782 123.138 68.1169 123.629 69.7689C123.812 69.6496 123.945 69.5177 124.008 69.3481C124.563 67.8091 119.688 64.6621 113.124 62.3128C106.559 59.9635 100.789 59.3039 100.234 60.8429C100.177 61.0062 100.19 61.1884 100.247 61.3894C101.716 60.4472 106.918 61.1947 112.764 63.2801Z" fill="#C28500"/>
<path d="M110.732 68.921C103.026 66.1634 97.3952 62.2123 98.1582 60.1017L95.7367 66.8104C94.9737 68.921 100.605 72.8721 108.311 75.6296C116.017 78.3872 122.884 78.9086 123.647 76.798L126.069 70.0893C125.306 72.1999 118.445 71.6786 110.732 68.921Z" fill="#C28500"/>
<path d="M75.8667 71.9028C75.8915 69.6584 69.2747 67.7663 61.0876 67.6766C52.9005 67.5869 46.2435 69.3335 46.2187 71.5779C46.1939 73.8222 52.8108 75.7144 60.9978 75.8041C69.1849 75.8938 75.8419 74.1471 75.8667 71.9028Z" fill="#FFAE00"/>
<path d="M48.4107 71.5969C48.3918 73.2301 54.0294 74.612 61.0038 74.6874C67.9783 74.7628 73.6474 73.5002 73.6601 71.8733C73.679 70.2401 68.0414 68.8581 61.0669 68.7828C54.0987 68.7011 48.4296 69.9637 48.4107 71.5969Z" fill="#EBA000"/>
<path d="M61.0726 69.8067C54.8359 69.7376 49.6586 70.7426 48.6181 72.1183C48.492 71.9487 48.41 71.7728 48.4164 71.5906C48.4353 69.9574 54.1044 68.6948 61.0726 68.7765C68.047 68.8519 73.6846 70.2401 73.6657 71.867C73.6657 72.0429 73.5837 72.2062 73.4639 72.3695C72.4171 70.9813 67.2777 69.8758 61.0726 69.8067Z" fill="#C28500"/>
<path d="M60.9967 75.7992C69.1883 75.8872 75.8474 74.1409 75.8664 71.8984L75.7907 79.0279C75.7655 81.2704 69.1063 83.023 60.9211 82.9288C52.7295 82.8408 46.1145 80.9438 46.1397 78.7013L46.2154 71.5718C46.1902 73.8143 52.8115 75.7113 60.9967 75.7992Z" fill="#C28500"/>
<path d="M69.4915 67.2375C68.9807 69.4235 75.0408 72.6899 83.0179 74.5304C90.9951 76.3708 97.8749 76.0882 98.3857 73.9022C98.8965 71.7162 92.8364 68.4498 84.8593 66.6093C76.8758 64.7689 69.996 65.0515 69.4915 67.2375Z" fill="#FFAE00"/>
<path d="M71.6286 67.7337C71.2566 69.323 76.4653 71.8858 83.2632 73.4499C90.0548 75.014 95.8627 74.9952 96.2348 73.406C96.6068 71.8167 91.398 69.2539 84.6001 67.6898C77.8085 66.1194 72.0007 66.1382 71.6286 67.7337Z" fill="#EBA000"/>
<path d="M84.3797 68.6948C78.307 67.294 73.0351 67.1621 71.7172 68.2865C71.6289 68.0918 71.591 67.9034 71.6289 67.7275C72.0009 66.1382 77.8088 66.1194 84.6004 67.6835C91.392 69.2476 96.6008 71.8105 96.235 73.3997C96.1972 73.5693 96.0837 73.7138 95.926 73.8457C95.2071 72.269 90.4272 70.0893 84.3797 68.6948Z" fill="#C28500"/>
<path d="M83.0175 74.5304C90.9947 76.3708 97.8745 76.0882 98.3853 73.9022L96.771 80.8433C96.2602 83.0293 89.3803 83.3119 81.4032 81.4714C73.426 79.631 67.3659 76.3646 67.8767 74.1786L69.4911 67.2375C68.9803 69.4235 75.0341 72.6899 83.0175 74.5304Z" fill="#C28500"/>
<path d="M139.476 67.2375C139.987 69.4235 133.927 72.6899 125.95 74.5304C117.972 76.3708 111.093 76.0882 110.582 73.9022C110.071 71.7162 116.131 68.4498 124.108 66.6093C132.085 64.7689 138.965 65.0515 139.476 67.2375Z" fill="#FFAE00"/>
<path d="M125.703 73.4409C132.495 71.874 137.702 69.3134 137.331 67.7216C136.961 66.1297 131.155 66.1095 124.362 67.6764C117.57 69.2432 112.363 71.8039 112.734 73.3957C113.104 74.9875 118.91 75.0078 125.703 73.4409Z" fill="#EBA000"/>
<path d="M124.587 68.6948C130.66 67.294 135.931 67.1621 137.249 68.2865C137.338 68.0918 137.376 67.9034 137.338 67.7275C136.966 66.1382 131.158 66.1194 124.366 67.6835C117.575 69.2476 112.366 71.8105 112.732 73.3997C112.769 73.5693 112.883 73.7138 113.041 73.8457C113.759 72.269 118.539 70.0893 124.587 68.6948Z" fill="#C28500"/>
<path d="M125.95 74.5304C117.973 76.3708 111.093 76.0882 110.583 73.9022L112.197 80.8433C112.708 83.0293 119.588 83.3119 127.565 81.4714C135.542 79.631 141.602 76.3646 141.091 74.1786L139.477 67.2375C139.988 69.4235 133.927 72.6899 125.95 74.5304Z" fill="#C28500"/>
<path d="M216.819 78.0543C215.06 82.5456 208.092 84.028 201.269 81.3647C194.439 78.7076 190.334 72.9097 192.1 68.4247C193.859 63.9334 200.827 62.451 207.65 65.1144C214.473 67.7714 218.579 73.563 216.819 78.0543Z" fill="#FFAE00"/>
<path d="M214.877 77.3005C213.502 80.7931 207.726 81.8107 201.975 79.5682C196.217 77.3257 192.667 72.6773 194.035 69.1848C195.41 65.6923 201.187 64.6747 206.938 66.9172C212.695 69.1534 216.252 73.8017 214.877 77.3005Z" fill="#EBA000"/>
<path d="M206.944 66.9109C201.186 64.6684 195.41 65.686 194.042 69.1785C193.884 69.5805 193.802 69.9951 193.764 70.4223C195.177 66.9737 200.915 65.9812 206.641 68.2112C211.736 70.1961 215.097 74.0656 214.852 77.3508C214.858 77.332 214.87 77.3131 214.877 77.2943C216.251 73.8017 212.695 69.1534 206.944 66.9109Z" fill="#C28500"/>
<path d="M201.268 81.3647C194.59 78.7641 190.535 73.1673 192.005 68.72L191.979 68.7137L190.643 72.1245C188.883 76.6158 192.988 82.4074 199.811 85.0645C206.641 87.7216 213.603 86.2391 215.362 81.7541L216.699 78.3433L216.674 78.337C214.738 82.5959 207.946 83.9652 201.268 81.3647Z" fill="#C28500"/>
<path d="M151.376 78.0522C153.138 73.5645 149.031 67.7705 142.204 65.1108C135.376 62.4512 128.413 63.9331 126.651 68.4208C124.89 72.9085 128.996 78.7025 135.824 81.3621C142.651 84.0217 149.614 82.5398 151.376 78.0522Z" fill="#FFAE00"/>
<path d="M149.431 77.2943C150.802 73.8018 147.249 69.1535 141.495 66.912C135.741 64.6706 129.965 65.6849 128.594 69.1774C127.223 72.67 130.776 77.3183 136.53 79.5597C142.284 81.8011 148.06 80.7869 149.431 77.2943Z" fill="#EBA000"/>
<path d="M141.506 66.9109C135.749 64.6684 129.973 65.686 128.604 69.1785C128.446 69.5805 128.364 69.9951 128.327 70.4223C129.739 66.9737 135.478 65.9812 141.204 68.2112C146.299 70.1961 149.66 74.0655 149.414 77.3508C149.42 77.3319 149.433 77.3131 149.439 77.2942C150.814 73.8017 147.257 69.1534 141.506 66.9109Z" fill="#C28500"/>
<path d="M135.831 81.3647C129.153 78.7641 125.098 73.1673 126.567 68.72L126.542 68.7137L125.205 72.1245C123.446 76.6158 127.551 82.4074 134.374 85.0645C141.203 87.7216 148.165 86.2391 149.925 81.7541L151.262 78.3433L151.236 78.337C149.3 82.5959 142.509 83.9652 135.831 81.3647Z" fill="#C28500"/>
<path d="M104.509 83.2617H44.5703V172.384H104.509V83.2617Z" fill="#C47F2D"/>
<path d="M213.912 83.2617H104.509V172.384H213.912V83.2617Z" fill="#F19B36"/>
<path d="M119.852 83.2617H117.052V172.384H119.852V83.2617Z" fill="#CF8127"/>
<path d="M208.722 96.2959H44.5698V98.3185H208.722V96.2959Z" fill="#FFB159"/>
<path d="M208.722 111.56H44.5698V113.583H208.722V111.56Z" fill="#FFB159"/>
<path d="M208.722 126.824H44.5698V128.847H208.722V126.824Z" fill="#FFB159"/>
<path d="M208.722 142.088H44.5698V144.111H208.722V142.088Z" fill="#FFB159"/>
<path d="M208.722 157.352H44.5698V159.375H208.722V157.352Z" fill="#FFB159"/>
<path d="M208.722 95.2845H44.5698V97.3072H208.722V95.2845Z" fill="#A6681F"/>
<path d="M208.722 110.549H44.5698V112.571H208.722V110.549Z" fill="#A6681F"/>
<path d="M208.722 125.813H44.5698V127.835H208.722V125.813Z" fill="#A6681F"/>
<path d="M208.722 141.077H44.5698V143.1H208.722V141.077Z" fill="#A6681F"/>
<path d="M208.722 156.341H44.5698V158.364H208.722V156.341Z" fill="#A6681F"/>
<path d="M104.509 83.2617H91.96V172.384H104.509V83.2617Z" fill="#754C29"/>
<path d="M44.57 83.2617H32.021V172.384H44.57V83.2617Z" fill="#754C29"/>
<path d="M117.058 83.2617H104.509V172.384H117.058V83.2617Z" fill="#8A5A31"/>
<path d="M219.915 83.2617H207.366V172.384H219.915V83.2617Z" fill="#8A5A31"/>
<path d="M204.235 172.382H207.369V83.2599H204.235V172.382Z" fill="#754C29"/>
<path d="M44.5695 172.382H47.7036L47.7036 83.2599H44.5695L44.5695 172.382Z" fill="#5C3C20"/>
<path d="M133.845 126.824C133.845 126.824 137.925 136.353 156.496 136.353V126.824V117.295C137.925 117.289 133.845 126.824 133.845 126.824Z" fill="#BD7945"/>
<path d="M136.373 126.824C136.373 126.824 140.661 136.353 160.153 136.353V126.824V117.295C140.655 117.289 136.373 126.824 136.373 126.824Z" fill="#8A5A31"/>
<path d="M190.239 126.824C190.239 126.824 186.367 136.353 168.748 136.353V126.824V117.295C186.367 117.289 190.239 126.824 190.239 126.824Z" fill="#8A5A31"/>
<path d="M162.815 139.601C169.899 139.601 175.641 133.88 175.641 126.824C175.641 119.768 169.899 114.047 162.815 114.047C155.731 114.047 149.988 119.768 149.988 126.824C149.988 133.88 155.731 139.601 162.815 139.601Z" fill="#BD7945"/>
<path d="M168.748 126.824V136.353C171.68 136.353 174.228 136.083 176.441 135.643C178.642 133.351 179.992 130.241 179.992 126.818C179.992 123.394 178.636 120.291 176.441 117.992C174.222 117.553 171.68 117.282 168.748 117.282V126.824Z" fill="#57391D"/>
<path d="M173.686 135.858C178.695 130.869 178.695 122.779 173.686 117.79C168.677 112.8 160.556 112.8 155.547 117.79C150.538 122.779 150.538 130.869 155.547 135.858C160.556 140.848 168.677 140.848 173.686 135.858Z" fill="#8A5A31"/>
<path d="M164.617 137.088C170.308 137.088 174.921 132.493 174.921 126.824C174.921 121.155 170.308 116.56 164.617 116.56C158.926 116.56 154.313 121.155 154.313 126.824C154.313 132.493 158.926 137.088 164.617 137.088Z" fill="#754C29"/>
<path d="M164.617 116.56C164.283 116.56 163.949 116.579 163.627 116.61C168.855 117.107 172.941 121.491 172.941 126.824C172.941 132.157 168.855 136.542 163.627 137.038C163.955 137.069 164.283 137.088 164.617 137.088C170.312 137.088 174.922 132.49 174.922 126.824C174.922 121.158 170.306 116.56 164.617 116.56Z" fill="#57391D"/>
<path d="M167.802 124.286C167.802 122.534 166.377 121.114 164.618 121.114C162.858 121.114 161.433 122.534 161.433 124.286C161.433 125.631 162.272 126.774 163.451 127.232L161.433 132.528H167.796L165.778 127.232C166.963 126.774 167.802 125.631 167.802 124.286Z" fill="#382513"/>
<path d="M112.385 89.4171C112.385 88.5691 111.805 87.8467 110.992 87.5515L110.903 87.4133H110.197C108.993 87.4133 108.009 88.3116 108.009 89.4171C108.009 90.5227 108.986 91.4209 110.197 91.4209H110.903L110.992 91.2827C111.811 90.9875 112.385 90.2651 112.385 89.4171Z" fill="#664324"/>
<path d="M110.903 87.4075C109.793 87.4075 108.892 88.3058 108.892 89.4113C108.892 90.5169 109.793 91.4151 110.903 91.4151C112.013 91.4151 112.915 90.5169 112.915 89.4113C112.915 88.3058 112.019 87.4075 110.903 87.4075Z" fill="#A36A3A"/>
<path d="M110.903 88.3058C110.285 88.3058 109.787 88.802 109.787 89.4176C109.787 90.0332 110.285 90.5294 110.903 90.5294C111.521 90.5294 112.019 90.0332 112.019 89.4176C112.019 88.802 111.521 88.3058 110.903 88.3058Z" fill="#DB904E"/>
<path d="M112.385 103.928C112.385 103.08 111.805 102.357 110.992 102.062L110.903 101.924H110.197C108.993 101.924 108.009 102.822 108.009 103.928C108.009 105.033 108.986 105.932 110.197 105.932H110.903L110.992 105.793C111.811 105.498 112.385 104.776 112.385 103.928Z" fill="#664324"/>
<path d="M110.903 101.918C109.793 101.918 108.892 102.816 108.892 103.922C108.892 105.027 109.793 105.925 110.903 105.925C112.013 105.925 112.915 105.027 112.915 103.922C112.921 102.816 112.019 101.918 110.903 101.918Z" fill="#A36A3A"/>
<path d="M110.903 102.816C110.285 102.816 109.787 103.312 109.787 103.928C109.787 104.543 110.285 105.04 110.903 105.04C111.521 105.04 112.019 104.543 112.019 103.928C112.019 103.312 111.521 102.816 110.903 102.816Z" fill="#DB904E"/>
<path d="M112.385 118.438C112.385 117.59 111.805 116.868 110.992 116.573L110.903 116.434H110.197C108.993 116.434 108.009 117.333 108.009 118.438C108.009 119.544 108.986 120.442 110.197 120.442H110.903L110.992 120.304C111.811 120.009 112.385 119.286 112.385 118.438Z" fill="#664324"/>
<path d="M110.903 116.434C109.793 116.434 108.892 117.333 108.892 118.438C108.892 119.544 109.793 120.442 110.903 120.442C112.013 120.442 112.915 119.544 112.915 118.438C112.915 117.333 112.019 116.434 110.903 116.434Z" fill="#A36A3A"/>
<path d="M110.903 117.326C110.285 117.326 109.787 117.823 109.787 118.438C109.787 119.054 110.285 119.55 110.903 119.55C111.521 119.55 112.019 119.054 112.019 118.438C112.019 117.823 111.521 117.326 110.903 117.326Z" fill="#DB904E"/>
<path d="M112.385 132.949C112.385 132.101 111.805 131.378 110.992 131.083L110.903 130.945H110.197C108.993 130.945 108.009 131.843 108.009 132.949C108.009 134.054 108.986 134.952 110.197 134.952H110.903L110.992 134.814C111.811 134.519 112.385 133.797 112.385 132.949Z" fill="#664324"/>
<path d="M110.903 130.945C109.793 130.945 108.892 131.843 108.892 132.949C108.892 134.054 109.793 134.952 110.903 134.952C112.013 134.952 112.915 134.054 112.915 132.949C112.915 131.843 112.019 130.945 110.903 130.945Z" fill="#A36A3A"/>
<path d="M110.903 131.837C110.285 131.837 109.787 132.333 109.787 132.949C109.787 133.564 110.285 134.06 110.903 134.06C111.521 134.06 112.019 133.564 112.019 132.949C112.019 132.333 111.521 131.837 110.903 131.837Z" fill="#DB904E"/>
<path d="M112.385 147.459C112.385 146.611 111.805 145.889 110.992 145.593L110.903 145.455H110.197C108.993 145.455 108.009 146.353 108.009 147.459C108.009 148.564 108.986 149.463 110.197 149.463H110.903L110.992 149.325C111.811 149.029 112.385 148.307 112.385 147.459Z" fill="#664324"/>
<path d="M110.903 145.455C109.793 145.455 108.892 146.353 108.892 147.459C108.892 148.564 109.793 149.463 110.903 149.463C112.013 149.463 112.915 148.564 112.915 147.459C112.915 146.353 112.019 145.455 110.903 145.455Z" fill="#A36A3A"/>
<path d="M110.903 146.347C110.285 146.347 109.787 146.843 109.787 147.459C109.787 148.074 110.285 148.571 110.903 148.571C111.521 148.571 112.019 148.074 112.019 147.459C112.019 146.843 111.521 146.347 110.903 146.347Z" fill="#DB904E"/>
<path d="M112.385 161.969C112.385 161.121 111.805 160.399 110.992 160.104L110.903 159.965H110.197C108.993 159.965 108.009 160.864 108.009 161.969C108.009 163.075 108.986 163.973 110.197 163.973H110.903L110.992 163.835C111.811 163.54 112.385 162.817 112.385 161.969Z" fill="#664324"/>
<path d="M110.903 159.965C109.793 159.965 108.892 160.864 108.892 161.969C108.892 163.075 109.793 163.973 110.903 163.973C112.013 163.973 112.915 163.075 112.915 161.969C112.915 160.864 112.019 159.965 110.903 159.965Z" fill="#A36A3A"/>
<path d="M110.903 160.857C110.285 160.857 109.787 161.354 109.787 161.969C109.787 162.585 110.285 163.081 110.903 163.081C111.521 163.081 112.019 162.585 112.019 161.969C112.019 161.354 111.521 160.857 110.903 160.857Z" fill="#DB904E"/>
<path d="M96.3105 161.969C96.3105 162.817 96.8907 163.54 97.7042 163.835L97.7925 163.973H98.4987C99.7032 163.973 100.687 163.075 100.687 161.969C100.687 160.864 99.7095 159.965 98.4987 159.965H97.7925L97.7042 160.104C96.8907 160.399 96.3105 161.121 96.3105 161.969Z" fill="#664324"/>
<path d="M97.7929 163.973C98.9039 163.973 99.8045 163.076 99.8045 161.969C99.8045 160.863 98.9039 159.965 97.7929 159.965C96.6819 159.965 95.7812 160.863 95.7812 161.969C95.7812 163.076 96.6819 163.973 97.7929 163.973Z" fill="#A36A3A"/>
<path d="M97.7934 163.081C98.4114 163.081 98.9096 162.585 98.9096 161.969C98.9096 161.354 98.4114 160.857 97.7934 160.857C97.1754 160.857 96.6772 161.354 96.6772 161.969C96.6772 162.585 97.1754 163.081 97.7934 163.081Z" fill="#DB904E"/>
<path d="M96.3105 147.459C96.3105 148.307 96.8907 149.029 97.7042 149.325L97.7925 149.463H98.4987C99.7032 149.463 100.687 148.564 100.687 147.459C100.687 146.353 99.7095 145.455 98.4987 145.455H97.7925L97.7042 145.593C96.8907 145.889 96.3105 146.611 96.3105 147.459Z" fill="#664324"/>
<path d="M97.7929 149.463C98.9039 149.463 99.8045 148.566 99.8045 147.459C99.8045 146.352 98.9039 145.455 97.7929 145.455C96.6819 145.455 95.7812 146.352 95.7812 147.459C95.7812 148.566 96.6819 149.463 97.7929 149.463Z" fill="#A36A3A"/>
<path d="M97.7934 148.571C98.4099 148.571 98.9096 148.073 98.9096 147.459C98.9096 146.845 98.4099 146.347 97.7934 146.347C97.177 146.347 96.6772 146.845 96.6772 147.459C96.6772 148.073 97.177 148.571 97.7934 148.571Z" fill="#DB904E"/>
<path d="M96.3105 132.949C96.3105 133.797 96.8907 134.519 97.7042 134.814L97.7925 134.952H98.4987C99.7032 134.952 100.687 134.054 100.687 132.949C100.687 131.843 99.7095 130.945 98.4987 130.945H97.7925L97.7042 131.083C96.8907 131.378 96.3105 132.101 96.3105 132.949Z" fill="#664324"/>
<path d="M97.7929 134.952C98.9039 134.952 99.8045 134.055 99.8045 132.949C99.8045 131.842 98.9039 130.945 97.7929 130.945C96.6819 130.945 95.7812 131.842 95.7812 132.949C95.7812 134.055 96.6819 134.952 97.7929 134.952Z" fill="#A36A3A"/>
<path d="M97.7934 134.06C98.4099 134.06 98.9096 133.563 98.9096 132.949C98.9096 132.335 98.4099 131.837 97.7934 131.837C97.177 131.837 96.6772 132.335 96.6772 132.949C96.6772 133.563 97.177 134.06 97.7934 134.06Z" fill="#DB904E"/>
<path d="M96.3105 118.438C96.3105 119.286 96.8907 120.009 97.7042 120.304L97.7925 120.442H98.4987C99.7032 120.442 100.687 119.544 100.687 118.438C100.687 117.333 99.7095 116.434 98.4987 116.434H97.7925L97.7042 116.573C96.8907 116.868 96.3105 117.584 96.3105 118.438Z" fill="#664324"/>
<path d="M97.7929 120.442C98.9039 120.442 99.8045 119.545 99.8045 118.438C99.8045 117.332 98.9039 116.434 97.7929 116.434C96.6819 116.434 95.7812 117.332 95.7812 118.438C95.7812 119.545 96.6819 120.442 97.7929 120.442Z" fill="#A36A3A"/>
<path d="M97.7934 119.55C98.4114 119.55 98.9096 119.054 98.9096 118.438C98.9096 117.823 98.4114 117.326 97.7934 117.326C97.1754 117.326 96.6772 117.823 96.6772 118.438C96.6772 119.054 97.1754 119.55 97.7934 119.55Z" fill="#DB904E"/>
<path d="M96.3105 103.928C96.3105 104.776 96.8907 105.498 97.7042 105.794L97.7925 105.932H98.4987C99.7032 105.932 100.687 105.033 100.687 103.928C100.687 102.822 99.7095 101.924 98.4987 101.924H97.7925L97.7042 102.062C96.8907 102.351 96.3105 103.074 96.3105 103.928Z" fill="#664324"/>
<path d="M97.7929 105.932C98.9027 105.932 99.8045 105.033 99.8045 103.928C99.8045 102.822 98.9027 101.924 97.7929 101.924C96.683 101.924 95.7812 102.822 95.7812 103.928C95.7812 105.033 96.683 105.932 97.7929 105.932Z" fill="#A36A3A"/>
<path d="M97.7934 105.04C98.4114 105.04 98.9096 104.543 98.9096 103.928C98.9096 103.312 98.4114 102.816 97.7934 102.816C97.1754 102.816 96.6772 103.312 96.6772 103.928C96.6772 104.537 97.1754 105.04 97.7934 105.04Z" fill="#DB904E"/>
<path d="M96.3105 89.4176C96.3105 90.2656 96.8907 90.988 97.7042 91.2832L97.7925 91.4214H98.4987C99.7032 91.4214 100.687 90.5231 100.687 89.4176C100.687 88.312 99.7095 87.4138 98.4987 87.4138H97.7925L97.7042 87.552C96.8907 87.8409 96.3105 88.5633 96.3105 89.4176Z" fill="#664324"/>
<path d="M97.7929 91.4214C98.9027 91.4214 99.8045 90.5231 99.8045 89.4176C99.8045 88.312 98.9027 87.4138 97.7929 87.4138C96.683 87.4138 95.7812 88.312 95.7812 89.4176C95.7812 90.5231 96.683 91.4214 97.7929 91.4214Z" fill="#A36A3A"/>
<path d="M97.7934 90.5294C98.4114 90.5294 98.9096 90.0332 98.9096 89.4176C98.9096 88.802 98.4114 88.3058 97.7934 88.3058C97.1754 88.3058 96.6772 88.802 96.6772 89.4176C96.6772 90.0332 97.1754 90.5294 97.7934 90.5294Z" fill="#DB904E"/>
<path d="M36.6367 161.969C36.6367 162.817 37.2169 163.54 38.0304 163.835L38.1186 163.973H38.8249C40.0294 163.973 41.0131 163.075 41.0131 161.969C41.0131 160.864 40.0357 159.965 38.8249 159.965H38.1186L38.0304 160.104C37.2169 160.399 36.6367 161.121 36.6367 161.969Z" fill="#664324"/>
<path d="M38.1186 163.973C39.2284 163.973 40.1302 163.075 40.1302 161.969C40.1302 160.864 39.2284 159.965 38.1186 159.965C37.0087 159.965 36.1069 160.864 36.1069 161.969C36.1069 163.075 37.0087 163.973 38.1186 163.973Z" fill="#A36A3A"/>
<path d="M38.1191 163.081C38.7371 163.081 39.2353 162.585 39.2353 161.969C39.2353 161.354 38.7371 160.857 38.1191 160.857C37.5011 160.857 37.0029 161.354 37.0029 161.969C37.0092 162.585 37.5074 163.081 38.1191 163.081Z" fill="#DB904E"/>
<path d="M36.6367 147.459C36.6367 148.307 37.2169 149.029 38.0304 149.325L38.1186 149.463H38.8249C40.0294 149.463 41.0131 148.564 41.0131 147.459C41.0131 146.353 40.0357 145.455 38.8249 145.455H38.1186L38.0304 145.593C37.2169 145.889 36.6367 146.611 36.6367 147.459Z" fill="#664324"/>
<path d="M38.1186 149.463C39.2284 149.463 40.1302 148.564 40.1302 147.459C40.1302 146.353 39.2284 145.455 38.1186 145.455C37.0087 145.455 36.1069 146.353 36.1069 147.459C36.1069 148.564 37.0087 149.463 38.1186 149.463Z" fill="#A36A3A"/>
<path d="M38.1191 148.571C38.7371 148.571 39.2353 148.074 39.2353 147.459C39.2353 146.843 38.7371 146.347 38.1191 146.347C37.5011 146.347 37.0029 146.843 37.0029 147.459C37.0029 148.074 37.5074 148.571 38.1191 148.571Z" fill="#DB904E"/>
<path d="M36.6367 132.949C36.6367 133.797 37.2169 134.519 38.0304 134.814L38.1186 134.952H38.8249C40.0294 134.952 41.0131 134.054 41.0131 132.949C41.0131 131.843 40.0357 130.945 38.8249 130.945H38.1186L38.0304 131.083C37.2169 131.378 36.6367 132.101 36.6367 132.949Z" fill="#664324"/>
<path d="M38.1186 134.952C39.2284 134.952 40.1302 134.054 40.1302 132.949C40.1302 131.843 39.2284 130.945 38.1186 130.945C37.0087 130.945 36.1069 131.843 36.1069 132.949C36.1069 134.054 37.0087 134.952 38.1186 134.952Z" fill="#A36A3A"/>
<path d="M38.1191 134.06C38.7371 134.06 39.2353 133.564 39.2353 132.949C39.2353 132.333 38.7371 131.837 38.1191 131.837C37.5011 131.837 37.0029 132.333 37.0029 132.949C37.0029 133.564 37.5074 134.06 38.1191 134.06Z" fill="#DB904E"/>
<path d="M36.6367 118.438C36.6367 119.286 37.2169 120.009 38.0304 120.304L38.1186 120.442H38.8249C40.0294 120.442 41.0131 119.544 41.0131 118.438C41.0131 117.333 40.0357 116.434 38.8249 116.434H38.1186L38.0304 116.573C37.2169 116.868 36.6367 117.584 36.6367 118.438Z" fill="#664324"/>
<path d="M38.1186 120.442C39.2284 120.442 40.1302 119.544 40.1302 118.438C40.1302 117.333 39.2284 116.434 38.1186 116.434C37.0087 116.434 36.1069 117.333 36.1069 118.438C36.1069 119.544 37.0087 120.442 38.1186 120.442Z" fill="#A36A3A"/>
<path d="M38.1191 119.55C38.7371 119.55 39.2353 119.054 39.2353 118.438C39.2353 117.823 38.7371 117.326 38.1191 117.326C37.5011 117.326 37.0029 117.823 37.0029 118.438C37.0092 119.054 37.5074 119.55 38.1191 119.55Z" fill="#DB904E"/>
<path d="M36.6367 103.928C36.6367 104.776 37.2169 105.498 38.0304 105.794L38.1186 105.932H38.8249C40.0294 105.932 41.0131 105.033 41.0131 103.928C41.0131 102.822 40.0357 101.924 38.8249 101.924H38.1186L38.0304 102.062C37.2169 102.351 36.6367 103.074 36.6367 103.928Z" fill="#664324"/>
<path d="M38.1186 105.932C39.2284 105.932 40.1302 105.033 40.1302 103.928C40.1302 102.822 39.2284 101.924 38.1186 101.924C37.0087 101.924 36.1069 102.822 36.1069 103.928C36.1069 105.033 37.0087 105.932 38.1186 105.932Z" fill="#A36A3A"/>
<path d="M38.1191 105.04C38.7371 105.04 39.2353 104.543 39.2353 103.928C39.2353 103.312 38.7371 102.816 38.1191 102.816C37.5011 102.816 37.0029 103.312 37.0029 103.928C37.0092 104.537 37.5074 105.04 38.1191 105.04Z" fill="#DB904E"/>
<path d="M36.6367 89.4176C36.6367 90.2656 37.2169 90.988 38.0304 91.2832L38.1186 91.4214H38.8249C40.0294 91.4214 41.0131 90.5231 41.0131 89.4176C41.0131 88.312 40.0357 87.4138 38.8249 87.4138H38.1186L38.0304 87.552C37.2169 87.8409 36.6367 88.5633 36.6367 89.4176Z" fill="#664324"/>
<path d="M38.1186 91.4214C39.2284 91.4214 40.1302 90.5231 40.1302 89.4176C40.1302 88.312 39.2284 87.4138 38.1186 87.4138C37.0087 87.4138 36.1069 88.312 36.1069 89.4176C36.1069 90.5231 37.0087 91.4214 38.1186 91.4214Z" fill="#A36A3A"/>
<path d="M38.1191 90.5294C38.7371 90.5294 39.2353 90.0332 39.2353 89.4176C39.2353 88.802 38.7371 88.3058 38.1191 88.3058C37.5011 88.3058 37.0029 88.802 37.0029 89.4176C37.0029 90.0332 37.5074 90.5294 38.1191 90.5294Z" fill="#DB904E"/>
<path d="M215.559 89.4172C215.559 88.5691 214.978 87.8468 214.165 87.5515L214.077 87.4133H213.37C212.166 87.4133 211.182 88.3116 211.182 89.4172C211.182 90.5227 212.16 91.421 213.37 91.421H214.077L214.165 91.2828C214.985 90.9875 215.559 90.2652 215.559 89.4172Z" fill="#664324"/>
<path d="M214.076 87.4075C212.966 87.4075 212.064 88.3058 212.064 89.4113C212.064 90.5169 212.966 91.4151 214.076 91.4151C215.186 91.4151 216.088 90.5169 216.088 89.4113C216.088 88.3058 215.192 87.4075 214.076 87.4075Z" fill="#A36A3A"/>
<path d="M214.076 88.3058C213.458 88.3058 212.96 88.802 212.96 89.4176C212.96 90.0332 213.458 90.5294 214.076 90.5294C214.694 90.5294 215.192 90.0332 215.192 89.4176C215.192 88.802 214.694 88.3058 214.076 88.3058Z" fill="#DB904E"/>
<path d="M215.559 103.928C215.559 103.08 214.978 102.357 214.165 102.062L214.077 101.924H213.37C212.166 101.924 211.182 102.822 211.182 103.928C211.182 105.033 212.16 105.931 213.37 105.931H214.077L214.165 105.793C214.985 105.498 215.559 104.776 215.559 103.928Z" fill="#664324"/>
<path d="M214.076 101.918C212.966 101.918 212.064 102.816 212.064 103.922C212.064 105.027 212.966 105.925 214.076 105.925C215.186 105.925 216.088 105.027 216.088 103.922C216.088 102.816 215.192 101.918 214.076 101.918Z" fill="#A36A3A"/>
<path d="M214.076 102.816C213.458 102.816 212.96 103.312 212.96 103.928C212.96 104.543 213.458 105.04 214.076 105.04C214.694 105.04 215.192 104.543 215.192 103.928C215.192 103.312 214.694 102.816 214.076 102.816Z" fill="#DB904E"/>
<path d="M215.559 118.438C215.559 117.59 214.978 116.868 214.165 116.573L214.077 116.434H213.37C212.166 116.434 211.182 117.333 211.182 118.438C211.182 119.544 212.16 120.442 213.37 120.442H214.077L214.165 120.304C214.985 120.009 215.559 119.286 215.559 118.438Z" fill="#664324"/>
<path d="M214.076 120.442C215.187 120.442 216.088 119.545 216.088 118.438C216.088 117.332 215.187 116.434 214.076 116.434C212.965 116.434 212.064 117.332 212.064 118.438C212.064 119.545 212.965 120.442 214.076 120.442Z" fill="#A36A3A"/>
<path d="M214.076 117.326C213.458 117.326 212.96 117.823 212.96 118.438C212.96 119.054 213.458 119.55 214.076 119.55C214.694 119.55 215.192 119.054 215.192 118.438C215.192 117.823 214.694 117.326 214.076 117.326Z" fill="#DB904E"/>
<path d="M215.559 132.949C215.559 132.101 214.978 131.378 214.165 131.083L214.077 130.945H213.37C212.166 130.945 211.182 131.843 211.182 132.949C211.182 134.054 212.16 134.952 213.37 134.952H214.077L214.165 134.814C214.985 134.519 215.559 133.797 215.559 132.949Z" fill="#664324"/>
<path d="M214.076 134.952C215.187 134.952 216.088 134.055 216.088 132.949C216.088 131.842 215.187 130.945 214.076 130.945C212.965 130.945 212.064 131.842 212.064 132.949C212.064 134.055 212.965 134.952 214.076 134.952Z" fill="#A36A3A"/>
<path d="M214.076 131.837C213.458 131.837 212.96 132.333 212.96 132.949C212.96 133.564 213.458 134.06 214.076 134.06C214.694 134.06 215.192 133.564 215.192 132.949C215.192 132.333 214.694 131.837 214.076 131.837Z" fill="#DB904E"/>
<path d="M215.559 147.459C215.559 146.611 214.978 145.889 214.165 145.593L214.077 145.455H213.37C212.166 145.455 211.182 146.353 211.182 147.459C211.182 148.564 212.16 149.463 213.37 149.463H214.077L214.165 149.325C214.985 149.029 215.559 148.307 215.559 147.459Z" fill="#664324"/>
<path d="M214.076 149.463C215.187 149.463 216.088 148.566 216.088 147.459C216.088 146.352 215.187 145.455 214.076 145.455C212.965 145.455 212.064 146.352 212.064 147.459C212.064 148.566 212.965 149.463 214.076 149.463Z" fill="#A36A3A"/>
<path d="M214.076 146.347C213.458 146.347 212.96 146.843 212.96 147.459C212.96 148.074 213.458 148.571 214.076 148.571C214.694 148.571 215.192 148.074 215.192 147.459C215.192 146.843 214.694 146.347 214.076 146.347Z" fill="#DB904E"/>
<path d="M215.559 161.969C215.559 161.121 214.978 160.399 214.165 160.104L214.077 159.965H213.37C212.166 159.965 211.182 160.864 211.182 161.969C211.182 163.075 212.16 163.973 213.37 163.973H214.077L214.165 163.835C214.985 163.54 215.559 162.817 215.559 161.969Z" fill="#664324"/>
<path d="M214.076 163.973C215.187 163.973 216.088 163.076 216.088 161.969C216.088 160.863 215.187 159.965 214.076 159.965C212.965 159.965 212.064 160.863 212.064 161.969C212.064 163.076 212.965 163.973 214.076 163.973Z" fill="#A36A3A"/>
<path d="M214.076 160.857C213.458 160.857 212.96 161.354 212.96 161.969C212.96 162.585 213.458 163.081 214.076 163.081C214.694 163.081 215.192 162.585 215.192 161.969C215.192 161.354 214.694 160.857 214.076 160.857Z" fill="#DB904E"/>
<path d="M219.916 78.4877H32.021V83.2617H219.916V78.4877Z" fill="#754C29"/>
<path d="M104.509 78.4877H32.021V83.2617H104.509V78.4877Z" fill="#5C3C20"/>
<path d="M219.916 172.384H32.021V177.158H219.916V172.384Z" fill="#754C29"/>
<path d="M104.509 172.384H32.021V177.158H104.509V172.384Z" fill="#5C3C20"/>
<path d="M212.891 182.579C212.916 184.658 206.78 186.417 199.188 186.499C191.595 186.58 185.422 184.96 185.397 182.88C185.371 180.801 191.507 179.042 199.1 178.961C206.692 178.873 212.866 180.493 212.891 182.579Z" fill="#FFAE00"/>
<path d="M199.167 185.458C205.63 185.387 210.856 184.103 210.839 182.591C210.823 181.079 205.569 179.91 199.106 179.981C192.643 180.052 187.417 181.335 187.434 182.848C187.45 184.36 192.703 185.529 199.167 185.458Z" fill="#EBA000"/>
<path d="M199.118 180.939C204.901 180.877 209.7 181.806 210.665 183.081C210.784 182.924 210.854 182.761 210.854 182.592C210.835 181.078 205.582 179.909 199.118 179.978C192.655 180.048 187.427 181.335 187.439 182.849C187.439 183.012 187.515 183.163 187.629 183.314C188.593 182.032 193.361 181.002 199.118 180.939Z" fill="#C28500"/>
<path d="M199.181 186.492C191.589 186.574 185.415 184.953 185.39 182.874L185.466 189.482C185.491 191.562 191.665 193.182 199.257 193.1C206.85 193.019 212.985 191.26 212.96 189.181L212.884 182.573C212.91 184.658 206.774 186.411 199.181 186.492Z" fill="#C28500"/>
<path d="M182.457 181.819C182.483 183.898 176.347 185.657 168.754 185.739C161.162 185.82 154.988 184.2 154.963 182.12C154.938 180.041 161.074 178.282 168.666 178.201C176.258 178.119 182.432 179.74 182.457 181.819Z" fill="#FFAE00"/>
<path d="M180.421 181.844C180.44 183.358 175.212 184.639 168.742 184.715C162.278 184.784 157.019 183.615 157.006 182.102C156.987 180.588 162.215 179.306 168.685 179.231C175.149 179.162 180.402 180.33 180.421 181.844Z" fill="#EBA000"/>
<path d="M168.685 180.186C174.468 180.123 179.267 181.053 180.231 182.328C180.351 182.171 180.421 182.007 180.421 181.838C180.402 180.324 175.149 179.155 168.685 179.225C162.221 179.294 156.994 180.581 157.006 182.095C157.006 182.259 157.082 182.409 157.196 182.56C158.167 181.272 162.928 180.248 168.685 180.186Z" fill="#C28500"/>
<path d="M168.754 185.739C161.162 185.82 154.988 184.2 154.963 182.12L155.039 188.729C155.064 190.808 161.237 192.428 168.83 192.347C176.422 192.265 182.558 190.506 182.533 188.427L182.457 181.819C182.482 183.904 176.347 185.657 168.754 185.739Z" fill="#C28500"/>
<path d="M192.112 191.461C192.137 193.54 186.002 195.299 178.409 195.381C170.817 195.462 164.643 193.842 164.618 191.763C164.593 189.683 170.728 187.925 178.321 187.843C185.913 187.761 192.087 189.382 192.112 191.461Z" fill="#FFAE00"/>
<path d="M178.396 194.34C184.859 194.269 190.085 192.985 190.068 191.473C190.052 189.961 184.798 188.792 178.335 188.863C171.872 188.934 166.646 190.217 166.663 191.729C166.679 193.242 171.932 194.411 178.396 194.34Z" fill="#EBA000"/>
<path d="M178.34 189.828C184.123 189.765 188.921 190.695 189.886 191.97C190.006 191.813 190.075 191.649 190.075 191.48C190.057 189.966 184.804 188.798 178.34 188.867C171.876 188.936 166.649 190.224 166.661 191.737C166.661 191.901 166.737 192.052 166.85 192.202C167.821 190.915 172.583 189.891 178.34 189.828Z" fill="#C28500"/>
<path d="M178.409 195.381C170.817 195.462 164.643 193.842 164.618 191.763L164.693 198.371C164.719 200.45 170.892 202.071 178.485 201.989C186.077 201.907 192.213 200.148 192.188 198.069L192.112 191.461C192.137 193.54 185.995 195.299 178.409 195.381Z" fill="#C28500"/>
<path d="M120.079 181.951C120.104 184.03 113.968 185.789 106.376 185.87C98.7834 185.952 92.6098 184.331 92.5846 182.252C92.5593 180.173 98.6951 178.414 106.288 178.333C113.886 178.251 120.06 179.872 120.079 181.951Z" fill="#FFAE00"/>
<path d="M106.364 184.831C112.828 184.76 118.054 183.477 118.037 181.964C118.02 180.452 112.767 179.283 106.304 179.354C99.8406 179.425 94.6146 180.708 94.6313 182.221C94.648 183.733 99.9011 184.902 106.364 184.831Z" fill="#EBA000"/>
<path d="M106.306 180.318C112.088 180.255 116.887 181.184 117.852 182.46C117.972 182.303 118.041 182.139 118.041 181.97C118.022 180.456 112.769 179.287 106.306 179.356C99.8421 179.426 94.6144 180.713 94.627 182.227C94.627 182.39 94.7027 182.541 94.8162 182.692C95.7873 181.404 100.548 180.38 106.306 180.318Z" fill="#C28500"/>
<path d="M106.376 185.87C98.7833 185.952 92.6097 184.332 92.5845 182.252L92.6602 188.86C92.6854 190.94 98.859 192.56 106.451 192.479C114.044 192.397 120.18 190.638 120.154 188.559L120.079 181.951C120.104 184.03 113.968 185.789 106.376 185.87Z" fill="#C28500"/>
<path d="M59.8508 173.062C59.8761 175.142 53.7403 176.9 46.1478 176.982C38.5554 177.064 32.3817 175.443 32.3565 173.364C32.3313 171.285 38.4671 169.526 46.0595 169.444C53.652 169.363 59.8256 170.983 59.8508 173.062Z" fill="#FFAE00"/>
<path d="M57.8128 173.088C57.8317 174.601 52.604 175.883 46.134 175.958C39.6703 176.027 34.4111 174.859 34.3985 173.345C34.3796 171.831 39.6073 170.55 46.0773 170.474C52.5409 170.405 57.7939 171.574 57.8128 173.088Z" fill="#EBA000"/>
<path d="M46.0772 171.429C51.8599 171.366 56.6588 172.296 57.6236 173.571C57.7434 173.414 57.8128 173.251 57.8128 173.081C57.7938 171.567 52.5409 170.399 46.0772 170.468C39.6135 170.537 34.3858 171.825 34.3985 173.339C34.3985 173.502 34.4741 173.653 34.5876 173.804C35.5525 172.522 40.3198 171.492 46.0772 171.429Z" fill="#C28500"/>
<path d="M46.1399 176.982C38.5475 177.064 32.3739 175.443 32.3486 173.364L32.4243 179.972C32.4495 182.051 38.6231 183.672 46.2156 183.59C53.8081 183.509 59.9438 181.75 59.9186 179.671L59.8429 173.062C59.8682 175.148 53.7324 176.9 46.1399 176.982Z" fill="#C28500"/>
<path d="M233.946 184.193C232.187 188.685 225.219 190.167 218.396 187.504C211.566 184.847 207.461 179.049 209.227 174.564C210.986 170.072 217.954 168.59 224.777 171.253C231.607 173.91 235.712 179.702 233.946 184.193Z" fill="#FFAE00"/>
<path d="M231.996 183.434C233.367 179.942 229.814 175.293 224.06 173.052C218.307 170.81 212.531 171.825 211.159 175.317C209.788 178.81 213.341 183.458 219.095 185.7C224.849 187.941 230.625 186.927 231.996 183.434Z" fill="#EBA000"/>
<path d="M224.071 173.05C218.313 170.807 212.537 171.825 211.169 175.318C211.011 175.72 210.929 176.134 210.891 176.561C212.304 173.113 218.042 172.12 223.768 174.35C228.863 176.335 232.224 180.205 231.978 183.49C231.985 183.471 231.997 183.452 232.004 183.433C233.378 179.941 229.822 175.292 224.071 173.05Z" fill="#C28500"/>
<path d="M218.396 187.504C211.718 184.903 207.663 179.306 209.132 174.859L209.107 174.853L207.77 178.264C206.011 182.755 210.116 188.546 216.939 191.204C223.768 193.861 230.73 192.378 232.49 187.893L233.826 184.482L233.801 184.476C231.865 188.735 225.074 190.104 218.396 187.504Z" fill="#C28500"/>
<path d="M151.194 195.125C156.629 190.223 158.402 183.354 155.155 179.782C151.908 176.21 144.87 177.288 139.436 182.189C134.001 187.091 132.228 193.96 135.475 197.532C138.722 201.104 145.759 200.026 151.194 195.125Z" fill="#FFAE00"/>
<path d="M149.89 193.691C154.47 189.56 156.134 183.958 153.607 181.178C151.08 178.398 145.319 179.493 140.739 183.624C136.159 187.754 134.495 193.357 137.022 196.137C139.549 198.917 145.31 197.822 149.89 193.691Z" fill="#EBA000"/>
<path d="M140.731 183.622C136.152 187.755 134.488 193.358 137.016 196.134C137.306 196.455 137.641 196.719 138.013 196.932C135.541 194.137 137.212 188.572 141.765 184.463C145.82 180.808 150.795 179.532 153.639 181.216C153.626 181.203 153.614 181.184 153.601 181.166C151.072 178.395 145.309 179.488 140.731 183.622Z" fill="#C28500"/>
<path d="M151.186 195.123C145.87 199.916 139.034 201.04 135.698 197.743L135.679 197.761L138.145 200.475C141.392 204.049 148.43 202.969 153.866 198.069C159.302 193.17 161.074 186.298 157.826 182.73L155.36 180.016L155.341 180.035C158.299 183.666 156.502 190.33 151.186 195.123Z" fill="#C28500"/>
<path d="M31.3445 174.514C36.779 169.613 38.5524 162.744 35.3055 159.171C32.0586 155.599 25.0208 156.677 19.5863 161.579C14.1517 166.48 12.3782 173.349 15.6252 176.921C18.8721 180.494 25.9099 179.416 31.3445 174.514Z" fill="#FFAE00"/>
<path d="M30.0404 173.08C34.6204 168.95 36.2848 163.347 33.7578 160.567C31.2309 157.787 25.4695 158.882 20.8895 163.013C16.3095 167.144 14.6452 172.746 17.1721 175.526C19.6991 178.306 25.4604 177.211 30.0404 173.08Z" fill="#EBA000"/>
<path d="M20.8849 163.012C16.3067 167.145 14.6419 172.748 17.1706 175.525C17.4607 175.845 17.7949 176.109 18.167 176.323C15.695 173.527 17.3661 167.962 21.9191 163.854C25.9739 160.198 30.9493 158.923 33.7934 160.606C33.7807 160.594 33.7681 160.575 33.7555 160.556C31.2331 157.786 25.4694 158.879 20.8849 163.012Z" fill="#C28500"/>
<path d="M31.3459 174.514C26.0299 179.306 19.1942 180.431 15.8583 177.133L15.8394 177.152L18.305 179.865C21.5526 183.44 28.5902 182.359 34.026 177.46C39.4618 172.56 41.2338 165.688 37.9861 162.12L35.5205 159.406L35.5016 159.425C38.4591 163.05 36.6556 169.721 31.3459 174.514Z" fill="#C28500"/>
<path d="M84.3985 47.8841L79.3348 53.8767L71.6099 52.4005L77.6258 57.4446L76.1502 65.1332L81.2076 59.1406L88.9325 60.6168L82.9166 55.5727L84.3985 47.8841Z" fill="#FFEB99"/>
<path d="M92.231 34.561L91.7707 39.7684L86.9844 41.9166L92.2121 42.3752L94.3687 47.1429L94.8291 41.9355L99.6154 39.7872L94.3877 39.3287L92.231 34.561Z" fill="#FFEB99"/>
<path d="M210.999 166.925L210.539 172.133L205.752 174.281L210.98 174.733L213.131 179.507L213.591 174.3L218.383 172.152L213.149 171.693L210.999 166.925Z" fill="#FFEB99"/>
<path d="M51.1853 153.653L47.7926 157.641L42.6343 156.643L46.6449 160.022L45.6423 165.154L49.0349 161.165L54.1869 162.164L50.1763 158.785L51.1853 153.653Z" fill="#FFEB99"/>
<path d="M161.743 58.0288L161.289 63.2362L156.496 65.3844L161.73 65.8367L163.88 70.6107L164.341 65.397L169.127 63.255L163.899 62.7964L161.743 58.0288Z" fill="#FFEB99"/>
<path d="M133.914 50.158L128.049 54.4797L121.39 51.496L125.735 57.3378L122.74 63.9648L128.604 59.6431L135.257 62.6269L130.912 56.785L133.914 50.158Z" fill="#FFEB99"/>
</svg>
