<svg width="24" height="645" viewBox="0 0 24 645" fill="none" xmlns="http://www.w3.org/2000/svg">
<mask id="path-1-inside-1_288_28812" fill="white">
<path fill-rule="evenodd" clip-rule="evenodd" d="M24 0H0V12.0204L2.52608 15.5206L0 18.0082V185.85L2.92451 180.476L0 191.224V314.023L3.67451 307.27L0 320.775V519.221L3.06982 516.913L0 523.426V645H24V559.932L22.3128 560.096L24 555.394V504.219L18.5625 481.683L24 493.221V266.801L20.8125 253.59L24 260.353V136.721L21.9375 128.173L24 132.549V52.2751L21.177 52.55L24 44.682V0Z"/>
</mask>
<path fill-rule="evenodd" clip-rule="evenodd" d="M24 0H0V12.0204L2.52608 15.5206L0 18.0082V185.85L2.92451 180.476L0 191.224V314.023L3.67451 307.27L0 320.775V519.221L3.06982 516.913L0 523.426V645H24V559.932L22.3128 560.096L24 555.394V504.219L18.5625 481.683L24 493.221V266.801L20.8125 253.59L24 260.353V136.721L21.9375 128.173L24 132.549V52.2751L21.177 52.55L24 44.682V0Z" fill="#1A1919"/>
<path d="M0 0V-1H-1V0H0ZM24 0H25V-1H24V0ZM0 12.0204H-1V12.3435L-0.810886 12.6056L0 12.0204ZM2.52608 15.5206L3.22774 16.2331L3.83905 15.6311L3.33697 14.9354L2.52608 15.5206ZM0 18.0082L-0.70166 17.2957L-1 17.5895V18.0082H0ZM0 185.85H-1L0.878364 186.328L0 185.85ZM2.92451 180.476L3.88943 180.738L2.04615 179.998L2.92451 180.476ZM0 191.224L-0.964919 190.961L-1 191.09V191.224H0ZM0 314.023H-1L0.878364 314.501L0 314.023ZM3.67451 307.27L4.63943 307.533L2.79615 306.792L3.67451 307.27ZM0 320.775L-0.964919 320.513L-1 320.641V320.775H0ZM0 519.221H-1V521.225L0.601057 520.02L0 519.221ZM3.06982 516.913L3.9744 517.339L2.46877 516.113L3.06982 516.913ZM0 523.426L-0.904577 523L-1 523.202V523.426H0ZM0 645H-1V646H0V645ZM24 645V646H25V645H24ZM24 559.932H25V558.83L23.9031 558.937L24 559.932ZM22.3128 560.096L21.3715 559.759L20.8384 561.245L22.4097 561.092L22.3128 560.096ZM24 555.394L24.9412 555.732L25 555.568V555.394H24ZM24 504.219H25V504.1L24.9721 503.984L24 504.219ZM18.5625 481.683L19.4671 481.257L17.5904 481.917L18.5625 481.683ZM24 493.221L23.0954 493.647L25 493.221H24ZM24 266.801H25V266.682L24.9721 266.566L24 266.801ZM20.8125 253.59L21.7171 253.164L19.8404 253.824L20.8125 253.59ZM24 260.353L23.0954 260.78L25 260.353H24ZM24 136.721H25V136.602L24.9721 136.487L24 136.721ZM21.9375 128.173L22.8421 127.747L20.9654 128.408L21.9375 128.173ZM24 132.549L23.0954 132.976L25 132.549H24ZM24 52.2751H25V51.173L23.9031 51.2798L24 52.2751ZM21.177 52.55L20.2358 52.2122L19.7026 53.6982L21.2739 53.5452L21.177 52.55ZM24 44.682L24.9412 45.0197L25 44.856V44.682H24ZM0 1H24V-1H0V1ZM1 12.0204V0H-1V12.0204H1ZM3.33697 14.9354L0.810886 11.4352L-0.810886 12.6056L1.71519 16.1058L3.33697 14.9354ZM0.70166 18.7208L3.22774 16.2331L1.82442 14.8081L-0.70166 17.2957L0.70166 18.7208ZM1 185.85V18.0082H-1V185.85H1ZM2.04615 179.998L-0.878364 185.372L0.878364 186.328L3.80288 180.954L2.04615 179.998ZM0.964919 191.486L3.88943 180.738L1.9596 180.213L-0.964919 190.961L0.964919 191.486ZM1 314.023V191.224H-1V314.023H1ZM0.878364 314.501L4.55288 307.748L2.79615 306.792L-0.878364 313.545L0.878364 314.501ZM2.7096 307.008L-0.964919 320.513L0.964919 321.038L4.63943 307.533L2.7096 307.008ZM1 519.221V320.775H-1V519.221H1ZM2.46877 516.113L-0.601057 518.422L0.601057 520.02L3.67088 517.712L2.46877 516.113ZM0.904577 523.853L3.9744 517.339L2.16525 516.486L-0.904577 523L0.904577 523.853ZM1 645V523.426H-1V645H1ZM24 644H0V646H24V644ZM23 559.932V645H25V559.932H23ZM22.4097 561.092L24.0969 560.927L23.9031 558.937L22.2159 559.101L22.4097 561.092ZM23.0588 555.056L21.3715 559.759L23.254 560.434L24.9412 555.732L23.0588 555.056ZM23 504.219V555.394H25V504.219H23ZM17.5904 481.917L23.0279 504.454L24.9721 503.984L19.5346 481.448L17.5904 481.917ZM24.9046 492.794L19.4671 481.257L17.6579 482.109L23.0954 493.647L24.9046 492.794ZM23 266.801V493.221H25V266.801H23ZM19.8404 253.824L23.0279 267.035L24.9721 266.566L21.7846 253.355L19.8404 253.824ZM24.9046 259.927L21.7171 253.164L19.9079 254.016L23.0954 260.78L24.9046 259.927ZM23 136.721V260.353H25V136.721H23ZM20.9654 128.408L23.0279 136.956L24.9721 136.487L22.9096 127.939L20.9654 128.408ZM24.9046 132.123L22.8421 127.747L21.0329 128.599L23.0954 132.976L24.9046 132.123ZM23 52.2751V132.549H25V52.2751H23ZM21.2739 53.5452L24.0969 53.2704L23.9031 51.2798L21.0801 51.5547L21.2739 53.5452ZM23.0588 44.3443L20.2358 52.2122L22.1183 52.8877L24.9412 45.0197L23.0588 44.3443ZM23 0V44.682H25V0H23Z" fill="#282828" mask="url(#path-1-inside-1_288_28812)"/>
</svg>
