<svg width="504" height="24" viewBox="0 0 504 24" fill="none" xmlns="http://www.w3.org/2000/svg">
<mask id="path-1-inside-1_288_28790" fill="white">
<path fill-rule="evenodd" clip-rule="evenodd" d="M2.86197e-07 0L0 24L9.39255 24L12.1277 21.4738L14.0716 24L145.222 24L141.023 21.0754L149.422 24L245.376 24L240.1 20.3254L250.653 24L405.717 24L403.913 20.9299L409.003 24L504 24L504 6.01014e-06L437.528 5.21747e-06L437.657 1.68728L433.982 5.17519e-06L393.994 4.69833e-06L376.385 5.43749L385.4 4.59585e-06L208.477 2.48606e-06L198.154 3.18746L203.439 2.42598e-06L106.833 1.27398e-06L100.154 2.06247L103.574 1.2351e-06L40.8478 4.87104e-07L41.0625 2.8227L34.9151 4.16358e-07L2.86197e-07 0Z"/>
</mask>
<path fill-rule="evenodd" clip-rule="evenodd" d="M2.86197e-07 0L0 24L9.39255 24L12.1277 21.4738L14.0716 24L145.222 24L141.023 21.0754L149.422 24L245.376 24L240.1 20.3254L250.653 24L405.717 24L403.913 20.9299L409.003 24L504 24L504 6.01014e-06L437.528 5.21747e-06L437.657 1.68728L433.982 5.17519e-06L393.994 4.69833e-06L376.385 5.43749L385.4 4.59585e-06L208.477 2.48606e-06L198.154 3.18746L203.439 2.42598e-06L106.833 1.27398e-06L100.154 2.06247L103.574 1.2351e-06L40.8478 4.87104e-07L41.0625 2.8227L34.9151 4.16358e-07L2.86197e-07 0Z" fill="#1A1919"/>
<path d="M0 24L-1 24L-1 25L-1.19249e-08 25L0 24ZM2.86197e-07 0L2.98122e-07 -1L-1 -1L-1 -1.19253e-08L2.86197e-07 0ZM9.39255 24L9.39255 25L9.78369 25L10.071 24.7346L9.39255 24ZM12.1277 21.4738L12.9202 20.864L12.253 19.9969L11.4492 20.7392L12.1277 21.4738ZM14.0716 24L13.2791 24.6098L13.5793 25L14.0716 25L14.0716 24ZM145.222 24L145.222 25L148.408 25L145.794 23.1794L145.222 24ZM141.023 21.0754L141.352 20.131L140.451 21.896L141.023 21.0754ZM149.422 24L149.093 24.9444L149.253 25L149.422 25L149.422 24ZM245.376 24L245.376 25L248.562 25L245.948 23.1794L245.376 24ZM240.1 20.3254L240.429 19.381L239.528 21.146L240.1 20.3254ZM250.653 24L250.324 24.9444L250.483 25L250.653 25L250.653 24ZM405.717 24L405.717 25L407.465 25L406.579 23.4933L405.717 24ZM403.913 20.9299L404.429 20.0736L403.051 21.4366L403.913 20.9299ZM409.003 24L408.487 24.8563L408.725 25L409.003 25L409.003 24ZM504 24L504 25L505 25L505 24L504 24ZM504 6.01014e-06L505 6.02206e-06L505 -0.999994L504 -0.999994L504 6.01014e-06ZM437.528 5.21747e-06L437.528 -0.999995L436.45 -0.999995L436.531 0.0758595L437.528 5.21747e-06ZM437.657 1.68728L437.24 2.59606L438.783 3.30466L438.654 1.61143L437.657 1.68728ZM433.982 5.17519e-06L434.399 -0.908771L434.201 -0.999995L433.982 -0.999995L433.982 5.17519e-06ZM393.994 4.69833e-06L393.994 -0.999995L393.843 -0.999995L393.699 -0.955482L393.994 4.69833e-06ZM376.385 5.43749L375.868 4.58118L376.68 6.39297L376.385 5.43749ZM385.4 4.59585e-06L385.917 0.856315L388.994 -0.999995L385.4 -0.999995L385.4 4.59585e-06ZM208.477 2.48606e-06L208.477 -0.999998L208.326 -0.999998L208.182 -0.955484L208.477 2.48606e-06ZM198.154 3.18746L197.638 2.33115L198.449 4.14295L198.154 3.18746ZM203.439 2.42598e-06L203.955 0.856313L207.033 -0.999998L203.439 -0.999998L203.439 2.42598e-06ZM106.833 1.27398e-06L106.833 -0.999999L106.683 -0.999999L106.538 -0.955485L106.833 1.27398e-06ZM100.154 2.06247L99.6376 1.20616L100.449 3.01795L100.154 2.06247ZM103.574 1.2351e-06L104.09 0.856311L107.168 -0.999999L103.574 -0.999999L103.574 1.2351e-06ZM40.8478 4.87104e-07L40.8478 -1L39.7688 -1L39.8507 0.0758522L40.8478 4.87104e-07ZM41.0625 2.8227L40.6452 3.73148L42.1884 4.44007L42.0596 2.74685L41.0625 2.8227ZM34.9151 4.16358e-07L35.3324 -0.908776L35.1337 -1L34.9151 -1L34.9151 4.16358e-07ZM1 24L1 1.19244e-08L-1 -1.19253e-08L-1 24L1 24ZM9.39255 23L1.19249e-08 23L-1.19249e-08 25L9.39255 25L9.39255 23ZM11.4492 20.7392L8.71407 23.2654L10.071 24.7346L12.8062 22.2085L11.4492 20.7392ZM14.8641 23.3902L12.9202 20.864L11.3352 22.0837L13.2791 24.6098L14.8641 23.3902ZM145.222 23L14.0716 23L14.0716 25L145.222 25L145.222 23ZM140.451 21.896L144.651 24.8206L145.794 23.1794L141.594 20.2548L140.451 21.896ZM149.75 23.0556L141.352 20.131L140.694 22.0198L149.093 24.9444L149.75 23.0556ZM245.376 23L149.422 23L149.422 25L245.376 25L245.376 23ZM245.948 23.1794L240.671 19.5048L239.528 21.146L244.805 24.8206L245.948 23.1794ZM239.771 21.2698L250.324 24.9444L250.981 23.0556L240.429 19.381L239.771 21.2698ZM405.717 23L250.653 23L250.653 25L405.717 25L405.717 23ZM403.051 21.4366L404.855 24.5067L406.579 23.4933L404.775 20.4233L403.051 21.4366ZM409.52 23.1437L404.429 20.0736L403.397 21.7862L408.487 24.8563L409.52 23.1437ZM504 23L409.003 23L409.003 25L504 25L504 23ZM503 5.99821e-06L503 24L505 24L505 6.02206e-06L503 5.99821e-06ZM437.528 1.00001L504 1.00001L504 -0.999994L437.528 -0.999995L437.528 1.00001ZM438.654 1.61143L438.526 -0.075849L436.531 0.0758595L436.66 1.76314L438.654 1.61143ZM433.565 0.908782L437.24 2.59606L438.074 0.778506L434.399 -0.908771L433.565 0.908782ZM393.994 1L433.982 1.00001L433.982 -0.999995L393.994 -0.999995L393.994 1ZM376.68 6.39297L394.289 0.955491L393.699 -0.955482L376.09 4.482L376.68 6.39297ZM384.884 -0.856306L375.868 4.58118L376.901 6.2938L385.917 0.856315L384.884 -0.856306ZM208.477 1L385.4 1L385.4 -0.999995L208.477 -0.999998L208.477 1ZM198.449 4.14295L208.772 0.955489L208.182 -0.955484L197.859 2.23198L198.449 4.14295ZM202.922 -0.856308L197.638 2.33115L198.67 4.04377L203.955 0.856313L202.922 -0.856308ZM106.833 1L203.439 1L203.439 -0.999998L106.833 -0.999999L106.833 1ZM100.449 3.01795L107.129 0.955488L106.538 -0.955485L99.859 1.10698L100.449 3.01795ZM103.057 -0.856309L99.6376 1.20616L100.671 2.91878L104.09 0.856311L103.057 -0.856309ZM40.8478 1L103.574 1L103.574 -0.999999L40.8478 -1L40.8478 1ZM42.0596 2.74685L41.8449 -0.0758512L39.8507 0.0758522L40.0654 2.89855L42.0596 2.74685ZM34.4978 0.908777L40.6452 3.73148L41.4798 1.91393L35.3324 -0.908776L34.4978 0.908777ZM2.74272e-07 1L34.9151 1L34.9151 -1L2.98122e-07 -1L2.74272e-07 1Z" fill="#282828" mask="url(#path-1-inside-1_288_28790)"/>
</svg>
