<svg width="488" height="24" viewBox="0 0 488 24" fill="none" xmlns="http://www.w3.org/2000/svg">
<mask id="path-1-inside-1_288_28779" fill="white">
<path fill-rule="evenodd" clip-rule="evenodd" d="M488 24L488 0L478.906 -3.9753e-07L476.257 2.52617L474.375 -5.95565e-07L347.388 -6.14635e-06L351.454 2.92464L343.322 -6.32409e-06L250.413 -1.03852e-05L255.522 3.67464L245.304 -1.06086e-05L95.1629 -1.71715e-05L96.9099 3.0701L91.9811 -1.73105e-05L0 -2.13312e-05L-1.04907e-06 24L64.3612 24L64.2369 22.3127L67.7948 24L106.514 24L123.564 18.5625L114.835 24L286.142 24L296.136 20.8126L291.019 24L384.558 24L391.025 21.9376L387.714 24L448.449 24L448.241 21.1773L454.193 24L488 24Z"/>
</mask>
<path fill-rule="evenodd" clip-rule="evenodd" d="M488 24L488 0L478.906 -3.9753e-07L476.257 2.52617L474.375 -5.95565e-07L347.388 -6.14635e-06L351.454 2.92464L343.322 -6.32409e-06L250.413 -1.03852e-05L255.522 3.67464L245.304 -1.06086e-05L95.1629 -1.71715e-05L96.9099 3.0701L91.9811 -1.73105e-05L0 -2.13312e-05L-1.04907e-06 24L64.3612 24L64.2369 22.3127L67.7948 24L106.514 24L123.564 18.5625L114.835 24L286.142 24L296.136 20.8126L291.019 24L384.558 24L391.025 21.9376L387.714 24L448.449 24L448.241 21.1773L454.193 24L488 24Z" fill="#1A1919"/>
<path d="M488 0L489 4.37114e-08L489 -1L488 -1L488 0ZM488 24L488 25L489 25L489 24L488 24ZM478.906 -3.9753e-07L478.906 -1L478.505 -1L478.215 -0.723601L478.906 -3.9753e-07ZM476.257 2.52617L475.455 3.12364L476.13 4.02936L476.947 3.24977L476.257 2.52617ZM474.375 -5.95565e-07L475.177 -0.597466L474.877 -1L474.375 -1L474.375 -5.95565e-07ZM347.388 -6.14635e-06L347.388 -1.00001L344.285 -1.00001L346.804 0.811813L347.388 -6.14635e-06ZM351.454 2.92464L351.116 3.86563L352.038 2.11282L351.454 2.92464ZM343.322 -6.32409e-06L343.66 -0.941004L343.496 -1.00001L343.322 -1.00001L343.322 -6.32409e-06ZM250.413 -1.03852e-05L250.413 -1.00001L247.31 -1.00001L249.829 0.811808L250.413 -1.03852e-05ZM255.522 3.67464L255.184 4.61563L256.106 2.86282L255.522 3.67464ZM245.304 -1.06086e-05L245.643 -0.941009L245.479 -1.00001L245.304 -1.00001L245.304 -1.06086e-05ZM95.1629 -1.71715e-05L95.1629 -1.00002L93.4433 -1.00002L94.2938 0.494541L95.1629 -1.71715e-05ZM96.9099 3.0701L96.3811 3.9189L97.779 2.57554L96.9099 3.0701ZM91.9811 -1.73105e-05L92.5098 -0.848816L92.2671 -1.00002L91.9811 -1.00002L91.9811 -1.73105e-05ZM0 -2.13312e-05L4.37114e-08 -1.00002L-1 -1.00002L-1 -2.13749e-05L0 -2.13312e-05ZM-1.04907e-06 24L-1 24L-1 25L-1.09278e-06 25L-1.04907e-06 24ZM64.3612 24L64.3612 25L65.4375 25L65.3585 23.9265L64.3612 24ZM64.2369 22.3127L64.6654 21.4092L63.1134 20.6732L63.2396 22.3862L64.2369 22.3127ZM67.7948 24L67.3663 24.9035L67.5697 25L67.7948 25L67.7948 24ZM106.514 24L106.514 25L106.669 25L106.817 24.9527L106.514 24ZM123.564 18.5625L124.093 19.4113L123.26 17.6098L123.564 18.5625ZM114.835 24L114.306 23.1512L111.338 25L114.835 25L114.835 24ZM286.142 24L286.142 25L286.297 25L286.445 24.9527L286.142 24ZM296.136 20.8126L296.665 21.6614L295.833 19.8598L296.136 20.8126ZM291.019 24L290.491 23.1512L287.523 25L291.019 25L291.019 24ZM384.558 24L384.558 25L384.714 25L384.862 24.9527L384.558 24ZM391.025 21.9376L391.554 22.7864L390.722 20.9848L391.025 21.9376ZM387.714 24L387.186 23.1512L384.218 25L387.714 25L387.714 24ZM448.449 24L448.449 25L449.525 25L449.446 23.9265L448.449 24ZM448.241 21.1773L448.669 20.2738L447.117 19.5378L447.244 21.2508L448.241 21.1773ZM454.193 24L453.765 24.9035L453.968 25L454.193 25L454.193 24ZM487 -4.37114e-08L487 24L489 24L489 4.37114e-08L487 -4.37114e-08ZM478.906 1L488 1L488 -1L478.906 -1L478.906 1ZM476.947 3.24977L479.596 0.723601L478.215 -0.723601L475.567 1.80257L476.947 3.24977ZM473.573 0.597465L475.455 3.12364L477.059 1.92871L475.177 -0.597466L473.573 0.597465ZM347.388 0.999994L474.375 0.999999L474.375 -1L347.388 -1.00001L347.388 0.999994ZM352.038 2.11282L347.972 -0.811825L346.804 0.811813L350.87 3.73645L352.038 2.11282ZM342.983 0.940992L351.116 3.86563L351.792 1.98364L343.66 -0.941004L342.983 0.940992ZM250.413 0.99999L343.322 0.999994L343.322 -1.00001L250.413 -1.00001L250.413 0.99999ZM249.829 0.811808L254.938 4.48645L256.106 2.86282L250.997 -0.811829L249.829 0.811808ZM255.861 2.73364L245.643 -0.941009L244.966 0.940987L255.184 4.61563L255.861 2.73364ZM95.1629 0.999983L245.304 0.999989L245.304 -1.00001L95.1629 -1.00002L95.1629 0.999983ZM97.779 2.57554L96.032 -0.494575L94.2938 0.494541L96.0407 3.56466L97.779 2.57554ZM91.4524 0.848781L96.3811 3.9189L97.4386 2.2213L92.5098 -0.848816L91.4524 0.848781ZM-4.37114e-08 0.999979L91.9811 0.999983L91.9811 -1.00002L4.37114e-08 -1.00002L-4.37114e-08 0.999979ZM0.999999 24L1 -2.12874e-05L-1 -2.13749e-05L-1 24L0.999999 24ZM64.3612 23L-1.00536e-06 23L-1.09278e-06 25L64.3612 25L64.3612 23ZM63.2396 22.3862L63.3639 24.0734L65.3585 23.9265L65.2342 22.2393L63.2396 22.3862ZM68.2233 23.0964L64.6654 21.4092L63.8084 23.2163L67.3663 24.9035L68.2233 23.0964ZM106.514 23L67.7948 23L67.7948 25L106.514 25L106.514 23ZM123.26 17.6098L106.21 23.0473L106.817 24.9527L123.868 19.5153L123.26 17.6098ZM115.364 24.8488L124.093 19.4113L123.035 17.7137L114.306 23.1512L115.364 24.8488ZM286.142 23L114.835 23L114.835 25L286.142 25L286.142 23ZM295.833 19.8598L285.838 23.0473L286.445 24.9527L296.44 21.7653L295.833 19.8598ZM291.548 24.8488L296.665 21.6614L295.608 19.9638L290.491 23.1512L291.548 24.8488ZM384.558 23L291.019 23L291.019 25L384.558 25L384.558 23ZM390.722 20.9848L384.254 23.0473L384.862 24.9527L391.329 22.8903L390.722 20.9848ZM388.243 24.8488L391.554 22.7864L390.497 21.0888L387.186 23.1512L388.243 24.8488ZM448.449 23L387.714 23L387.714 25L448.449 25L448.449 23ZM447.244 21.2508L447.451 24.0735L449.446 23.9265L449.238 21.1039L447.244 21.2508ZM454.621 23.0964L448.669 20.2738L447.812 22.0809L453.765 24.9035L454.621 23.0964ZM488 23L454.193 23L454.193 25L488 25L488 23Z" fill="#282828" mask="url(#path-1-inside-1_288_28779)"/>
</svg>
