<svg width="1920" height="100" viewBox="0 0 1920 100" fill="none" xmlns="http://www.w3.org/2000/svg">
<mask id="path-1-inside-1_215_341" fill="white">
<path fill-rule="evenodd" clip-rule="evenodd" d="M16.6074 9.46554L0.999814 0.454484L1.26221 0H0V100H436.103L478.155 78.435L456.59 100H854.512L864 91V100H1033.28L1033 99.7193L1088.15 71.435L1059.59 100H1370.78L1392.39 66.5411L1383.42 100H1590.49L1608.62 71.9176L1601.1 100H1889.51L1899 91V100H1920V0H1518.9L1498 10.7193L1508.72 0H1233.9L1213 10.7193L1223.72 0H939.719L940.154 0.435024L885 28.7193L913.719 0H734.618L737.607 12.4655L722 3.45448L723.994 0H284.698L309.096 26.9545L262.409 0H14.3372L16.6074 9.46554Z"/>
</mask>
<path fill-rule="evenodd" clip-rule="evenodd" d="M16.6074 9.46554L0.999814 0.454484L1.26221 0H0V100H436.103L478.155 78.435L456.59 100H854.512L864 91V100H1033.28L1033 99.7193L1088.15 71.435L1059.59 100H1370.78L1392.39 66.5411L1383.42 100H1590.49L1608.62 71.9176L1601.1 100H1889.51L1899 91V100H1920V0H1518.9L1498 10.7193L1508.72 0H1233.9L1213 10.7193L1223.72 0H939.719L940.154 0.435024L885 28.7193L913.719 0H734.618L737.607 12.4655L722 3.45448L723.994 0H284.698L309.096 26.9545L262.409 0H14.3372L16.6074 9.46554Z" fill="#1A1919"/>
<path d="M0.999814 0.454484L0.133789 -0.045516L-0.366211 0.820509L0.499814 1.32051L0.999814 0.454484ZM16.6074 9.46554L16.1074 10.3316L18.1225 11.495L17.5798 9.23232L16.6074 9.46554ZM1.26221 0L2.12824 0.5L2.99426 -1H1.26221V0ZM0 0V-1H-1V0H0ZM0 100H-1V101H0V100ZM436.103 100V101H436.345L436.559 100.89L436.103 100ZM478.155 78.435L478.862 79.1421L477.698 77.5452L478.155 78.435ZM456.59 100L455.883 99.2929L454.176 101H456.59V100ZM854.512 100V101H854.91L855.2 100.726L854.512 100ZM864 91H865V88.6732L863.312 90.2745L864 91ZM864 100H863V101H864V100ZM1033.28 100V101H1035.7L1033.99 99.2928L1033.28 100ZM1033 99.7193L1032.54 98.8295L1031.32 99.4559L1032.29 100.426L1033 99.7193ZM1088.15 71.435L1088.86 72.1421L1087.7 70.5452L1088.15 71.435ZM1059.59 100L1058.88 99.2929L1057.18 101H1059.59V100ZM1370.78 100V101H1371.33L1371.62 100.542L1370.78 100ZM1392.39 66.5411L1393.35 66.8L1391.55 65.9987L1392.39 66.5411ZM1383.42 100L1382.46 99.7412L1382.12 101H1383.42V100ZM1590.49 100V101H1591.03L1591.33 100.542L1590.49 100ZM1608.62 71.9176L1609.59 72.1764L1607.78 71.3751L1608.62 71.9176ZM1601.1 100L1600.13 99.7412L1599.8 101H1601.1V100ZM1889.51 100V101H1889.91L1890.2 100.726L1889.51 100ZM1899 91H1900V88.6732L1898.31 90.2745L1899 91ZM1899 100H1898V101H1899V100ZM1920 100V101H1921V100H1920ZM1920 0H1921V-1H1920V0ZM1518.9 0V-1H1518.66L1518.45 -0.889817L1518.9 0ZM1498 10.7193L1497.29 10.0122L1498.46 11.6091L1498 10.7193ZM1508.72 0L1509.43 0.707109L1511.13 -1H1508.72V0ZM1233.9 0V-1H1233.66L1233.45 -0.889817L1233.9 0ZM1213 10.7193L1212.29 10.0122L1213.46 11.6091L1213 10.7193ZM1223.72 0L1224.43 0.707109L1226.13 -1H1223.72V0ZM939.719 0V-1H937.305L939.012 0.707085L939.719 0ZM940.154 0.435024L940.61 1.32484L941.832 0.698519L940.861 -0.27206L940.154 0.435024ZM885 28.7193L884.292 28.0122L885.456 29.6091L885 28.7193ZM913.719 0L914.426 0.707107L916.133 -1L913.719 -1V0ZM734.618 0V-1H733.35L733.645 0.233222L734.618 0ZM737.607 12.4655L737.107 13.3316L739.123 14.495L738.58 12.2323L737.607 12.4655ZM722 3.45448L721.134 2.95448L720.634 3.82051L721.5 4.32051L722 3.45448ZM723.994 0L724.86 0.5L725.726 -1H723.994V0ZM284.698 0V-1H282.444L283.957 0.67107L284.698 0ZM309.096 26.9545L308.596 27.8205L309.837 26.2834L309.096 26.9545ZM262.409 0L262.909 -0.866025L262.677 -1H262.409V0ZM14.3372 0V-1H13.069L13.3648 0.233224L14.3372 0ZM0.499814 1.32051L16.1074 10.3316L17.1074 8.59952L1.49981 -0.411541L0.499814 1.32051ZM0.396185 -0.5L0.133789 -0.045516L1.86584 0.954484L2.12824 0.5L0.396185 -0.5ZM0 1H1.26221V-1H0V1ZM1 100V0H-1V100H1ZM436.103 99H0V101H436.103V99ZM477.698 77.5452L435.647 99.1102L436.559 100.89L478.611 79.3248L477.698 77.5452ZM457.297 100.707L478.862 79.1421L477.448 77.7279L455.883 99.2929L457.297 100.707ZM854.512 99H456.59V101H854.512V99ZM863.312 90.2745L853.823 99.2745L855.2 100.726L864.688 91.7255L863.312 90.2745ZM865 100V91H863V100H865ZM1033.28 99H864V101H1033.28V99ZM1032.29 100.426L1032.57 100.707L1033.99 99.2928L1033.71 99.0121L1032.29 100.426ZM1087.7 70.5452L1032.54 98.8295L1033.46 100.609L1088.61 72.3248L1087.7 70.5452ZM1060.3 100.707L1088.86 72.1421L1087.45 70.7279L1058.88 99.2929L1060.3 100.707ZM1370.78 99H1059.59V101H1370.78V99ZM1391.55 65.9987L1369.94 99.4576L1371.62 100.542L1393.23 67.0836L1391.55 65.9987ZM1384.39 100.259L1393.35 66.8L1391.42 66.2823L1382.46 99.7412L1384.39 100.259ZM1590.49 99H1383.42V101H1590.49V99ZM1607.78 71.3751L1589.65 99.4576L1591.33 100.542L1609.46 72.46L1607.78 71.3751ZM1602.06 100.259L1609.59 72.1764L1607.66 71.6587L1600.13 99.7412L1602.06 100.259ZM1889.51 99H1601.1V101H1889.51V99ZM1898.31 90.2745L1888.82 99.2745L1890.2 100.726L1899.69 91.7255L1898.31 90.2745ZM1900 100V91H1898V100H1900ZM1920 99H1899V101H1920V99ZM1919 0V100H1921V0H1919ZM1518.9 1H1920V-1H1518.9V1ZM1498.46 11.6091L1519.36 0.889817L1518.45 -0.889817L1497.54 9.82948L1498.46 11.6091ZM1508.01 -0.707109L1497.29 10.0122L1498.71 11.4264L1509.43 0.707109L1508.01 -0.707109ZM1233.9 1H1508.72V-1H1233.9V1ZM1213.46 11.6091L1234.36 0.889817L1233.45 -0.889817L1212.54 9.82948L1213.46 11.6091ZM1223.01 -0.707109L1212.29 10.0122L1213.71 11.4264L1224.43 0.707109L1223.01 -0.707109ZM939.719 1H1223.72V-1H939.719V1ZM940.861 -0.27206L940.426 -0.707085L939.012 0.707085L939.447 1.14211L940.861 -0.27206ZM885.456 29.6091L940.61 1.32484L939.698 -0.454793L884.543 27.8295L885.456 29.6091ZM913.012 -0.707107L884.292 28.0122L885.707 29.4264L914.426 0.707107L913.012 -0.707107ZM734.618 1H913.719V-1H734.618V1ZM738.58 12.2323L735.59 -0.233222L733.645 0.233222L736.635 12.6988L738.58 12.2323ZM721.5 4.32051L737.107 13.3316L738.107 11.5995L722.5 2.58845L721.5 4.32051ZM723.128 -0.5L721.134 2.95448L722.866 3.95448L724.86 0.5L723.128 -0.5ZM284.698 1H723.994V-1H284.698V1ZM309.837 26.2834L285.439 -0.67107L283.957 0.67107L308.354 27.6256L309.837 26.2834ZM261.909 0.866025L308.596 27.8205L309.596 26.0885L262.909 -0.866025L261.909 0.866025ZM14.3372 1H262.409V-1H14.3372V1ZM17.5798 9.23232L15.3096 -0.233224L13.3648 0.233224L15.635 9.69876L17.5798 9.23232Z" fill="#282828" mask="url(#path-1-inside-1_215_341)"/>
</svg>
