<svg width="16" height="16" viewBox="0 0 16 16" fill="currentColor" xmlns="http://www.w3.org/2000/svg">
<g id="caret-down">
<path id="Vector" d="M12.1194 10.3033L7.99461 6.17847L3.86981 10.3033C3.54441 10.6287 3.01674 10.6287 2.69134 10.3033C2.36587 9.97785 2.36587 9.45021 2.69134 9.1248L7.40534 4.41073C7.56167 4.25447 7.77361 4.16667 7.99461 4.16667C8.21561 4.16667 8.42761 4.25447 8.58387 4.41073L13.2979 9.1248C13.3386 9.16547 13.3742 9.20927 13.4047 9.25553C13.6183 9.57896 13.5827 10.0185 13.2979 10.3033C13.2572 10.344 13.2134 10.3796 13.1672 10.4101C12.8437 10.6236 12.4042 10.588 12.1194 10.3033Z" fill="currentColor"/>
</g>
</svg>
