<svg width="16" height="16" viewBox="0 0 16 16" fill="none" xmlns="http://www.w3.org/2000/svg">
<g id="heroicons-solid/arrow-uturn-left">
<path id="Vector (Stroke)" fill-rule="evenodd" clip-rule="evenodd" d="M6.35355 1.64645C6.54882 1.84171 6.54882 2.15829 6.35355 2.35355L3.20711 5.5H10C12.4853 5.5 14.5 7.51472 14.5 10C14.5 12.4853 12.4853 14.5 10 14.5H8C7.72386 14.5 7.5 14.2761 7.5 14C7.5 13.7239 7.72386 13.5 8 13.5H10C11.933 13.5 13.5 11.933 13.5 10C13.5 8.067 11.933 6.5 10 6.5H3.20711L6.35355 9.64645C6.54882 9.84171 6.54882 10.1583 6.35355 10.3536C6.15829 10.5488 5.84171 10.5488 5.64645 10.3536L1.64645 6.35355C1.45118 6.15829 1.45118 5.84171 1.64645 5.64645L5.64645 1.64645C5.84171 1.45118 6.15829 1.45118 6.35355 1.64645Z" fill="#777777"/>
</g>
</svg>
