<svg viewBox="0 0 28 28" fill="currentColor" xmlns="http://www.w3.org/2000/svg">
<g id="menu">
<g id="Vector">
<path d="M3.5 7.58333C3.5 6.77791 4.15292 6.125 4.95833 6.125H23.0417C23.847 6.125 24.5 6.77791 24.5 7.58333C24.5 8.38875 23.847 9.04167 23.0417 9.04167H4.95833C4.15291 9.04167 3.5 8.38875 3.5 7.58333Z" fill="currentColor"/>
<path d="M4.95833 12.5417C4.15292 12.5417 3.5 13.1945 3.5 14C3.5 14.8053 4.15291 15.4583 4.95833 15.4583H23.0417C23.847 15.4583 24.5 14.8053 24.5 14C24.5 13.1945 23.847 12.5417 23.0417 12.5417H4.95833Z" fill="currentColor"/>
<path d="M3.5 20.4167C3.5 19.6112 4.15292 18.9583 4.95833 18.9583H23.0417C23.847 18.9583 24.5 19.6112 24.5 20.4167C24.5 21.2221 23.847 21.875 23.0417 21.875H4.95833C4.15291 21.875 3.5 21.2221 3.5 20.4167Z" fill="currentColor"/>
</g>
</g>
</svg>
