<svg  viewBox="0 0 20 20" fill="none" xmlns="http://www.w3.org/2000/svg">
<g id="Frame" clip-path="url(#clip0_146_2094)">
<g id="Group">
<g id="Group_2">
<path id="Vector" d="M10 20C15.5228 20 20 15.5228 20 10C20 4.47715 15.5228 0 10 0C4.47715 0 0 4.47715 0 10C0 15.5228 4.47715 20 10 20Z" fill="#FFE619"/>
</g>
<g id="Group_3">
<path id="Vector_2" d="M10.0001 18.4869C14.6873 18.4869 18.487 14.6872 18.487 10C18.487 5.3128 14.6873 1.51307 10.0001 1.51307C5.31291 1.51307 1.51318 5.3128 1.51318 10C1.51318 14.6872 5.31291 18.4869 10.0001 18.4869Z" fill="#FFB42C"/>
</g>
<g id="Group_4">
<path id="Vector_3" d="M14.4403 2.75653C15.2853 4.0759 15.7754 5.64472 15.7754 7.32787C15.7754 12.0151 11.9757 15.8148 7.28846 15.8148C5.66074 15.8148 4.14011 15.3562 2.84814 14.5616C4.35649 16.9162 6.99586 18.4772 9.99996 18.4772C14.6872 18.4772 18.4869 14.6775 18.4869 9.99024C18.4869 6.93071 16.868 4.24976 14.4403 2.75653Z" fill="#F7A91D"/>
</g>
<g id="Group_5">
<path id="Vector_4" d="M2.99986 10.7767C2.99986 6.63906 6.35388 3.28504 10.4915 3.28504C12.9101 3.28504 15.0603 4.43118 16.4301 6.20976C15.1366 3.96378 12.712 2.45197 9.93404 2.45197C5.7964 2.45197 2.44238 5.80598 2.44238 9.94362C2.44238 11.6627 3.02191 13.2463 3.99545 14.5106C3.36238 13.4113 2.99986 12.1361 2.99986 10.7767Z" fill="#DF9816"/>
</g>
<path id="Vector_5" d="M10.7005 4.52221V5.60347C11.1345 5.67339 11.4894 5.81669 11.765 6.0337C12.0409 6.25071 12.3036 6.58362 12.554 7.03213L11.4784 7.63339C11.1546 7.04504 10.7317 6.75087 10.2098 6.75087C9.88598 6.75087 9.61764 6.84661 9.40441 7.0378C9.19118 7.22898 9.08441 7.46803 9.08441 7.75496C9.08441 8.01606 9.17071 8.23307 9.34362 8.40598C9.51276 8.57512 9.8548 8.77575 10.3698 9.00724C10.8148 9.20945 11.1824 9.4 11.4731 9.57827C11.7635 9.75654 11.9824 9.9285 12.1294 10.0942C12.5449 10.543 12.7528 11.0854 12.7528 11.7216C12.7528 12.3468 12.5654 12.8986 12.1902 13.3764C11.8186 13.8507 11.3222 14.1707 10.7008 14.3364V15.4781H9.73543V14.3694C9.01449 14.2517 8.46488 14.0035 8.08598 13.6249C7.70709 13.246 7.42772 12.6614 7.24756 11.8706L8.4611 11.6167C8.62646 12.1757 8.82866 12.5748 9.06803 12.8139C9.31811 13.0419 9.65071 13.1559 10.0665 13.1559C10.4709 13.1559 10.8091 13.0255 11.0816 12.7641C11.3499 12.5068 11.4844 12.1739 11.4844 11.7657C11.4844 11.4016 11.3723 11.1093 11.148 10.8885C11.034 10.782 10.8658 10.6614 10.6431 10.5272C10.4205 10.3931 10.1364 10.2469 9.79087 10.0888C9.07748 9.76882 8.6085 9.47465 8.38425 9.2063C8.0274 8.80535 7.84913 8.32567 7.84913 7.76661C7.84913 7.50173 7.89134 7.25543 7.97606 7.0274C8.06079 6.79937 8.18299 6.59244 8.34299 6.40693C8.50299 6.22142 8.70079 6.06047 8.93606 5.92441C9.17134 5.78835 9.43811 5.68158 9.73575 5.60441V4.52315H10.7005V4.52221Z" fill="white"/>
</g>
</g>
<defs>
<clipPath id="clip0_146_2094">
<rect width="20" height="20" fill="white"/>
</clipPath>
</defs>
</svg>
