<svg width="20" height="20" viewBox="0 0 20 20" fill="none" xmlns="http://www.w3.org/2000/svg">
<g id="heroicons-solid/face-smile">
<path id="Subtract" fill-rule="evenodd" clip-rule="evenodd" d="M10 1.875C5.51269 1.875 1.875 5.51269 1.875 10C1.875 14.4873 5.51269 18.125 10 18.125C14.4873 18.125 18.125 14.4873 18.125 10C18.125 5.51269 14.4873 1.875 10 1.875ZM7.8125 6.875C7.36194 6.875 7.12228 7.22401 7.03251 7.40355C6.92405 7.62048 6.875 7.87642 6.875 8.125C6.875 8.37358 6.92405 8.62952 7.03251 8.84645C7.12228 9.02599 7.36194 9.375 7.8125 9.375C8.26306 9.375 8.50272 9.02599 8.59249 8.84645C8.70095 8.62952 8.75 8.37358 8.75 8.125C8.75 7.87642 8.70095 7.62048 8.59249 7.40355C8.50272 7.22401 8.26306 6.875 7.8125 6.875ZM11.4075 7.40355C11.4973 7.22401 11.7369 6.875 12.1875 6.875C12.6381 6.875 12.8777 7.22401 12.9675 7.40355C13.076 7.62048 13.125 7.87642 13.125 8.125C13.125 8.37358 13.076 8.62952 12.9675 8.84645C12.8777 9.02599 12.6381 9.375 12.1875 9.375C11.7369 9.375 11.4973 9.02599 11.4075 8.84645C11.299 8.62952 11.25 8.37358 11.25 8.125C11.25 7.87642 11.299 7.62048 11.4075 7.40355ZM13.0936 13.0936C13.3377 12.8495 13.3377 12.4538 13.0936 12.2097C12.8495 11.9656 12.4538 11.9656 12.2097 12.2097C10.9893 13.4301 9.01068 13.4301 7.79029 12.2097C7.54621 11.9656 7.15049 11.9656 6.90641 12.2097C6.66233 12.4538 6.66233 12.8495 6.90641 13.0936C8.61495 14.8022 11.385 14.8022 13.0936 13.0936Z" fill="#777777"/>
</g>
</svg>
