<svg width="20" height="20" viewBox="0 0 20 20" fill="none" xmlns="http://www.w3.org/2000/svg">
<g id="hook 1" clip-path="url(#clip0_757_13789)">
<g id="Group">
<path id="Vector" opacity="0.972" fill-rule="evenodd" clip-rule="evenodd" d="M10.957 10.293C10.5143 9.87628 10.0846 9.44659 9.66797 9.00389C10.0377 8.65374 10.4023 8.29565 10.7617 7.92968C9.96578 6.68882 9.76395 5.35417 10.1562 3.92577C10.7598 2.15035 11.9772 1.06311 13.8086 0.66405C15.9102 0.396546 17.5443 1.14524 18.7109 2.91014C19.4513 4.2953 19.5555 5.72757 19.0234 7.20702C18.7166 7.93147 18.2544 8.53694 17.6367 9.02343C17.194 9.33593 16.7513 9.64843 16.3086 9.96093C16.2761 9.9878 16.2501 9.98128 16.2305 9.94139C16.7849 9.1976 17.2602 8.40335 17.6562 7.55858C18.0867 6.49139 18.1779 5.39764 17.9297 4.27733C17.4689 2.95722 16.5509 2.16946 15.1758 1.91405C13.3334 1.77875 12.0769 2.56651 11.4062 4.27733C11.011 5.96331 11.5253 7.29143 12.9492 8.26171C12.2843 8.9396 11.6203 9.61667 10.957 10.293Z" fill="#FFE619"/>
</g>
<g id="Group_2">
<path id="Vector_2" fill-rule="evenodd" clip-rule="evenodd" d="M7.79297 9.0039C8.79875 10.0683 9.82738 11.1165 10.8789 12.1484C10.9021 12.1666 10.9282 12.1731 10.957 12.168C11.1003 12.3242 11.2435 12.4805 11.3867 12.6367C10.4027 13.6663 9.38711 14.6624 8.33984 15.625C8.09227 15.6841 7.87094 15.6385 7.67578 15.4883C6.21559 14.002 4.74422 12.5307 3.26172 11.0742C4.21848 10.0849 5.19504 9.11483 6.19141 8.16405C6.4573 8.07772 6.7177 8.09073 6.97266 8.20312C7.24094 8.47796 7.51438 8.74487 7.79297 9.0039Z" fill="#535353"/>
</g>
<g id="Group_3">
<path id="Vector_3" fill-rule="evenodd" clip-rule="evenodd" d="M9.66797 9.00392C10.0846 9.44661 10.5143 9.8763 10.957 10.293C11.1029 10.4386 11.233 10.5948 11.3477 10.7617C11.2446 10.9081 11.1275 11.0449 10.9961 11.1719C10.957 11.1979 10.918 11.1979 10.8789 11.1719C10.0098 10.3093 9.15039 9.44341 8.30078 8.57423C8.63113 8.42915 8.95668 8.44868 9.27734 8.63282C9.40246 8.7645 9.53266 8.88822 9.66797 9.00392Z" fill="#F8D165"/>
</g>
<g id="Group_4">
<path id="Vector_4" opacity="0.994" fill-rule="evenodd" clip-rule="evenodd" d="M8.30078 8.57422C9.15039 9.4434 10.0098 10.3093 10.8789 11.1719C10.918 11.1979 10.957 11.1979 10.9961 11.1719C11.1275 11.0448 11.2446 10.9081 11.3477 10.7617C11.5421 11.0957 11.5357 11.4343 11.3281 11.7773C11.1964 11.9025 11.0727 12.0327 10.957 12.168C10.9282 12.1731 10.9021 12.1666 10.8789 12.1484C9.82738 11.1165 8.79875 10.0683 7.79297 9.00391C7.95078 8.84602 8.12004 8.70277 8.30078 8.57422Z" fill="#EDAC42"/>
</g>
<g id="Group_5">
<path id="Vector_5" opacity="0.992" fill-rule="evenodd" clip-rule="evenodd" d="M3.26172 11.0742C4.74422 12.5307 6.21559 14.002 7.67578 15.4883C7.87094 15.6385 8.09227 15.6841 8.33984 15.625C9.38711 14.6624 10.4027 13.6663 11.3867 12.6367C11.8525 12.934 11.9762 13.3376 11.7578 13.8477C10.5455 15.0665 9.32809 16.2774 8.10547 17.4805C7.97422 17.3752 7.85703 17.258 7.75391 17.1289C5.98309 15.3841 4.22527 13.6263 2.48047 11.8555C2.72786 11.582 2.98828 11.3216 3.26172 11.0742Z" fill="#474747"/>
</g>
<g id="Group_6">
<path id="Vector_6" fill-rule="evenodd" clip-rule="evenodd" d="M2.48047 11.8555C4.22527 13.6263 5.98309 15.3841 7.75391 17.1289C7.49879 17.5337 7.16023 17.8527 6.73828 18.0859C6.51297 18.1338 6.30465 18.0947 6.11328 17.9687C4.38879 16.2377 2.65701 14.5124 0.917969 12.793C1.20506 12.4211 1.55662 12.1281 1.97266 11.914C2.13873 11.8674 2.308 11.8478 2.48047 11.8555Z" fill="#FFE619"/>
</g>
<g id="Group_7">
<path id="Vector_7" opacity="0.987" fill-rule="evenodd" clip-rule="evenodd" d="M0.917968 12.793C2.65701 14.5125 4.38879 16.2377 6.11328 17.9688C6.30465 18.0947 6.51297 18.1338 6.73828 18.0859C7.16023 17.8527 7.49879 17.5337 7.75391 17.1289C7.85703 17.258 7.97422 17.3752 8.10547 17.4805C8.1243 17.8087 8.03969 18.1082 7.85156 18.3789C7.55859 18.6719 7.26562 18.9648 6.97266 19.2578C6.68621 19.388 6.39973 19.388 6.11328 19.2578C4.30988 17.4544 2.50651 15.6511 0.703124 13.8477C0.572917 13.5612 0.572917 13.2747 0.703124 12.9883C0.769679 12.9151 0.841296 12.85 0.917968 12.793Z" fill="#FFB42C"/>
</g>
</g>
<defs>
<clipPath id="clip0_757_13789">
<rect width="20" height="20" fill="white"/>
</clipPath>
</defs>
</svg>
