<svg width="20" height="20" viewBox="0 0 20 20" fill="none" xmlns="http://www.w3.org/2000/svg">
<g id="kraken (2) 1" clip-path="url(#clip0_923_7043)">
<g id="Group">
<path id="Vector" fill-rule="evenodd" clip-rule="evenodd" d="M13.0273 8.30078C12.8602 9.72765 12.73 11.16 12.6367 12.5977C12.6371 13.3218 12.7022 14.0379 12.832 14.7461C12.5986 15.0123 12.3707 15.2857 12.1484 15.5664C12.0134 15.772 11.8896 15.9803 11.7773 16.1914C11.3305 15.3679 11.1027 14.4825 11.0938 13.5352C11.0677 12.9883 11.0677 12.4414 11.0938 11.8945C11.2253 10.7443 11.336 9.59191 11.4258 8.4375C11.4433 6.67605 10.7923 5.21773 9.47266 4.0625C8.83641 3.53594 8.15934 3.06719 7.44141 2.65625C7.21109 2.47105 6.97672 2.29527 6.73828 2.1289C6.59512 1.80346 6.49094 1.46492 6.42578 1.11328C6.44734 0.844688 6.50594 0.58427 6.60156 0.332028C6.68918 0.26242 6.78684 0.242889 6.89453 0.273434C7.27031 0.988313 7.76512 1.61331 8.37891 2.14843C9.12051 2.68855 9.87574 3.20938 10.6445 3.71093C12.1653 4.85777 12.9596 6.38769 13.0273 8.30078Z" fill="#FC4755"/>
</g>
<g id="Group_2">
<path id="Vector_2" opacity="0.996" fill-rule="evenodd" clip-rule="evenodd" d="M6.42707 1.11328C6.49223 1.46492 6.59641 1.80346 6.73957 2.12891C7.30238 3.06286 8.04457 3.82458 8.96613 4.41406C10.6357 5.98141 11.124 7.86293 10.431 10.0586C10.3345 10.3351 10.2303 10.6085 10.1185 10.8789C9.79601 11.4586 9.48351 12.0446 9.18098 12.6367C8.64035 13.9544 8.50363 15.3086 8.77082 16.6992C8.65609 16.7834 8.52586 16.842 8.38019 16.875C8.00953 16.9369 7.65797 16.8848 7.32551 16.7188C7.115 16.5473 6.89363 16.3911 6.66144 16.25C5.99144 16.0139 5.41855 16.1571 4.94269 16.6797C4.57726 16.8825 4.18664 16.9476 3.77082 16.875C3.64034 16.8358 3.52316 16.7772 3.41926 16.6992C2.22292 15.1309 1.76068 13.3471 2.03254 11.3477C2.20198 10.4602 2.57307 9.67242 3.14582 8.98438C3.19633 8.96523 3.24842 8.95871 3.30207 8.96484C3.32328 8.96719 3.3363 8.9802 3.34113 9.00391C2.95242 9.77938 2.73107 10.5997 2.67707 11.4648C2.6665 12.176 2.90087 12.7879 3.38019 13.3008C3.13522 13.4397 3.05058 13.648 3.12629 13.9258C3.26403 14.3436 3.54397 14.604 3.96613 14.707C4.24945 14.697 4.4057 14.5538 4.43488 14.2773C4.88207 14.596 5.30527 14.9475 5.70441 15.332C5.83125 15.4945 5.94844 15.6637 6.05598 15.8398C6.04012 15.1937 6.09871 14.5556 6.23176 13.9258C6.25586 13.9214 6.27539 13.9084 6.29035 13.8867C6.63726 14.0601 6.9693 14.0276 7.28644 13.7891C7.9484 13.2044 8.15023 12.4948 7.89191 11.6602C7.79312 11.5279 7.66941 11.4368 7.52082 11.3867C7.83605 11.0037 8.12254 10.6 8.38019 10.1758C8.7114 10.3021 8.99137 10.224 9.22004 9.94141C9.48832 9.57891 9.57949 9.17527 9.49348 8.73047C9.41121 8.53738 9.27449 8.40719 9.08332 8.33984C9.18359 7.88492 9.18359 7.42922 9.08332 6.97266C9.2268 6.91375 9.32445 6.80957 9.37629 6.66016C9.44098 6.23605 9.30426 5.89102 8.96613 5.625C8.80453 5.52504 8.63527 5.50551 8.45832 5.56641C8.33144 5.37828 8.19473 5.19602 8.04816 5.01953C7.48598 4.51836 7.01723 3.94547 6.64191 3.30078C6.34023 2.58992 6.26859 1.86075 6.42707 1.11328Z" fill="#FEF2DD"/>
</g>
<g id="Group_3">
<path id="Vector_3" fill-rule="evenodd" clip-rule="evenodd" d="M6.73828 2.12891C6.97672 2.29527 7.21109 2.47105 7.44141 2.65625C8.15934 3.06719 8.83641 3.53594 9.47266 4.0625C10.7923 5.21773 11.4433 6.67605 11.4258 8.4375C11.336 9.59191 11.2253 10.7443 11.0938 11.8945C11.0677 12.4414 11.0677 12.9883 11.0938 13.5352C11.1027 14.4825 11.3305 15.3679 11.7773 16.1914C11.7229 16.3482 11.6643 16.5045 11.6016 16.6602C11.5751 16.7421 11.5816 16.8202 11.6211 16.8945C11.2924 16.7887 11.006 16.6129 10.7617 16.3672C10.2409 16.0807 9.72004 16.0807 9.19922 16.3672C9.06082 16.4863 8.91762 16.597 8.76953 16.6992C8.50234 15.3086 8.63906 13.9544 9.17969 12.6367C9.48223 12.0446 9.79473 11.4586 10.1172 10.8789C10.229 10.6085 10.3332 10.3351 10.4297 10.0586C11.1227 7.86293 10.6344 5.98141 8.96484 4.41406C8.04328 3.82458 7.30109 3.06286 6.73828 2.12891Z" fill="#FD646F"/>
</g>
<g id="Group_4">
<path id="Vector_4" opacity="0.993" fill-rule="evenodd" clip-rule="evenodd" d="M16.2695 7.59766C15.6281 8.2586 15.3416 9.0529 15.4102 9.98048C15.4051 10.0475 15.3921 10.1126 15.3711 10.1758C15.0593 10.6248 14.6947 11.035 14.2773 11.4063C13.7501 11.8324 13.2032 12.2296 12.6367 12.5977C12.73 11.16 12.8602 9.72766 13.0273 8.30079C14.047 7.48501 14.5418 6.41731 14.5117 5.09766C14.505 4.39313 14.4008 3.70303 14.1992 3.02735C14.2442 2.80894 14.3744 2.73733 14.5898 2.81251C15.827 4.16239 16.3869 5.75743 16.2695 7.59766Z" fill="#C41926"/>
</g>
<g id="Group_5">
<path id="Vector_5" opacity="0.976" fill-rule="evenodd" clip-rule="evenodd" d="M9.08203 6.97263C8.56309 6.85021 8.28965 6.51818 8.26172 5.97654C8.26395 5.80576 8.32906 5.66904 8.45703 5.56638C8.63398 5.50548 8.80324 5.52501 8.96484 5.62498C9.30297 5.89099 9.43969 6.23603 9.375 6.66013C9.32316 6.80955 9.22551 6.91373 9.08203 6.97263Z" fill="#FDB97E"/>
</g>
<g id="Group_6">
<path id="Vector_6" fill-rule="evenodd" clip-rule="evenodd" d="M17.0099 9.12111C16.6351 9.26935 16.4528 9.54927 16.463 9.96095C16.4605 10.2662 16.5647 10.5266 16.7755 10.7422C16.8657 10.7809 16.9568 10.8135 17.049 10.8399C17.1423 11.1435 17.2464 11.443 17.3615 11.7383C17.0492 12.0593 16.9645 12.4369 17.1076 12.8711C17.2273 13.3364 17.5203 13.5968 17.9865 13.6524C18.0695 14.0379 18.1085 14.4285 18.1037 14.8242C17.8337 14.8062 17.6188 14.9104 17.4591 15.1367C17.2509 15.4685 17.1923 15.8201 17.2834 16.1914C17.0002 16.3596 16.7268 16.5484 16.463 16.7578C16.3143 16.8313 16.1581 16.8768 15.9943 16.8945C15.8893 16.901 15.7852 16.8944 15.6818 16.875C16.115 16.5059 16.4079 16.0436 16.5607 15.4883C16.6968 14.5961 16.6186 13.7237 16.3263 12.8711C16.0711 12.1966 15.8237 11.5195 15.5841 10.8399C15.5291 10.5473 15.4705 10.2608 15.4084 9.98048C15.3398 9.0529 15.6263 8.25861 16.2677 7.59767C17.0024 7.08423 17.7446 7.07771 18.4943 7.57814C18.9622 8.01771 19.0924 8.53853 18.8849 9.14064C18.7677 9.21876 18.6505 9.21876 18.5334 9.14064C18.2875 8.5499 17.8839 8.40665 17.3224 8.71095C17.1789 8.82142 17.0747 8.95814 17.0099 9.12111Z" fill="#FEE4C2"/>
</g>
<g id="Group_7">
<path id="Vector_7" opacity="0.984" fill-rule="evenodd" clip-rule="evenodd" d="M9.08033 8.33984C9.2715 8.40719 9.40822 8.53738 9.49048 8.73047C9.5765 9.17527 9.48533 9.57891 9.21704 9.94141C8.98837 10.224 8.70841 10.3021 8.3772 10.1758C8.28798 10.0362 8.20986 9.89297 8.14283 9.74609C8.11583 9.16707 8.33716 8.71785 8.80689 8.39844C8.89439 8.36027 8.98552 8.34074 9.08033 8.33984Z" fill="#FDB97E"/>
</g>
<g id="Group_8">
<path id="Vector_8" opacity="0.989" fill-rule="evenodd" clip-rule="evenodd" d="M3.30243 8.96482C3.24878 8.95869 3.19669 8.96521 3.14618 8.98435C2.57343 9.6724 2.20233 10.4602 2.0329 11.3476C1.76104 13.347 2.22328 15.1309 3.41962 16.6992C3.16917 16.469 2.88272 16.2932 2.56024 16.1719C2.32587 16.1458 2.09149 16.1458 1.85712 16.1719C1.68541 16.2449 1.51614 16.3165 1.3493 16.3867C0.696311 14.8225 0.598655 13.2209 1.05633 11.582C1.36508 10.4278 1.99659 9.49681 2.95087 8.78904C3.07148 8.75596 3.18215 8.77549 3.2829 8.84763C3.30176 8.88467 3.30827 8.92373 3.30243 8.96482Z" fill="#FA2C3A"/>
</g>
<g id="Group_9">
<path id="Vector_9" opacity="0.975" fill-rule="evenodd" clip-rule="evenodd" d="M17.0121 9.12109C17.1909 9.12375 17.3276 9.20188 17.4223 9.35547C17.6951 9.87516 17.6365 10.3504 17.2465 10.7812C17.1819 10.805 17.1168 10.8245 17.0512 10.8398C16.959 10.8134 16.8679 10.7809 16.7778 10.7422C16.5669 10.5266 16.4627 10.2662 16.4653 9.96094C16.455 9.54926 16.6373 9.26934 17.0121 9.12109Z" fill="#FDB97E"/>
</g>
<g id="Group_10">
<path id="Vector_10" opacity="0.995" fill-rule="evenodd" clip-rule="evenodd" d="M8.14453 9.74609C8.21156 9.89297 8.28969 10.0362 8.37891 10.1758C8.12125 10.6 7.83477 11.0037 7.51953 11.3867C7.29559 11.3631 7.08727 11.4087 6.89453 11.5234C6.04645 12.1627 5.82508 12.9635 6.23047 13.9258C6.09742 14.5556 6.03883 15.1937 6.05469 15.8398C5.94715 15.6638 5.82996 15.4945 5.70312 15.332C5.30398 14.9475 4.88078 14.596 4.43359 14.2773C4.36426 13.8699 4.15594 13.5574 3.80859 13.3398C4.33125 12.0035 5.22969 11.0074 6.50391 10.3516C7.04223 10.1145 7.5891 9.91262 8.14453 9.74609Z" fill="#C41A26"/>
</g>
<g id="Group_11">
<path id="Vector_11" fill-rule="evenodd" clip-rule="evenodd" d="M15.4102 9.98047C15.4723 10.2608 15.5309 10.5473 15.5859 10.8398C15.8255 11.5195 16.0729 12.1966 16.3281 12.8711C16.6204 13.7237 16.6986 14.5961 16.5625 15.4883C16.4097 16.0436 16.1168 16.5059 15.6836 16.875C15.787 16.8944 15.8911 16.9009 15.9961 16.8945C15.7566 16.9555 15.5222 16.9295 15.293 16.8164C15.7694 15.4474 15.9191 14.0411 15.7422 12.5977C15.6096 11.7991 15.4859 11.0048 15.3711 10.2148C15.3711 10.2018 15.3711 10.1888 15.3711 10.1758C15.3921 10.1126 15.4051 10.0475 15.4102 9.98047Z" fill="#FEF1DC"/>
</g>
<g id="Group_12">
<path id="Vector_12" opacity="0.996" fill-rule="evenodd" clip-rule="evenodd" d="M15.3714 10.2148C15.4862 11.0048 15.6099 11.7991 15.7425 12.5977C15.9194 14.0411 15.7697 15.4474 15.2933 16.8164C14.9923 16.6527 14.7059 16.4639 14.4339 16.25C14.0863 16.1374 13.7347 16.1243 13.3792 16.2109C13.0603 16.429 12.7348 16.6373 12.4027 16.8359C12.1452 16.8879 11.8847 16.9074 11.6214 16.8945C11.5819 16.8202 11.5754 16.7421 11.6019 16.6602C11.6646 16.5045 11.7232 16.3482 11.7777 16.1914C11.89 15.9804 12.0137 15.772 12.1488 15.5664C12.3711 15.2857 12.5989 15.0123 12.8323 14.7461C13.5776 14.1637 14.2221 13.4866 14.7659 12.7148C15.1885 11.9361 15.3903 11.1028 15.3714 10.2148Z" fill="#FA2C3A"/>
</g>
<g id="Group_13">
<path id="Vector_13" fill-rule="evenodd" clip-rule="evenodd" d="M7.52088 11.3867C7.66947 11.4368 7.79318 11.5279 7.89197 11.6602C8.15029 12.4948 7.94845 13.2044 7.2865 13.7891C6.96935 14.0276 6.63732 14.0601 6.29041 13.8867C6.27545 13.9084 6.25592 13.9215 6.23181 13.9258C5.82642 12.9635 6.04779 12.1627 6.89588 11.5234C7.08861 11.4087 7.29693 11.3631 7.52088 11.3867Z" fill="#FCB87E"/>
</g>
<g id="Group_14">
<path id="Vector_14" opacity="0.981" fill-rule="evenodd" clip-rule="evenodd" d="M17.9893 13.6524C17.5231 13.5968 17.2301 13.3364 17.1104 12.8711C16.9673 12.4369 17.052 12.0593 17.3643 11.7383C17.6985 11.687 17.9654 11.8041 18.1651 12.0899C18.4396 12.5277 18.4787 12.9834 18.2822 13.457C18.2097 13.5625 18.1121 13.6276 17.9893 13.6524Z" fill="#FDB97E"/>
</g>
<g id="Group_15">
<path id="Vector_15" opacity="0.995" fill-rule="evenodd" clip-rule="evenodd" d="M3.37837 13.3007C3.52424 13.2938 3.66747 13.3068 3.80806 13.3398C4.1554 13.5574 4.36372 13.8699 4.43306 14.2773C4.40388 14.5538 4.24763 14.697 3.96431 14.707C3.54215 14.604 3.2622 14.3436 3.12446 13.9257C3.04876 13.648 3.1334 13.4397 3.37837 13.3007Z" fill="#FCB87E"/>
</g>
<g id="Group_16">
<path id="Vector_16" opacity="0.983" fill-rule="evenodd" clip-rule="evenodd" d="M18.1041 14.8242C18.2093 14.8411 18.294 14.8932 18.358 14.9805C18.5706 15.4008 18.5901 15.8305 18.4166 16.2695C18.0474 16.147 17.6698 16.121 17.2837 16.1914C17.1927 15.82 17.2513 15.4685 17.4595 15.1367C17.6192 14.9103 17.8341 14.8062 18.1041 14.8242Z" fill="#FCB97E"/>
</g>
<g id="Group_17">
<path id="Vector_17" opacity="0.991" fill-rule="evenodd" clip-rule="evenodd" d="M3.41797 16.6992C3.52187 16.7772 3.63905 16.8358 3.76953 16.875C4.18535 16.9476 4.57598 16.8825 4.94141 16.6797C5.41727 16.1571 5.99016 16.0139 6.66016 16.25C6.89234 16.3911 7.11371 16.5473 7.32422 16.7188C7.65668 16.8848 8.00824 16.9369 8.37891 16.875C8.52457 16.842 8.6548 16.7834 8.76953 16.6992C8.91762 16.597 9.06082 16.4863 9.19922 16.3672C9.72004 16.0808 10.2409 16.0808 10.7617 16.3672C11.006 16.6129 11.2924 16.7887 11.6211 16.8945C11.8844 16.9074 12.1448 16.8879 12.4023 16.8359C12.7345 16.6374 13.06 16.429 13.3789 16.2109C13.7344 16.1243 14.0859 16.1374 14.4336 16.25C14.7055 16.4639 14.992 16.6527 15.293 16.8164C15.5222 16.9295 15.7566 16.9556 15.9961 16.8945C16.1599 16.8768 16.3161 16.8313 16.4648 16.7578C16.7286 16.5484 17.002 16.3596 17.2852 16.1914C17.6712 16.121 18.0488 16.147 18.418 16.2695C18.6583 16.4507 18.9057 16.6265 19.1602 16.7969C19.3359 16.8669 19.5182 16.8994 19.707 16.8945C19.707 17.2982 19.707 17.7018 19.707 18.1055C19.5726 18.1133 19.4424 18.0937 19.3164 18.0469C19.0169 17.8516 18.7175 17.6563 18.418 17.4609C17.8778 17.2511 17.357 17.2902 16.8555 17.5781C16.6258 17.7947 16.3654 17.964 16.0742 18.0859C15.7863 18.1371 15.5129 18.0981 15.2539 17.9688C14.9695 17.7029 14.6439 17.5076 14.2773 17.3828C13.9345 17.2957 13.596 17.3087 13.2617 17.4219C12.9296 17.6205 12.6041 17.8288 12.2852 18.0469C12.1322 18.0899 11.9759 18.116 11.8164 18.125C11.556 18.3073 11.556 18.4896 11.8164 18.6719C12.3853 18.6906 12.8671 18.4953 13.2617 18.0859C13.5684 17.9012 13.8939 17.8622 14.2383 17.9688C14.5533 18.1925 14.8789 18.4008 15.2148 18.5938C15.7321 18.7589 16.2269 18.7068 16.6992 18.4375C17.364 17.7484 18.0411 17.7354 18.7305 18.3984C19.0217 18.6091 19.3472 18.7067 19.707 18.6914C19.707 19.03 19.707 19.3685 19.707 19.707C13.2227 19.707 6.73828 19.707 0.253906 19.707C0.253906 19.3685 0.253906 19.03 0.253906 18.6914C0.52523 18.6822 0.785648 18.6236 1.03516 18.5156C1.28045 18.3615 1.51482 18.1922 1.73828 18.0078C2.05078 17.8776 2.36328 17.8776 2.67578 18.0078C2.87803 18.1415 3.07334 18.2847 3.26172 18.4375C3.56064 18.6301 3.88616 18.7082 4.23828 18.6719C4.46445 18.5339 4.49051 18.3647 4.31641 18.1641C4.13547 18.1222 3.95316 18.0831 3.76953 18.0469C3.53734 17.9058 3.31599 17.7496 3.10547 17.5781C2.27634 17.1457 1.53415 17.2629 0.878906 17.9297C0.689031 18.0559 0.480699 18.1145 0.253906 18.1055C0.253906 17.7018 0.253906 17.2982 0.253906 16.8945C0.699875 16.8928 1.06446 16.7236 1.34766 16.3867C1.51449 16.3165 1.68376 16.2449 1.85547 16.1719C2.08984 16.1458 2.32422 16.1458 2.55859 16.1719C2.88107 16.2933 3.16753 16.469 3.41797 16.6992Z" fill="#62DAFA"/>
</g>
<g id="Group_18">
<path id="Vector_18" opacity="0.995" fill-rule="evenodd" clip-rule="evenodd" d="M0.253906 18.6914C0.138539 18.7051 0.0473937 18.666 -0.0195312 18.5742C-0.0195312 18.457 -0.0195312 18.3398 -0.0195312 18.2226C0.0473937 18.1308 0.138539 18.0918 0.253906 18.1054C0.480699 18.1145 0.689031 18.0559 0.878906 17.9297C1.53415 17.2629 2.27634 17.1457 3.10547 17.5781C3.31599 17.7495 3.53734 17.9058 3.76953 18.0469C3.95316 18.0831 4.13547 18.1222 4.31641 18.164C4.49051 18.3646 4.46445 18.5339 4.23828 18.6719C3.88616 18.7082 3.56064 18.6301 3.26172 18.4375C3.07334 18.2847 2.87803 18.1415 2.67578 18.0078C2.36328 17.8776 2.05078 17.8776 1.73828 18.0078C1.51482 18.1922 1.28045 18.3615 1.03516 18.5156C0.785648 18.6236 0.52523 18.6822 0.253906 18.6914Z" fill="#0AA9F1"/>
</g>
<g id="Group_19">
<path id="Vector_19" opacity="0.998" fill-rule="evenodd" clip-rule="evenodd" d="M19.707 18.1055C19.8224 18.0918 19.9136 18.1309 19.9805 18.2227C19.9805 18.3399 19.9805 18.457 19.9805 18.5742C19.9136 18.666 19.8224 18.7051 19.707 18.6914C19.3472 18.7067 19.0217 18.6091 18.7305 18.3985C18.0411 17.7354 17.364 17.7484 16.6992 18.4375C16.2269 18.7069 15.7321 18.7589 15.2149 18.5938C14.8789 18.4008 14.5533 18.1925 14.2383 17.9688C13.894 17.8622 13.5684 17.9012 13.2617 18.086C12.8671 18.4953 12.3853 18.6906 11.8164 18.6719C11.556 18.4896 11.556 18.3073 11.8164 18.125C11.9759 18.116 12.1322 18.0899 12.2852 18.0469C12.6041 17.8288 12.9296 17.6205 13.2617 17.4219C13.596 17.3087 13.9345 17.2957 14.2774 17.3828C14.644 17.5076 14.9695 17.7029 15.2539 17.9688C15.5129 18.0981 15.7863 18.1371 16.0742 18.086C16.3654 17.964 16.6258 17.7947 16.8555 17.5781C17.357 17.2902 17.8778 17.2511 18.418 17.461C18.7175 17.6563 19.0169 17.8516 19.3164 18.0469C19.4424 18.0937 19.5726 18.1133 19.707 18.1055Z" fill="#0AA9F1"/>
</g>
</g>
<defs>
<clipPath id="clip0_923_7043">
<rect width="20" height="20" fill="white"/>
</clipPath>
</defs>
</svg>
