<svg viewBox="0 0 16 16" fill="none" xmlns="http://www.w3.org/2000/svg">
<g id="vuesax/bold/logout">
<g id="logout">
<path id="Vector" d="M4.8 14.6667L6.53333 14.6667C8.66667 14.6667 10 13.3333 10 11.2L10 8.49999L5.83333 8.49999C5.56 8.49999 5.33333 8.27332 5.33333 7.99999C5.33333 7.72666 5.56 7.49999 5.83333 7.49999L10 7.49999L10 4.79999C10 2.66666 8.66667 1.33332 6.53333 1.33332L4.80667 1.33332C2.67333 1.33332 1.34 2.66666 1.34 4.79999L1.34 11.2C1.33333 13.3333 2.66667 14.6667 4.8 14.6667Z" fill="currentColor"/>
<path id="Vector_2" d="M12.9591 8.49999L11.5791 9.87999C11.4791 9.97999 11.4324 10.1067 11.4324 10.2333C11.4324 10.36 11.4791 10.4933 11.5791 10.5867C11.7724 10.78 12.0924 10.78 12.2857 10.5867L14.5191 8.35333C14.7124 8.15999 14.7124 7.83999 14.5191 7.64666L12.2857 5.41333C12.0924 5.21999 11.7724 5.21999 11.5791 5.41333C11.3857 5.60666 11.3857 5.92666 11.5791 6.11999L12.9591 7.49999L9.99906 7.49999L9.99906 8.49999L12.9591 8.49999Z" fill="currentColor"/>
</g>
</g>
</svg>
