<svg width="20" height="20" viewBox="0 0 20 20" fill="none" xmlns="http://www.w3.org/2000/svg">
<g id="more-horizontal">
<g id="Vector">
<path d="M2.7085 10C2.7085 10.8054 3.36141 11.4583 4.16683 11.4583C4.97225 11.4583 5.62516 10.8054 5.62516 10C5.62516 9.19458 4.97225 8.54166 4.16683 8.54166C3.36141 8.54166 2.7085 9.19458 2.7085 10Z" fill="#777777"/>
<path d="M10.0002 11.4583C9.19475 11.4583 8.54183 10.8054 8.54183 10C8.54183 9.19458 9.19475 8.54166 10.0002 8.54166C10.8056 8.54166 11.4585 9.19458 11.4585 10C11.4585 10.8054 10.8056 11.4583 10.0002 11.4583Z" fill="#777777"/>
<path d="M15.8335 11.4583C15.0281 11.4583 14.3752 10.8054 14.3752 10C14.3752 9.19458 15.0281 8.54166 15.8335 8.54166C16.6389 8.54166 17.2918 9.19458 17.2918 10C17.2918 10.8054 16.6389 11.4583 15.8335 11.4583Z" fill="#777777"/>
</g>
</g>
</svg>
