<svg viewBox="0 0 73 62" fill="none" xmlns="http://www.w3.org/2000/svg">
<g id="Frame" clip-path="url(#clip0_168_4104)">
<g id="Group">
<g id="Group_2">
<g id="Group_3">
<path id="Vector" d="M51.7132 35.7145L45.1142 34.9741C45.1142 34.9741 47.9567 38.3988 50.1563 38.4901C48.7334 45.2618 42.4057 45.867 39.1983 45.7216C38.3479 45.6844 37.8725 44.7175 38.3546 44.0075L39.5231 42.2867H36.4998H33.4766L34.645 44.0075C35.1271 44.7175 34.6517 45.6844 33.8013 45.7216C30.5939 45.867 24.2662 45.2618 22.8433 38.4901C25.0429 38.3988 27.8854 34.9741 27.8854 34.9741L21.2864 35.7145C21.2864 35.7145 16.2845 41.5903 19.4417 48.6764L22.3846 46.9116L20.6068 50.7758C20.9416 51.2728 21.3166 51.7765 21.7418 52.2803C23.3254 54.1532 24.9525 55.6746 26.5227 56.9119L28.6186 52.9294L29.3652 58.9066C33.4029 61.4084 36.4998 62 36.4998 62C36.4998 62 39.6001 61.4084 43.6344 58.9066L44.381 52.9294L46.4769 56.9119C48.0471 55.6746 49.6709 54.1532 51.2578 52.2803C51.683 51.7765 52.0614 51.2762 52.3928 50.7758L50.615 46.9116L53.5579 48.6764C56.7151 41.5903 51.7132 35.7145 51.7132 35.7145Z" fill="#FFE619"/>
<g id="Group_4">
<path id="Vector_2" d="M34.136 26.6473C34.136 26.6473 32.6696 27.3268 31.019 27.3268C29.3685 27.3268 27.5271 24.9772 25.5183 26.1841C21.9426 28.3309 23.5931 34.6056 30.3762 33.2195C35.8033 32.1072 34.136 26.6473 34.136 26.6473Z" fill="#FFB42C"/>
<path id="Vector_3" d="M38.8635 26.6473C38.8635 26.6473 40.3299 27.3268 41.9805 27.3268C43.6311 27.3268 45.4725 24.9772 47.4813 26.1841C51.057 28.3309 49.4064 34.6056 42.6233 33.2195C37.1928 32.1072 38.8635 26.6473 38.8635 26.6473Z" fill="#FFB42C"/>
</g>
<path id="Vector_4" d="M39.1551 34.1999L38.0569 35.3122L36.5001 33.7367L34.9433 35.3122L33.8418 34.1999L36.5001 30.0348L39.1551 34.1999Z" fill="#FFB42C"/>
<path id="Vector_5" d="M66.0361 15.1492C65.256 26.7284 52.5637 27.2152 52.5637 27.2152C52.5637 27.2152 47.1332 18.5334 36.4999 18.4928C25.8633 18.5334 20.4328 27.2152 20.4328 27.2152C20.4328 27.2152 7.74054 26.7284 6.96045 15.1492C15.9231 18.5706 18.6517 4.81084 28.8129 0C30.1119 3.02579 33.1017 5.14216 36.5769 5.14216C40.0287 5.14216 42.9984 3.05622 44.3108 0.0608539C54.3683 4.92579 57.1103 18.5571 66.0361 15.1492Z" fill="#FFE619"/>
</g>
<path id="Vector_6" d="M50.4979 20.67H22.4985V22.8101H50.4979V20.67Z" fill="#FFE619"/>
<g id="Group_5">
<g id="Group_6">
<g id="Group_7">
<path id="Vector_7" d="M34.456 9.05331L33.5801 9.93781L38.9564 15.3667L39.8323 14.4822L34.456 9.05331Z" fill="#FFB42C"/>
<g id="Group_8">
<path id="Vector_8" d="M34.6951 10.0713C35.3848 10.0713 35.9439 9.50674 35.9439 8.8103C35.9439 8.11385 35.3848 7.54927 34.6951 7.54927C34.0054 7.54927 33.4463 8.11385 33.4463 8.8103C33.4463 9.50674 34.0054 10.0713 34.6951 10.0713Z" fill="#FFB42C"/>
<path id="Vector_9" d="M33.2791 11.5014C33.9688 11.5014 34.5279 10.9368 34.5279 10.2404C34.5279 9.54392 33.9688 8.97933 33.2791 8.97933C32.5894 8.97933 32.0303 9.54392 32.0303 10.2404C32.0303 10.9368 32.5894 11.5014 33.2791 11.5014Z" fill="#FFB42C"/>
</g>
<g id="Group_9">
<path id="Vector_10" d="M40.6012 14.774C41.0866 14.2838 41.0866 13.4859 40.6012 12.9923C40.1157 12.5021 39.3256 12.5021 38.8368 12.9923C38.3513 13.4825 38.3513 14.2804 38.8368 14.774C39.3256 15.2642 40.1123 15.2642 40.6012 14.774Z" fill="#FFB42C"/>
<path id="Vector_11" d="M39.1851 16.204C39.6706 15.7138 39.6706 14.916 39.1851 14.4224C38.6997 13.9322 37.9095 13.9322 37.4207 14.4224C36.9353 14.9126 36.9353 15.7105 37.4207 16.204C37.9095 16.6943 38.6963 16.6943 39.1851 16.204Z" fill="#FFB42C"/>
</g>
</g>
<g id="Group_10">
<path id="Vector_12" d="M38.5409 9.0557L33.1646 14.4846L34.0405 15.3691L39.4168 9.9402L38.5409 9.0557Z" fill="#FFB42C"/>
<g id="Group_11">
<path id="Vector_13" d="M38.3011 10.0713C38.9908 10.0713 39.5499 9.50674 39.5499 8.8103C39.5499 8.11385 38.9908 7.54927 38.3011 7.54927C37.6114 7.54927 37.0522 8.11385 37.0522 8.8103C37.0522 9.50674 37.6114 10.0713 38.3011 10.0713Z" fill="#FFB42C"/>
<path id="Vector_14" d="M39.7205 11.5014C40.4102 11.5014 40.9693 10.9368 40.9693 10.2404C40.9693 9.54392 40.4102 8.97933 39.7205 8.97933C39.0308 8.97933 38.4717 9.54392 38.4717 10.2404C38.4717 10.9368 39.0308 11.5014 39.7205 11.5014Z" fill="#FFB42C"/>
</g>
<g id="Group_12">
<path id="Vector_15" d="M32.3983 14.774C31.9128 14.2838 31.9128 13.4859 32.3983 12.9923C32.8837 12.5021 33.6739 12.5021 34.1627 12.9923C34.6481 13.4825 34.6481 14.2804 34.1627 14.774C33.6739 15.2642 32.8837 15.2642 32.3983 14.774Z" fill="#FFB42C"/>
<path id="Vector_16" d="M33.8148 16.204C33.3293 15.7138 33.3293 14.916 33.8148 14.4224C34.3002 13.9322 35.0904 13.9322 35.5792 14.4224C36.0646 14.9126 36.0646 15.7105 35.5792 16.204C35.0904 16.6943 34.3002 16.6943 33.8148 16.204Z" fill="#FFB42C"/>
</g>
</g>
</g>
</g>
</g>
<g id="Group_13">
<g id="Group_14">
<g id="Group_15">
<path id="Vector_17" d="M56.5479 54.2479C56.5479 54.2479 68.45 46.5769 69.8093 37.6787C75.3603 40.8702 74.9217 52.5034 58.2654 56.4961C58.0478 55.5292 56.5479 54.2479 56.5479 54.2479Z" fill="#FFB42C"/>
<path id="Vector_18" d="M59.2903 59.1635L59.4777 59.0486C59.9029 58.7883 60.0369 58.2304 59.7791 57.8011L56.4813 52.3208C56.2235 51.8915 55.6711 51.7563 55.2459 52.0166L55.0584 52.1315C54.6332 52.3918 54.4993 52.9497 54.757 53.379L58.0548 58.8593C58.3126 59.2886 58.8651 59.4238 59.2903 59.1635Z" fill="#FFB42C"/>
<path id="Vector_19" d="M54.0772 59.1128L57.7701 56.8477L56.3941 54.5589L52.7012 56.824C52.1689 57.1486 52.0015 57.8484 52.3229 58.386L52.5304 58.7308C52.8552 59.2683 53.5482 59.4408 54.0772 59.1128Z" fill="#FFB42C"/>
</g>
</g>
<g id="Group_16">
<g id="Group_17">
<path id="Vector_20" d="M16.4487 54.2479C16.4487 54.2479 4.54656 46.5769 3.18727 37.6787C-2.36373 40.8702 -1.92514 52.5034 14.7312 56.4961C14.9522 55.5292 16.4487 54.2479 16.4487 54.2479Z" fill="#FFB42C"/>
<path id="Vector_21" d="M13.7102 59.1635L13.5227 59.0486C13.0975 58.7883 12.9636 58.2304 13.2214 57.8011L16.5192 52.3208C16.777 51.8915 17.3294 51.7563 17.7546 52.0166L17.9421 52.1315C18.3673 52.3918 18.5012 52.9497 18.2434 53.379L14.9456 58.8593C14.6878 59.2886 14.1354 59.4238 13.7102 59.1635Z" fill="#FFB42C"/>
<path id="Vector_22" d="M18.9194 59.1128L15.2266 56.8477L16.6026 54.5589L20.2954 56.824C20.8278 57.1486 20.9952 57.8484 20.6738 58.386L20.4662 58.7308C20.1448 59.2683 19.4518 59.4408 18.9194 59.1128Z" fill="#FFB42C"/>
</g>
</g>
</g>
</g>
</g>
<defs>
<clipPath id="clip0_168_4104">
<rect width="73" height="62" fill="white"/>
</clipPath>
</defs>
</svg>
