<svg width="20" height="20" viewBox="0 0 20 20" fill="none" xmlns="http://www.w3.org/2000/svg">
<g id="pistol 1" clip-path="url(#clip0_757_13855)">
<g id="Group">
<path id="Vector" opacity="0.988" fill-rule="evenodd" clip-rule="evenodd" d="M14.3555 4.70705C14.2364 4.54986 14.0802 4.49126 13.8867 4.53126C12.78 5.08466 11.6732 5.63802 10.5664 6.19142C10.5352 6.20927 10.5222 6.23533 10.5273 6.26955C10.4811 6.23033 10.4291 6.19775 10.3711 6.17189C9.52527 6.1081 8.67891 6.06904 7.83203 6.0547C7.15891 6.39779 6.4818 6.72982 5.80078 7.0508C6.22391 6.41337 6.60801 5.74931 6.95312 5.05861C7.19258 4.79189 7.45953 4.75935 7.75391 4.96095C7.9216 5.25076 8.08437 5.54373 8.24219 5.83986C11.1648 4.3688 14.0879 2.90396 17.0117 1.44533C17.22 1.3021 17.4284 1.15887 17.6367 1.01564C17.8732 0.779151 18.1076 0.544776 18.3398 0.312514C18.4623 0.28165 18.5795 0.294671 18.6914 0.351577C19.2275 0.935401 19.5465 1.61899 19.6484 2.40236C19.6159 2.53908 19.5312 2.62371 19.3945 2.65626C18.7934 2.66333 18.2205 2.79353 17.6758 3.04689C16.5564 3.5823 15.4496 4.13568 14.3555 4.70705Z" fill="#F1B520"/>
</g>
<g id="Group_2">
<path id="Vector_2" opacity="0.993" fill-rule="evenodd" clip-rule="evenodd" d="M14.3541 4.70703C14.4467 4.88581 14.5118 5.0746 14.5494 5.27343C14.5414 5.45554 14.4828 5.61831 14.3736 5.76171C13.9336 6.01105 13.4844 6.24542 13.026 6.46484C12.901 6.79378 12.7643 7.11933 12.6158 7.4414C12.44 7.72136 12.2122 7.94921 11.9322 8.12499C11.1028 8.54621 10.2695 8.95636 9.43222 9.35546C8.74957 9.66421 8.0855 10.0028 7.44003 10.3711C6.55218 10.7233 5.77093 11.2311 5.09628 11.8945C4.76121 12.188 4.51382 12.5396 4.3541 12.9492C3.97101 13.5684 3.74315 14.2454 3.6705 14.9805C3.58598 15.8538 3.69666 16.7002 4.00253 17.5195C3.75971 17.1067 3.47325 16.7226 3.14316 16.3672C2.52642 15.7877 1.94699 15.8202 1.40488 16.4648C1.05599 16.9159 0.73698 17.3846 0.447847 17.8711C0.150252 15.92 0.260929 13.9929 0.779878 12.0898C1.49285 9.96441 2.86655 8.44097 4.90097 7.51953C4.44492 8.21683 3.9957 8.91996 3.55332 9.6289C3.52944 10.1869 3.79637 10.4408 4.3541 10.3906C6.43863 9.34835 8.52199 8.30667 10.6041 7.26562C10.8035 7.02726 10.8491 6.76031 10.7408 6.46484C10.6857 6.37945 10.6141 6.31437 10.526 6.26953C10.5209 6.23531 10.5339 6.20925 10.565 6.1914C11.6718 5.638 12.7786 5.08464 13.8853 4.53124C14.0788 4.49124 14.235 4.54984 14.3541 4.70703Z" fill="#6D4B40"/>
</g>
<g id="Group_3">
<path id="Vector_3" opacity="0.999" fill-rule="evenodd" clip-rule="evenodd" d="M10.5288 6.26953C10.6169 6.31438 10.6885 6.37945 10.7437 6.46484C10.8519 6.76031 10.8063 7.02727 10.6069 7.26562C8.52483 8.30668 6.44147 9.34836 4.35694 10.3906C3.79921 10.4408 3.53229 10.1869 3.55616 9.62891C3.99854 8.91996 4.44776 8.21684 4.90381 7.51953C5.19581 7.35395 5.49526 7.1977 5.80225 7.05078C6.48327 6.7298 7.16038 6.39777 7.8335 6.05469C8.68038 6.06902 9.52674 6.10809 10.3726 6.17188C10.4305 6.19773 10.4826 6.23031 10.5288 6.26953Z" fill="#F8CA38"/>
</g>
<g id="Group_4">
<path id="Vector_4" opacity="0.988" fill-rule="evenodd" clip-rule="evenodd" d="M9.43359 9.35547C9.23449 9.53508 9.07172 9.74344 8.94531 9.98047C8.71996 10.5823 8.52465 11.1943 8.35938 11.8164C8.08387 12.795 7.46539 13.4395 6.50391 13.75C5.62215 13.9184 4.90602 13.6515 4.35547 12.9492C4.5152 12.5396 4.76258 12.188 5.09766 11.8945C5.83781 12.6377 6.48234 12.5595 7.03125 11.6602C7.2343 11.2516 7.37102 10.8219 7.44141 10.3711C8.08687 10.0028 8.75094 9.66422 9.43359 9.35547Z" fill="#F1B520"/>
</g>
<g id="Group_5">
<path id="Vector_5" opacity="0.994" fill-rule="evenodd" clip-rule="evenodd" d="M4.00391 17.5195C4.1527 18.3489 3.86624 18.9934 3.14453 19.4531C2.15999 19.8597 1.35921 19.6319 0.742188 18.7695C0.577809 18.4912 0.480152 18.1918 0.449219 17.8711C0.738352 17.3846 1.05736 16.9159 1.40625 16.4648C1.94836 15.8202 2.52779 15.7877 3.14453 16.3672C3.47462 16.7226 3.76108 17.1067 4.00391 17.5195Z" fill="#F1B520"/>
</g>
</g>
<defs>
<clipPath id="clip0_757_13855">
<rect width="20" height="20" fill="white"/>
</clipPath>
</defs>
</svg>
