<svg width="20" height="20" viewBox="0 0 20 20" fill="none" xmlns="http://www.w3.org/2000/svg">
<g id="saber 1" clip-path="url(#clip0_757_13807)">
<g id="Group">
<path id="Vector" opacity="0.99" fill-rule="evenodd" clip-rule="evenodd" d="M0.371094 -0.0195312C0.514324 -0.0195312 0.657551 -0.0195312 0.800781 -0.0195312C1.45038 0.52582 2.0884 1.08571 2.71484 1.66016C3.26032 5.49387 5.13531 8.48215 8.33984 10.625C10.0534 11.5794 11.7721 12.5234 13.4961 13.457C13.4961 13.4831 13.4961 13.5091 13.4961 13.5352C13.0105 13.9685 12.5678 14.4373 12.168 14.9414C11.448 14.5339 10.7188 14.1433 9.98047 13.7695C9.96277 13.7321 9.93676 13.6995 9.90234 13.6719C9.24398 13.3232 8.59293 12.9652 7.94922 12.5977C7.29652 12.2583 6.64547 11.9198 5.99609 11.582C3.23844 9.88641 1.43505 7.46453 0.585938 4.31641C0.299967 3.20611 0.0981437 2.08632 -0.0195312 0.957031C-0.0195312 0.748699 -0.0195312 0.540363 -0.0195312 0.332031C0.0779773 0.179014 0.208186 0.0618262 0.371094 -0.0195312Z" fill="#E5EDFE"/>
</g>
<g id="Group_2">
<path id="Vector_2" opacity="0.987" fill-rule="evenodd" clip-rule="evenodd" d="M19.1602 -0.0195312C19.3034 -0.0195312 19.4466 -0.0195312 19.5898 -0.0195312C19.7527 0.0618262 19.883 0.179014 19.9805 0.332031C19.9805 0.527344 19.9805 0.722656 19.9805 0.917969C19.8134 3.17456 19.2079 5.30996 18.1641 7.32422C17.1439 9.11266 15.7441 10.5254 13.9648 11.5625C13.9993 11.5902 14.0253 11.6227 14.043 11.6602C13.4466 11.1811 12.8737 10.6733 12.3242 10.1367C15.1651 7.9852 16.8318 5.13363 17.3242 1.58203C17.9246 1.03361 18.5366 0.499758 19.1602 -0.0195312Z" fill="#D9E1F1"/>
</g>
<g id="Group_3">
<path id="Vector_3" fill-rule="evenodd" clip-rule="evenodd" d="M17.3238 1.58203C16.8313 5.13363 15.1646 7.9852 12.3238 10.1367C11.5751 9.47277 10.8199 8.8152 10.0581 8.16406C10.0119 8.11934 10.0119 8.07375 10.0581 8.02734C12.4558 5.85102 14.8777 3.70257 17.3238 1.58203Z" fill="#B8BFCC"/>
</g>
<g id="Group_4">
<path id="Vector_4" fill-rule="evenodd" clip-rule="evenodd" d="M2.71484 1.66016C5.14684 3.77292 7.56219 5.90832 9.96094 8.06641C9.98715 8.03703 10.0197 8.02398 10.0586 8.02734C10.0123 8.07375 10.0123 8.11934 10.0586 8.16406C10.8204 8.8152 11.5755 9.47277 12.3242 10.1367C12.8737 10.6733 13.4466 11.1811 14.043 11.6602C14.2769 11.8421 14.4983 12.0374 14.707 12.2461C14.3164 12.6628 13.9128 13.0664 13.4961 13.457C11.7721 12.5234 10.0534 11.5794 8.33984 10.625C5.13531 8.48215 3.26032 5.49387 2.71484 1.66016Z" fill="#C4CAD9"/>
</g>
<g id="Group_5">
<path id="Vector_5" fill-rule="evenodd" clip-rule="evenodd" d="M5.99609 11.582C6.64547 11.9198 7.29652 12.2583 7.94922 12.5977C7.53051 12.8791 7.08781 13.133 6.62109 13.3594C6.55887 13.3964 6.5068 13.442 6.46484 13.4961C6.03305 13.1034 5.62941 12.6868 5.25391 12.2461C5.49234 12.016 5.73973 11.7946 5.99609 11.582Z" fill="#B9BFCB"/>
</g>
<g id="Group_6">
<path id="Vector_6" opacity="0.98" fill-rule="evenodd" clip-rule="evenodd" d="M5.25491 12.2461C5.63042 12.6868 6.03405 13.1034 6.46585 13.4961C6.20542 13.7825 5.93198 14.056 5.64553 14.3164C5.23674 13.9272 4.83311 13.53 4.4346 13.125C4.41139 13.1069 4.38534 13.1004 4.35647 13.1055C4.21467 12.9441 4.06495 12.7879 3.90725 12.6367C3.6815 12.2181 3.77915 11.899 4.20022 11.6797C4.39319 11.639 4.57545 11.6651 4.7471 11.7578C4.91124 11.9285 5.08053 12.0913 5.25491 12.2461Z" fill="#FEDD33"/>
</g>
<g id="Group_7">
<path id="Vector_7" fill-rule="evenodd" clip-rule="evenodd" d="M15.6055 13.1055C15.1648 13.481 14.7482 13.8846 14.3555 14.3164C14.3425 14.3164 14.3294 14.3164 14.3164 14.3164C14.044 14.0571 13.7705 13.7966 13.4961 13.5351C13.4961 13.5091 13.4961 13.4831 13.4961 13.457C13.9128 13.0664 14.3164 12.6628 14.707 12.2461C14.8814 12.0913 15.0507 11.9285 15.2148 11.7578C15.7399 11.5451 16.0654 11.7143 16.1914 12.2656C16.1667 12.3971 16.1211 12.5208 16.0547 12.6367C15.897 12.7878 15.7473 12.9441 15.6055 13.1055Z" fill="#FEBC34"/>
</g>
<g id="Group_8">
<path id="Vector_8" opacity="0.985" fill-rule="evenodd" clip-rule="evenodd" d="M7.94922 12.5977C8.59293 12.9652 9.24398 13.3232 9.90234 13.6719C9.93676 13.6995 9.96277 13.7321 9.98047 13.7695C9.24215 14.1433 8.51297 14.5339 7.79297 14.9414C7.40781 14.4128 6.96512 13.931 6.46484 13.4961C6.5068 13.442 6.55887 13.3964 6.62109 13.3594C7.08781 13.133 7.53051 12.8791 7.94922 12.5977Z" fill="#DAE1F1"/>
</g>
<g id="Group_9">
<path id="Vector_9" opacity="0.987" fill-rule="evenodd" clip-rule="evenodd" d="M4.35547 13.1055C4.38434 13.1004 4.41039 13.1069 4.43359 13.125C4.83211 13.53 5.23574 13.9272 5.64453 14.3164C5.64453 14.3294 5.64453 14.3425 5.64453 14.3555C5.34723 14.5876 5.07379 14.848 4.82422 15.1367C4.81121 15.1367 4.79816 15.1367 4.78516 15.1367C4.39246 14.7049 3.97582 14.3013 3.53516 13.9258C3.79557 13.6393 4.06902 13.3659 4.35547 13.1055Z" fill="#A66442"/>
</g>
<g id="Group_10">
<path id="Vector_10" fill-rule="evenodd" clip-rule="evenodd" d="M15.6055 13.1055C15.8919 13.3659 16.1654 13.6393 16.4258 13.9258C16.3969 13.9207 16.3709 13.9272 16.3477 13.9453C15.9491 14.3504 15.5455 14.7475 15.1367 15.1367C14.848 14.8871 14.5876 14.6137 14.3555 14.3164C14.7482 13.8846 15.1648 13.481 15.6055 13.1055Z" fill="#995B3D"/>
</g>
<g id="Group_11">
<path id="Vector_11" fill-rule="evenodd" clip-rule="evenodd" d="M6.46653 13.4961C6.96681 13.931 7.4095 14.4128 7.79466 14.9414C8.45052 16.32 8.2422 17.5505 7.16966 18.6328C6.64306 19.0653 6.04411 19.3518 5.37278 19.4922C4.6804 19.5634 4.04239 19.4137 3.45872 19.043C3.4536 19.0141 3.46011 18.988 3.47825 18.9648C3.75516 18.6682 4.04813 18.3948 4.35716 18.1445C5.27036 18.3631 6.03208 18.1157 6.64231 17.4023C6.99477 16.8436 7.04036 16.2707 6.77903 15.6836C6.71829 15.471 6.60763 15.2887 6.447 15.1367C6.1852 14.8684 5.91829 14.608 5.64622 14.3555C5.64622 14.3425 5.64622 14.3294 5.64622 14.3164C5.93267 14.056 6.2061 13.7825 6.46653 13.4961Z" fill="#FEBC33"/>
</g>
<g id="Group_12">
<path id="Vector_12" opacity="0.971" fill-rule="evenodd" clip-rule="evenodd" d="M13.4977 13.5352C13.7722 13.7966 14.0456 14.0571 14.318 14.3164C13.9667 14.6743 13.6216 15.0389 13.2829 15.4102C13.2278 15.4941 13.1952 15.5853 13.1852 15.6836C12.8305 16.6441 13.091 17.4059 13.9665 17.9688C14.4908 18.2625 15.0377 18.3211 15.6071 18.1445C15.636 18.1394 15.662 18.1459 15.6852 18.1641C15.9819 18.441 16.2553 18.7339 16.5055 19.043C15.4504 19.6743 14.3957 19.6678 13.3415 19.0234C11.9711 18.1286 11.5219 16.8981 11.9938 15.332C12.0422 15.1962 12.1008 15.066 12.1696 14.9414C12.5694 14.4373 13.0121 13.9685 13.4977 13.5352Z" fill="#FEDD33"/>
</g>
<g id="Group_13">
<path id="Vector_13" fill-rule="evenodd" clip-rule="evenodd" d="M16.4258 13.9258C17.3112 14.7852 18.1836 15.6575 19.043 16.543C18.6675 16.9836 18.2638 17.4003 17.832 17.793C17.819 17.793 17.806 17.793 17.793 17.793C16.9075 16.9206 16.0221 16.0482 15.1367 15.1758C15.1367 15.1628 15.1367 15.1497 15.1367 15.1367C15.5455 14.7475 15.9491 14.3504 16.3477 13.9453C16.3709 13.9272 16.3969 13.9207 16.4258 13.9258Z" fill="#F18518"/>
</g>
<g id="Group_14">
<path id="Vector_14" fill-rule="evenodd" clip-rule="evenodd" d="M3.53516 13.9258C3.97582 14.3013 4.39246 14.7049 4.78516 15.1367C3.94078 16.0462 3.06839 16.9316 2.16797 17.793C1.73828 17.3893 1.32161 16.9727 0.917969 16.543C1.77734 15.6575 2.64974 14.7852 3.53516 13.9258Z" fill="#FE9E19"/>
</g>
<g id="Group_15">
<path id="Vector_15" fill-rule="evenodd" clip-rule="evenodd" d="M5.64453 14.3555C5.9166 14.608 6.18352 14.8684 6.44531 15.1367C6.60594 15.2887 6.7166 15.471 6.77734 15.6836C6.54297 15.944 6.29559 16.1914 6.03516 16.4258C6.04027 16.3969 6.03375 16.3709 6.01562 16.3477C5.61059 15.9491 5.21348 15.5455 4.82422 15.1367C5.07379 14.848 5.34723 14.5876 5.64453 14.3555Z" fill="#995C3D"/>
</g>
<g id="Group_16">
<path id="Vector_16" opacity="0.988" fill-rule="evenodd" clip-rule="evenodd" d="M14.3164 14.3164C14.3294 14.3164 14.3425 14.3164 14.3555 14.3164C14.5876 14.6137 14.848 14.8871 15.1367 15.1367C15.1367 15.1497 15.1367 15.1628 15.1367 15.1758C14.72 15.5794 14.3034 15.9831 13.8867 16.3867C13.6393 16.1654 13.405 15.931 13.1836 15.6836C13.1936 15.5853 13.2261 15.4941 13.2812 15.4102C13.62 15.0389 13.965 14.6743 14.3164 14.3164Z" fill="#A66342"/>
</g>
<g id="Group_17">
<path id="Vector_17" fill-rule="evenodd" clip-rule="evenodd" d="M4.78516 15.1367C4.79816 15.1367 4.81121 15.1367 4.82422 15.1367C5.21348 15.5455 5.61059 15.9491 6.01562 16.3477C6.03375 16.3709 6.04027 16.3969 6.03516 16.4258C5.47527 16.9987 4.91535 17.5716 4.35547 18.1445C4.04645 18.3948 3.75347 18.6682 3.47656 18.9648C3.45843 18.988 3.45191 19.0141 3.45703 19.043C3.44401 19.043 3.43099 19.043 3.41797 19.043C2.97732 18.6675 2.56065 18.2638 2.16797 17.832C2.16797 17.819 2.16797 17.806 2.16797 17.793C3.06839 16.9316 3.94078 16.0462 4.78516 15.1367Z" fill="#F18518"/>
</g>
<g id="Group_18">
<path id="Vector_18" fill-rule="evenodd" clip-rule="evenodd" d="M15.1367 15.1758C16.0221 16.0482 16.9075 16.9206 17.793 17.793C17.3893 18.2227 16.9727 18.6393 16.543 19.043C16.53 19.043 16.5169 19.043 16.5039 19.043C16.2537 18.7339 15.9802 18.441 15.6836 18.1641C15.6604 18.1459 15.6343 18.1394 15.6055 18.1445C15.0325 17.5586 14.4596 16.9727 13.8867 16.3867C14.3034 15.9831 14.72 15.5794 15.1367 15.1758Z" fill="#FE9E19"/>
</g>
<g id="Group_19">
<path id="Vector_19" opacity="0.978" fill-rule="evenodd" clip-rule="evenodd" d="M0.917969 16.543C1.32161 16.9727 1.73828 17.3893 2.16797 17.793C2.16797 17.806 2.16797 17.819 2.16797 17.832C1.58404 18.3508 1.02414 18.8977 0.488281 19.4727C0.252993 19.2245 0.0837227 18.9381 -0.0195312 18.6133C-0.0195312 18.3529 -0.0195312 18.0925 -0.0195312 17.832C0.167398 17.3165 0.479898 16.8868 0.917969 16.543Z" fill="#A66341"/>
</g>
<g id="Group_20">
<path id="Vector_20" opacity="0.999" fill-rule="evenodd" clip-rule="evenodd" d="M19.043 16.543C19.4811 16.8868 19.7936 17.3165 19.9805 17.832C19.9805 18.0925 19.9805 18.3529 19.9805 18.6133C19.8772 18.9381 19.7079 19.2245 19.4727 19.4727C18.8977 18.9368 18.3508 18.3769 17.832 17.793C18.2638 17.4003 18.6675 16.9836 19.043 16.543Z" fill="#995B3D"/>
</g>
<g id="Group_21">
<path id="Vector_21" opacity="0.999" fill-rule="evenodd" clip-rule="evenodd" d="M2.16797 17.832C2.56065 18.2638 2.97732 18.6675 3.41797 19.043C3.07412 19.4811 2.64443 19.7936 2.12891 19.9805C1.86849 19.9805 1.60807 19.9805 1.34766 19.9805C1.02285 19.8772 0.736395 19.7079 0.488281 19.4727C1.02414 18.8977 1.58404 18.3508 2.16797 17.832Z" fill="#995B3D"/>
</g>
<g id="Group_22">
<path id="Vector_22" opacity="0.978" fill-rule="evenodd" clip-rule="evenodd" d="M17.793 17.793C17.806 17.793 17.819 17.793 17.832 17.793C18.3508 18.3769 18.8977 18.9368 19.4727 19.4727C19.2245 19.7079 18.9381 19.8772 18.6133 19.9805C18.3529 19.9805 18.0925 19.9805 17.832 19.9805C17.3165 19.7936 16.8868 19.4811 16.543 19.043C16.9727 18.6393 17.3893 18.2227 17.793 17.793Z" fill="#A66341"/>
</g>
</g>
<defs>
<clipPath id="clip0_757_13807">
<rect width="20" height="20" fill="white"/>
</clipPath>
</defs>
</svg>
