<svg width="20" height="20" viewBox="0 0 20 20" fill="none" xmlns="http://www.w3.org/2000/svg">
<g id="skull 1" clip-path="url(#clip0_923_6998)">
<g id="Group">
<path id="Vector" fill-rule="evenodd" clip-rule="evenodd" d="M9.35547 -0.0195312C9.77215 -0.0195312 10.1888 -0.0195312 10.6055 -0.0195312C11.7911 0.156297 12.8197 0.657598 13.6914 1.48438C14.3957 2.17559 15.0858 2.87871 15.7617 3.59375C15.9391 3.75178 16.1214 3.90152 16.3086 4.04297C17.1854 4.8191 18.214 5.17719 19.3945 5.11719C19.5605 5.08605 19.7038 5.01445 19.8242 4.90234C19.541 5.43008 19.2285 5.93789 18.8867 6.42578C17.9179 6.36977 17.0195 6.0898 16.1914 5.58594C15.8158 5.32754 15.4512 5.0541 15.0977 4.76562C14.3955 4.07652 13.7054 3.37338 13.0273 2.65625C12.4344 2.05112 11.7313 1.62143 10.918 1.36719C9.8418 1.11902 8.83922 1.28829 7.91016 1.875C7.57336 2.12057 7.24785 2.38099 6.93359 2.65625C6.25551 3.37338 5.56539 4.07652 4.86328 4.76562C4.68086 4.93465 4.48555 5.08437 4.27734 5.21484C4.06199 4.83621 3.86666 4.44559 3.69141 4.04297C4.58031 3.22464 5.43969 2.37177 6.26953 1.48438C7.14121 0.657598 8.16988 0.156297 9.35547 -0.0195312Z" fill="#949BB4"/>
</g>
<g id="Group_2">
<path id="Vector_2" opacity="0.999" fill-rule="evenodd" clip-rule="evenodd" d="M18.8867 6.42577C18.3953 7.24988 17.894 8.07019 17.3828 8.88671C17.0492 9.23886 16.639 9.39511 16.1523 9.35546C16.1393 9.35546 16.1263 9.35546 16.1133 9.35546C15.9518 9.31699 15.7825 9.30398 15.6055 9.3164C15.8114 9.11808 15.8114 8.91628 15.6055 8.71093C13.0794 8.69792 10.5534 8.68488 8.02734 8.67187C6.73797 8.55144 5.76793 7.93292 5.11719 6.8164C4.84605 6.28695 4.56609 5.76609 4.27734 5.2539C4.27734 5.24089 4.27734 5.22784 4.27734 5.21484C4.48555 5.08437 4.68086 4.93464 4.86328 4.76562C5.56539 4.07652 6.25551 3.37338 6.93359 2.65624C7.24785 2.38099 7.57336 2.12057 7.91016 1.87499C8.83922 1.28829 9.8418 1.11902 10.918 1.36718C11.7313 1.62142 12.4344 2.05111 13.0273 2.65624C13.7054 3.37338 14.3955 4.07652 15.0977 4.76562C15.4512 5.05409 15.8158 5.32753 16.1914 5.58593C17.0195 6.0898 17.9179 6.36976 18.8867 6.42577Z" fill="#5B5D6E"/>
</g>
<g id="Group_3">
<path id="Vector_3" opacity="0.972" fill-rule="evenodd" clip-rule="evenodd" d="M3.65234 4.04295C2.79225 4.78334 1.78965 5.14139 0.644531 5.11717C0.400719 5.08655 0.205405 4.97588 0.0585938 4.78514C0.0325521 4.75909 0.00651043 4.73307 -0.0195312 4.70702C-0.0195312 4.58983 -0.0195312 4.47264 -0.0195312 4.35545C0.202559 4.08955 0.489016 3.92678 0.839844 3.86717C1.79407 3.72024 2.73157 3.77884 3.65234 4.04295Z" fill="#464655"/>
</g>
<g id="Group_4">
<path id="Vector_4" opacity="0.972" fill-rule="evenodd" clip-rule="evenodd" d="M19.9805 4.35545C19.9805 4.47264 19.9805 4.58983 19.9805 4.70702C19.9378 4.77924 19.8857 4.84436 19.8242 4.90233C19.7038 5.01444 19.5605 5.08604 19.3945 5.11717C18.214 5.17717 17.1854 4.81909 16.3086 4.04295C17.2294 3.77884 18.1669 3.72024 19.1211 3.86717C19.4719 3.92678 19.7584 4.08955 19.9805 4.35545Z" fill="#464655"/>
</g>
<g id="Group_5">
<path id="Vector_5" fill-rule="evenodd" clip-rule="evenodd" d="M3.65234 4.04297C3.66536 4.04297 3.67839 4.04297 3.69141 4.04297C3.86666 4.44559 4.06199 4.83621 4.27734 5.21484C4.27734 5.22785 4.27734 5.2409 4.27734 5.25391C3.3295 5.96059 2.26179 6.35121 1.07422 6.42578C0.716223 5.8923 0.377681 5.34543 0.0585938 4.78516C0.205405 4.9759 0.400719 5.08656 0.644531 5.11719C1.78965 5.14141 2.79225 4.78336 3.65234 4.04297Z" fill="#7E8398"/>
</g>
<g id="Group_6">
<path id="Vector_6" fill-rule="evenodd" clip-rule="evenodd" d="M4.27734 5.25391C4.56609 5.76609 4.84605 6.28695 5.11719 6.81641C5.76793 7.93293 6.73797 8.55145 8.02734 8.67188C10.5534 8.68488 13.0794 8.69793 15.6055 8.71094C15.8114 8.91629 15.8114 9.11809 15.6055 9.31641C13.457 9.31641 11.3086 9.31641 9.16016 9.31641C7.3827 9.30344 5.61188 9.31645 3.84766 9.35547C3.83464 9.35547 3.82161 9.35547 3.80859 9.35547C3.32191 9.39512 2.91175 9.23887 2.57812 8.88672C2.06696 8.0702 1.56566 7.24988 1.07422 6.42578C2.26179 6.35121 3.3295 5.96059 4.27734 5.25391Z" fill="#464655"/>
</g>
<g id="Group_7">
<path id="Vector_7" fill-rule="evenodd" clip-rule="evenodd" d="M9.16187 9.31638C11.3103 9.31638 13.4587 9.31638 15.6072 9.31638C15.7842 9.30396 15.9535 9.31696 16.115 9.35544C13.8037 9.34247 11.499 9.35548 9.20093 9.3945C9.1682 9.38114 9.15515 9.35513 9.16187 9.31638Z" fill="#807978"/>
</g>
<g id="Group_8">
<path id="Vector_8" fill-rule="evenodd" clip-rule="evenodd" d="M3.81022 9.35547C3.82324 9.35547 3.83626 9.35547 3.84928 9.35547C5.32069 9.34895 6.79205 9.35547 8.26334 9.37501C8.46658 9.57169 8.6619 9.77352 8.84928 9.98047C8.10698 9.97395 7.36479 9.98047 6.62272 10C6.41041 10.0691 6.26069 10.2058 6.1735 10.4102C6.13162 10.6305 6.11862 10.8518 6.13444 11.0742C6.18002 11.1458 6.23862 11.2044 6.31022 11.25C7.69838 11.1981 8.66842 11.8035 9.22037 13.0664C9.53526 14.4803 9.05998 15.5285 7.79459 16.2109C7.63119 16.2811 7.46194 16.3332 7.28678 16.3672C6.93283 16.4008 6.58127 16.4398 6.23209 16.4844C6.19955 16.5169 6.16698 16.5495 6.13444 16.582C6.1149 16.8552 6.10842 17.1286 6.1149 17.4023C6.58385 17.3958 7.0526 17.4023 7.52115 17.4219C7.76252 17.6013 7.77553 17.7966 7.56022 18.0078C7.37651 18.0124 7.22678 18.084 7.111 18.2227C7.08494 18.6523 7.08494 19.082 7.111 19.5117C7.30631 19.3034 7.50162 19.3034 7.69694 19.5117C7.71643 19.6674 7.72295 19.8237 7.71647 19.9805C7.32584 19.9805 6.93522 19.9805 6.54459 19.9805C6.28334 19.8763 6.13358 19.6809 6.09537 19.3945C6.07584 18.7306 6.06932 18.0665 6.07584 17.4023C5.45073 17.4089 4.82573 17.4023 4.20084 17.3828C3.71535 17.2489 3.39633 16.9429 3.24381 16.4648C3.17987 14.9299 3.16685 13.3934 3.20475 11.8555C3.25954 10.9853 3.46137 10.152 3.81022 9.35547Z" fill="#F4DBB4"/>
</g>
<g id="Group_9">
<path id="Vector_9" fill-rule="evenodd" clip-rule="evenodd" d="M3.84766 9.35544C5.61188 9.31642 7.3827 9.30341 9.16016 9.31638C9.15344 9.35513 9.16648 9.38114 9.19922 9.3945C9.40754 9.58982 9.6159 9.78513 9.82422 9.98044C10.4232 10.6054 11.0352 11.2174 11.6602 11.8164C11.7904 11.9596 11.9206 12.1028 12.0508 12.2461C11.9095 12.4005 11.7663 12.5568 11.6211 12.7148C11.4648 12.5716 11.3086 12.4284 11.1523 12.2851C10.3971 11.5039 9.62891 10.7356 8.84766 9.98044C8.66027 9.77349 8.46496 9.57165 8.26172 9.37497C6.79043 9.35544 5.31906 9.34892 3.84766 9.35544Z" fill="#4D4C59"/>
</g>
<g id="Group_10">
<path id="Vector_10" fill-rule="evenodd" clip-rule="evenodd" d="M9.19922 9.3945C11.4973 9.35548 13.802 9.34247 16.1133 9.35544C16.1263 9.35544 16.1393 9.35544 16.1523 9.35544C16.2306 9.56396 16.3087 9.77228 16.3867 9.98044C14.1992 9.98044 12.0117 9.98044 9.82422 9.98044C9.6159 9.78513 9.40754 9.58982 9.19922 9.3945Z" fill="#F5DCB4"/>
</g>
<g id="Group_11">
<path id="Vector_11" fill-rule="evenodd" clip-rule="evenodd" d="M8.84618 9.98047C9.62743 10.7357 10.3957 11.5039 11.1509 12.2852C10.5529 13.1761 10.4813 14.1136 10.936 15.0977C11.747 16.3178 12.8472 16.6889 14.2368 16.2109C14.4274 16.1222 14.6097 16.0246 14.7837 15.918C15.2394 16.3477 15.6821 16.7904 16.1118 17.2461C16.0004 17.3029 15.8832 17.3484 15.7602 17.3828C15.1354 17.4023 14.5104 17.4089 13.8852 17.4023C13.8981 18.0732 13.8851 18.7373 13.8462 19.3945C13.8462 18.7305 13.8462 18.0664 13.8462 17.4023C13.3772 17.3958 12.9085 17.4023 12.4399 17.4219C12.1986 17.6013 12.1856 17.7966 12.4009 18.0078C12.5846 18.0124 12.7343 18.084 12.8501 18.2227C12.8761 18.6523 12.8761 19.082 12.8501 19.5117C12.6548 19.3034 12.4595 19.3034 12.2641 19.5117C12.2447 19.6674 12.2381 19.8237 12.2446 19.9805C12.0233 19.9805 11.8019 19.9805 11.5806 19.9805C11.587 19.8237 11.5805 19.6674 11.561 19.5117C11.3657 19.3034 11.1704 19.3034 10.9751 19.5117C10.9556 19.6674 10.9491 19.8237 10.9556 19.9805C10.7342 19.9805 10.5129 19.9805 10.2915 19.9805C10.298 19.8237 10.2915 19.6674 10.272 19.5117C10.0766 19.3034 9.88134 19.3034 9.68602 19.5117C9.66653 19.6674 9.66001 19.8237 9.66649 19.9805C9.44513 19.9805 9.2238 19.9805 9.00243 19.9805C9.00891 19.8237 9.00239 19.6674 8.9829 19.5117C8.78759 19.3034 8.59227 19.3034 8.39696 19.5117C8.37747 19.6674 8.37095 19.8237 8.37743 19.9805C8.15606 19.9805 7.93474 19.9805 7.71337 19.9805C7.71985 19.8237 7.71333 19.6674 7.69384 19.5117C7.49852 19.3034 7.30321 19.3034 7.1079 19.5117C7.08184 19.082 7.08184 18.6523 7.1079 18.2227C7.22368 18.084 7.37341 18.0124 7.55712 18.0078C7.77243 17.7966 7.75942 17.6013 7.51806 17.4219C7.0495 17.4023 6.58075 17.3958 6.11181 17.4023C6.10532 17.1286 6.11181 16.8552 6.13134 16.582C6.16388 16.5495 6.19645 16.5169 6.22899 16.4844C6.57817 16.4398 6.92974 16.4008 7.28368 16.3672C7.45884 16.3332 7.62809 16.2811 7.79149 16.2109C9.05688 15.5285 9.53216 14.4803 9.21727 13.0664C8.66532 11.8035 7.69528 11.1981 6.30712 11.25C6.23552 11.2044 6.17692 11.1458 6.13134 11.0742C6.11552 10.8518 6.12852 10.6305 6.1704 10.4102C6.25759 10.2058 6.40731 10.0691 6.61962 10C7.36169 9.98047 8.10388 9.97395 8.84618 9.98047Z" fill="#F9EAC7"/>
</g>
<g id="Group_12">
<path id="Vector_12" opacity="0.99" fill-rule="evenodd" clip-rule="evenodd" d="M9.82422 9.98047C12.0117 9.98047 14.1992 9.98047 16.3867 9.98047C16.6098 10.5977 16.7335 11.2357 16.7578 11.8945C16.7839 13.3529 16.7839 14.8112 16.7578 16.2695C16.7348 16.4761 16.6632 16.6584 16.543 16.8164C16.5488 16.7753 16.5423 16.7362 16.5234 16.6992C16.0924 16.2747 15.6692 15.845 15.2539 15.4102C15.7069 14.7803 15.8696 14.0772 15.7422 13.3008C15.2945 11.8768 14.3245 11.2062 12.832 11.2891C12.3846 11.3502 11.994 11.526 11.6602 11.8164C11.0352 11.2175 10.4232 10.6055 9.82422 9.98047Z" fill="#F9EAC7"/>
</g>
<g id="Group_13">
<path id="Vector_13" fill-rule="evenodd" clip-rule="evenodd" d="M15.2539 15.4102C15.0977 15.2669 14.9414 15.1237 14.7852 14.9805C15.2933 14.1396 15.2478 13.3323 14.6484 12.5586C14.1322 12.0523 13.5137 11.8505 12.793 11.9531C12.5344 12.0306 12.287 12.1283 12.0508 12.2461C11.9206 12.1028 11.7904 11.9596 11.6602 11.8164C11.994 11.526 12.3846 11.3502 12.832 11.2891C14.3245 11.2062 15.2945 11.8768 15.7422 13.3008C15.8696 14.0772 15.7069 14.7803 15.2539 15.4102Z" fill="#F4DBB3"/>
</g>
<g id="Group_14">
<path id="Vector_14" fill-rule="evenodd" clip-rule="evenodd" d="M6.34802 11.9336C7.59278 11.823 8.36751 12.3698 8.67223 13.5742C8.7379 14.3997 8.43192 15.0443 7.75426 15.5078C6.82462 15.9911 5.99782 15.8544 5.2738 15.0976C4.72684 14.3414 4.68778 13.5602 5.15661 12.7539C5.46571 12.349 5.86286 12.0756 6.34802 11.9336Z" fill="#A08773"/>
</g>
<g id="Group_15">
<path id="Vector_15" fill-rule="evenodd" clip-rule="evenodd" d="M14.786 14.9805C14.6419 15.1375 14.4987 15.2938 14.3563 15.4492C13.7756 15.778 13.1637 15.8496 12.5203 15.6641C11.562 15.1994 11.1649 14.4377 11.3289 13.3789C11.4057 13.1473 11.5033 12.926 11.6219 12.7148C11.7671 12.5568 11.9103 12.4006 12.0516 12.2461C12.2878 12.1283 12.5352 12.0306 12.7938 11.9531C13.5145 11.8505 14.133 12.0523 14.6492 12.5586C15.2486 13.3323 15.2941 14.1396 14.786 14.9805Z" fill="#5B5D6E"/>
</g>
<g id="Group_16">
<path id="Vector_16" fill-rule="evenodd" clip-rule="evenodd" d="M11.154 12.2852C11.3103 12.4284 11.4665 12.5716 11.6228 12.7148C11.5042 12.926 11.4066 13.1473 11.3298 13.3789C11.1658 14.4377 11.5629 15.1994 12.5212 15.6641C13.1646 15.8496 13.7765 15.778 14.3571 15.4492C14.5004 15.6055 14.6436 15.7617 14.7868 15.918C14.6128 16.0246 14.4306 16.1222 14.24 16.2109C12.8504 16.6889 11.7501 16.3178 10.9392 15.0977C10.4845 14.1136 10.5561 13.1761 11.154 12.2852Z" fill="#F3DBB3"/>
</g>
<g id="Group_17">
<path id="Vector_17" fill-rule="evenodd" clip-rule="evenodd" d="M14.7852 14.9805C14.9414 15.1237 15.0977 15.2669 15.2539 15.4102C15.6692 15.845 16.0924 16.2747 16.5234 16.6992C16.5423 16.7363 16.5488 16.7753 16.543 16.8164C16.4396 16.9979 16.2964 17.1411 16.1133 17.2461C15.6836 16.7904 15.2409 16.3477 14.7852 15.918C14.6419 15.7617 14.4987 15.6055 14.3555 15.4492C14.4979 15.2937 14.6411 15.1375 14.7852 14.9805Z" fill="#4B4B58"/>
</g>
<g id="Group_18">
<path id="Vector_18" fill-rule="evenodd" clip-rule="evenodd" d="M9.74427 15.8008C10.1561 15.7313 10.4621 15.8746 10.6622 16.2304C10.7751 16.7728 10.8402 17.3196 10.8576 17.8711C10.812 17.9167 10.7664 17.9622 10.7208 18.0078C10.226 18.0338 9.73127 18.0338 9.23646 18.0078C9.08541 17.8648 9.03982 17.689 9.09974 17.4804C9.15396 17.0619 9.21908 16.6452 9.29506 16.2304C9.39252 16.0294 9.54228 15.8862 9.74427 15.8008Z" fill="#A08773"/>
</g>
<g id="Group_19">
<path id="Vector_19" fill-rule="evenodd" clip-rule="evenodd" d="M13.8462 19.3945C13.8259 19.6833 13.6827 19.8786 13.4165 19.9805C13.0259 19.9805 12.6352 19.9805 12.2446 19.9805C12.2381 19.8237 12.2447 19.6674 12.2641 19.5117C12.4595 19.3034 12.6548 19.3034 12.8501 19.5117C12.8761 19.082 12.8761 18.6523 12.8501 18.2227C12.7343 18.084 12.5846 18.0124 12.4009 18.0078C12.1855 17.7966 12.1986 17.6013 12.4399 17.4219C12.9085 17.4023 13.3772 17.3958 13.8462 17.4023C13.8462 18.0664 13.8462 18.7305 13.8462 19.3945Z" fill="#F5DCB4"/>
</g>
<g id="Group_20">
<path id="Vector_20" fill-rule="evenodd" clip-rule="evenodd" d="M9.00242 19.9805C8.7941 19.9805 8.58575 19.9805 8.37742 19.9805C8.37094 19.8237 8.37746 19.6674 8.39696 19.5117C8.59227 19.3034 8.78758 19.3034 8.98289 19.5117C9.00239 19.6674 9.00891 19.8237 9.00242 19.9805Z" fill="#F5DCB4"/>
</g>
<g id="Group_21">
<path id="Vector_21" fill-rule="evenodd" clip-rule="evenodd" d="M10.2915 19.9805C10.0832 19.9805 9.87481 19.9805 9.66649 19.9805C9.66 19.8237 9.66653 19.6674 9.68602 19.5117C9.88133 19.3034 10.0766 19.3034 10.272 19.5117C10.2914 19.6674 10.298 19.8237 10.2915 19.9805Z" fill="#F5DCB4"/>
</g>
<g id="Group_22">
<path id="Vector_22" fill-rule="evenodd" clip-rule="evenodd" d="M11.5805 19.9805C11.3722 19.9805 11.1639 19.9805 10.9555 19.9805C10.9491 19.8237 10.9556 19.6674 10.9751 19.5117C11.1704 19.3034 11.3657 19.3034 11.561 19.5117C11.5805 19.6674 11.587 19.8237 11.5805 19.9805Z" fill="#F5DCB4"/>
</g>
</g>
<defs>
<clipPath id="clip0_923_6998">
<rect width="20" height="20" fill="white"/>
</clipPath>
</defs>
</svg>
