<svg viewBox="0 0 24 24" fill="none" xmlns="http://www.w3.org/2000/svg">
<path d="M13.5 4.06067C13.5 2.72432 11.8843 2.05506 10.9393 3.00001L6.43934 7.50001H4.50905C3.36772 7.50001 2.19106 8.16445 1.8493 9.40507C1.62147 10.2321 1.5 11.1025 1.5 12C1.5 12.8975 1.62147 13.7679 1.8493 14.595C2.19106 15.8356 3.36772 16.5 4.50905 16.5H6.43934L10.9393 21C11.8843 21.945 13.5 21.2757 13.5 19.9394V4.06067Z" fill="#777777"/>
<path d="M17.7803 9.21967C17.4874 8.92678 17.0126 8.92678 16.7197 9.21967C16.4268 9.51256 16.4268 9.98744 16.7197 10.2803L18.4393 12L16.7197 13.7197C16.4268 14.0126 16.4268 14.4874 16.7197 14.7803C17.0126 15.0732 17.4874 15.0732 17.7803 14.7803L19.5 13.0607L21.2197 14.7803C21.5126 15.0732 21.9874 15.0732 22.2803 14.7803C22.5732 14.4874 22.5732 14.0126 22.2803 13.7197L20.5607 12L22.2803 10.2803C22.5732 9.98744 22.5732 9.51256 22.2803 9.21967C21.9874 8.92678 21.5126 8.92678 21.2197 9.21967L19.5 10.9393L17.7803 9.21967Z" fill="#777777"/>
</svg>
