<svg viewBox="0 0 24 24" fill="none" xmlns="http://www.w3.org/2000/svg">
<g id="heroicons-solid/speaker-wave">
<g id="Union">
<path d="M13.5 4.06067C13.5 2.72432 11.8843 2.05506 10.9393 3.00001L6.43934 7.50001H4.50905C3.36772 7.50001 2.19106 8.16445 1.8493 9.40507C1.62147 10.2321 1.5 11.1025 1.5 12C1.5 12.8975 1.62147 13.7679 1.8493 14.595C2.19106 15.8356 3.36772 16.5 4.50905 16.5H6.43934L10.9393 21C11.8843 21.945 13.5 21.2757 13.5 19.9394V4.06067Z" fill="#777777"/>
<path d="M18.5837 5.10565C18.8766 4.81276 19.3514 4.81276 19.6443 5.10565C23.452 8.91327 23.452 15.0866 19.6443 18.8942C19.3514 19.1871 18.8766 19.1871 18.5837 18.8942C18.2908 18.6013 18.2908 18.1265 18.5837 17.8336C21.8055 14.6118 21.8055 9.38814 18.5837 6.16632C18.2908 5.87342 18.2908 5.39855 18.5837 5.10565Z" fill="#777777"/>
<path d="M15.9323 7.75739C16.2252 7.4645 16.7001 7.4645 16.993 7.75739C19.3361 10.1005 19.3361 13.8995 16.993 16.2427C16.7001 16.5356 16.2252 16.5356 15.9323 16.2427C15.6394 15.9498 15.6394 15.4749 15.9323 15.182C17.6897 13.4247 17.6897 10.5754 15.9323 8.81805C15.6394 8.52516 15.6394 8.05028 15.9323 7.75739Z" fill="#777777"/>
</g>
</g>
</svg>
