<svg viewBox="0 0 20 20" fill="none" xmlns="http://www.w3.org/2000/svg">
<g id="twitter / 24 / Outline">
<path id="Vector" d="M18.3332 4.83333C17.7068 5.10508 17.0444 5.28472 16.3665 5.36667C17.0816 4.93943 17.6176 4.26732 17.8748 3.475C17.2028 3.87505 16.4671 4.15691 15.6998 4.30833C15.187 3.75214 14.504 3.38191 13.758 3.25571C13.012 3.1295 12.2453 3.25446 11.578 3.61099C10.9107 3.96752 10.3806 4.53544 10.0709 5.2257C9.76113 5.91595 9.68925 6.68949 9.8665 7.425C8.50769 7.35627 7.17854 7.00246 5.96538 6.38655C4.75223 5.77064 3.68221 4.90641 2.82484 3.85C2.52412 4.37514 2.3661 4.96985 2.3665 5.575C2.36544 6.13698 2.50335 6.69051 2.76797 7.1863C3.03258 7.68209 3.41569 8.10476 3.88317 8.41667C3.33982 8.40188 2.80808 8.25608 2.33317 7.99167V8.03333C2.33724 8.82074 2.61317 9.58258 3.11427 10.19C3.61537 10.7974 4.31088 11.213 5.08317 11.3667C4.78588 11.4571 4.47723 11.5048 4.1665 11.5083C3.95141 11.5058 3.73686 11.4863 3.52484 11.45C3.74476 12.1273 4.17036 12.7193 4.7424 13.1435C5.31444 13.5676 6.00448 13.803 6.7165 13.8167C5.51417 14.7627 4.02974 15.279 2.49984 15.2833C2.22128 15.2842 1.94295 15.2675 1.6665 15.2333C3.22853 16.2419 5.04885 16.7773 6.90817 16.775C8.19125 16.7883 9.46412 16.5458 10.6524 16.0617C11.8407 15.5776 12.9207 14.8616 13.8292 13.9554C14.7377 13.0493 15.4565 11.9712 15.9436 10.7841C16.4308 9.59702 16.6765 8.32477 16.6665 7.04167C16.6665 6.9 16.6665 6.75 16.6665 6.6C17.3204 6.11234 17.8844 5.51452 18.3332 4.83333Z" fill="#FFE619"/>
</g>
</svg>
