<svg viewBox="0 0 16 16" fill="none" xmlns="http://www.w3.org/2000/svg">
<g id="user">
<g id="Vector">
<path d="M8.0013 7.33333C9.47404 7.33333 10.668 6.13943 10.668 4.66667C10.668 3.19391 9.47404 2 8.0013 2C6.52854 2 5.33464 3.19391 5.33464 4.66667C5.33464 6.13943 6.52854 7.33333 8.0013 7.33333Z" fill="currentColor"/>
<path d="M13.0556 10.986C13.2441 11.2049 13.3346 11.4889 13.3346 11.7777V12.6667C13.3346 13.4031 12.7377 14 12.0013 14H4.0013C3.26492 14 2.66797 13.4031 2.66797 12.6667V11.7777C2.66797 11.4889 2.75848 11.2049 2.94695 10.986C4.16954 9.56587 5.98041 8.66667 8.0013 8.66667C10.0222 8.66667 11.833 9.56587 13.0556 10.986Z" fill="currentColor"/>
</g>
</g>
</svg>
