<svg width="24" height="24" viewBox="0 0 24 24" fill="none" xmlns="http://www.w3.org/2000/svg">
<g id="heroicons-solid/wifi">
<path id="Vector (Stroke)" fill-rule="evenodd" clip-rule="evenodd" d="M1.37104 8.1434C7.2289 2.28553 16.7264 2.28553 22.5842 8.1434C22.8771 8.43628 22.8771 8.91114 22.5843 9.20404L22.0539 9.73441C21.9133 9.87507 21.7225 9.9541 21.5236 9.9541C21.3247 9.95411 21.1339 9.87509 20.9932 9.73443C16.0141 4.75525 7.94121 4.75525 2.96203 9.73443C2.82137 9.87509 2.6306 9.95411 2.43168 9.9541C2.23276 9.9541 2.04199 9.87507 1.90134 9.73441L1.37101 9.20404C1.07814 8.91114 1.07815 8.43628 1.37104 8.1434ZM4.55302 11.3254C8.65352 7.22493 15.3018 7.22493 19.4023 11.3254C19.6951 11.6183 19.6952 12.0932 19.4023 12.3861L18.872 12.9164C18.7313 13.0571 18.5405 13.1361 18.3416 13.1361C18.1427 13.1361 17.9519 13.0571 17.8113 12.9164C14.5895 9.6946 9.36586 9.6946 6.14403 12.9164C5.85114 13.2093 5.37628 13.2093 5.08338 12.9164L4.55303 12.3861C4.41237 12.2455 4.33335 12.0547 4.33335 11.8558C4.33335 11.6569 4.41236 11.4661 4.55302 11.3254ZM7.75708 14.5074C10.1002 12.1642 13.8992 12.1642 16.2424 14.5074C16.5353 14.8003 16.5353 15.2751 16.2424 15.568L15.712 16.0983C15.5714 16.239 15.3806 16.318 15.1817 16.318C14.9828 16.318 14.792 16.239 14.6514 16.0983C13.1869 14.6339 10.8125 14.6339 9.34807 16.0983C9.05518 16.3912 8.58031 16.3912 8.28742 16.0983L7.75708 15.568C7.46419 15.2751 7.46419 14.8003 7.75708 14.5074ZM10.9391 17.6893C11.5249 17.1036 12.4746 17.1036 13.0604 17.6893C13.3533 17.9822 13.3533 18.4571 13.0604 18.75L12.5301 19.2803C12.3894 19.421 12.1986 19.5 11.9997 19.5C11.8008 19.5 11.61 19.421 11.4694 19.2803L10.9391 18.75C10.6462 18.4571 10.6462 17.9822 10.9391 17.6893Z" fill="#7EFF19"/>
</g>
</svg>
